<svg width="180" height="156" viewBox="0 0 180 156" fill="none" xmlns="http://www.w3.org/2000/svg">
<path opacity="0.2" d="M32.7127 154.499L2.086 136.811C-0.538398 135.289 -0.223473 132.638 2.82083 130.88L136.035 53.5911C137.596 52.718 139.34 52.2228 141.126 52.1453C142.913 52.0679 144.693 52.4102 146.323 53.1449L177.055 70.8596C179.679 72.3555 179.364 75.0324 176.32 76.7908L43.0529 154.079C41.4836 154.957 39.7295 155.452 37.933 155.525C36.1365 155.598 34.3481 155.247 32.7127 154.499Z" fill="#92B4D1"/>
<path d="M8.04339 106.683C8.00625 106.699 7.966 106.708 7.9253 106.708C7.88459 106.708 7.84434 106.699 7.80719 106.683L6.20632 104.504C5.73836 103.855 5.49008 103.074 5.49773 102.274V97.681C5.49106 96.8428 5.76719 96.0268 6.28148 95.3649C6.79578 94.703 7.51821 94.2338 8.33208 94.0331L10.7465 93.4032C10.8195 93.3873 10.8958 93.4003 10.9595 93.4394C11.0231 93.4786 11.069 93.5408 11.0877 93.6132C11.0953 93.6477 11.0959 93.6834 11.0894 93.7181C11.0829 93.7529 11.0694 93.786 11.0498 93.8154C11.0302 93.8448 11.0048 93.8699 10.9753 93.8893C10.9457 93.9087 10.9125 93.9219 10.8777 93.9281L8.46329 94.5317C7.76277 94.7079 7.14158 95.1139 6.69909 95.6849C6.25661 96.2558 6.01842 96.9587 6.02261 97.681V102.169C6.01882 102.859 6.23992 103.531 6.65246 104.085L8.25335 106.263C8.29601 106.315 8.31934 106.379 8.31934 106.447C8.31934 106.514 8.29601 106.578 8.25335 106.63C8.22841 106.66 8.19465 106.681 8.15692 106.691C8.11919 106.7 8.07944 106.697 8.04339 106.683Z" fill="#A8CFF0"/>
<path d="M6.73122 103.402L5.41902 102.694C5.11171 102.457 4.86055 102.156 4.68358 101.811C4.50661 101.466 4.40823 101.086 4.39551 100.699V96.7624C4.39551 96.0014 4.84165 95.6602 5.41902 95.9751L6.73122 96.7362C7.04337 96.9698 7.29954 97.27 7.48113 97.615C7.66271 97.96 7.76515 98.3412 7.78099 98.7307V102.694C7.78099 103.376 7.30859 103.743 6.73122 103.402Z" fill="#A8CFF0"/>
<path d="M6.73123 96.71L5.41903 95.9489C5.30531 95.8527 5.16119 95.8 5.01225 95.8C4.8633 95.8 4.71918 95.8527 4.60547 95.9489C4.75947 95.9022 4.92386 95.9022 5.07786 95.9489L6.36381 96.71C6.67596 96.9436 6.93213 97.2438 7.11372 97.5888C7.2953 97.9338 7.39774 98.315 7.41358 98.7046V102.694C7.42598 102.959 7.3421 103.22 7.17738 103.428C7.51855 103.428 7.78099 103.061 7.78099 102.51V98.7046C7.76515 98.315 7.66272 97.9338 7.48113 97.5888C7.29955 97.2438 7.04337 96.9436 6.73123 96.71Z" fill="#72B5E8"/>
<path d="M107.561 97.681V104.924L131.941 90.7788V83.5617L107.561 97.681Z" fill="#03336E"/>
<path d="M107.561 97.681V104.924L100.711 101.014V93.7707L107.561 97.681Z" fill="#084C94"/>
<path d="M100.711 93.7706L107.561 97.681L131.941 83.5617L125.092 79.6514L100.711 93.7706Z" fill="#2672AB"/>
<path d="M177.055 56.7929V66.0045L177.973 65.2959V56.1105L177.055 56.7929Z" fill="#03336E"/>
<path d="M177.055 56.7929V66.0045L155.115 53.6699V44.4582L177.055 56.7929Z" fill="#084C94"/>
<path d="M155.115 44.4582L177.055 56.7929L177.973 56.1105L156.007 43.7758L155.115 44.4582Z" fill="#2672AB"/>
<path d="M172.252 59.1548V72.8804L169.864 71.5419V57.7376L172.252 59.1548Z" fill="#A8CFF0"/>
<path d="M152.543 76.8695C152.444 77.7862 152.589 78.7128 152.962 79.5559C153.335 80.399 153.924 81.1289 154.669 81.6722L158.868 84.1129C160.232 84.874 159.366 83.1418 161.492 81.9346C163.696 80.4966 165.529 78.5587 166.842 76.2785C168.156 73.9983 168.912 71.4403 169.05 68.8126C169.05 66.4507 171.255 66.4244 169.916 65.6371L165.455 63.1702C164.607 62.794 163.675 62.6493 162.753 62.7507C161.831 62.8522 160.952 63.1961 160.206 63.7475C157.98 65.1707 156.124 67.1027 154.792 69.3842C153.459 71.6658 152.689 74.2315 152.543 76.8695Z" fill="#084C94"/>
<path d="M156.926 79.3627C156.926 84.1654 160.311 86.0812 164.51 83.6667C166.714 82.2287 168.547 80.2908 169.86 78.0106C171.174 75.7304 171.93 73.1724 172.068 70.5447C172.068 65.7421 168.683 63.8263 164.51 66.2407C162.299 67.6727 160.458 69.6086 159.14 71.8896C157.821 74.1706 157.063 76.7317 156.926 79.3627Z" fill="#03336E"/>
<path d="M164.143 66.1095C164.892 65.5662 165.767 65.2233 166.685 65.113C167.604 65.0028 168.535 65.129 169.391 65.4796C168.618 65.311 167.818 65.3032 167.042 65.4567C166.265 65.6102 165.529 65.9217 164.877 66.3719C162.663 67.8008 160.82 69.7359 159.502 72.0176C158.183 74.2992 157.426 76.8619 157.293 79.4939C157.193 80.4608 157.363 81.4364 157.785 82.3122C158.206 83.188 158.863 83.9295 159.681 84.454C158.653 84.055 157.791 83.3178 157.238 82.3638C156.685 81.4098 156.473 80.2958 156.637 79.2052C156.769 76.5857 157.518 74.0344 158.822 71.7588C160.126 69.4833 161.949 67.5477 164.143 66.1095Z" fill="#2672AB"/>
<path d="M164.563 69.7311C163.14 70.657 161.955 71.9041 161.102 73.3719C160.25 74.8397 159.754 76.4872 159.655 78.1817C159.655 81.2785 161.86 82.5382 164.563 80.9635C165.986 80.0448 167.173 78.803 168.025 77.3391C168.878 75.8752 169.373 74.2306 169.47 72.5392C169.47 69.4424 167.266 68.1827 164.563 69.7311Z" fill="#A8CFF0"/>
<path d="M167.738 69.2588C168.152 69.6275 168.474 70.0875 168.679 70.6022C168.884 71.1169 168.966 71.6723 168.919 72.2244C168.811 73.9258 168.303 75.5779 167.437 77.0462C166.57 78.5145 165.37 79.7578 163.933 80.6749C163.478 80.9866 162.958 81.1911 162.412 81.2729C161.867 81.3547 161.31 81.3118 160.783 81.1473C161.346 81.4967 162.001 81.6663 162.662 81.6335C163.324 81.6006 163.959 81.367 164.484 80.9636C165.907 80.0449 167.094 78.8031 167.947 77.3392C168.799 75.8753 169.294 74.2307 169.391 72.5393C169.482 71.8892 169.372 71.227 169.077 70.6409C168.782 70.0548 168.315 69.5727 167.738 69.2588Z" fill="#72B5E8"/>
<path d="M161.308 76.6595C161.308 78.2866 162.463 78.9165 163.933 78.1029C164.672 77.6422 165.294 77.0159 165.749 76.2735C166.205 75.5311 166.481 74.6929 166.557 73.8252C166.557 72.198 165.402 71.5682 163.933 72.3817C163.196 72.8455 162.576 73.4725 162.121 74.2144C161.666 74.9562 161.388 75.7929 161.308 76.6595Z" fill="#3F92D1"/>
<path d="M161.833 76.8957C161.833 78.5229 162.988 79.179 164.458 78.3654C165.211 77.8886 165.841 77.2409 166.297 76.4748C166.753 75.7088 167.022 74.8459 167.082 73.9564C167.082 72.3293 165.927 71.6732 164.458 72.4867C163.704 72.9635 163.074 73.6112 162.618 74.3773C162.162 75.1434 161.893 76.0062 161.833 76.8957Z" fill="#2672AB"/>
<path d="M136.14 86.501C136.042 87.4177 136.186 88.3443 136.559 89.1874C136.932 90.0305 137.521 90.7604 138.266 91.3037L142.465 93.7444C143.83 94.5054 142.937 92.7733 145.089 91.5661C147.293 90.1281 149.126 88.1902 150.44 85.91C151.753 83.6298 152.51 81.0718 152.648 78.4441C152.648 76.0822 154.852 76.0559 153.514 75.2686L149.052 72.8017C148.2 72.446 147.271 72.3125 146.353 72.4134C145.435 72.5144 144.558 72.8466 143.804 73.379C141.58 74.8053 139.727 76.7381 138.395 79.019C137.063 81.2999 136.29 83.8639 136.14 86.501Z" fill="#084C94"/>
<path d="M140.523 88.9942C140.523 93.7968 143.909 95.7389 148.081 93.2982C150.296 91.8694 152.139 89.9342 153.457 87.6526C154.776 85.3709 155.533 82.8082 155.666 80.1762C155.666 75.3736 152.28 73.4315 148.081 75.8459C145.874 77.2866 144.039 79.2286 142.726 81.5137C141.412 83.7987 140.657 86.3619 140.523 88.9942Z" fill="#03336E"/>
<path d="M147.74 75.741C148.489 75.1978 149.364 74.8548 150.283 74.7445C151.201 74.6343 152.133 74.7605 152.989 75.1111C152.216 74.9425 151.416 74.9347 150.639 75.0882C149.863 75.2417 149.126 75.5532 148.475 76.0034C146.264 77.4354 144.423 79.3713 143.105 81.6523C141.786 83.9333 141.027 86.4944 140.89 89.1254C140.79 90.0923 140.96 91.0679 141.382 91.9437C141.804 92.8195 142.46 93.561 143.279 94.0855C142.251 93.6865 141.389 92.9493 140.836 91.9953C140.282 91.0413 140.07 89.9273 140.234 88.8367C140.367 86.2172 141.115 83.6659 142.42 81.3904C143.724 79.1148 145.547 77.1792 147.74 75.741Z" fill="#2672AB"/>
<path d="M148.186 79.3889C146.763 80.3076 145.577 81.5495 144.724 83.0134C143.871 84.4773 143.376 86.1218 143.279 87.8133C143.279 90.91 145.483 92.1698 148.186 90.6214C149.606 89.6941 150.787 88.4461 151.635 86.9781C152.483 85.5102 152.974 83.8634 153.068 82.1708C153.042 79.074 150.811 77.8143 148.186 79.3889Z" fill="#A8CFF0"/>
<path d="M151.309 78.8903C151.726 79.2577 152.052 79.7167 152.261 80.2313C152.471 80.7458 152.558 81.3019 152.517 81.8558C152.419 83.5508 151.924 85.1991 151.072 86.6672C150.219 88.1353 149.033 89.382 147.609 90.3064C147.155 90.6208 146.636 90.8288 146.091 90.9152C145.546 91.0015 144.988 90.9639 144.46 90.8051C145.029 91.1462 145.687 91.3109 146.351 91.2782C147.014 91.2455 147.653 91.0169 148.186 90.6213C149.605 89.694 150.787 88.446 151.635 86.9781C152.483 85.5102 152.973 83.8634 153.068 82.1708C153.153 81.5089 153.029 80.8369 152.714 80.2488C152.399 79.6606 151.908 79.1856 151.309 78.8903Z" fill="#72B5E8"/>
<path d="M145.011 86.2911C145.011 87.9182 146.139 88.5743 147.635 87.7607C148.389 87.284 149.019 86.6362 149.475 85.8701C149.931 85.1041 150.2 84.2412 150.26 83.3517C150.26 81.7246 149.105 81.0685 147.635 81.8821C146.878 82.354 146.244 83.0006 145.787 83.7677C145.331 84.5347 145.064 85.4 145.011 86.2911Z" fill="#3F92D1"/>
<path d="M145.562 86.5536C145.562 88.1544 146.717 88.8105 148.186 87.997C148.943 87.5234 149.575 86.8764 150.031 86.1097C150.488 85.343 150.755 84.4785 150.811 83.588C150.811 81.9609 149.656 81.3048 148.186 82.1446C147.433 82.6213 146.803 83.2691 146.347 84.0351C145.891 84.8012 145.622 85.664 145.562 86.5536Z" fill="#2672AB"/>
<path d="M136.534 79.7563V93.4819L138.975 92.0647V81.1472L172.226 61.9629V72.8804L174.667 71.4632V57.7376L136.534 79.7563Z" fill="#72B5E8"/>
<path d="M136.508 79.7826V93.5082L134.146 92.1698V78.3654L136.508 79.7826Z" fill="#A8CFF0"/>
<path d="M111.576 103.717L112.809 104.452L133.07 92.7996L131.81 92.091L111.576 103.717Z" fill="#D1EBFF"/>
<path d="M133.096 85.3726V92.7996L131.81 92.091V84.6115L133.096 85.3726Z" fill="#A8CFF0"/>
<path d="M110.972 97.1298V107.627L135.064 93.7969V83.2993L110.972 97.1298ZM133.07 92.7209L112.836 104.452V98.2059L133.07 86.5535V92.7209Z" fill="#72B5E8"/>
<path d="M110.999 97.1299V107.706L109.424 106.893V96.2638L110.999 97.1299Z" fill="#A8CFF0"/>
<path d="M88.14 114.398C88.0413 115.315 88.1858 116.242 88.559 117.085C88.9322 117.928 89.5209 118.658 90.2658 119.201L94.4648 121.642C95.8295 122.403 94.9635 120.671 97.0892 119.464C99.2929 118.025 101.126 116.088 102.439 113.807C103.753 111.527 104.509 108.969 104.648 106.342C104.648 103.98 106.852 103.953 105.514 103.166L100.947 100.752C100.096 100.391 99.1663 100.255 98.2474 100.356C97.3285 100.457 96.4508 100.792 95.6983 101.329C93.4986 102.759 91.6676 104.688 90.3542 106.959C89.0408 109.23 88.2822 111.779 88.14 114.398Z" fill="#084C94"/>
<path d="M92.5228 116.892C92.5228 121.694 95.9083 123.61 100.107 121.196C102.311 119.758 104.144 117.82 105.457 115.539C106.771 113.259 107.527 110.701 107.666 108.074C107.666 103.297 104.28 101.355 100.107 103.77C97.8959 105.202 96.0554 107.137 94.737 109.418C93.4186 111.699 92.6598 114.261 92.5228 116.892Z" fill="#03336E"/>
<path d="M99.7399 103.638C100.489 103.095 101.364 102.752 102.283 102.642C103.201 102.532 104.133 102.658 104.989 103.009C104.215 102.841 103.416 102.834 102.639 102.988C101.863 103.141 101.126 103.452 100.475 103.901C98.2633 105.333 96.4228 107.269 95.1044 109.55C93.786 111.831 93.0272 114.392 92.8902 117.023C92.795 117.985 92.9677 118.956 93.3891 119.826C93.8106 120.697 94.4644 121.434 95.2784 121.957C93.4413 121.458 92.2341 119.621 92.2341 116.708C92.3705 114.093 93.1211 111.547 94.4251 109.276C95.7292 107.005 97.55 105.074 99.7399 103.638Z" fill="#2672AB"/>
<path d="M100.16 107.26C98.7234 108.196 97.5296 109.46 96.6764 110.947C95.8233 112.435 95.3352 114.103 95.2522 115.816C95.2522 118.912 97.4567 120.172 100.16 118.624C101.582 117.698 102.768 116.451 103.62 114.983C104.472 113.515 104.968 111.868 105.067 110.173C105.067 106.971 102.863 105.712 100.16 107.26Z" fill="#A8CFF0"/>
<path d="M103.335 106.788C103.749 107.156 104.071 107.616 104.276 108.131C104.481 108.646 104.563 109.201 104.516 109.753C104.416 111.444 103.923 113.089 103.075 114.556C102.228 116.023 101.05 117.272 99.635 118.204C99.1751 118.516 98.6509 118.721 98.1011 118.802C97.5514 118.884 96.9903 118.841 96.4595 118.676C97.0292 119.011 97.6863 119.168 98.3459 119.126C99.0055 119.083 99.6373 118.845 100.16 118.44C101.582 117.514 102.768 116.267 103.62 114.799C104.473 113.331 104.968 111.684 105.067 109.989C105.131 109.344 105 108.694 104.691 108.124C104.382 107.553 103.91 107.088 103.335 106.788Z" fill="#72B5E8"/>
<path d="M97.0105 114.189C97.0105 115.816 98.1652 116.472 99.6349 115.632C100.391 115.158 101.024 114.511 101.48 113.745C101.936 112.978 102.204 112.113 102.259 111.223C102.259 109.622 101.105 108.966 99.6349 109.78C98.8816 110.256 98.2513 110.904 97.7953 111.67C97.3393 112.436 97.0704 113.299 97.0105 114.189Z" fill="#3F92D1"/>
<path d="M97.4304 114.451C97.4304 116.052 98.5852 116.708 100.055 115.894C100.813 115.422 101.446 114.776 101.903 114.009C102.359 113.242 102.626 112.376 102.679 111.485C102.679 109.858 101.551 109.202 100.055 110.016C99.298 110.495 98.6656 111.147 98.2095 111.918C97.7533 112.689 97.4863 113.557 97.4304 114.451Z" fill="#2672AB"/>
<path d="M60.5839 126.444V136.995L92.2079 118.729V108.284L60.5839 126.444Z" fill="#72B5E8"/>
<g style="mix-blend-mode:multiply">
<path d="M83.2062 113.532V123.689L83.7048 123.426V113.244L83.2062 113.532Z" fill="#A8CFF0"/>
</g>
<path d="M83.7048 113.244V123.426L83.9935 123.269V113.06L83.7048 113.244Z" fill="#A8CFF0"/>
<g style="mix-blend-mode:multiply">
<path d="M60.5839 129.148V136.181L81.5791 124.004C81.5827 123.296 81.3991 122.6 81.047 121.985C80.6948 121.371 80.1866 120.861 79.5738 120.507C78.961 120.153 78.2654 119.967 77.5575 119.968C76.8496 119.969 76.1546 120.157 75.5429 120.513L60.5839 129.148Z" fill="#A8CFF0"/>
</g>
<g style="mix-blend-mode:multiply">
<path d="M75.6217 120.513L60.5839 129.148V130.092L75.6217 121.458C76.1691 121.142 76.7833 120.96 77.4145 120.926C78.0457 120.892 78.6759 121.008 79.2539 121.264C79.8319 121.519 80.3414 121.908 80.7409 122.398C81.1403 122.888 81.4185 123.465 81.5528 124.082C81.5599 123.383 81.3841 122.694 81.043 122.084C80.7019 121.473 80.2073 120.962 79.608 120.602C79.0088 120.241 78.3258 120.043 77.6266 120.028C76.9274 120.012 76.2363 120.18 75.6217 120.513Z" fill="#A8CFF0"/>
</g>
<path d="M60.6101 126.444V136.994L35.6521 122.796V112.168L60.6101 126.444Z" fill="#A8CFF0"/>
<path d="M35.6521 112.168L60.6101 126.444L92.2079 108.284L67.2236 94.0331L35.6521 112.168Z" fill="#D1EBFF"/>
<path d="M178.682 18.3716V56.5829L64.9141 122.718V84.4015L178.682 18.3716Z" fill="#084C94"/>
<path opacity="0.3" d="M176.897 21.4946L66.725 85.4513V119.595L176.897 55.5331V21.4946Z" fill="#2672AB"/>
<path d="M175.743 55.087V22.1507L176.897 21.4946V55.5331L66.725 119.595V118.492L175.743 55.087Z" fill="#03336E"/>
<path d="M64.9404 84.4015V122.718L33.7363 104.977V66.5819L64.9404 84.4015Z" fill="#2672AB"/>
<path d="M33.7363 66.5819L64.9404 84.4016L178.682 18.3716L147.452 0.578201L33.7363 66.5819Z" fill="#3F92D1"/>
<g opacity="0.3">
<path d="M69.7168 84.5327L69.2181 84.8214V116.997L69.7168 116.708V84.5327Z" fill="#03336E"/>
<path d="M74.1782 81.9346L73.6796 82.2495V114.425L74.1782 114.11V81.9346Z" fill="#03336E"/>
<path d="M78.6135 79.3627L78.1149 79.6776V111.853L78.6135 111.538V79.3627Z" fill="#03336E"/>
<path d="M83.0749 76.7908L82.5763 77.0795V109.255L83.0749 108.966V76.7908Z" fill="#03336E"/>
<path d="M87.5365 74.1926L87.0116 74.5075V106.683L87.5365 106.368V74.1926Z" fill="#03336E"/>
<path d="M91.9717 71.6207L91.473 71.9356V104.111L91.9717 103.796V71.6207Z" fill="#03336E"/>
<path d="M96.4331 69.0488L95.9344 69.3637V101.513L96.4331 101.224V69.0488Z" fill="#03336E"/>
<path d="M100.868 66.4506L100.37 66.7656V98.9407L100.868 98.6258V66.4506Z" fill="#03336E"/>
<path d="M105.33 63.8787L104.831 64.1937V96.3688L105.33 96.0539V63.8787Z" fill="#03336E"/>
<path d="M109.791 61.3068L109.293 61.5955V93.7969L109.791 93.4819V61.3068Z" fill="#03336E"/>
<path d="M114.227 58.7086L113.728 59.0236V91.1987L114.227 90.8838V58.7086Z" fill="#03336E"/>
<path d="M118.688 56.1367L118.189 56.4517V88.6268L118.688 88.3119V56.1367Z" fill="#03336E"/>
<path d="M123.15 53.5648L122.625 53.8798V86.0549L123.15 85.74V53.5648Z" fill="#03336E"/>
<path d="M127.585 50.9929L127.086 51.2816V83.4568L127.585 83.1418V50.9929Z" fill="#03336E"/>
<path d="M132.046 48.3948L131.548 48.7097V80.8848L132.046 80.5699V48.3948Z" fill="#03336E"/>
<path d="M136.481 45.8229L135.983 46.1378V78.3129L136.481 77.998V45.8229Z" fill="#03336E"/>
<path d="M140.943 43.2247L140.444 43.5396V75.7148L140.943 75.4261V43.2247Z" fill="#03336E"/>
<path d="M145.404 40.6528L144.906 40.9677V73.1428L145.404 72.8279V40.6528Z" fill="#03336E"/>
<path d="M149.84 38.0809L149.341 38.3958V70.571L149.84 70.256V38.0809Z" fill="#03336E"/>
<path d="M154.301 35.4827L153.802 35.7976V67.9728L154.301 67.6841V35.4827Z" fill="#03336E"/>
<path d="M158.763 32.9108L158.238 33.2257V65.4009L158.763 65.0859V32.9108Z" fill="#03336E"/>
<path d="M163.198 30.3389L162.699 30.6538V62.829L163.198 62.514V30.3389Z" fill="#03336E"/>
<path d="M167.659 27.767L167.161 28.0557V60.2308L167.659 59.9159V27.767Z" fill="#03336E"/>
<path d="M172.095 25.1688L171.596 25.4838V57.6589L172.095 57.344V25.1688Z" fill="#03336E"/>
</g>
<g opacity="0.3">
<path d="M70.2417 83.8504L69.743 84.1653V116.314L70.2417 116.026V83.8504Z" fill="#3F92D1"/>
<path d="M74.7032 81.2523L74.1783 81.5672V113.742L74.7032 113.427V81.2523Z" fill="#3F92D1"/>
<path d="M79.1384 78.6803L78.6398 78.9953V111.17L79.1384 110.855V78.6803Z" fill="#3F92D1"/>
<path d="M83.5998 76.1084L83.1012 76.4233V108.598L83.5998 108.284V76.1084Z" fill="#3F92D1"/>
<path d="M88.0351 73.5365L87.5365 73.8252V106L88.0351 105.685V73.5365Z" fill="#3F92D1"/>
<path d="M92.4966 70.9384L91.9979 71.2533V103.428L92.4966 103.114V70.9384Z" fill="#3F92D1"/>
<path d="M96.9581 68.3664L96.4332 68.6814V100.857L96.9581 100.542V68.3664Z" fill="#3F92D1"/>
<path d="M101.393 65.7945L100.895 66.0832V98.2584L101.393 97.9434V65.7945Z" fill="#3F92D1"/>
<path d="M105.855 63.1964L105.356 63.5113V95.6865L105.855 95.3715V63.1964Z" fill="#3F92D1"/>
<path d="M110.29 60.6245L109.791 60.9394V93.1145L110.29 92.7996V60.6245Z" fill="#3F92D1"/>
<path d="M114.752 58.0526L114.253 58.3413V90.5164L114.752 90.2277V58.0526Z" fill="#3F92D1"/>
<path d="M119.213 55.4544L118.714 55.7693V87.9445L119.213 87.6296V55.4544Z" fill="#3F92D1"/>
<path d="M123.648 52.8825L123.15 53.1974V85.3726L123.648 85.0576V52.8825Z" fill="#3F92D1"/>
<path d="M128.11 50.3106L127.611 50.5993V82.7744L128.11 82.4857V50.3106Z" fill="#3F92D1"/>
<path d="M132.571 47.7124L132.046 48.0273V80.2025L132.571 79.8876V47.7124Z" fill="#3F92D1"/>
<path d="M137.006 45.1405L136.508 45.4554V77.6306L137.006 77.3156V45.1405Z" fill="#3F92D1"/>
<path d="M141.468 42.5686L140.969 42.8573V75.0324L141.468 74.7437V42.5686Z" fill="#3F92D1"/>
<path d="M145.929 39.9704L145.405 40.2854V72.4605L145.929 72.1456V39.9704Z" fill="#3F92D1"/>
<path d="M150.365 37.3985L149.866 37.7135V69.8886L150.365 69.5737V37.3985Z" fill="#3F92D1"/>
<path d="M154.826 34.8266L154.301 35.1153V67.3167L154.826 67.0018V34.8266Z" fill="#3F92D1"/>
<path d="M159.261 32.2285L158.763 32.5434V64.7185L159.261 64.4036V32.2285Z" fill="#3F92D1"/>
<path d="M163.723 29.6565L163.224 29.9715V62.1466L163.723 61.8317V29.6565Z" fill="#3F92D1"/>
<path d="M168.184 27.0846L167.659 27.3996V59.5485L168.184 59.2598V27.0846Z" fill="#3F92D1"/>
<path d="M172.619 24.4865L172.121 24.8014V56.9766L172.619 56.6616V24.4865Z" fill="#3F92D1"/>
</g>
<path d="M33.7888 78.2342L13.266 90.1752C12.022 90.8853 10.9345 91.8396 10.0686 92.9806C9.20265 94.1216 8.5763 95.4258 8.22713 96.815L5.3403 108.179C4.46537 111.609 4.02453 115.136 4.0281 118.676V131.982L33.2902 148.542V136.706C33.2851 132.378 33.949 128.076 35.2585 123.951L38.9851 112.141C39.7999 109.59 41.5416 107.436 43.8665 106.105L63.0508 94.8204L33.7888 78.2342Z" fill="#A8CFF0"/>
<path d="M33.2902 136.575V148.463L49.0366 139.488L50.2438 132.559L63.1558 124.896V94.8204L43.8927 106.053C41.5489 107.373 39.8015 109.544 39.0114 112.115L35.3372 123.925C34.0117 128.012 33.3213 132.278 33.2902 136.575Z" fill="#72B5E8"/>
<path d="M33.6838 136.496C33.6855 132.205 34.3404 127.94 35.6259 123.846L39.3 112.063C40.1155 109.497 41.8678 107.332 44.2077 106L62.8409 95.1354V94.6367L43.6041 105.869C41.2503 107.185 39.493 109.355 38.6964 111.932L35.0223 123.689C33.7368 127.782 33.0819 132.048 33.0802 136.338V148.253L33.6838 147.886V136.496Z" fill="#D1EBFF"/>
<path d="M40.586 112.693L36.8856 124.476C36.83 124.657 36.8298 124.849 36.8849 125.03C36.9401 125.211 37.048 125.37 37.1949 125.489C37.3417 125.608 37.5208 125.68 37.7089 125.696C37.897 125.711 38.0856 125.671 38.2503 125.578L49.8501 118.807C50.2172 118.578 50.5219 118.262 50.7371 117.886C50.9523 117.511 51.0713 117.088 51.0836 116.655V106.971C51.0828 106.806 51.0385 106.644 50.9553 106.501C50.872 106.358 50.7527 106.239 50.6092 106.157C50.4657 106.074 50.3031 106.031 50.1376 106.031C49.9722 106.031 49.8097 106.075 49.6664 106.158L42.4755 110.357C41.5842 110.869 40.9118 111.691 40.586 112.666V112.693Z" fill="#03336E"/>
<path d="M50.2438 106.027C50.375 106.111 50.4823 106.228 50.5558 106.366C50.6293 106.504 50.6664 106.658 50.6637 106.814V116.498C50.6515 116.931 50.5325 117.353 50.3173 117.729C50.1021 118.104 49.7974 118.421 49.4303 118.65L37.9616 125.421C37.8149 125.456 37.6622 125.456 37.5155 125.421C37.6612 125.512 37.8294 125.56 38.001 125.56C38.1726 125.56 38.3408 125.512 38.4865 125.421L50.0864 118.65C50.4535 118.421 50.7582 118.104 50.9734 117.729C51.1886 117.353 51.3076 116.931 51.3198 116.498V106.971C51.3211 106.835 51.2931 106.701 51.2377 106.577C51.1822 106.453 51.1006 106.342 50.9985 106.252C50.8963 106.163 50.776 106.096 50.6458 106.057C50.5156 106.018 50.3785 106.008 50.2438 106.027Z" fill="#001A46"/>
<path d="M28.3038 127.311V131.562C28.2996 132.62 28.0185 133.659 27.4884 134.575C26.9582 135.491 26.1975 136.252 25.2819 136.783C24.3664 137.314 23.3278 137.596 22.2695 137.6C21.2112 137.605 20.1701 137.333 19.2496 136.811L15.0506 134.396C12.7937 133.106 10.918 131.241 9.61376 128.992C8.30947 126.743 7.62287 124.189 7.62354 121.589V115.291L28.3038 127.311Z" fill="#3F92D1"/>
<path d="M22.2152 136.128C21.4484 136.124 20.6967 135.915 20.0369 135.525L15.8379 133.137C13.8256 131.987 12.1537 130.325 10.992 128.32C9.83039 126.315 9.2205 124.038 9.22438 121.72V116.813L26.6504 126.838V131.562C26.668 132.155 26.5662 132.746 26.3512 133.3C26.1362 133.853 25.8123 134.357 25.3987 134.783C24.9851 135.209 24.4902 135.548 23.9433 135.779C23.3965 136.01 22.8088 136.129 22.2152 136.128Z" fill="#03336E"/>
<path d="M22.6613 136.023C21.8864 136.018 21.1263 135.81 20.4568 135.42L16.284 133.032C14.2669 131.886 12.5897 130.225 11.4233 128.22C10.2569 126.214 9.64303 123.935 9.64428 121.615V117.049L9.25063 116.813V121.72C9.24674 124.038 9.85663 126.315 11.0183 128.32C12.1799 130.325 13.8519 131.987 15.8641 133.137L20.0632 135.525C20.723 135.915 21.4747 136.124 22.2414 136.128C22.6611 136.125 23.0775 136.054 23.4749 135.918C23.2101 135.992 22.9361 136.027 22.6613 136.023Z" fill="#001A46"/>
<path d="M11.4026 128.938L23.5273 135.918C23.825 135.818 24.1146 135.696 24.3934 135.551L10.6678 127.678C10.904 128.098 11.1402 128.544 11.4026 128.938ZM9.74924 125.29L25.7056 134.475C25.8605 134.275 26.0009 134.065 26.1255 133.845L9.51305 124.292C9.56686 124.63 9.64581 124.964 9.74924 125.29ZM9.25061 121.72C9.23752 121.921 9.23752 122.123 9.25061 122.324L26.6241 132.297C26.6384 132.087 26.6384 131.877 26.6241 131.667V131.562L9.19812 121.537L9.25061 121.72ZM9.25061 118.755V119.595L26.6766 129.646V128.78L9.25061 118.755Z" fill="#3F92D1"/>
<path d="M10.8778 128.045L23.9998 135.682H24.2622L10.5366 127.809C10.7466 127.809 10.8253 127.914 10.8778 128.045Z" fill="#72B5E8"/>
<path d="M9.56555 124.607L25.9943 134.055C26.0283 133.98 26.0725 133.909 26.1255 133.845L9.51306 124.293C9.51306 124.293 9.56555 124.502 9.56555 124.607Z" fill="#72B5E8"/>
<path d="M9.25061 121.721L26.6766 131.746V131.562L9.25061 121.537V121.721Z" fill="#72B5E8"/>
<path d="M9.25061 118.755V119.017L26.6766 129.043V128.78L9.25061 118.755Z" fill="#72B5E8"/>
<path d="M32.2665 125.71C31.9741 125.705 31.6866 125.634 31.4267 125.5L7.80712 112.01C7.2554 111.697 6.821 111.212 6.56995 110.63C6.31889 110.047 6.26491 109.398 6.41619 108.782L9.38177 97.0774C9.5364 96.4729 9.74726 95.8842 10.0116 95.319C10.0726 95.1874 10.1601 95.0698 10.2688 94.9738C10.3775 94.8777 10.5049 94.8052 10.6429 94.7608C10.781 94.7164 10.9268 94.7011 11.0711 94.7159C11.2154 94.7307 11.3551 94.7752 11.4813 94.8466L37.3579 109.701C37.6953 109.894 37.9539 110.199 38.0883 110.564C38.2227 110.929 38.2242 111.329 38.0927 111.695L34.0511 124.502C33.9432 124.855 33.7238 125.164 33.4257 125.382C33.1275 125.599 32.7669 125.714 32.3978 125.71H32.2665Z" fill="#084C94"/>
<path opacity="0.5" d="M6.28502 108.782L9.2506 97.0774C9.40523 96.4729 9.6161 95.8842 9.88045 95.319C9.94141 95.1874 10.029 95.0698 10.1376 94.9738C10.2463 94.8777 10.3737 94.8052 10.5118 94.7608C10.6499 94.7164 10.7956 94.7011 10.9399 94.7159C11.0842 94.7307 11.2239 94.7752 11.3501 94.8466L37.2267 109.701C37.9615 110.094 5.9701 110.042 6.28502 108.782Z" fill="#2672AB"/>
<path d="M32.7127 124.371C32.4077 124.374 32.108 124.292 31.8466 124.135L7.85961 110.567C7.46796 110.345 7.13349 110.035 6.88288 109.662C6.63227 109.288 6.47246 108.861 6.41619 108.415V108.887C6.26491 109.503 6.31889 110.152 6.56995 110.735C6.821 111.317 7.2554 111.802 7.80712 112.115L31.4267 125.605C31.6866 125.739 31.9741 125.81 32.2665 125.815C32.6356 125.819 32.9963 125.704 33.2944 125.487C33.5926 125.269 33.812 124.96 33.9199 124.607L34.1561 123.846C33.9721 124.039 33.7461 124.186 33.4957 124.277C33.2454 124.368 32.9774 124.401 32.7127 124.371Z" fill="#001A46"/>
<path d="M20.6668 111.695L13.9483 110.226C13.9071 110.207 13.8624 110.197 13.8171 110.197C13.7718 110.197 13.727 110.207 13.6859 110.226L9.74926 109.36C9.67628 109.344 9.59995 109.357 9.53633 109.396C9.47271 109.435 9.42674 109.497 9.40808 109.57C9.39928 109.639 9.41567 109.708 9.45425 109.766C9.49282 109.824 9.55098 109.866 9.61804 109.884L13.5809 110.751L14.8668 115.186C14.8842 115.241 14.9193 115.289 14.9668 115.322C15.0142 115.356 15.0714 115.372 15.1293 115.369C15.1935 115.341 15.2465 115.292 15.2798 115.23C15.3131 115.169 15.3248 115.097 15.313 115.028L14.0795 110.882L20.4568 112.273C20.5215 112.275 20.5851 112.256 20.6375 112.218C20.6898 112.18 20.7279 112.125 20.7455 112.063C20.7649 112.034 20.7782 112.001 20.7848 111.966C20.7913 111.932 20.7909 111.897 20.7836 111.862C20.7762 111.828 20.7621 111.796 20.7421 111.767C20.722 111.738 20.6964 111.714 20.6668 111.695Z" fill="#001A46"/>
<path d="M31.2694 117.626L24.5509 116.157C24.5143 116.138 24.4738 116.129 24.4328 116.129C24.3918 116.129 24.3514 116.138 24.3147 116.157L20.3781 115.291C20.3436 115.283 20.3079 115.282 20.2732 115.289C20.2384 115.295 20.2054 115.309 20.1759 115.329C20.1465 115.348 20.1214 115.373 20.102 115.403C20.0826 115.433 20.0694 115.466 20.0632 115.501C20.0511 115.533 20.0464 115.568 20.0495 115.603C20.0525 115.638 20.0632 115.671 20.0808 115.701C20.0983 115.731 20.1223 115.757 20.151 115.777C20.1798 115.797 20.2125 115.81 20.2469 115.816L24.2097 116.682L25.4957 121.117C25.513 121.172 25.5482 121.22 25.5956 121.253C25.6431 121.287 25.7003 121.303 25.7581 121.3C25.8224 121.272 25.8754 121.223 25.9087 121.162C25.942 121.1 25.9536 121.029 25.9418 120.959L24.8396 116.76L31.2169 118.151C31.2865 118.151 31.3532 118.124 31.4025 118.074C31.4517 118.025 31.4793 117.958 31.4793 117.889C31.4793 117.819 31.4517 117.752 31.4025 117.703C31.3532 117.654 31.2865 117.626 31.2169 117.626H31.2694Z" fill="#001A46"/>
<g style="mix-blend-mode:multiply">
<path d="M53.4193 118.178L51.7134 119.149C51.5307 119.263 51.3796 119.422 51.2742 119.61C51.1687 119.798 51.1122 120.009 51.1098 120.225C51.1044 120.325 51.1266 120.425 51.174 120.514C51.2214 120.603 51.2922 120.677 51.3788 120.728C51.4653 120.78 51.5642 120.806 51.6649 120.805C51.7655 120.805 51.864 120.776 51.9496 120.723L53.498 119.831C53.677 119.728 53.8251 119.578 53.9266 119.398C54.0282 119.218 54.0796 119.014 54.0754 118.807V118.44C54.0621 118.371 54.0316 118.306 53.9868 118.252C53.942 118.198 53.8843 118.156 53.819 118.13C53.7537 118.104 53.6829 118.094 53.613 118.103C53.5432 118.111 53.4765 118.137 53.4193 118.178Z" fill="#A8CFF0"/>
</g>
<g style="mix-blend-mode:multiply">
<g style="mix-blend-mode:multiply">
<path d="M53.4981 119.91L51.9497 120.802C51.8678 120.852 51.7742 120.881 51.6782 120.884C51.5821 120.887 51.4868 120.865 51.4019 120.82C51.317 120.774 51.2454 120.708 51.1942 120.627C51.1429 120.545 51.1139 120.452 51.1099 120.356V120.697C51.1093 120.795 51.1351 120.892 51.1845 120.977C51.2339 121.062 51.3051 121.132 51.3908 121.18C51.4765 121.229 51.5734 121.253 51.6717 121.251C51.77 121.249 51.866 121.221 51.9497 121.169L53.4981 120.277C53.6771 120.174 53.8251 120.024 53.9267 119.844C54.0282 119.664 54.0796 119.46 54.0754 119.254V118.886C54.0796 119.093 54.0282 119.297 53.9267 119.477C53.8251 119.657 53.6771 119.806 53.4981 119.91Z" fill="#A8CFF0"/>
</g>
</g>
<g style="mix-blend-mode:multiply">
<path d="M50.3225 124.056L63.0508 124.896L50.1913 132.48L50.3225 124.056Z" fill="#A8CFF0"/>
</g>
<path d="M59.1667 130.538V136.338L54.7577 133.871L55.0464 128.072L59.1667 130.538Z" fill="#3F92D1"/>
<path d="M39.5099 142.558C39.4093 143.482 39.5555 144.415 39.9336 145.263C40.3116 146.112 40.908 146.845 41.6619 147.387L45.7035 149.723C47.0682 150.484 46.2021 148.752 48.3279 147.545C50.5418 146.111 52.3869 144.175 53.7137 141.896C55.0405 139.616 55.8117 137.056 55.9649 134.423C55.9649 132.034 58.1694 132.008 56.8047 131.221L52.4482 128.938C51.5947 128.581 50.664 128.449 49.745 128.555C48.8261 128.66 47.9495 129 47.1994 129.541C44.9866 130.956 43.1376 132.871 41.8018 135.132C40.466 137.394 39.6809 139.937 39.5099 142.558Z" fill="#084C94"/>
<path d="M43.7615 144.946C43.7615 149.775 47.147 151.717 51.3722 149.303C53.5798 147.864 55.4187 145.928 56.7406 143.648C58.0626 141.369 58.8307 138.811 58.983 136.181C58.983 131.352 55.5713 129.41 51.3722 131.824C49.1617 133.26 47.3207 135.196 45.9984 137.476C44.676 139.756 43.9097 142.315 43.7615 144.946Z" fill="#03336E"/>
<path d="M45.8347 143.687C45.8347 147.125 48.2754 148.516 51.2672 146.783C52.8441 145.757 54.1575 144.375 55.1012 142.747C56.0449 141.119 56.5925 139.293 56.6997 137.414C56.6997 133.976 54.259 132.585 51.2672 134.318C49.6903 135.344 48.3769 136.726 47.4332 138.354C46.4895 139.982 45.9419 141.808 45.8347 143.687Z" fill="#A8CFF0"/>
<path d="M54.4689 133.635C55.0145 134.028 55.4472 134.557 55.7236 135.17C55.9999 135.782 56.1103 136.457 56.0436 137.126C55.9364 139.004 55.3888 140.831 54.4451 142.458C53.5014 144.086 52.188 145.469 50.6111 146.495C49.6986 147.096 48.5924 147.331 47.5143 147.151C48.1319 147.438 48.815 147.555 49.4931 147.491C50.1712 147.426 50.8198 147.182 51.3722 146.783C52.9491 145.757 54.2624 144.375 55.2062 142.747C56.1499 141.119 56.6975 139.293 56.8047 137.414C56.8047 135.289 55.8861 133.95 54.4689 133.635Z" fill="#72B5E8"/>
<path d="M51.0835 131.562C51.8366 131.028 52.7112 130.69 53.6279 130.58C54.5446 130.47 55.4743 130.591 56.3323 130.932C55.5501 130.77 54.7433 130.765 53.9593 130.919C53.1752 131.072 52.4295 131.38 51.7659 131.825C49.5583 133.263 47.7194 135.2 46.3975 137.479C45.0755 139.758 44.3075 142.316 44.1551 144.947C44.0498 145.918 44.2176 146.899 44.6395 147.78C45.0614 148.661 45.7207 149.406 46.5433 149.933C44.68 149.408 43.499 147.545 43.499 144.684C43.6484 142.056 44.4125 139.5 45.7298 137.221C47.0471 134.942 48.8808 133.003 51.0835 131.562Z" fill="#2672AB"/>
<path d="M50.585 135.472C50.3798 135.609 50.2091 135.792 50.0862 136.006C49.9633 136.22 49.8915 136.46 49.8764 136.706C49.8764 137.152 50.1914 137.336 50.585 137.1C50.7926 136.971 50.9657 136.794 51.0892 136.584C51.2128 136.374 51.2829 136.136 51.2936 135.892C51.2936 135.446 51.0837 135.262 50.585 135.472ZM50.585 143.792C50.3769 143.926 50.204 144.108 50.0807 144.322C49.9574 144.537 49.8874 144.778 49.8764 145.025C49.8764 145.471 50.1914 145.655 50.585 145.419C50.7902 145.282 50.9609 145.099 51.0838 144.885C51.2068 144.671 51.2786 144.432 51.2936 144.185C51.2936 143.739 51.0837 143.556 50.585 143.792ZM52.6583 136.811C52.9207 136.968 53.3669 136.811 53.6556 136.233C53.9443 135.656 53.9443 135.236 53.6556 135.079C53.3669 134.921 52.9207 135.079 52.6583 135.682C52.3959 136.286 52.3696 136.811 52.6583 136.811ZM48.4593 144.002C48.1706 143.844 47.7244 144.002 47.462 144.579C47.1996 145.156 47.1733 145.576 47.462 145.734C47.7507 145.891 48.1706 145.734 48.4593 145.156C48.7479 144.579 48.8004 144.159 48.4593 144.002ZM54.128 137.546C53.9199 137.68 53.7469 137.862 53.6236 138.076C53.5004 138.291 53.4303 138.532 53.4194 138.779C53.4194 139.225 53.7343 139.409 54.128 139.173C54.3361 139.039 54.509 138.857 54.6323 138.642C54.7556 138.428 54.8256 138.187 54.8366 137.939C54.9153 137.493 54.6004 137.309 54.2067 137.546H54.128ZM46.8846 141.718C46.6794 141.856 46.5087 142.038 46.3858 142.252C46.2629 142.466 46.1911 142.706 46.176 142.952C46.176 143.398 46.491 143.582 46.8846 143.346C47.0922 143.217 47.2653 143.04 47.3888 142.83C47.5123 142.62 47.5825 142.382 47.5932 142.138C47.6719 141.692 47.357 141.509 46.9634 141.718H46.8846ZM53.5768 141.036C53.2881 140.879 52.842 141.036 52.5796 141.614C52.3171 142.191 52.2909 142.611 52.5796 142.768C52.8683 142.926 53.2881 142.768 53.5768 142.191C53.8655 141.614 53.9443 141.194 53.7081 141.036H53.5768ZM48.328 138.123C48.0393 137.966 47.5932 138.123 47.3308 138.7C47.0683 139.278 47.0421 139.698 47.3308 139.855C47.6195 140.013 48.0393 139.855 48.328 139.278C48.6167 138.7 48.8004 138.281 48.4593 138.123H48.328Z" fill="#03336E"/>
<path d="M48.4592 141.403C48.4307 141.657 48.469 141.915 48.5703 142.149C48.6715 142.384 48.8323 142.588 49.0366 142.742L49.9289 143.267C50.2963 143.477 49.9289 143.004 50.6375 142.663C51.2465 142.266 51.7537 141.731 52.1183 141.102C52.483 140.473 52.6949 139.767 52.737 139.041C52.737 138.385 53.3406 138.385 52.9732 138.149L52.0284 137.624C51.792 137.516 51.5306 137.473 51.2719 137.501C51.0132 137.528 50.7668 137.626 50.5588 137.782C49.9483 138.177 49.44 138.712 49.0751 139.341C48.7103 139.97 48.4993 140.677 48.4592 141.403Z" fill="#3F92D1"/>
<path d="M49.3252 142.06C49.3252 143.372 50.27 143.923 51.4247 143.24C52.0396 142.85 52.5514 142.316 52.9168 141.686C53.2822 141.056 53.4906 140.347 53.5242 139.619C53.5242 138.307 52.6057 137.756 51.4247 138.438C50.8143 138.834 50.306 139.368 49.9411 139.997C49.5763 140.627 49.3652 141.333 49.3252 142.06Z" fill="#2672AB"/>
<path d="M41.8194 148.935V140.564L47.2781 131.142L54.9676 126.707L50.3224 124.056L42.6067 128.491L37.1479 137.913V146.311L41.8194 148.935Z" fill="#D1EBFF"/>
<path d="M41.8194 148.935V140.564L47.2781 131.142L54.9676 126.707L50.3224 124.056L42.6067 128.491L37.1479 137.913V146.311L41.8194 148.935Z" fill="#D1EBFF"/>
<path opacity="0.7" d="M41.8194 148.936V140.564L37.1479 137.913V146.311L41.8194 148.936Z" fill="#72B5E8"/>
<path d="M41.8194 140.564L47.2781 131.142L42.6067 128.491L37.1479 137.913L41.8194 140.564Z" fill="#A8CFF0"/>
<path d="M43.1053 148.253V140.905L48.2229 132.087L55.0201 128.177L59.1666 130.539V136.338L60.4526 135.604V129.804L54.9938 126.681L47.2781 131.142L41.8193 140.564V148.988L43.1053 148.253Z" fill="#72B5E8"/>
<path d="M1.82349 129.095L31.1118 146.442C31.8108 146.843 32.6025 147.054 33.4081 147.054C34.2138 147.054 35.0054 146.843 35.7045 146.442L41.1895 143.372V148.358L35.652 151.455C34.9481 151.855 34.1523 152.066 33.3425 152.066C32.5328 152.066 31.7369 151.855 31.0331 151.455L2.847 135.262C2.53614 135.086 2.27762 134.83 2.09782 134.521C1.91801 134.213 1.82335 133.862 1.82349 133.504V129.095Z" fill="#2672AB"/>
<path d="M35.6783 141.194C35.6671 141.366 35.6101 141.532 35.5133 141.675C35.4164 141.818 35.2831 141.933 35.1272 142.007C34.4698 142.278 33.7593 142.395 33.0498 142.349C32.3403 142.304 31.6506 142.097 31.0331 141.745L26.8603 139.435C26.6623 139.319 26.5007 139.149 26.3938 138.946C26.2869 138.743 26.239 138.513 26.2553 138.284C26.2717 138.055 26.3518 137.835 26.4865 137.649C26.6212 137.463 26.8052 137.318 27.0178 137.231L29.0648 136.207C29.3843 136.076 29.7426 136.076 30.0621 136.207C31.2693 136.758 33.1064 137.992 34.786 137.467C35.2847 137.309 35.7308 137.834 35.7308 138.359L35.6783 141.194Z" fill="#2672AB"/>
<path d="M2.32224 130.04L31.1906 146.442C31.8897 146.843 32.6813 147.054 33.487 147.054C34.2927 147.054 35.0843 146.843 35.7833 146.442L41.2683 143.372L39.7724 142.506L35.8096 144.763C35.1026 145.168 34.3019 145.381 33.487 145.381C32.6721 145.381 31.8714 145.168 31.1644 144.763L4.13309 129.174V127.206L2.37473 128.282C2.21967 128.368 2.08964 128.493 1.99741 128.644C1.90517 128.796 1.85389 128.969 1.8486 129.146C1.84331 129.323 1.88418 129.499 1.96721 129.656C2.05025 129.812 2.17259 129.945 2.32224 130.04Z" fill="#3F92D1"/>
<path d="M4.02808 128.859H4.05433V127.206H4.02808V128.859Z" fill="#72B5E8"/>
<path d="M40.8746 143.214L35.6259 146.127C34.922 146.528 34.1261 146.738 33.3164 146.738C32.5066 146.738 31.7108 146.528 31.0069 146.127L2.13851 129.699C1.91229 129.562 1.74415 129.347 1.66612 129.095C1.65417 129.283 1.69442 129.471 1.7824 129.638C1.87039 129.804 2.00271 129.944 2.16476 130.04L31.0332 146.442C31.7322 146.843 32.5238 147.054 33.3295 147.054C34.1352 147.054 34.9268 146.843 35.6259 146.442L41.1108 143.372L40.8746 143.214Z" fill="#72B5E8"/>
<path d="M41.3734 125.578C41.3414 125.597 41.3052 125.607 41.2684 125.607C41.2315 125.607 41.1953 125.597 41.1634 125.578C41.1153 125.529 41.0884 125.463 41.0884 125.395C41.0884 125.326 41.1153 125.26 41.1634 125.211L43.0005 124.109C43.4563 123.834 43.8366 123.451 44.1069 122.993C44.3772 122.534 44.5291 122.016 44.5489 121.484V114.084C44.5382 113.562 44.4014 113.051 44.15 112.594C43.8986 112.137 43.5402 111.747 43.1055 111.459L41.3209 110.278C41.2916 110.259 41.2663 110.235 41.2465 110.206C41.2267 110.177 41.2127 110.145 41.2054 110.111C41.1981 110.077 41.1976 110.041 41.2039 110.007C41.2102 109.973 41.2232 109.94 41.2421 109.911C41.2611 109.881 41.2856 109.856 41.3144 109.836C41.3431 109.817 41.3754 109.803 41.4095 109.795C41.4437 109.788 41.4789 109.787 41.5132 109.794C41.5475 109.8 41.5803 109.813 41.6095 109.832L43.4204 111.013C43.9365 111.361 44.3595 111.829 44.6523 112.379C44.9451 112.928 45.0989 113.54 45.1 114.162V121.301C45.0951 121.951 44.9236 122.589 44.602 123.154C44.2804 123.719 43.8194 124.192 43.2629 124.529L41.4521 125.631L41.3734 125.578Z" fill="#A8CFF0"/>
<path d="M46.0447 121.616L44.7587 120.854C44.4399 120.633 44.1784 120.34 43.9958 119.997C43.8133 119.655 43.7149 119.274 43.709 118.886V114.95C43.709 114.188 44.1814 113.821 44.7587 114.162L46.0447 114.923C46.3635 115.144 46.625 115.438 46.8076 115.78C46.9902 116.123 47.0885 116.504 47.0945 116.892V120.828C47.0945 121.589 46.6221 121.957 46.0447 121.616Z" fill="#A8CFF0"/>
<path d="M46.0447 114.923L44.7587 114.162C44.645 114.066 44.5009 114.013 44.352 114.013C44.203 114.013 44.0589 114.066 43.9452 114.162C44.0908 114.119 44.2457 114.119 44.3913 114.162L45.7035 114.923C46.0191 115.146 46.2767 115.441 46.4548 115.783C46.6328 116.126 46.7262 116.506 46.727 116.892V121.064C46.7453 121.318 46.6707 121.57 46.5171 121.773C46.8583 121.773 47.0945 121.432 47.0945 120.881V116.944C47.097 116.547 47.0026 116.156 46.8197 115.804C46.6368 115.452 46.3708 115.15 46.0447 114.923Z" fill="#72B5E8"/>
<path d="M63.1033 85.9762L34.2349 69.4424L23.3699 75.9772C21.0697 77.3114 19.159 79.2248 17.8283 81.5271C16.4976 83.8294 15.7933 86.44 15.7854 89.0992L44.4963 105.475L63.1033 85.9762Z" fill="#D1EBFF"/>
<path opacity="0.5" d="M51.3198 98.4159L56.1224 93.3508L24.6296 75.2424L23.4224 75.9772C21.7172 76.9661 20.2199 78.2762 19.0134 79.8351L51.3198 98.4159Z" fill="white"/>
<path d="M44.4176 105.318L62.9196 94.453V85.845L52.0021 92.196C49.7054 93.5342 47.7977 95.4485 46.4675 97.7499C45.1373 100.051 44.4307 102.66 44.4176 105.318Z" fill="white"/>
<path d="M44.6013 105.475L63.1296 94.6105V85.8975L52.1858 92.196C49.866 93.5476 47.9435 95.4868 46.6119 97.8182C45.2804 100.15 44.5869 102.791 44.6013 105.475Z" fill="#72B5E8"/>
<path d="M4.0281 123.19V126.628C4.02713 126.763 4.06335 126.896 4.13279 127.011C4.20223 127.127 4.30222 127.222 4.42176 127.284L6.78371 128.491C6.88297 128.549 6.99766 128.574 7.1118 128.563C7.22594 128.552 7.33385 128.506 7.42049 128.431C7.50713 128.356 7.5682 128.255 7.59519 128.144C7.62217 128.033 7.61372 127.916 7.57103 127.809L6.62626 124.922C6.55997 124.732 6.45609 124.558 6.32081 124.409C6.18553 124.26 6.02164 124.14 5.83893 124.056L4.0281 123.19Z" fill="#2672AB"/>
<path d="M26.9391 138.805L32.1879 141.718C32.2971 141.785 32.4222 141.82 32.55 141.821C32.6778 141.822 32.8035 141.789 32.9137 141.724C33.024 141.66 33.1147 141.567 33.1764 141.455C33.2381 141.343 33.2683 141.216 33.2639 141.089V138.832C33.2659 138.481 33.1714 138.136 32.9909 137.835C32.8105 137.535 32.5508 137.289 32.2404 137.126L30.6133 136.26C30.2923 136.089 29.9294 136.013 29.5669 136.041C29.2044 136.069 28.8574 136.199 28.5663 136.417L26.9391 137.598C26.836 137.662 26.7508 137.75 26.6918 137.856C26.6327 137.962 26.6017 138.081 26.6017 138.202C26.6017 138.323 26.6327 138.442 26.6918 138.548C26.7508 138.653 26.836 138.742 26.9391 138.805Z" fill="white"/>
<path d="M4.02813 124.345V126.313C4.02717 126.448 4.06339 126.581 4.13283 126.696C4.20227 126.812 4.30225 126.907 4.4218 126.969L6.78375 128.176C6.88301 128.234 6.9977 128.259 7.11184 128.248C7.22598 128.237 7.33389 128.191 7.42053 128.116C7.50717 128.041 7.56824 127.94 7.59523 127.829C7.62221 127.718 7.61376 127.601 7.57107 127.494L6.62629 124.87C6.56001 124.68 6.45613 124.505 6.32085 124.356C6.18557 124.208 6.02167 124.088 5.83897 124.004L5.0779 123.636C4.96242 123.581 4.83455 123.557 4.70697 123.567C4.57938 123.576 4.45649 123.619 4.35045 123.69C4.2444 123.762 4.15889 123.86 4.10236 123.975C4.04583 124.09 4.02024 124.217 4.02813 124.345Z" fill="#D1EBFF"/>
<path d="M4.02813 124.345C5.06771 125.674 6.18043 126.945 7.36112 128.15C7.46935 128.085 7.55021 127.982 7.58879 127.861C7.62737 127.741 7.62107 127.61 7.57107 127.494L6.62629 124.87C6.56001 124.68 6.45613 124.505 6.32085 124.356C6.18557 124.208 6.02167 124.088 5.83896 124.004L5.0779 123.636C4.96242 123.581 4.83455 123.557 4.70697 123.567C4.57938 123.576 4.45649 123.619 4.35045 123.69C4.2444 123.762 4.15889 123.86 4.10236 123.975C4.04583 124.09 4.02024 124.217 4.02813 124.345Z" fill="white"/>
<g style="mix-blend-mode:multiply">
<path d="M10.0643 139.435V138.517C10.0594 138.291 10.1154 138.068 10.2265 137.871C10.3376 137.674 10.4995 137.51 10.6955 137.398C10.8914 137.285 11.114 137.227 11.3401 137.23C11.5661 137.233 11.7871 137.297 11.9801 137.414L20.3781 142.243C21.0249 142.607 21.5628 143.137 21.9364 143.779C22.3101 144.42 22.506 145.149 22.5039 145.891V146.6L10.0643 139.435Z" fill="#3F92D1"/>
</g>
<path d="M33.1326 138.359C33.0671 138.097 32.9466 137.851 32.7793 137.638C32.6119 137.426 32.4014 137.251 32.1616 137.126L30.5345 136.26C30.2135 136.089 29.8506 136.013 29.4881 136.041C29.1256 136.069 28.7786 136.199 28.4874 136.417L26.8603 137.598C26.7415 137.681 26.6521 137.799 26.6049 137.936C26.5577 138.073 26.5553 138.221 26.5979 138.359H33.1326Z" fill="#D1EBFF"/>
<path d="M28.1725 136.811L29.0648 138.674C29.0648 138.674 30.5082 137.441 30.2458 136.863C29.9833 136.286 28.1725 136.811 28.1725 136.811Z" fill="#FFCC00"/>
<path d="M29.3536 138.149C29.3536 138.622 29.0124 138.832 28.6187 138.595C28.3984 138.457 28.2143 138.269 28.0819 138.045C27.9494 137.821 27.8726 137.569 27.8577 137.309C27.842 137.215 27.8554 137.118 27.8959 137.032C27.9365 136.945 28.0024 136.873 28.0848 136.825C28.1673 136.776 28.2624 136.754 28.3578 136.761C28.4531 136.768 28.5441 136.804 28.6187 136.863C28.8314 137.007 29.0082 137.198 29.1356 137.421C29.263 137.644 29.3375 137.893 29.3536 138.149Z" fill="#FFDE17"/>
<path d="M4.50049 125.08L5.41902 127.074C5.41902 127.074 6.94118 125.736 6.65249 125.132C6.36381 124.529 4.50049 125.08 4.50049 125.08Z" fill="#FFCC00"/>
<path d="M5.73395 126.497C5.73395 126.996 5.39277 127.179 4.94662 126.943C4.72106 126.79 4.5331 126.587 4.39677 126.351C4.26044 126.115 4.17926 125.85 4.1593 125.578C4.1593 125.08 4.52672 124.87 4.94662 125.132C5.1764 125.281 5.36757 125.483 5.50443 125.72C5.64129 125.957 5.71995 126.223 5.73395 126.497Z" fill="#FFDE17"/>
<path d="M29.5372 138.49L30.4295 140.38C30.4295 140.38 33.0539 138.7 32.8702 138.097C32.6865 137.493 29.5372 138.49 29.5372 138.49Z" fill="#FFCC00"/>
<path d="M30.7182 139.829C30.7182 140.301 30.377 140.485 29.9571 140.249C29.7445 140.105 29.5677 139.914 29.4403 139.691C29.3129 139.468 29.2383 139.219 29.2223 138.963C29.2223 138.49 29.5635 138.281 29.9571 138.517C30.1752 138.663 30.3571 138.858 30.4889 139.085C30.6208 139.312 30.6992 139.567 30.7182 139.829Z" fill="#FFDE17"/>
<path style="mix-blend-mode:screen" d="M33.1852 141.089V138.832C33.1872 138.481 33.0927 138.136 32.9122 137.835C32.7318 137.535 32.4721 137.289 32.1617 137.126L30.5346 136.26C30.2136 136.089 29.8507 136.013 29.4882 136.041C29.1257 136.069 28.7787 136.199 28.4875 136.417L33.1852 141.089Z" fill="url(#paint0_radial_235_66)"/>
<path d="M20.1419 143.031V145.288L12.0325 140.695V138.385L20.1419 143.031Z" fill="#D1EBFF"/>
<g style="mix-blend-mode:color-dodge">
<path d="M12.0325 138.385V138.727L19.8794 143.214V145.13L20.1419 145.288V143.031L12.0325 138.385Z" fill="white"/>
</g>
<path d="M28.2774 125.473V127.73L7.64966 116.052V113.742L28.2774 125.473Z" fill="#3F92D1"/>
<path d="M28.2774 125.473V125.946L7.64966 114.267V113.742L28.2774 125.473Z" fill="#72B5E8"/>
<path style="mix-blend-mode:screen" d="M4.0281 124.345V126.313C4.0281 126.602 6.6525 124.922 6.6525 124.922C6.58621 124.732 6.48233 124.558 6.34705 124.409C6.21177 124.26 6.04789 124.14 5.86518 124.056L5.1041 123.689C4.99171 123.63 4.86597 123.601 4.73914 123.605C4.6123 123.609 4.4887 123.646 4.38035 123.712C4.27201 123.778 4.18261 123.871 4.12088 123.982C4.05915 124.093 4.02718 124.218 4.0281 124.345Z" fill="url(#paint1_radial_235_66)"/>
<path d="M30.5082 148.726C30.5082 149.382 30.0358 149.644 29.4847 149.329C29.1849 149.134 28.9357 148.871 28.7578 148.56C28.5798 148.25 28.4782 147.902 28.4612 147.545C28.4612 146.889 28.9073 146.626 29.4847 146.967C29.7796 147.161 30.0255 147.421 30.2031 147.726C30.3807 148.031 30.4852 148.373 30.5082 148.726Z" fill="#A8CFF0"/>
<path d="M30.0883 149.014C29.792 148.822 29.545 148.562 29.3672 148.257C29.1894 147.952 29.0858 147.609 29.0648 147.256C29.0324 147.118 29.0324 146.974 29.0648 146.836C28.6974 146.836 28.4612 147.072 28.4612 147.545C28.4782 147.902 28.5798 148.25 28.7578 148.56C28.9357 148.871 29.1849 149.134 29.4847 149.329C29.9046 149.565 30.2458 149.487 30.4032 149.172L30.0883 149.014Z" fill="#03336E"/>
<path d="M27.7263 147.125C27.7263 147.781 27.2802 148.043 26.7028 147.702C26.4079 147.508 26.162 147.248 25.9844 146.943C25.8068 146.638 25.7024 146.296 25.6793 145.944C25.6793 145.288 26.1517 145.025 26.7028 145.34C27.0026 145.535 27.2518 145.799 27.4298 146.109C27.6077 146.419 27.7094 146.767 27.7263 147.125Z" fill="#A8CFF0"/>
<path d="M27.254 147.308C26.9541 147.113 26.705 146.85 26.527 146.54C26.3491 146.229 26.2474 145.881 26.2304 145.524C26.2006 145.386 26.2006 145.242 26.2304 145.104C25.863 145.104 25.6006 145.34 25.6006 145.839C25.6236 146.191 25.7281 146.533 25.9057 146.838C26.0833 147.143 26.3292 147.403 26.6241 147.597C27.044 147.833 27.4114 147.755 27.5689 147.44C27.4556 147.42 27.3481 147.375 27.254 147.308Z" fill="#03336E"/>
<path d="M7.91214 135.787C7.91214 136.443 7.43975 136.706 6.88863 136.365C6.5878 136.177 6.33733 135.919 6.15896 135.612C5.9806 135.306 5.87973 134.961 5.86511 134.606C5.86511 133.95 6.31126 133.688 6.88863 134.029C7.18497 134.221 7.43198 134.481 7.60975 134.786C7.78752 135.092 7.8911 135.434 7.91214 135.787Z" fill="#A8CFF0"/>
<path d="M7.41351 136.076C7.11864 135.857 6.87942 135.572 6.71528 135.244C6.55113 134.916 6.46666 134.553 6.46873 134.186C6.42935 134.049 6.42935 133.904 6.46873 133.767C6.10131 133.767 5.83887 134.003 5.83887 134.501C5.85348 134.856 5.95436 135.201 6.13273 135.507C6.3111 135.814 6.56157 136.072 6.86239 136.26C7.2823 136.496 7.62346 136.417 7.78093 136.102C7.6579 136.117 7.53319 136.108 7.41351 136.076Z" fill="#03336E"/>
<path d="M5.13029 134.186C5.13029 134.842 4.68413 135.105 4.10677 134.79C3.81125 134.59 3.56537 134.326 3.38796 134.016C3.21054 133.707 3.10631 133.361 3.08325 133.005C3.08325 132.349 3.55564 132.087 4.10677 132.428C4.40457 132.619 4.6527 132.878 4.83066 133.184C5.00863 133.489 5.11133 133.833 5.13029 134.186Z" fill="#A8CFF0"/>
<path d="M4.65789 134.449C4.35707 134.261 4.1066 134.003 3.92823 133.697C3.74986 133.39 3.64898 133.045 3.63437 132.691C3.60195 132.552 3.60195 132.409 3.63437 132.271C3.26695 132.271 3.00452 132.507 3.00452 132.979C3.02757 133.335 3.1318 133.681 3.30921 133.99C3.48663 134.3 3.73252 134.564 4.02803 134.764C4.44793 135 4.81535 134.921 4.97282 134.606C4.86085 134.569 4.7548 134.516 4.65789 134.449Z" fill="#03336E"/>
<path d="M33.0802 138.307V141.666C33.6741 141.693 34.2641 141.557 34.7861 141.272V137.913C34.2726 138.219 33.676 138.357 33.0802 138.307Z" fill="#EB4680"/>
<g style="mix-blend-mode:multiply">
<path d="M54.2065 116.393C53.9559 116.393 53.7156 116.293 53.5384 116.116C53.3612 115.939 53.2617 115.699 53.2617 115.448V105.528C53.2648 105.107 53.3778 104.694 53.5896 104.331C53.8013 103.967 54.1045 103.665 54.4689 103.455L59.3503 100.62C59.5058 100.585 59.6672 100.585 59.8227 100.62C60.0733 100.62 60.3136 100.72 60.4908 100.897C60.668 101.074 60.7675 101.315 60.7675 101.565V111.354C60.7638 111.778 60.6507 112.194 60.4393 112.562C60.2278 112.93 59.9251 113.237 59.5603 113.454L54.6526 116.262C54.5181 116.344 54.3642 116.389 54.2065 116.393ZM59.8227 101.014H59.6128L54.7314 103.848C54.4472 104.015 54.211 104.253 54.0455 104.538C53.88 104.823 53.7908 105.146 53.7866 105.475V115.396C53.7859 115.47 53.8048 115.543 53.8414 115.607C53.878 115.671 53.931 115.725 53.9949 115.762C54.0589 115.799 54.1315 115.819 54.2055 115.819C54.2796 115.82 54.3523 115.8 54.4164 115.763L59.2978 112.929C59.5855 112.766 59.8247 112.529 59.9907 112.243C60.1567 111.957 60.2437 111.632 60.2426 111.302V101.434C60.2426 101.323 60.1984 101.216 60.1196 101.137C60.0409 101.058 59.9341 101.014 59.8227 101.014Z" fill="#A8CFF0"/>
</g>
<path d="M54.2066 116.393C54.0516 116.432 53.8893 116.432 53.7343 116.393L53.9967 115.947C54.0595 115.986 54.1323 116.007 54.2066 116.007C54.281 116.007 54.3537 115.986 54.4166 115.947L59.298 113.112C59.5857 112.949 59.8248 112.713 59.9908 112.427C60.1569 112.141 60.2438 111.816 60.2428 111.485V101.434C60.2436 101.349 60.2191 101.267 60.1723 101.197C60.1254 101.126 60.0586 101.072 59.9803 101.04L60.164 100.568C60.3415 100.633 60.4947 100.751 60.6027 100.905C60.7107 101.06 60.7683 101.245 60.7676 101.434V111.354C60.7639 111.778 60.6509 112.194 60.4394 112.562C60.2279 112.93 59.9252 113.237 59.5604 113.454L54.6528 116.262C54.5183 116.344 54.3643 116.389 54.2066 116.393Z" fill="#A8CFF0"/>
<path d="M42.6067 128.491L47.2781 131.142L54.9939 126.681L47.2781 130.853L42.6067 128.491Z" fill="white"/>
<g opacity="0.3">
<path d="M175.48 18.3454L175.874 18.6078L65.0191 82.4857L64.6255 82.2233L175.48 18.3454Z" fill="#72B5E8"/>
<path d="M172.383 16.5608L172.777 16.8232L61.9223 80.7012L61.5287 80.4387L172.383 16.5608Z" fill="#72B5E8"/>
<path d="M169.287 14.7762L169.706 15.0124L58.8255 78.9166L58.4319 78.6541L169.287 14.7762Z" fill="#72B5E8"/>
<path d="M166.19 12.9654L166.61 13.2278L55.755 77.1057L55.3351 76.8695L166.19 12.9654Z" fill="#72B5E8"/>
<path d="M163.119 11.1808L163.513 11.4432L52.6582 75.3211L52.2645 75.0587L163.119 11.1808Z" fill="#72B5E8"/>
<path d="M160.022 9.39619L160.416 9.65862L49.5614 73.5365L49.1677 73.2741L160.022 9.39619Z" fill="#72B5E8"/>
<path d="M156.926 7.6116L157.319 7.84779L46.4646 71.7519L46.0709 71.4895L156.926 7.6116Z" fill="#72B5E8"/>
<path d="M153.829 5.80076L154.249 6.06319L43.3679 69.9411L42.9742 69.7049L153.829 5.80076Z" fill="#72B5E8"/>
<path d="M150.732 4.01617L151.152 4.2786L40.2973 68.1565L39.8774 67.8941L150.732 4.01617Z" fill="#72B5E8"/>
<path d="M147.662 2.23155L148.055 2.49399L37.2005 66.3719L36.8069 66.1095L147.662 2.23155Z" fill="#72B5E8"/>
</g>
<g opacity="0.3">
<path d="M175.139 18.1092L175.533 18.3454L64.678 82.2495L64.2581 81.9871L175.139 18.1092Z" fill="#2672AB"/>
<path d="M172.042 16.2984L172.436 16.5608L61.5812 80.4387L61.1875 80.1763L172.042 16.2984Z" fill="#2672AB"/>
<path d="M168.945 14.5138L169.339 14.7762L58.4844 78.6541L58.0907 78.3917L168.945 14.5138Z" fill="#2672AB"/>
<path d="M165.849 12.7292L166.242 12.9654L55.3876 76.8695L54.9939 76.6071L165.849 12.7292Z" fill="#2672AB"/>
<path d="M162.752 10.9183L163.172 11.1808L52.317 75.0587L51.8971 74.8225L162.752 10.9183Z" fill="#2672AB"/>
<path d="M159.681 9.13374L160.075 9.39618L49.2202 73.2741L48.8003 73.0117L159.681 9.13374Z" fill="#2672AB"/>
<path d="M156.584 7.34914L156.978 7.61159L46.1234 71.4895L45.7297 71.2271L156.584 7.34914Z" fill="#2672AB"/>
<path d="M153.488 5.56456L153.881 5.80076L43.0266 69.7049L42.6329 69.4425L153.488 5.56456Z" fill="#2672AB"/>
<path d="M150.391 3.75372L150.811 4.01617L39.9299 67.8941L39.5363 67.6579L150.391 3.75372Z" fill="#2672AB"/>
<path d="M147.294 1.96915L147.714 2.23159L36.8594 66.1095L36.4395 65.8471L147.294 1.96915Z" fill="#2672AB"/>
</g>
<path d="M179.81 58.2363L66.1213 123.689V120.093L179.81 54.6409V58.2363Z" fill="#72B5E8"/>
<path d="M178.629 54.0372L64.9404 119.516L66.1214 120.093L179.81 54.6408L178.629 54.0372Z" fill="#D1EBFF"/>
<path d="M64.9667 123.059L66.1214 123.689V120.093L64.9667 119.464V123.059Z" fill="#A8CFF0"/>
<path d="M179.705 58.2887L176.556 60.0995L172.173 59.0498L175.296 57.239L179.705 58.2887Z" fill="#D62D69"/>
<path d="M171.596 62.9602L168.473 64.7448L164.064 63.695L167.187 61.8842L171.596 62.9602Z" fill="#D62D69"/>
<path d="M163.513 67.6054L160.364 69.4162L155.981 68.3665L159.104 66.5557L163.513 67.6054Z" fill="#D62D69"/>
<path d="M155.403 72.2768L152.28 74.0614L147.871 73.0116L151.021 71.2008L155.403 72.2768Z" fill="#D62D69"/>
<path d="M147.32 76.922L144.197 78.7329L139.788 77.6831L142.911 75.8723L147.32 76.922Z" fill="#D62D69"/>
<path d="M139.237 81.5934L136.088 83.378L131.705 82.3545L134.828 80.5436L139.237 81.5934Z" fill="#D62D69"/>
<path d="M131.128 86.2386L128.005 88.0495L123.596 86.9997L126.745 85.1889L131.128 86.2386Z" fill="#D62D69"/>
<path d="M123.045 90.9101L119.922 92.6947L115.513 91.6712L118.636 89.8603L123.045 90.9101Z" fill="#D62D69"/>
<path d="M114.961 95.5552L111.812 97.3661L107.429 96.3163L110.552 94.5055L114.961 95.5552Z" fill="#D62D69"/>
<path d="M106.852 100.227L103.729 102.038L99.3201 100.961L102.443 99.1769L106.852 100.227Z" fill="#D62D69"/>
<path d="M98.769 104.872L95.6197 106.683L91.2369 105.633L94.36 103.822L98.769 104.872Z" fill="#D62D69"/>
<path d="M90.6595 109.543L87.5364 111.354L83.1274 110.278L86.2767 108.493L90.6595 109.543Z" fill="#D62D69"/>
<path d="M82.5763 114.189L79.4533 115.999L75.0443 114.95L78.1674 113.139L82.5763 114.189Z" fill="#D62D69"/>
<path d="M74.4932 118.86L71.3439 120.671L66.9612 119.621L70.0842 117.81L74.4932 118.86Z" fill="#D62D69"/>
<defs>
<radialGradient id="paint0_radial_235_66" cx="0" cy="0" r="1" gradientUnits="userSpaceOnUse" gradientTransform="translate(31.2169 140.485) scale(4.43524 4.43523)">
<stop stop-color="white"/>
<stop offset="1"/>
</radialGradient>
<radialGradient id="paint1_radial_235_66" cx="0" cy="0" r="1" gradientUnits="userSpaceOnUse" gradientTransform="translate(6.15386 126.786) scale(3.46421 3.46422)">
<stop stop-color="white"/>
<stop offset="1"/>
</radialGradient>
</defs>
</svg>
