<svg width="130" height="111" viewBox="0 0 130 111" fill="none" xmlns="http://www.w3.org/2000/svg">
<path d="M12.0865 62.7082L11.824 66.9072C11.8146 67.0525 11.7676 67.1928 11.6876 67.3145C11.6076 67.4361 11.4973 67.5349 11.3676 67.601C11.2379 67.6672 11.0933 67.6985 10.9479 67.6919C10.8024 67.6853 10.6612 67.641 10.5381 67.5633L7.91367 65.9362C7.77283 65.8503 7.66039 65.7249 7.59038 65.5756C7.52038 65.4262 7.4959 65.2596 7.52 65.0964L8.04488 60.9236C8.06404 60.781 8.11955 60.6456 8.20608 60.5306C8.2926 60.4156 8.40725 60.3247 8.53899 60.2667C8.67074 60.2088 8.81517 60.1856 8.95843 60.1996C9.10169 60.2135 9.23895 60.264 9.35708 60.3462L11.7453 61.9471C11.8635 62.0333 11.9572 62.1488 12.017 62.2823C12.0769 62.4158 12.1008 62.5626 12.0865 62.7082Z" fill="#D1EBFF"/>
<path opacity="0.7" d="M11.4303 67.4844L11.719 63.2854C11.719 63.139 11.686 62.9946 11.6224 62.8628C11.5588 62.731 11.4662 62.6153 11.3516 62.5243L8.93711 60.9234C8.8154 60.8465 8.67433 60.8056 8.53031 60.8056C8.3863 60.8056 8.24525 60.8465 8.12354 60.9234C8.15203 60.7895 8.21288 60.6645 8.30074 60.5594C8.38859 60.4544 8.5008 60.3724 8.6276 60.3206C8.75441 60.2689 8.89193 60.2489 9.02822 60.2625C9.1645 60.2761 9.29541 60.3228 9.40951 60.3985L11.7977 61.9994C11.9207 62.0825 12.0196 62.1967 12.0841 62.3304C12.1487 62.4641 12.1766 62.6125 12.1651 62.7605L11.9027 66.9595C11.89 67.108 11.8368 67.2502 11.7489 67.3706C11.661 67.4909 11.5417 67.5847 11.404 67.6419C11.404 67.6419 11.4303 67.5369 11.4303 67.4844Z" fill="#72B5E8"/>
<path opacity="0.2" d="M126.904 61.4482L49.4054 106.194C44.4127 109.071 38.7518 110.585 32.9898 110.585C27.2277 110.585 21.5669 109.071 16.5741 106.194L2.63859 98.1636C2.31725 97.9765 2.05061 97.7084 1.86528 97.386C1.67995 97.0637 1.5824 96.6983 1.5824 96.3265C1.5824 95.9547 1.67995 95.5893 1.86528 95.267C2.05061 94.9446 2.31725 94.6766 2.63859 94.4895L95.0699 40.558C95.3913 40.3661 95.7585 40.2648 96.1328 40.2648C96.507 40.2648 96.8743 40.3661 97.1957 40.558L126.904 57.7741C127.225 57.9611 127.492 58.2293 127.677 58.5516C127.863 58.874 127.96 59.2393 127.96 59.6112C127.96 59.983 127.863 60.3483 127.677 60.6707C127.492 60.993 127.225 61.2612 126.904 61.4482Z" fill="#92B4D1"/>
<path d="M52.9221 95.4605L42.0046 89.1094L53.447 87.0361L52.9221 95.4605Z" fill="#03336E"/>
<path d="M114.727 60.6086L103.809 54.2576L115.225 52.1843L114.727 60.6086Z" fill="#03336E"/>
<path d="M97.2745 65.595C97.1911 66.3929 97.3195 67.1987 97.6466 67.9312C97.9737 68.6637 98.488 69.2972 99.1378 69.7678L102.786 71.8935C103.967 72.5496 103.206 71.0537 105.016 70.0039C106.932 68.7627 108.527 67.0864 109.672 65.1116C110.817 63.1368 111.479 60.9194 111.604 58.6403C111.604 56.567 113.519 56.5408 112.365 55.8584L108.481 53.7064C107.735 53.3906 106.92 53.2729 106.115 53.3649C105.311 53.4568 104.543 53.7553 103.888 54.2313C101.969 55.4712 100.37 57.1466 99.2205 59.1212C98.0713 61.0959 97.4045 63.314 97.2745 65.595Z" fill="#084C94"/>
<path d="M101.106 67.7468C101.106 71.9458 104.046 73.6255 107.693 71.5259C109.612 70.2821 111.21 68.6016 112.355 66.6219C113.5 64.6423 114.16 62.4197 114.281 60.136C114.281 55.9632 111.341 54.2836 107.693 56.3831C105.778 57.6243 104.183 59.3007 103.038 61.2755C101.893 63.2502 101.231 65.4676 101.106 67.7468Z" fill="#03336E"/>
<path d="M107.378 56.2257C108.028 55.7702 108.779 55.4816 109.566 55.3855C110.354 55.2894 111.153 55.3887 111.892 55.6746C111.217 55.5322 110.52 55.5285 109.843 55.6639C109.166 55.7992 108.524 56.0707 107.956 56.4619C106.037 57.7017 104.438 59.3772 103.288 61.3518C102.139 63.3265 101.472 65.5445 101.342 67.8255C101.247 68.6683 101.394 69.5209 101.766 70.2831C102.137 71.0454 102.719 71.6859 103.442 72.1295C101.815 71.6834 100.817 70.0825 100.817 67.5893C100.94 65.3125 101.597 63.0967 102.738 61.1221C103.878 59.1475 105.468 57.4699 107.378 56.2257Z" fill="#2672AB"/>
<path d="M102.392 66.986C102.392 70.214 104.675 71.5 107.483 69.8728C108.953 68.9143 110.177 67.6241 111.056 66.1062C111.936 64.5883 112.447 62.885 112.548 61.1335C112.548 57.9055 110.265 56.6196 107.483 58.2467C106.006 59.1992 104.775 60.4873 103.89 62.0061C103.005 63.5248 102.492 65.2312 102.392 66.986ZM105.751 64.9652V65.1489C105.746 65.3511 105.672 65.5454 105.541 65.7L103.967 67.6683C103.73 67.957 103.415 67.9832 103.337 67.6683C103.248 67.2809 103.204 66.8847 103.206 66.4873C103.211 66.0209 103.255 65.5557 103.337 65.0964C103.337 64.7552 103.73 64.4403 103.967 64.4665L105.541 64.5978C105.541 64.5978 105.751 64.7815 105.751 64.9652ZM104.439 62.3408C104.946 61.4324 105.602 60.6161 106.381 59.9263C106.643 59.6901 106.906 59.7689 106.906 60.0838V62.1571C106.902 62.3722 106.817 62.578 106.67 62.7344V62.9181C106.621 62.9918 106.555 63.0521 106.477 63.0934C106.399 63.1347 106.312 63.1556 106.224 63.1543L104.675 63.0231C104.308 63.0494 104.255 62.6819 104.439 62.367V62.3408ZM108.559 58.6666C109.203 58.468 109.898 58.5243 110.501 58.8241C110.711 58.8241 110.659 59.349 110.501 59.6376L108.927 61.5797C108.882 61.6573 108.817 61.7206 108.738 61.7624C108.659 61.8042 108.57 61.8228 108.481 61.8159C108.349 61.8159 108.244 61.8159 108.244 61.501V59.349C108.243 59.2253 108.268 59.1028 108.318 58.9896C108.367 58.8765 108.441 58.7753 108.533 58.6929L108.559 58.6666ZM111.604 60.3725C111.715 60.7561 111.768 61.1541 111.761 61.5534C111.759 62.0214 111.706 62.4878 111.604 62.9444C111.604 63.2856 111.21 63.6005 110.974 63.5742L109.399 63.443C109.268 63.443 109.189 63.443 109.189 63.1281V62.9444C109.195 62.7422 109.269 62.5479 109.399 62.3933L110.974 60.425C111.157 60.1625 111.525 60.1363 111.604 60.3987V60.3725ZM110.501 65.6213C109.995 66.5297 109.338 67.346 108.559 68.0357C108.297 68.2719 108.034 68.1932 108.034 67.8783V65.805C108.051 65.5927 108.134 65.3908 108.271 65.2276V65.0701C108.316 64.9916 108.381 64.9261 108.459 64.8801C108.537 64.8341 108.626 64.8092 108.717 64.8077L110.291 64.9389C110.659 65.0964 110.711 65.4376 110.501 65.7525V65.6213ZM106.381 69.2954C106.064 69.4055 105.728 69.4484 105.393 69.4213C105.059 69.3942 104.734 69.2977 104.439 69.138C104.255 69.138 104.308 68.6131 104.439 68.3244L105.987 66.3823C106.145 66.2249 106.302 66.1199 106.434 66.1461C106.591 66.1461 106.67 66.2774 106.67 66.4611V68.5344C106.716 68.6949 106.713 68.8656 106.662 69.0246C106.61 69.1835 106.512 69.3235 106.381 69.4267V69.2954Z" fill="#001A46"/>
<path d="M102.707 67.2221C102.707 70.4501 104.99 71.7361 107.798 70.109C109.272 69.1551 110.499 67.8661 111.38 66.3472C112.26 64.8283 112.768 63.1227 112.863 61.3697C112.863 58.1417 110.606 56.8558 107.798 58.4566C106.321 59.4148 105.09 60.7078 104.205 62.2308C103.32 63.7537 102.807 65.4638 102.707 67.2221ZM106.066 65.2013V65.3851C106.061 65.5872 105.987 65.7816 105.856 65.9362L104.282 67.9045C104.045 68.1931 103.731 68.2194 103.652 67.9045C103.607 67.5033 103.607 67.0984 103.652 66.6973C103.614 66.2431 103.614 65.7867 103.652 65.3326C103.652 64.9914 104.045 64.6764 104.282 64.7027H105.856C105.909 64.7814 106.066 64.9127 106.066 65.0964V65.2013ZM104.754 62.5769C105.277 61.687 105.931 60.8818 106.696 60.1888C106.959 59.9526 107.221 60.0313 107.221 60.3462V62.4195C107.212 62.6336 107.128 62.8378 106.985 62.9968V63.1543C106.854 63.338 106.696 63.443 106.565 63.4168H104.99C104.623 63.1543 104.57 62.8131 104.754 62.472V62.5769ZM108.874 58.929C109.191 58.8189 109.528 58.776 109.862 58.8031C110.196 58.8303 110.521 58.9267 110.816 59.0865C111.026 59.0865 110.974 59.5851 110.816 59.9001L109.242 61.8421C109.192 61.9142 109.125 61.9732 109.047 62.0143C108.97 62.0554 108.883 62.0773 108.796 62.0783C108.664 62.0783 108.559 61.9471 108.559 61.7634V59.6901C108.522 59.5308 108.532 59.3639 108.588 59.21C108.643 59.0561 108.743 58.922 108.874 58.8241V58.929ZM111.919 60.6086C112.028 61.0016 112.081 61.408 112.076 61.8159C112.074 62.2838 112.021 62.7502 111.919 63.2068C111.919 63.548 111.551 63.8629 111.315 63.8367H109.74C109.703 63.8337 109.667 63.8229 109.635 63.8049C109.602 63.787 109.574 63.7623 109.551 63.7325C109.529 63.7027 109.513 63.6685 109.505 63.6322C109.497 63.5958 109.497 63.5582 109.504 63.5217V63.338C109.513 63.1239 109.597 62.9197 109.74 62.7607L111.315 60.8186C111.551 60.2937 111.84 60.2675 111.919 60.5037V60.6086ZM110.816 65.9887C110.31 66.8971 109.653 67.7134 108.874 68.4031C108.612 68.6393 108.349 68.5606 108.349 68.2456V66.1724C108.366 65.96 108.449 65.7582 108.586 65.595C108.598 65.5344 108.598 65.4719 108.586 65.4113C108.636 65.3392 108.703 65.2802 108.78 65.2391C108.858 65.198 108.944 65.1761 109.032 65.1751H110.606C110.974 65.2013 111.158 65.5688 110.816 65.8837V65.9887ZM106.696 69.6628C106.053 69.8615 105.357 69.8051 104.754 69.5053C104.57 69.3741 104.623 68.9805 104.754 68.6918L106.329 66.7498C106.373 66.6763 106.435 66.6143 106.508 66.5687C106.58 66.5231 106.663 66.4953 106.749 66.4873C106.906 66.4873 106.985 66.6185 106.985 66.8022V68.8755C106.99 69.0035 106.967 69.1311 106.917 69.2491C106.867 69.3671 106.792 69.4725 106.696 69.5578V69.6628Z" fill="#D1EBFF"/>
<path d="M34.7612 101.339C34.6802 102.134 34.807 102.937 35.129 103.668C35.451 104.399 35.9572 105.035 36.5982 105.512L40.2462 107.638C41.4534 108.294 40.6923 106.798 42.5031 105.748C44.4144 104.502 46.0062 102.825 47.1504 100.851C48.2946 98.8773 48.9591 96.6623 49.0904 94.3846C49.0904 92.3113 51.0062 92.2851 49.8252 91.6027L45.9411 89.4507C45.1953 89.1348 44.3805 89.0171 43.5758 89.1091C42.771 89.2011 42.0038 89.4996 41.3484 89.9756C39.4328 91.2169 37.8376 92.8931 36.6929 94.8679C35.5482 96.8427 34.8863 99.0601 34.7612 101.339Z" fill="#084C94"/>
<path d="M38.5667 103.596C38.5667 107.795 41.5322 109.475 45.1539 107.375C47.0749 106.131 48.6751 104.451 49.8243 102.472C50.9736 100.493 51.6393 98.2704 51.7674 95.9853C51.7674 91.8125 48.8018 90.133 45.1539 92.2325C43.2427 93.4784 41.6508 95.1558 40.5066 97.1296C39.3625 99.1034 38.6979 101.318 38.5667 103.596Z" fill="#03336E"/>
<path d="M44.8391 92.0752C45.4883 91.6197 46.2398 91.3312 47.0271 91.2351C47.8144 91.1389 48.6132 91.2382 49.353 91.5241C48.6778 91.3817 47.9806 91.378 47.3039 91.5134C46.6271 91.6487 45.985 91.9202 45.4164 92.3114C43.5008 93.5526 41.9057 95.229 40.7609 97.2038C39.6162 99.1786 38.9543 101.396 38.8292 103.675C38.728 104.516 38.8694 105.367 39.2368 106.13C39.6042 106.893 40.1822 107.534 40.9025 107.979C39.3016 107.533 38.2781 105.932 38.2781 103.439C38.4064 101.163 39.0669 98.95 40.2064 96.9763C41.3459 95.0027 42.9327 93.324 44.8391 92.0752Z" fill="#2672AB"/>
<path d="M39.8788 102.835C39.8788 106.063 42.1358 107.349 44.9439 105.722C46.4177 104.768 47.6449 103.479 48.5252 101.96C49.4055 100.441 49.9139 98.7356 50.009 96.9826C50.009 93.7546 47.752 92.4686 44.9439 94.0958C43.4701 95.0496 42.2429 96.3387 41.3626 97.8576C40.4823 99.3765 39.9738 101.082 39.8788 102.835ZM43.2118 100.814V100.998C43.2152 101.099 43.1984 101.2 43.1624 101.295C43.1263 101.389 43.0717 101.476 43.0018 101.549L41.4272 103.517C41.191 103.806 40.9023 103.832 40.8236 103.517C40.7126 103.134 40.6596 102.736 40.6661 102.336C40.668 101.868 40.7208 101.402 40.8236 100.945C40.8236 100.604 41.191 100.289 41.4272 100.316L43.0018 100.447C43.133 100.499 43.238 100.631 43.2118 100.814ZM41.8996 98.1898C42.4239 97.2934 43.0784 96.4797 43.8417 95.7754C44.1041 95.5392 44.3665 95.618 44.3665 95.9329V98.0062C44.3609 98.2163 44.2872 98.4189 44.1566 98.5836L43.9991 98.7672C43.9548 98.8388 43.893 98.8981 43.8195 98.9394C43.7461 98.9807 43.6634 99.0027 43.5792 99.0034L42.0046 98.8722C41.7684 98.8984 41.7159 98.531 41.8996 98.2161V98.1898ZM46.0461 94.5157C46.6897 94.317 47.385 94.3734 47.9882 94.6731C48.1719 94.6731 47.9882 95.198 47.9882 95.4867L46.4136 97.4288C46.3735 97.5042 46.3127 97.5666 46.2382 97.6085C46.1638 97.6503 46.0789 97.6699 45.9936 97.665H45.8362C45.8362 97.665 45.6262 97.5338 45.6262 97.3501V95.2768C45.6275 95.1286 45.6668 94.9832 45.7403 94.8545C45.8138 94.7259 45.9191 94.6183 46.0461 94.542V94.5157ZM49.0642 96.2215C49.1751 96.6052 49.2282 97.0032 49.2216 97.4025C49.2212 97.8706 49.1684 98.3372 49.0642 98.7935C49.0642 99.1346 48.6968 99.4495 48.4606 99.4233H46.8859C46.8859 99.4233 46.676 99.2921 46.676 99.1084V98.7147C46.6815 98.5125 46.7555 98.3182 46.8859 98.1636L48.4606 96.1953C48.6968 96.0904 49.0117 96.0903 49.0642 96.2478V96.2215ZM47.9882 101.47C47.4727 102.373 46.8172 103.188 46.0461 103.885C45.7837 104.121 45.5213 104.042 45.5213 103.727V101.654C45.5269 101.444 45.6006 101.241 45.7312 101.077L45.8887 100.919C46.0199 100.736 46.1773 100.631 46.3086 100.657H47.8832C48.1719 100.945 48.1719 101.339 47.9882 101.602V101.47ZM43.8417 105.145C43.5245 105.253 43.1883 105.295 42.8542 105.268C42.5201 105.241 42.1951 105.145 41.8996 104.987C41.7159 104.987 41.8996 104.462 41.8996 104.173L43.4742 102.231C43.5186 102.16 43.5803 102.101 43.6538 102.059C43.7272 102.018 43.8099 101.996 43.8941 101.995H44.0516C44.1828 101.995 44.2615 102.126 44.2615 102.31V104.383C44.2946 104.557 44.2717 104.737 44.1963 104.898C44.1209 105.058 43.9968 105.19 43.8417 105.276V105.145Z" fill="#001A46"/>
<path d="M40.2986 102.966C40.2986 106.194 42.5555 107.48 45.3637 105.853C46.8409 104.901 48.0721 103.613 48.9569 102.094C49.8417 100.575 50.355 98.8688 50.455 97.114C50.455 93.8859 48.1718 92.5999 45.3637 94.2008C43.8893 95.1604 42.6622 96.4543 41.7821 97.9774C40.902 99.5005 40.3937 101.21 40.2986 102.966ZM43.6316 100.946V101.129C43.635 101.23 43.6182 101.331 43.5822 101.426C43.5461 101.521 43.4915 101.607 43.4216 101.68L41.847 103.649C41.6108 103.937 41.3221 103.964 41.2434 103.649C41.1325 103.256 41.0795 102.849 41.0859 102.441C41.0878 101.982 41.1407 101.524 41.2434 101.077C41.2434 100.736 41.6108 100.421 41.847 100.447L43.4216 100.578C43.4216 100.578 43.5528 100.762 43.5266 100.946H43.6316ZM42.3194 98.3212C42.8437 97.4247 43.4982 96.611 44.2614 95.9067C44.5501 95.6705 44.7863 95.7492 44.7863 96.0641V98.1374C44.7755 98.3465 44.7024 98.5476 44.5764 98.7148L44.4451 98.8723C44.3998 98.9508 44.3348 99.0163 44.2566 99.0623C44.1785 99.1083 44.0897 99.1333 43.999 99.1347L42.4243 99.0034C42.0832 99.0034 42.0307 98.7148 42.2144 98.3473L42.3194 98.3212ZM46.4659 94.647C46.7831 94.5385 47.1192 94.4964 47.4533 94.5235C47.7875 94.5506 48.1124 94.6463 48.408 94.8045C48.5917 94.8045 48.408 95.3031 48.408 95.618L46.8334 97.5601C46.789 97.6317 46.7272 97.6909 46.6538 97.7323C46.5804 97.7736 46.4977 97.7956 46.4134 97.7962H46.256C46.1248 97.7962 46.046 97.665 46.046 97.4813V95.408C46.0333 95.269 46.0554 95.1291 46.1104 95.0008C46.1654 94.8725 46.2515 94.7599 46.3609 94.6732L46.4659 94.647ZM49.484 96.3266C49.5931 96.7196 49.6461 97.126 49.6414 97.5338C49.6395 98.0018 49.5867 98.4682 49.484 98.9247C49.484 99.2659 49.1166 99.5809 48.8804 99.5546L47.3057 99.4234C47.3057 99.4234 47.0958 99.4234 47.0958 99.1084V98.9247C47.1013 98.7225 47.1753 98.5282 47.3057 98.3736L48.8804 96.4053C49.0116 96.0904 49.3265 96.0904 49.379 96.3529L49.484 96.3266ZM48.408 101.575C47.8925 102.478 47.237 103.293 46.4659 103.99C46.2035 104.226 45.941 104.147 45.941 103.832V101.759C45.9467 101.549 46.0204 101.346 46.151 101.182L46.3084 100.998C46.3528 100.926 46.4146 100.867 46.488 100.826C46.5614 100.785 46.6441 100.763 46.7284 100.762L48.303 100.893C48.4342 101.05 48.4867 101.339 48.303 101.733L48.408 101.575ZM44.2614 105.25C43.6178 105.448 42.9225 105.392 42.3194 105.092C42.1357 104.961 42.3194 104.567 42.3194 104.279L43.894 102.336C43.9428 102.261 44.0086 102.198 44.086 102.152C44.1635 102.107 44.2505 102.08 44.3401 102.074H44.4714C44.4714 102.074 44.6813 102.074 44.6813 102.389V104.462C44.719 104.656 44.6871 104.857 44.5911 105.03C44.4951 105.203 44.3412 105.336 44.1565 105.407L44.2614 105.25Z" fill="#D1EBFF"/>
<path d="M2.37619 80.344L27.7804 40.9781C28.1479 40.4002 28.6528 39.9223 29.25 39.5871L96.9858 0.58854C97.6243 0.234685 98.3423 0.0490112 99.0722 0.0490112C99.8022 0.0490112 100.52 0.234685 101.159 0.58854L120.264 11.0861C121.134 11.5704 121.811 12.3396 122.18 13.2644L128.032 25.704C128.206 26.1754 128.304 26.6716 128.321 27.1737L128.767 50.0847C128.782 50.8532 128.587 51.6112 128.204 52.2771C127.82 52.943 127.262 53.4916 126.589 53.8639L114.648 60.661C114.75 60.0275 114.803 59.387 114.805 58.7452C114.805 54.0213 111.473 52.1055 107.352 54.4937C105.185 55.899 103.381 57.7962 102.085 60.0308C100.79 62.2654 100.041 64.7744 99.8989 67.3533C99.8577 67.8773 99.8577 68.4038 99.8989 68.9279L52.7909 95.4868C52.7909 95.1719 52.7909 94.857 52.7909 94.5421C52.7909 89.8181 49.4579 87.9023 45.3376 90.2905C43.172 91.6974 41.3685 93.5949 40.0735 95.8292C38.7785 98.0635 38.0285 100.572 37.8843 103.15C37.8707 103.404 37.8707 103.658 37.8843 103.911L35.0762 105.486C34.4634 105.817 33.778 105.99 33.0817 105.99C32.3853 105.99 31.6999 105.817 31.0871 105.486L3.8721 92.0488C3.15631 91.6964 2.55334 91.1509 2.13132 90.4738C1.7093 89.7967 1.48504 89.0151 1.48389 88.2172V82.5485C1.56555 81.7438 1.87511 80.979 2.37619 80.344Z" fill="#D1EBFF"/>
<path d="M33.1866 93.8596L36.9133 82.4698L52.2923 53.339C52.8559 52.1475 53.772 51.1581 54.9167 50.5046L121.655 12.1096C121.897 12.4441 122.099 12.8051 122.259 13.1856L128.111 25.6253C128.285 26.0967 128.382 26.5928 128.4 27.095L128.846 50.006C128.861 50.7744 128.666 51.5324 128.282 52.1983C127.898 52.8643 127.34 53.4129 126.668 53.7851L114.727 60.5823C114.829 59.9488 114.882 59.3082 114.884 58.6665C114.884 53.9426 111.551 52.0267 107.431 54.4149C105.264 55.8202 103.459 57.7174 102.164 59.952C100.869 62.1867 100.12 64.6956 99.9776 67.2745C99.9364 67.7986 99.9364 68.3251 99.9776 68.8491L52.8696 95.408C52.8696 95.0931 52.8696 94.7782 52.8696 94.4633C52.8696 89.7394 49.5366 87.8236 45.4163 90.2118C43.2507 91.6186 41.4472 93.5161 40.1522 95.7504C38.8572 97.9847 38.1072 100.493 37.963 103.071C37.9494 103.325 37.9494 103.579 37.963 103.832L35.1549 105.407C34.2961 105.896 33.2946 106.072 32.3206 105.906V96.9827C32.375 95.8905 32.6707 94.8239 33.1866 93.8596Z" fill="#A8CFF0"/>
<g style="mix-blend-mode:color-dodge">
<path d="M32.4256 93.7547L36.1523 82.3648L51.505 53.234C52.0873 52.0553 52.9989 51.0707 54.1294 50.3996L120.71 12.1096C120.947 12.3983 120.71 12.582 120.71 12.9232L54.7592 50.872C53.6209 51.5333 52.7068 52.5206 52.1348 53.7064L36.7559 82.8372L33.0555 94.2271C32.558 95.212 32.2974 96.2993 32.2944 97.4026V105.774C31.8745 105.774 32.032 105.958 31.6121 105.774V96.8777C31.6404 95.7881 31.9187 94.7196 32.4256 93.7547Z" fill="white"/>
</g>
<path d="M42.057 64.3352L35.5748 61.9733C31.3365 60.4428 27.348 58.2938 23.7387 55.596L22.0066 54.3363C21.8291 54.198 21.6248 54.0981 21.4066 54.0428C21.1885 53.9874 20.9613 53.978 20.7393 54.015C20.5173 54.052 20.3054 54.1347 20.117 54.2577C19.9286 54.3808 19.7678 54.5416 19.6447 54.73L10.7217 68.1931C10.4803 68.5557 10.3917 68.9989 10.4753 69.4265C10.5588 69.854 10.8077 70.2313 11.1679 70.4763L15.7343 73.5469C19.2637 75.9131 23.0716 77.8347 27.0717 79.2681L34.2101 81.8925C34.5948 82.0302 35.0168 82.0206 35.3948 81.8655C35.7728 81.7104 36.08 81.4208 36.2571 81.0527L43.0018 66.671C43.1129 66.4586 43.1765 66.2246 43.1882 65.9853C43.1999 65.7459 43.1594 65.5068 43.0695 65.2847C42.9796 65.0625 42.8426 64.8625 42.6677 64.6986C42.4929 64.5346 42.2845 64.4107 42.057 64.3352Z" fill="#03336E"/>
<path d="M41.1385 64.5977L34.9712 62.367C30.9315 60.9013 27.1292 58.8499 23.6862 56.2784L22.0329 55.0712C21.8632 54.9433 21.669 54.8517 21.4624 54.8021C21.2558 54.7525 21.0411 54.746 20.8319 54.7829C20.6226 54.8198 20.4232 54.8994 20.2461 55.0167C20.0689 55.134 19.9178 55.2866 19.8021 55.4648L11.2728 68.2719C11.0413 68.6169 10.9554 69.0395 11.0341 69.4475C11.1127 69.8556 11.3495 70.216 11.6927 70.4502L16.0492 73.3632C19.4118 75.6263 23.0442 77.4601 26.8618 78.822L33.659 81.2627C34.026 81.3907 34.4274 81.3785 34.786 81.2283C35.1445 81.0781 35.4348 80.8005 35.601 80.4491L42.0308 66.7498C42.1241 66.5513 42.175 66.3355 42.1801 66.1163C42.1852 65.897 42.1445 65.679 42.0605 65.4764C41.9764 65.2739 41.851 65.091 41.6923 64.9397C41.5335 64.7884 41.3449 64.6719 41.1385 64.5977Z" fill="#084C94"/>
<path d="M56.3337 60.635L56.045 73.2583C56.0429 73.4129 56.0008 73.5644 55.9226 73.6978C55.8443 73.8312 55.7328 73.9421 55.5988 74.0194L40.2986 82.7324V80.5804L48.1718 63.5743L55.1002 59.7951C55.237 59.7385 55.3857 59.7168 55.5329 59.732C55.6802 59.7472 55.8213 59.7987 55.9437 59.882C56.066 59.9653 56.1658 60.0778 56.2338 60.2092C56.3019 60.3406 56.3362 60.487 56.3337 60.635Z" fill="#001A46"/>
<path d="M55.5465 60.2935L55.1528 73.1005L44.1304 79.4779L44.4191 73.153L48.3294 64.2301L55.5465 60.2935Z" fill="#03336E"/>
<path d="M38.7766 98.7147L33.2128 101.68C32.2099 102.158 31.1196 102.426 30.0093 102.467C28.8989 102.507 27.792 102.32 26.7568 101.917L22.5315 100.211C16.0824 97.3147 9.92993 93.7989 4.16074 89.7131L1.53634 87.561H0.696533V93.2297L1.53634 94.0958C9.05523 100.06 17.6031 104.596 26.7568 107.48C27.791 107.802 28.8794 107.912 29.9571 107.804C31.0348 107.696 32.0797 107.372 33.0291 106.85L38.2779 103.701L38.7766 98.7147Z" fill="#2672AB"/>
<path d="M33.6328 96.0903C32.9144 96.5093 32.1067 96.7516 31.2762 96.7972C30.4458 96.8429 29.6164 96.6905 28.8564 96.3527C28.5494 96.2057 28.2143 96.1267 27.874 96.1212C27.5336 96.1157 27.1961 96.1838 26.8846 96.3209C26.573 96.4579 26.2948 96.6607 26.0689 96.9154C25.843 97.17 25.6748 97.4704 25.5759 97.7961L24.8411 100.421L28.7252 101.943C29.3636 102.195 30.0472 102.314 30.7333 102.291C31.4195 102.269 32.0938 102.105 32.7143 101.811L33.8165 101.287L33.6328 96.0903Z" fill="white"/>
<path d="M33.6328 96.0903L33.0817 96.3265L33.2391 100.526L32.1631 101.024C31.5395 101.323 30.8605 101.489 30.1693 101.512C29.478 101.535 28.7896 101.413 28.1478 101.155L24.9723 99.8957V100.342L28.8564 101.864C29.4948 102.116 30.1784 102.235 30.8646 102.212C31.5507 102.19 32.225 102.027 32.8455 101.733L33.9477 101.208L33.6328 96.0903Z" fill="#2672AB"/>
<path d="M31.9269 96.6414C30.8871 96.8218 29.8171 96.6846 28.8564 96.2477C28.5494 96.1006 28.2143 96.0217 27.874 96.0162C27.5336 96.0107 27.1961 96.0788 26.8846 96.2159C26.573 96.353 26.2948 96.5558 26.0689 96.8104C25.843 97.0651 25.6748 97.3654 25.5759 97.6911L24.8411 100.316L29.3288 100.106C33.7115 99.1083 32.4256 96.5101 31.9269 96.6414Z" fill="#F0F8FF"/>
<path d="M4.29182 85.8291L4.63301 89.5032C4.63301 89.5032 1.48372 87.5611 1.30001 86.8788C1.20273 85.1306 1.20273 83.3783 1.30001 81.63L2.19231 82.7323C2.74445 83.067 3.21784 83.517 3.58018 84.0515C3.94251 84.5859 4.18525 85.1922 4.29182 85.8291Z" fill="#2672AB"/>
<path d="M4.29199 85.829L4.63318 89.5032C3.63581 88.5136 2.75526 87.4129 2.00878 86.2227C1.82507 85.4616 1.48389 81.42 1.48389 81.42L2.37619 82.5222C2.91923 82.8984 3.3725 83.3899 3.70367 83.9616C4.03484 84.5332 4.23573 85.1708 4.29199 85.829Z" fill="white"/>
<path d="M10.7217 68.193L11.614 66.8546C11.6514 67.1111 11.7405 67.3573 11.8758 67.5783C12.0111 67.7993 12.1899 67.9906 12.4013 68.1406L17.6501 71.5785C21.6183 74.2429 25.9028 76.4027 30.4047 78.0083L36.7032 80.2653L36.3621 80.9739C36.1849 81.342 35.8777 81.6316 35.4997 81.7867C35.1217 81.9418 34.6997 81.9514 34.315 81.8137L27.1767 79.1893C23.1766 77.7559 19.3687 75.8343 15.8393 73.4681L11.2728 70.3975C10.9166 70.1701 10.661 69.815 10.5585 69.405C10.456 68.995 10.5144 68.5613 10.7217 68.193Z" fill="#03336E"/>
<path opacity="0.5" d="M12.9788 65.805L19.8022 55.5436C19.9179 55.3654 20.069 55.2128 20.2462 55.0955C20.4233 54.9782 20.6227 54.8986 20.832 54.8617C21.0412 54.8248 21.2558 54.8313 21.4624 54.8809C21.6691 54.9305 21.8633 55.0221 22.033 55.1499L23.6863 56.3572C27.1293 58.9287 30.9316 60.9801 34.9712 62.4458L41.1386 64.6765C41.5187 64.8137 41.8316 65.0919 42.0123 65.4534C42.1931 65.8149 42.2279 66.2321 42.1096 66.6186C37.8233 67.7206 33.4132 68.2675 28.9876 68.2457C23.5531 68.3223 18.1435 67.4976 12.9788 65.805Z" fill="#2672AB"/>
<path opacity="0.7" d="M50.7964 50.8457L31.0347 39.5871L98.7179 0.929688L118.48 11.9784L50.7964 50.8457Z" fill="#F0F8FF"/>
<path d="M49.7203 77.9296L49.3004 82.9423C49.2903 83.1204 49.2371 83.2934 49.1454 83.4464C49.0538 83.5995 48.9263 83.7279 48.774 83.8208C48.6217 83.9138 48.4492 83.9684 48.2712 83.9799C48.0931 83.9914 47.915 83.9596 47.752 83.8871L42.2932 82.2337C42.0654 82.1414 41.8761 81.9739 41.7567 81.759C41.6374 81.5441 41.5952 81.2949 41.6371 81.0527L43.4217 76.3551C43.4476 76.1936 43.5083 76.0397 43.5996 75.904C43.6908 75.7683 43.8105 75.6541 43.9503 75.5692C44.0901 75.4843 44.2466 75.4309 44.4091 75.4125C44.5716 75.3941 44.7362 75.4113 44.8914 75.4628L48.9592 76.775C49.1988 76.8517 49.405 77.0081 49.5434 77.2181C49.6818 77.4282 49.7442 77.6792 49.7203 77.9296Z" fill="#D1EBFF"/>
<path opacity="0.7" d="M48.1719 83.572L48.5918 78.5594C48.6172 78.3055 48.5557 78.0505 48.4175 77.836C48.2792 77.6216 48.0724 77.4602 47.8307 77.3784L43.7367 76.0662H43.4742C43.5933 75.8283 43.7943 75.6415 44.0403 75.5402C44.2863 75.4389 44.5606 75.43 44.8127 75.5151L48.8805 76.8273C49.1201 76.904 49.3262 77.0604 49.4647 77.2704C49.6031 77.4805 49.6655 77.7316 49.6416 77.982L49.2216 82.9947C49.2117 83.1395 49.1732 83.281 49.1084 83.411C49.0435 83.5409 48.9536 83.6567 48.8439 83.7518C48.7342 83.8469 48.6067 83.9195 48.4689 83.9652C48.331 84.0109 48.1855 84.0288 48.0407 84.0181C48.1334 83.8884 48.1796 83.7313 48.1719 83.572Z" fill="#72B5E8"/>
<path opacity="0.7" d="M50.429 89.5557L102.156 59.8737C100.771 62.1209 99.9934 64.6891 99.8989 67.327C99.8577 67.8511 99.8577 68.3776 99.8989 68.9017L52.7909 95.4606C52.7909 95.1457 52.7909 94.8307 52.7909 94.5158C52.9297 93.5483 52.7796 92.5614 52.3594 91.6789C51.9391 90.7964 51.2676 90.0578 50.429 89.5557Z" fill="#3F92D1"/>
<path opacity="0.7" d="M114.805 58.7188C114.898 57.7881 114.739 56.8498 114.347 56.0008C113.955 55.1518 113.343 54.4231 112.575 53.8899L128.662 44.652V50.0583C128.677 50.8267 128.482 51.5847 128.099 52.2506C127.715 52.9165 127.157 53.4651 126.484 53.8374L114.543 60.6346C114.681 60.0039 114.768 59.3633 114.805 58.7188Z" fill="#3F92D1"/>
<path d="M101.605 60.976C101.788 60.6085 101.946 60.2411 102.156 59.8737L50.429 89.5557C50.6562 89.6623 50.8754 89.7851 51.0851 89.9231L101.605 60.976Z" fill="#D1EBFF"/>
<path d="M128.662 45.4134V50.1635V44.7573L112.575 53.9952C112.776 54.1211 112.961 54.2709 113.126 54.4413L128.662 45.4134Z" fill="#D1EBFF"/>
<path d="M38.6454 99.1609L33.0816 102.153C32.0792 102.634 30.9873 102.902 29.8757 102.938C28.7642 102.974 27.6573 102.778 26.6256 102.363L22.4003 100.683C15.8335 98.0238 9.65449 94.4929 4.02953 90.1854L0.617798 87.561V92.6524C0.620361 93.04 0.708775 93.4222 0.87667 93.7716C1.04457 94.121 1.28778 94.4289 1.58883 94.6731L2.03498 95.0143C9.70533 100.341 17.9768 104.746 26.6781 108.136C27.7103 108.464 28.798 108.579 29.8759 108.475C30.9538 108.372 31.9996 108.051 32.9504 107.533L38.1992 104.383L38.6454 99.1609Z" fill="#03336E"/>
<path d="M26.2844 97.8225L27.6229 100.657C27.6229 100.657 31.7169 98.0324 31.3233 97.2451C30.9296 96.4578 26.2844 97.8225 26.2844 97.8225Z" fill="#FFCC00"/>
<path d="M28.069 99.8434C28.069 100.552 27.5704 100.841 26.9405 100.473C26.6204 100.253 26.3531 99.965 26.158 99.6291C25.9628 99.2933 25.8447 98.9183 25.812 98.5312C25.812 97.8227 26.3106 97.534 26.9405 97.8751C27.2639 98.0979 27.5331 98.3904 27.7284 98.7311C27.9237 99.0717 28.0401 99.4518 28.069 99.8434Z" fill="#FFDE17"/>
<path d="M29.0662 98.3736L30.1422 100.657C30.1422 100.657 33.3964 98.636 33.0815 98.0324C32.7666 97.4288 29.0662 98.3736 29.0662 98.3736Z" fill="#FFCC00"/>
<path d="M30.4836 100.001C30.4836 100.552 30.0899 100.788 29.5913 100.499C29.3309 100.33 29.1144 100.101 28.9593 99.8322C28.8042 99.5631 28.715 99.2611 28.699 98.9509C28.699 98.3735 29.0926 98.1374 29.5913 98.4261C29.8536 98.5996 30.0712 98.8326 30.2263 99.1063C30.3814 99.3799 30.4695 99.6864 30.4836 100.001Z" fill="#FFDE17"/>
<path d="M2.03491 85.3568L2.95345 87.2988C2.95345 87.2988 4.5281 86.1179 4.23942 85.5143C3.95073 84.9106 2.03491 85.3568 2.03491 85.3568Z" fill="#FFCC00"/>
<path d="M3.26848 86.7475C3.27626 86.8423 3.25675 86.9374 3.21226 87.0215C3.16776 87.1056 3.10013 87.1752 3.01736 87.2221C2.93458 87.269 2.8401 87.2912 2.74509 87.2862C2.65008 87.2812 2.5585 87.249 2.48115 87.1936C2.26243 87.0415 2.08055 86.8423 1.94885 86.6107C1.81715 86.3791 1.73899 86.121 1.72009 85.8552C1.72009 85.3566 2.06125 85.1729 2.48115 85.4091C2.70893 85.5539 2.89907 85.7509 3.03594 85.9835C3.17281 86.2162 3.25251 86.478 3.26848 86.7475Z" fill="#FFDE17"/>
<path d="M1.6676 83.7556L2.34995 85.1728C2.34995 85.1728 3.47844 84.3067 3.26849 83.8606C3.05854 83.4144 1.6676 83.7556 1.6676 83.7556Z" fill="#FFCC00"/>
<path d="M2.55977 84.753C2.55977 85.1204 2.29732 85.2779 1.9824 85.0942C1.82208 84.9856 1.68896 84.8415 1.59338 84.6731C1.49779 84.5047 1.44233 84.3165 1.43127 84.1232C1.43127 83.7558 1.66747 83.6245 1.9824 83.782C2.1462 83.8892 2.28335 84.0324 2.38341 84.2007C2.48347 84.369 2.5438 84.5579 2.55977 84.753Z" fill="#FFDE17"/>
<path d="M31.0871 96.7726C31.8069 96.7418 32.5127 96.5631 33.1604 96.2477V100.893L32.4256 101.339C31.8698 101.589 31.2748 101.74 30.6672 101.785L31.0871 96.7726Z" fill="#D62D69"/>
<path d="M24.3161 95.3294L23.765 96.7729C23.6633 97.0507 23.504 97.3039 23.2975 97.5159C23.0911 97.7278 22.8422 97.8938 22.5671 98.0028C22.2921 98.1119 21.9971 98.1615 21.7015 98.1485C21.4059 98.1355 21.1164 98.0603 20.8519 97.9276C18.8311 96.9303 15.6031 95.3032 12.9787 93.8073C10.3543 92.3114 7.72992 90.5268 6.49646 89.7132C6.22182 89.5357 5.99304 89.2958 5.82884 89.013C5.66464 88.7302 5.56968 88.4126 5.55167 88.0861L5.39419 85.4617C5.38744 85.3514 5.41111 85.2414 5.46259 85.1436C5.51407 85.0458 5.59138 84.9641 5.68612 84.9073C5.78087 84.8504 5.8894 84.8206 5.9999 84.8212C6.11039 84.8218 6.21861 84.8527 6.31275 84.9105C8.01861 86.039 11.5615 88.401 14.6321 90.1593C17.6331 91.8192 20.7163 93.3258 23.87 94.6733C24.0111 94.7103 24.134 94.7971 24.216 94.9177C24.298 95.0384 24.3336 95.1846 24.3161 95.3294Z" fill="#03336E"/>
<path d="M6.18149 84.7793C6.15086 84.882 6.15086 84.9915 6.18149 85.0942L6.33895 87.7186C6.35695 88.0451 6.45194 88.3627 6.61614 88.6455C6.78034 88.9283 7.0091 89.1682 7.28373 89.3457C8.49096 90.1593 10.8792 91.7077 13.766 93.4398C16.6528 95.1719 19.4872 96.5628 21.6392 97.5601C21.927 97.7096 22.2466 97.7877 22.5709 97.7877C22.8952 97.7877 23.2147 97.7096 23.5025 97.5601C23.1877 97.8372 22.7979 98.0149 22.3823 98.0709C21.9667 98.127 21.5438 98.0588 21.1668 97.875C19.146 96.8778 15.918 95.2506 13.2936 93.7547C10.6692 92.2588 8.04481 90.4742 6.81134 89.6606C6.5367 89.4832 6.30795 89.2433 6.14375 88.9605C5.97955 88.6777 5.88456 88.36 5.86656 88.0335L5.7091 85.4091C5.69353 85.2639 5.73362 85.1181 5.82128 85.0012C5.90895 84.8843 6.03767 84.805 6.18149 84.7793Z" fill="#001A46"/>
<path opacity="0.7" d="M9.14718 71.3947C9.14718 71.3947 3.89839 78.953 4.34454 80.6064C4.79069 82.2598 12.7951 87.2986 17.0729 89.2407C21.3506 91.1827 29.1714 94.7519 31.0084 93.4922C32.8455 92.2325 34.3939 82.9946 34.3939 82.9946C29.3058 81.6315 24.3308 79.8767 19.5136 77.7458C15.7359 76.2063 12.2345 74.0611 9.14718 71.3947Z" fill="#F0F8FF"/>
<path d="M11.4302 73.2581C11.4868 73.196 11.5557 73.1465 11.6325 73.1125C11.7094 73.0786 11.7924 73.061 11.8764 73.061C11.9604 73.061 12.0434 73.0786 12.1203 73.1125C12.1971 73.1465 12.266 73.196 12.3225 73.2581L15.5768 75.4626C18.1033 77.1522 20.8265 78.5271 23.6862 79.5567L27.2291 80.8163C27.2877 80.8365 27.3414 80.8686 27.3869 80.9106C27.4323 80.9526 27.4686 81.0036 27.4932 81.0604C27.5179 81.1172 27.5305 81.1784 27.5302 81.2403C27.53 81.3022 27.5168 81.3634 27.4916 81.42C27.3821 81.6599 27.1863 81.8497 26.9431 81.9519C26.7 82.054 26.4273 82.0608 26.1794 81.9711L21.6392 80.344C19.0918 79.4313 16.6676 78.2059 14.4221 76.696L11.5352 74.754C11.4289 74.6635 11.3417 74.5527 11.2787 74.428C11.2157 74.3034 11.1782 74.1674 11.1685 74.0281C11.1587 73.8888 11.1768 73.7489 11.2218 73.6167C11.2667 73.4845 11.3376 73.3625 11.4302 73.2581Z" fill="#03336E"/>
<path d="M129.187 45.1248L126.143 46.7256V54.4151C127.111 53.9934 127.93 53.2894 128.492 52.3952C129.053 51.5009 129.332 50.4579 129.292 49.4025L129.187 45.1248Z" fill="#03336E"/>
<path opacity="0.5" d="M49.353 59.5589L123.466 16.9124L123.755 17.4111L75.3083 45.2822V74.9642L74.731 75.2528V45.6234L58.0923 55.1762V84.9631L57.5149 85.278V55.5173L49.6417 60.0575L49.353 59.5589Z" fill="#72B5E8"/>
<path opacity="0.7" d="M52.4236 79.3995C52.4236 80.3705 53.0797 80.7379 53.9195 80.2655C54.3594 79.9783 54.7245 79.5904 54.9846 79.134C55.2448 78.6777 55.3924 78.1659 55.4154 77.6411C55.4154 76.6963 54.7331 76.3027 53.9195 76.7751C53.4766 77.059 53.1091 77.4461 52.8486 77.9031C52.5881 78.3602 52.4422 78.8737 52.4236 79.3995Z" fill="#72B5E8"/>
<path d="M52.4498 79.3468C52.1086 80.0029 52.7123 80.1078 53.762 79.5829C54.8151 79.1158 55.7221 78.3722 56.3864 77.431C56.7013 76.7749 56.124 76.6699 55.0479 77.1947C54.0016 77.6613 53.1031 78.4056 52.4498 79.3468Z" fill="#72B5E8"/>
<path opacity="0.7" d="M59.798 75.4364C59.798 76.3812 60.4541 76.7749 61.2939 76.2762C61.7338 75.989 62.0989 75.6012 62.3591 75.1448C62.6192 74.6884 62.7669 74.1766 62.7898 73.6518C62.7898 72.707 62.1075 72.3396 61.2939 72.812C60.851 73.0959 60.4835 73.483 60.223 73.9401C59.9624 74.3971 59.8166 74.9106 59.798 75.4364Z" fill="#72B5E8"/>
<path d="M59.8243 75.3577C59.4832 76.0401 60.0868 76.145 61.1365 75.5939C62.1897 75.1268 63.0966 74.3831 63.7609 73.4419C64.0759 72.7858 63.4985 72.6808 62.4225 73.2057C61.3761 73.6723 60.4776 74.4166 59.8243 75.3577Z" fill="#72B5E8"/>
<path d="M54.8234 78.6505C55.9024 77.867 56.5908 76.9753 56.3609 76.6586C56.131 76.3419 55.0699 76.7203 53.9908 77.5037C52.9117 78.2871 52.2234 79.1789 52.4533 79.4956C52.6832 79.8122 53.7443 79.4339 54.8234 78.6505Z" fill="#D1EBFF"/>
<path d="M59.8243 75.0953C59.4832 75.7514 60.0868 75.8564 61.1365 75.3315C62.1897 74.8644 63.0966 74.1207 63.7609 73.1795C64.0759 72.4971 63.4985 72.3922 62.4225 72.9433C61.3761 73.4099 60.4776 74.1542 59.8243 75.0953Z" fill="#D1EBFF"/>
<path d="M121.288 36.9888V38.5109L118.427 40.2168V38.6684L121.288 36.9888Z" fill="#D62D69"/>
<path d="M116.905 39.4821V40.978L114.044 42.6839V41.1355L116.905 39.4821Z" fill="#D62D69"/>
<path d="M112.522 41.949V43.4711L109.662 45.177V43.6286L112.522 41.949Z" fill="#D62D69"/>
<path d="M108.113 44.4424V45.9645L105.253 47.6441V46.122L108.113 44.4424Z" fill="#D62D69"/>
<path d="M103.731 46.9354V48.4313L100.87 50.1371V48.5887L103.731 46.9354Z" fill="#D62D69"/>
<path d="M99.3476 49.4022V50.9243L96.4871 52.6302V51.0818L99.3476 49.4022Z" fill="#D62D69"/>
<path d="M94.965 51.8956V53.3915L92.0781 55.0973V53.5489L94.965 51.8956Z" fill="#D62D69"/>
<path d="M90.556 54.3624V55.8845L87.6954 57.5904V56.042L90.556 54.3624Z" fill="#D62D69"/>
<path d="M86.1733 56.8558V58.3779L83.3127 60.0575V58.5354L86.1733 56.8558Z" fill="#D62D69"/>
<path d="M81.7906 59.3488V60.8447L78.9038 62.5505V61.0021L81.7906 59.3488Z" fill="#D62D69"/>
<path d="M78.3788 46.6993L81.0032 45.1771C81.8692 44.6785 82.4991 44.5735 82.9453 44.8359C83.3914 45.0984 83.5751 45.7807 83.5751 46.8042V53.2078C83.5806 54.1207 83.3644 55.0212 82.9453 55.8322C82.4781 56.6308 81.8081 57.2917 81.0032 57.748L78.3788 59.2701V46.6993ZM81.0032 56.0159C81.2828 55.868 81.5114 55.6394 81.6593 55.3598C81.8199 55.0249 81.8921 54.6545 81.8692 54.2838V47.7228C81.8692 47.2767 81.8692 47.0142 81.6593 46.9092C81.4493 46.8042 81.2919 46.9092 81.0032 46.9092L80.1109 47.4341V56.462L81.0032 56.0159Z" fill="#D62D69"/>
<path d="M84.9135 42.999L89.6374 40.3746V42.1854L86.6456 43.9175V47.2505L89.0075 45.8858V47.6966L86.6456 49.0613V52.9454L89.6374 51.2133V53.0242L84.9135 55.6486V42.999Z" fill="#D62D69"/>
<path d="M90.5035 39.6921L92.2356 38.6949V49.5336L95.07 47.9065V49.7174L90.5035 52.3418V39.6921Z" fill="#D62D69"/>
<path d="M95.9098 36.5691L97.6419 35.5718V48.2214L95.9098 49.2186V36.5691Z" fill="#D62D69"/>
<path d="M98.4817 35.0993L100.214 34.0758L101.369 43.235L102.497 32.7374L104.072 31.8188L102.418 45.4133L100.109 46.7517L98.4817 35.0993Z" fill="#D62D69"/>
<path d="M104.938 31.3727L109.662 28.7483V30.4804L106.67 32.2125V35.5717L109.058 34.1808V35.9917L106.67 37.3563V41.2405L109.662 39.5346V41.3192L104.938 43.9436V31.3727Z" fill="#D62D69"/>
<path d="M110.659 28.0658L113.283 26.5698C114.176 26.0712 114.832 25.9138 115.225 26.1762C115.619 26.4386 115.855 27.016 115.855 28.0133V28.7744C115.88 29.3496 115.791 29.924 115.593 30.4646C115.395 31.0051 115.092 31.5011 114.701 31.9236C114.868 31.8608 115.053 31.8638 115.219 31.932C115.384 32.0001 115.518 32.1284 115.593 32.2911C115.803 32.8063 115.893 33.3629 115.855 33.9182V36.1489C115.855 36.5163 115.855 36.805 115.855 37.015C115.876 37.2063 115.93 37.3926 116.013 37.5661L114.254 38.5896C114.242 38.4236 114.242 38.257 114.254 38.091C114.254 37.9072 114.254 37.5923 114.254 37.1199V34.8105C114.305 34.4351 114.222 34.0539 114.018 33.7345C113.861 33.7345 113.572 33.7345 113.178 33.8919L112.575 34.2331V39.6656L110.843 40.6629L110.659 28.0658ZM113.021 32.1073C113.342 31.934 113.613 31.681 113.808 31.3725C113.986 31.0046 114.076 30.6003 114.071 30.1915V29.1942C114.106 28.8898 114.032 28.5826 113.861 28.3282C113.703 28.3282 113.493 28.3282 113.178 28.3282L112.391 28.8006V32.396L113.021 32.1073Z" fill="#D62D69"/>
<path d="M118.348 30.9002L116.249 24.8378L118.086 23.7618L119.267 27.7246L120.448 22.4758L122.154 21.5048L120.054 29.9554V35.3617L118.322 36.3589L118.348 30.9002Z" fill="#D62D69"/>
<g style="mix-blend-mode:multiply">
<path d="M60.4541 71.4212C60.314 71.4247 60.1747 71.4001 60.0443 71.349C59.9139 71.2978 59.7951 71.221 59.6948 71.1232C59.5945 71.0253 59.5148 70.9084 59.4604 70.7793C59.4061 70.6502 59.3781 70.5115 59.3781 70.3715V59.3489C59.3672 58.868 59.4888 58.3933 59.7295 57.9767C59.9701 57.5602 60.3207 57.2178 60.7428 56.987L71.7128 50.6884C71.8706 50.593 72.0535 50.5472 72.2377 50.5572C72.5161 50.5572 72.7831 50.6678 72.98 50.8647C73.1768 51.0615 73.2874 51.3286 73.2874 51.607V62.7607C73.2983 63.2416 73.1768 63.7163 72.9361 64.1329C72.6954 64.5495 72.3448 64.8918 71.9227 65.1226L60.979 71.4212C60.8059 71.4573 60.6272 71.4573 60.4541 71.4212ZM72.2377 51.0034H72.0015L61.0315 57.3019C60.711 57.496 60.446 57.7694 60.2621 58.0958C60.0783 58.4223 59.9817 58.7906 59.9817 59.1652V70.3189C59.9789 70.3998 59.9982 70.4799 60.0375 70.5507C60.0768 70.6215 60.1345 70.6803 60.2046 70.7207C60.2748 70.7612 60.3545 70.7817 60.4355 70.7803C60.5164 70.7789 60.5954 70.7555 60.664 70.7126L71.6341 64.4403C71.9577 64.2475 72.2264 63.975 72.4148 63.6488C72.6032 63.3226 72.7048 62.9536 72.7101 62.5769V51.4757C72.7101 51.3505 72.6603 51.2303 72.5717 51.1417C72.4831 51.0531 72.3629 51.0034 72.2377 51.0034Z" fill="#A8CFF0"/>
</g>
<path opacity="0.7" d="M60.4542 71.4209C60.2635 71.4147 60.0761 71.37 59.9031 71.2896L60.218 70.7648C60.2821 70.8137 60.3605 70.8402 60.4411 70.8402C60.5217 70.8402 60.6001 70.8137 60.6641 70.7648L71.6341 64.4925C71.9577 64.2997 72.2265 64.0272 72.4149 63.701C72.6033 63.3748 72.7049 63.0058 72.7102 62.6291V51.4754C72.7123 51.3807 72.686 51.2875 72.6345 51.2079C72.583 51.1284 72.5088 51.0661 72.4215 51.0293L72.6314 50.4781C72.825 50.5638 72.9898 50.7034 73.1062 50.8803C73.2225 51.0571 73.2855 51.2638 73.2875 51.4754V62.6291C73.2984 63.1101 73.1768 63.5848 72.9362 64.0014C72.6955 64.4179 72.3449 64.7603 71.9228 64.9911L60.9791 71.2896C60.8144 71.3673 60.636 71.4119 60.4542 71.4209Z" fill="#F0F8FF"/>
</svg>
