<svg width="72" height="75" viewBox="0 0 72 75" fill="none" xmlns="http://www.w3.org/2000/svg">
<path d="M18.0608 16.4931L19.6617 23.1065L19.3206 23.2903L16.3812 16.9129L18.0608 16.4931Z" fill="#F0F8FF"/>
<path d="M17.5097 16.1519L19.1106 22.7654L18.7694 22.9491L15.8301 16.598L17.5097 16.1519Z" fill="#A8CFF0"/>
<path d="M49.711 39.8764C49.6136 40.8785 49.7776 41.8888 50.187 42.8087C50.5963 43.7286 51.2371 44.5267 52.0468 45.1252L55.0648 46.936C56.587 47.7758 55.6159 45.86 57.8992 44.5478C60.3114 42.978 62.321 40.8634 63.7661 38.3744C65.2111 35.8854 66.0512 33.0918 66.2185 30.2186C66.2185 27.5942 68.6067 27.5942 67.1371 26.7019L63.9615 24.8911C63.0208 24.4885 61.9916 24.3374 60.9748 24.4524C59.9581 24.5674 58.9887 24.9447 58.1616 25.5472C55.725 27.1024 53.6898 29.2106 52.2214 31.7004C50.7531 34.1903 49.893 36.9915 49.711 39.8764Z" fill="#03336E"/>
<path d="M52.9391 41.7398C52.9391 46.9886 56.6657 49.1406 61.2584 46.49C63.6706 44.9201 65.6803 42.8055 67.1253 40.3166C68.5704 37.8276 69.4104 35.0339 69.5778 32.1608C69.5778 26.912 65.8511 24.7599 61.2584 27.4106C58.8462 28.9804 56.8366 31.095 55.3915 33.584C53.9465 36.073 53.1064 38.8666 52.9391 41.7398Z" fill="#084C94"/>
<path d="M60.8648 27.2006C61.6809 26.619 62.6301 26.2518 63.6251 26.1326C64.6202 26.0134 65.6292 26.146 66.5597 26.5183C65.7058 26.339 64.8247 26.3326 63.9683 26.4994C63.1119 26.6662 62.2976 27.0027 61.5733 27.4893C59.166 29.062 57.1615 31.1779 55.7211 33.6667C54.2807 36.1555 53.4446 38.9477 53.2802 41.8185C53.1567 42.8834 53.3377 43.9616 53.8023 44.9278C54.2668 45.894 54.9958 46.7087 55.9046 47.2773C53.8576 46.6999 52.5454 44.6528 52.5454 41.5561C52.7087 38.6783 53.5469 35.8795 54.9921 33.3856C56.4373 30.8918 58.4491 28.773 60.8648 27.2006Z" fill="#2672AB"/>
<path d="M61.3372 31.1897C59.8003 32.2237 58.5258 33.6018 57.6146 35.2145C56.7035 36.8272 56.1809 38.6301 56.0884 40.4801C56.0884 43.8656 58.5028 45.2302 61.3372 43.5244C62.8749 42.4975 64.1506 41.1246 65.0621 39.5158C65.9736 37.907 66.4955 36.1071 66.586 34.2602C66.7172 30.8748 64.3027 29.4838 61.3372 31.1897Z" fill="#A8CFF0"/>
<path d="M64.8014 30.6649C65.2569 31.0689 65.6125 31.573 65.8402 32.1377C66.0679 32.7024 66.1615 33.3122 66.1136 33.9192C66.0232 35.766 65.5013 37.566 64.5898 39.1748C63.6783 40.7836 62.4026 42.1564 60.8648 43.1833C60.3693 43.5367 59.7986 43.7704 59.1975 43.866C58.5964 43.9616 57.9814 43.9166 57.4006 43.7344C58.007 44.0833 58.7014 44.2492 59.4 44.212C60.0986 44.1747 60.7714 43.9359 61.3372 43.5244C62.875 42.4976 64.1507 41.1247 65.0622 39.5159C65.9737 37.9071 66.4956 36.1072 66.586 34.2603C66.6834 33.5512 66.5653 32.8291 66.2471 32.188C65.9288 31.5468 65.4251 31.0161 64.8014 30.6649Z" fill="#72B5E8"/>
<path d="M57.8729 38.8004C57.8729 40.5588 59.1326 41.4248 60.681 40.4013C61.4952 39.867 62.1731 39.1496 62.6607 38.3066C63.1483 37.4636 63.432 36.5183 63.4891 35.5461C63.4891 33.7615 62.2294 32.9217 60.681 33.9453C59.864 34.4765 59.1838 35.1931 58.6959 36.0367C58.208 36.8804 57.926 37.8273 57.8729 38.8004Z" fill="#084C94"/>
<path d="M58.3453 39.0629C58.3453 40.8475 59.605 41.6873 61.1534 40.6638C61.9568 40.1429 62.6285 39.4429 63.1157 38.6187C63.603 37.7945 63.8925 36.8686 63.9615 35.9136C63.9615 34.129 62.7018 33.2892 61.1534 34.3127C60.3487 34.8321 59.6759 35.5317 59.1885 36.3563C58.7011 37.1808 58.4124 38.1075 58.3453 39.0629Z" fill="#2672AB"/>
<path d="M52.1518 43.7869L51.1808 42.1073L64.539 34.2341C65.1447 33.8874 65.6482 33.3869 65.9984 32.7832C66.3487 32.1795 66.5333 31.4941 66.5335 30.7961V21.9256H68.5018V30.7961C68.5218 31.8562 68.2572 32.9022 67.7356 33.8254C67.2141 34.7485 66.4546 35.515 65.5362 36.0449L52.1518 43.7869Z" fill="#084C94"/>
<path d="M66.9284 28.4603L51.8138 37.3421L52.8111 39.0391L67.9256 30.1573L66.9284 28.4603Z" fill="#084C94"/>
<path d="M12.1559 21.4006C12.1352 21.4413 12.1244 21.4862 12.1244 21.5319C12.1244 21.5775 12.1352 21.6225 12.1559 21.6631L16.3287 24.0513C16.4539 23.9644 16.5586 23.8513 16.6356 23.7199C16.7127 23.5885 16.7602 23.4418 16.7749 23.2902C16.7749 23.159 16.7749 23.159 16.7749 23.1065L12.6021 20.7183C12.5552 20.6878 12.5005 20.6716 12.4446 20.6716C12.3887 20.6716 12.334 20.6878 12.2872 20.7183C12.1583 20.9208 12.1114 21.1648 12.1559 21.4006Z" fill="#03336E"/>
<path d="M16.3025 23.7888C16.2906 23.8446 16.2973 23.9028 16.3214 23.9545C16.3456 24.0062 16.386 24.0486 16.4364 24.0753C16.4868 24.102 16.5446 24.1116 16.6009 24.1025C16.6573 24.0934 16.7091 24.0662 16.7486 24.025C16.8744 23.945 16.9801 23.8371 17.0575 23.7096C17.1348 23.5822 17.1818 23.4387 17.1948 23.2902C17.1948 23.0015 16.9848 22.8965 16.7486 23.0277C16.6195 23.1103 16.5117 23.2224 16.4341 23.3547C16.3566 23.487 16.3115 23.6357 16.3025 23.7888Z" fill="#022652"/>
<path d="M16.145 23.92C16.1347 24.0001 16.1464 24.0814 16.1788 24.1554C16.2111 24.2293 16.2629 24.2931 16.3287 24.3399L18.4544 25.5734C18.4544 25.5734 18.4544 25.5734 18.6906 25.3897C18.8835 25.2566 19.0431 25.0808 19.1569 24.876C19.2707 24.6711 19.3356 24.4428 19.3467 24.2087C19.3467 23.9987 19.5567 23.9987 19.3467 23.92L17.1947 22.7128C17.1239 22.6686 17.042 22.6452 16.9585 22.6452C16.875 22.6452 16.7932 22.6686 16.7223 22.7128C16.5374 22.854 16.3886 23.037 16.2883 23.2469C16.1879 23.4568 16.1388 23.6875 16.145 23.92Z" fill="#2672AB"/>
<path d="M18.2708 25.1536C18.2563 25.2382 18.2681 25.3252 18.3046 25.4029C18.3411 25.4806 18.4005 25.5452 18.4748 25.5881C18.5492 25.631 18.6349 25.6501 18.7204 25.6428C18.8059 25.6355 18.8871 25.6022 18.9531 25.5473C19.1468 25.4129 19.3084 25.2373 19.4264 25.0331C19.5443 24.829 19.6157 24.6013 19.6355 24.3664C19.6355 23.9464 19.3205 23.7627 18.9531 23.9989C18.7574 24.125 18.5937 24.2951 18.4753 24.4955C18.3568 24.696 18.2868 24.9213 18.2708 25.1536Z" fill="#3F92D1"/>
<path d="M53.8051 45.5977L30.0281 59.297L18.1658 52.631L42.0478 38.8005L53.8051 45.5977Z" fill="#D1EBFF"/>
<path d="M42.2316 50.5315L33.5711 45.5189L19.8455 53.4708L28.5847 58.4047L42.2316 50.5315Z" fill="#2672AB"/>
<path d="M53.8052 45.5977V48.0383L29.6607 62.0527L20.1604 49.6392L24.3857 31.0585L17.1423 26.9382L19.583 25.7309L26.6164 29.7725L22.6011 49.0618L30.0281 59.297L53.8052 45.5977Z" fill="#72B5E8"/>
<path d="M24.3857 31.0584L17.1423 26.9381L8.56055 43.5505L20.1604 49.6391L24.3857 31.0584Z" fill="#A8CFF0"/>
<path d="M24.3857 31.0585L17.1423 26.9382L19.583 25.7309L26.6164 29.7725L24.3857 31.0585Z" fill="#D1EBFF"/>
<path d="M29.6607 62.0527L11.6311 51.87L8.56055 43.5507L20.1604 49.6392L29.6607 62.0527Z" fill="#3F92D1"/>
<path d="M23.3096 57.2762L14.5703 51.8437C16.5651 51.0368 18.7954 51.0368 20.7901 51.8437C21.6279 52.469 22.2969 53.293 22.7368 54.2414C23.1766 55.1898 23.3734 56.2327 23.3096 57.2762Z" fill="#03336E"/>
<path d="M1.34341 66.8028C1.24861 67.8047 1.41375 68.8141 1.8229 69.7335C2.23204 70.653 2.87137 71.4514 3.67913 72.0516L6.69719 73.8625C8.1931 74.7023 7.22207 72.7865 9.5053 71.4743C11.921 69.9018 13.9327 67.7831 15.378 65.2892C16.8232 62.7954 17.6613 59.9965 17.8246 57.1188C17.8246 54.4944 20.2391 54.4944 18.7694 53.6283C18.7694 53.6283 15.5152 51.7913 15.4627 51.7913C14.5247 51.3824 13.4963 51.2255 12.4791 51.3359C11.4619 51.4464 10.4911 51.8204 9.66277 52.4211C7.24367 53.9961 5.22976 56.119 3.78435 58.6177C2.33893 61.1164 1.50269 63.9206 1.34341 66.8028Z" fill="#03336E"/>
<path d="M4.57141 68.6661C4.57141 73.9149 8.29806 76.0669 12.8908 73.4162C15.3064 71.8438 17.3182 69.725 18.7634 67.2312C20.2086 64.7374 21.0468 61.9385 21.2101 59.0608C21.2101 53.812 17.4835 51.6599 12.8908 54.3106C10.4751 55.883 8.46335 58.0018 7.01811 60.4956C5.57287 62.9894 4.73472 65.7883 4.57141 68.6661Z" fill="#084C94"/>
<path d="M12.4971 54.1269C13.3069 53.5433 14.2504 53.1726 15.241 53.0488C16.2315 52.925 17.2372 53.052 18.1658 53.4183C17.3161 53.2397 16.4392 53.2337 15.5872 53.4005C14.7351 53.5673 13.9253 53.9035 13.2057 54.3893C10.79 55.9617 8.77825 58.0805 7.33301 60.5744C5.88778 63.0682 5.04963 65.8671 4.88632 68.7448C4.76798 69.8055 4.95149 70.8781 5.41577 71.8392C5.88005 72.8002 6.60622 73.6107 7.51072 74.1773C5.48994 73.6262 4.17773 71.5529 4.17773 68.4561C4.34507 65.5829 5.18512 62.7892 6.63018 60.3003C8.07524 57.8113 10.0849 55.6967 12.4971 54.1269Z" fill="#2672AB"/>
<path d="M12.9433 58.116C11.3777 59.1309 10.0743 60.5016 9.13934 62.1161C8.20436 63.7307 7.6643 65.5434 7.56323 67.4064C7.56323 70.8181 9.97769 72.1828 12.9433 70.4769C14.4795 69.4485 15.7542 68.0753 16.6655 66.4669C17.5768 64.8584 18.0996 63.0592 18.1921 61.2128C18.3233 57.7748 15.9088 56.4101 12.9433 58.116Z" fill="#A8CFF0"/>
<path d="M16.4336 57.5911C16.8891 57.9951 17.2447 58.4993 17.4724 59.064C17.7001 59.6287 17.7937 60.2384 17.7458 60.8454C17.6534 62.6918 17.1306 64.491 16.2193 66.0995C15.308 67.708 14.0333 69.0812 12.497 70.1095C11.996 70.4514 11.4245 70.676 10.8248 70.7669C10.2251 70.8577 9.61264 70.8125 9.03284 70.6344C9.64596 71.0164 10.3605 71.2033 11.0822 71.1705C11.8038 71.1377 12.4985 70.8867 13.0744 70.4507C14.6107 69.4223 15.8853 68.0491 16.7967 66.4406C17.708 64.8322 18.2307 63.033 18.3232 61.1866C18.4149 60.4658 18.2828 59.7343 17.9448 59.0912C17.6068 58.448 17.0793 57.9244 16.4336 57.5911Z" fill="#72B5E8"/>
<path d="M9.479 65.7006C9.479 67.4852 10.7387 68.325 12.2871 67.3015C13.1071 66.7734 13.7895 66.0575 14.2778 65.2132C14.7661 64.3689 15.0463 63.4205 15.0952 62.4463C15.0952 60.688 13.8617 59.8219 12.2871 60.8717C11.4721 61.3988 10.7929 62.1109 10.305 62.95C9.81705 63.7891 9.53405 64.7315 9.479 65.7006Z" fill="#084C94"/>
<path d="M9.95142 65.9893C9.95142 67.7477 11.2111 68.4825 12.7595 67.5902C13.5737 67.0559 14.2516 66.3385 14.7392 65.4955C15.2268 64.6525 15.5105 63.7072 15.5676 62.735C15.5676 60.9505 14.3079 60.2419 12.7595 61.1342C11.9425 61.6654 11.2623 62.382 10.7744 63.2256C10.2865 64.0693 10.0045 65.0162 9.95142 65.9893Z" fill="#2672AB"/>
<path d="M18.2296 50.6133L12.2002 63.4965L13.6026 64.1528L19.6321 51.2697L18.2296 50.6133Z" fill="#2672AB"/>
<path d="M0.477295 56.9088C2.16027 53.4939 4.7588 50.6137 7.98307 48.5894C8.96026 47.8784 10.1059 47.4342 11.307 47.3007C12.5081 47.1673 13.7233 47.3491 14.8328 47.8283L20.6064 51.0301C20.803 51.1294 20.9737 51.2732 21.1051 51.45C19.9689 50.7574 18.6509 50.4221 17.3219 50.4876C15.9929 50.5531 14.7143 51.0164 13.6518 51.8174C10.4465 53.8754 7.87532 56.7826 6.22473 60.2155L0.477295 56.9088Z" fill="#3F92D1"/>
<path d="M5.75232 59.9794C7.43873 56.5668 10.0365 53.6875 13.2581 51.66C14.1511 51.0431 15.1684 50.6295 16.2384 50.4481C17.3085 50.2667 18.4053 50.3221 19.4517 50.6103C17.4418 50.2269 15.3616 50.641 13.6518 51.765C10.4464 53.8342 7.87591 56.7499 6.22471 60.1893L5.75232 59.9794Z" fill="#72B5E8"/>
<path d="M6.22473 60.2156C7.85099 56.7249 10.4242 53.7607 13.6518 51.6601C19.0318 48.5633 23.3883 51.004 23.467 57.0926H23.3096C23.0209 51.8438 19.0318 49.6918 14.1767 52.4999C11.5367 54.1544 9.34608 56.4351 7.79937 59.1396L6.22473 60.2156Z" fill="#2672AB"/>
<path d="M19.9767 23.2378C19.9767 23.2378 19.9767 23.2378 19.9767 23.0803L19.3993 22.0568L21.1051 21.112C21.4751 20.9918 21.8672 20.9554 22.253 21.0053C22.6388 21.0552 23.0087 21.1903 23.3359 21.4007C24.2895 22.0712 25.0393 22.9922 25.5025 24.0621C25.9656 25.1319 26.124 26.3089 25.9603 27.4631V29.825L24.2282 30.8223L22.4961 27.8305L19.3206 25.9672L19.9767 23.2378Z" fill="#3F92D1"/>
<path d="M17.8246 26.9907L24.5955 30.8223L25.0154 28.1979C25.1792 27.0437 25.0207 25.8667 24.5576 24.7969C24.0945 23.7271 23.3447 22.8061 22.391 22.1356C20.554 21.0858 18.7956 22.1356 18.4282 24.3663L17.8246 26.9907Z" fill="#2672AB"/>
<path d="M24.8842 29.0114C24.874 29.0915 24.8857 29.1728 24.918 29.2467C24.9504 29.3207 25.0022 29.3845 25.0679 29.4313L27.2199 30.6648C27.2199 30.6648 27.2199 30.6648 27.4561 30.481C27.6553 30.3524 27.8211 30.1782 27.9397 29.9729C28.0584 29.7675 28.1265 29.5369 28.1385 29.3001C28.1385 29.0901 28.3222 29.0901 28.1385 29.0377L26.0127 27.8042C25.9419 27.76 25.86 27.7365 25.7765 27.7365C25.693 27.7365 25.6112 27.76 25.5403 27.8042C25.3424 27.9383 25.1796 28.118 25.0655 28.328C24.9513 28.5381 24.8892 28.7724 24.8842 29.0114Z" fill="#2672AB"/>
<path d="M27.0363 30.2448C27.0363 30.6647 27.3249 30.8484 27.6924 30.6385C27.8887 30.5068 28.0523 30.3319 28.1706 30.1272C28.2888 29.9224 28.3587 29.6934 28.3747 29.4575C28.3747 29.0376 28.0598 28.8539 27.6924 29.0901C27.5 29.2175 27.3404 29.3885 27.2264 29.5891C27.1124 29.7897 27.0473 30.0143 27.0363 30.2448Z" fill="#3F92D1"/>
<path d="M27.22 30.14C27.2132 30.1918 27.2221 30.2444 27.2455 30.2912C27.2689 30.338 27.3057 30.3767 27.3512 30.4024L31.4977 32.8169C31.4977 32.8169 31.4977 32.8169 31.6552 32.8169C31.7844 32.7342 31.8922 32.6222 31.9697 32.4899C32.0472 32.3576 32.0924 32.2088 32.1014 32.0558C32.1014 32.0558 32.1014 32.0558 32.1014 31.8721L27.9548 29.4839C27.9548 29.4839 27.7711 29.4839 27.6399 29.4839C27.5284 29.5583 27.4335 29.655 27.3613 29.7679C27.289 29.8809 27.2409 30.0075 27.22 30.14Z" fill="#03336E"/>
<path d="M31.4978 32.5281C31.4978 32.8168 31.6815 32.9217 31.9439 32.7905C32.0655 32.7022 32.1661 32.5883 32.2387 32.4568C32.3113 32.3252 32.354 32.1793 32.3638 32.0294C32.3638 31.7407 32.1801 31.6358 31.9439 31.767C31.8148 31.8496 31.707 31.9617 31.6295 32.0939C31.5519 32.2262 31.5068 32.375 31.4978 32.5281Z" fill="#022652"/>
<path d="M39.5022 23.5526L59.0015 12.2939L70.7325 19.0124L50.8396 35.0737L44.751 50.8201L33.0199 44.0754V34.6538C33.018 32.3947 33.6174 30.1757 34.7566 28.2248C35.8958 26.2738 37.5337 24.6612 39.5022 23.5526Z" fill="#A8CFF0"/>
<path d="M70.7324 19.065V21.5581L63.9615 25.626C61.9899 26.8317 60.2782 28.4181 58.9264 30.2926C57.5746 32.167 56.6098 34.292 56.0883 36.5435L53.91 45.5977L44.8821 50.8465V41.3986C44.8822 39.1465 45.4799 36.9347 46.6141 34.989C47.7483 33.0433 49.3784 31.4334 51.3381 30.3236L70.7324 19.065Z" fill="#72B5E8"/>
<path d="M57.5581 17.9627V28.5391L71.9923 20.3247V9.74835L57.5581 17.9627Z" fill="#084C94"/>
<path d="M57.5842 17.9627V28.539L43.3075 20.3771V9.80078L57.5842 17.9627Z" fill="#2672AB"/>
<path d="M57.5581 16.4405V27.0169L71.9923 18.8025V8.22614L57.5581 16.4405Z" fill="#A8CFF0"/>
<path d="M57.5842 16.4406V27.017L43.3075 18.8551V8.27875L57.5842 16.4406Z" fill="#D1EBFF"/>
<path d="M43.3075 8.27863L57.5842 16.4405L71.9922 8.22613L57.7154 0.0642395L43.3075 8.27863Z" fill="#F0F8FF"/>
<path d="M43.3075 8.27863L57.5842 16.4405L71.9922 8.22614L57.5842 15.9944L43.3075 8.27863Z" fill="white"/>
<path d="M53.4639 23.6314V26.2558C53.4682 26.6008 53.3805 26.9406 53.2098 27.2404C53.0391 27.5403 52.7917 27.7892 52.4929 27.9617L50.1309 29.4575C48.8252 30.324 47.7599 31.5067 47.0341 32.8955C46.3169 34.1275 45.3074 35.164 44.0948 35.9136L43.7536 36.0973L43.2812 28.5915L53.4639 23.6314Z" fill="#084C94"/>
<path d="M44.751 19.0912L39.1872 22.293C37.8218 23.3374 36.7176 24.6846 35.9616 26.2285C35.2056 27.7723 34.8185 29.4707 34.8307 31.1897L43.7537 36.281C43.7462 34.603 44.1148 32.9447 44.8324 31.4278C45.5499 29.9109 46.5982 28.5741 47.9002 27.5156L53.149 24.2876C53.2418 24.2349 53.319 24.1585 53.3726 24.0663C53.4263 23.9741 53.4546 23.8693 53.4546 23.7626C53.4546 23.656 53.4263 23.5512 53.3726 23.459C53.319 23.3668 53.2418 23.2905 53.149 23.2378L46.3518 19.1699C46.1176 19.012 45.8446 18.9212 45.5624 18.9073C45.2802 18.8934 44.9996 18.957 44.751 19.0912Z" fill="#2672AB"/>
<path opacity="0.5" d="M41.8378 28.0404C43.255 28.854 47.0866 26.5445 48.2939 25.7309L49.8685 24.7599C50.0312 24.6586 50.1655 24.5175 50.2585 24.3499C50.3516 24.1823 50.4004 23.9937 50.4004 23.802C50.4004 23.6103 50.3516 23.4218 50.2585 23.2542C50.1655 23.0866 50.0312 22.9455 49.8685 22.8441L46.8242 21.112C46.4252 20.8817 45.9727 20.7604 45.512 20.7604C45.0513 20.7604 44.5988 20.8817 44.1998 21.112L40.8406 23.0803C39.7646 23.6839 38.2162 26.0196 39.6333 26.7807L41.8378 28.0404Z" fill="#084C94"/>
<path d="M31.5765 26.0196L33.8335 28.0929C34.8833 28.6965 36.3004 27.6205 36.3004 26.2295C36.2842 25.5288 36.105 24.8414 35.7771 24.2218C35.4491 23.6023 34.9813 23.0677 34.4109 22.6604L31.5765 21.007C31.3057 20.8536 30.9991 20.7749 30.6879 20.7788C30.3767 20.7827 30.0721 20.869 29.8052 21.0292C29.5384 21.1893 29.3188 21.4174 29.1689 21.6902C29.019 21.9629 28.9442 22.2705 28.9521 22.5816L29.372 22.3455C29.4396 23.0842 29.6729 23.7982 30.0546 24.4343C30.4363 25.0704 30.9565 25.6123 31.5765 26.0196Z" fill="#F0F8FF"/>
<path d="M30.7105 23.2115L25.6978 26.5444L25.0942 27.0431L31.6552 24.6286L30.7105 23.2115Z" fill="#F0F8FF"/>
<path d="M31.3403 23.3165L25.0942 27.0431L25.173 27.4106L32.3376 25.0748L31.3403 23.3165Z" fill="#A8CFF0"/>
<path d="M30.8416 26.4133L33.6759 28.0404C34.6995 28.644 35.5393 28.0404 35.5393 26.6232C35.5261 25.921 35.3511 25.2312 35.028 24.6076C34.7048 23.984 34.2421 23.4434 33.6759 23.0278L30.8416 21.4006C29.7918 20.797 28.952 21.4006 28.952 22.8178C28.9642 23.5231 29.1414 24.2157 29.4696 24.8401C29.7977 25.4645 30.2676 26.0033 30.8416 26.4133Z" fill="#A8CFF0"/>
<path d="M12.8645 15.732L15.6989 17.3854C16.7224 17.9627 17.5885 17.3854 17.5885 15.9682C17.5723 15.2637 17.3932 14.5726 17.0654 13.9488C16.7376 13.3251 16.2699 12.7856 15.6989 12.3728L12.8645 10.7194C11.8148 10.142 10.975 10.7194 10.975 12.1366C10.985 12.8422 11.1614 13.5356 11.4897 14.1603C11.818 14.785 12.2891 15.3235 12.8645 15.732Z" fill="#A8CFF0"/>
<path d="M23.7295 28.0404C23.7603 28.3355 23.7135 28.6336 23.5939 28.9051C23.4742 29.1767 23.2858 29.4123 23.0472 29.5887C23.0472 29.5887 20.7115 32.4493 20.6852 32.4493C20.1078 32.7905 20.4753 32.0294 19.583 31.5308C18.6396 30.9138 17.8539 30.0845 17.2888 29.1092C16.7237 28.1339 16.3949 27.0398 16.3287 25.9146C16.3287 24.8911 15.3839 24.8911 15.9613 24.5499L19.6092 23.6576C19.8804 23.5371 20.1788 23.4906 20.4738 23.5229C20.7688 23.5552 21.0501 23.665 21.2888 23.8413C22.0038 24.2928 22.5991 24.9105 23.0241 25.6416C23.449 26.3727 23.691 27.1956 23.7295 28.0404Z" fill="#084C94"/>
<path d="M21.525 30.481C21.525 32.5281 20.0553 33.3679 18.2707 32.3182C17.3236 31.7115 16.5344 30.8882 15.9686 29.9161C15.4027 28.9441 15.0763 27.8513 15.0165 26.7282C15.0165 24.6549 16.4599 23.8413 18.2707 24.8648C19.2141 25.4818 19.9998 26.3112 20.5649 27.2865C21.13 28.2618 21.4588 29.3558 21.525 30.481Z" fill="#2672AB"/>
<path d="M18.4283 24.7861C18.1074 24.5606 17.7355 24.4185 17.3461 24.3727C16.9566 24.3269 16.5619 24.3788 16.1975 24.5236C16.868 24.3884 17.5648 24.5202 18.1396 24.8911C19.0829 25.508 19.8686 26.3374 20.4337 27.3127C20.9988 28.288 21.3276 29.382 21.3938 30.5073C21.4421 30.9222 21.3716 31.3423 21.1904 31.7186C21.0092 32.0949 20.7248 32.4121 20.3703 32.633C20.8068 32.4612 21.1732 32.1482 21.411 31.7439C21.6488 31.3396 21.7444 30.8672 21.6825 30.4023C21.6163 29.277 21.2875 28.183 20.7224 27.2077C20.1573 26.2324 19.3716 25.403 18.4283 24.7861Z" fill="#2672AB"/>
<path d="M18.2445 26.3346C17.0898 25.6785 16.145 26.3346 16.145 27.5418C16.1851 28.2681 16.3961 28.9748 16.7609 29.6042C17.1258 30.2335 17.6341 30.7678 18.2445 31.1635C19.3993 31.8458 20.3441 31.2947 20.3441 29.9562C20.2979 29.2313 20.0843 28.527 19.72 27.8986C19.3557 27.2702 18.8507 26.7349 18.2445 26.3346Z" fill="#FFCC00"/>
<path d="M16.8798 26.1508C16.7034 26.3068 16.5663 26.5021 16.4797 26.721C16.393 26.9399 16.3593 27.1762 16.3811 27.4105C16.4212 28.1369 16.6322 28.8436 16.9971 29.4729C17.3619 30.1023 17.8702 30.6365 18.4807 31.0322C18.6748 31.163 18.8953 31.2495 19.1266 31.2858C19.3578 31.322 19.5942 31.3072 19.8191 31.2422C19.5874 31.4013 19.3129 31.4865 19.0318 31.4865C18.7507 31.4865 18.4762 31.4013 18.2445 31.2422C17.634 30.8465 17.1257 30.3122 16.7609 29.6829C16.396 29.0535 16.185 28.3469 16.1449 27.6205C16.0912 27.329 16.1338 27.0279 16.2664 26.7627C16.399 26.4975 16.6143 26.2828 16.8798 26.1508Z" fill="#03336E"/>
<path d="M71.8347 15.1546V16.4668L69.3416 17.9627V16.6243L71.8347 15.1546Z" fill="#D62D69"/>
<path d="M68.0293 17.4116V18.7238L65.5624 20.1934V18.855L68.0293 17.4116Z" fill="#D62D69"/>
<path d="M64.224 19.6686V20.9808L61.7571 22.4505V21.112L64.224 19.6686Z" fill="#D62D69"/>
<path d="M71.8347 11.0081V12.9239L62.4131 18.5926V16.6243L71.8347 11.0081Z" fill="#D62D69"/>
</svg>
