<svg width="174" height="243" viewBox="0 0 174 243" fill="none" xmlns="http://www.w3.org/2000/svg">
<path opacity="0.2" d="M147.951 230.996C121.025 246.532 63.7604 242.385 63.7604 242.385C63.7604 242.385 56.5433 209.318 83.4697 193.755C101.158 183.546 129.948 183.599 147.741 193.887C165.535 204.174 165.64 220.787 147.951 230.996Z" fill="#2672AB"/>
<path d="M171.912 83.0319C171.627 83.0363 171.349 82.9459 171.121 82.7749C170.893 82.6038 170.728 82.3619 170.652 82.0871L170.127 80.3288C170.037 79.9948 170.079 79.6388 170.246 79.3355C170.412 79.0321 170.69 78.8049 171.02 78.7016C171.185 78.6497 171.359 78.6317 171.532 78.6488C171.704 78.6658 171.872 78.7176 172.023 78.8009C172.175 78.8843 172.309 78.9975 172.416 79.1338C172.523 79.27 172.602 79.4266 172.647 79.5939L173.172 81.3785C173.261 81.716 173.215 82.0749 173.043 82.3789C172.872 82.6829 172.588 82.9078 172.253 83.0056L171.912 83.0319ZM168.999 73.7678C168.73 73.764 168.469 73.6793 168.249 73.5249C168.029 73.3704 167.86 73.1532 167.765 72.9017C167.188 71.2483 166.611 69.6212 165.981 67.9941C165.918 67.8341 165.888 67.663 165.892 67.4912C165.897 67.3193 165.936 67.1501 166.007 66.9935C166.078 66.8369 166.179 66.6961 166.305 66.5795C166.432 66.4629 166.58 66.3727 166.742 66.3145C167.062 66.1935 167.418 66.2026 167.731 66.3399C168.045 66.4772 168.293 66.7318 168.422 67.0493C169.051 68.7027 169.681 70.356 170.232 72.0357C170.29 72.1958 170.316 72.366 170.308 72.5361C170.3 72.7063 170.258 72.8732 170.185 73.027C170.111 73.1808 170.008 73.3186 169.881 73.4322C169.754 73.5459 169.606 73.6332 169.445 73.689C169.302 73.7404 169.151 73.7671 168.999 73.7678ZM164.222 61.5643C163.968 61.5588 163.72 61.4821 163.506 61.343C163.293 61.2039 163.123 61.0078 163.015 60.777C162.333 59.1761 161.598 57.6015 160.863 56.0268C160.788 55.8702 160.745 55.7002 160.736 55.5267C160.727 55.3532 160.752 55.1796 160.811 55.016C160.869 54.8524 160.96 54.7021 161.077 54.5738C161.194 54.4455 161.336 54.3417 161.493 54.2685C161.807 54.1247 162.164 54.1102 162.488 54.2281C162.813 54.346 163.077 54.5868 163.225 54.8983C163.986 56.4992 164.721 58.1001 165.43 59.7272C165.504 59.9278 165.53 60.1431 165.506 60.3557C165.482 60.5683 165.408 60.7722 165.291 60.951C165.173 61.1298 165.015 61.2785 164.83 61.385C164.644 61.4915 164.436 61.553 164.222 61.5643ZM158.528 49.7283C158.291 49.7318 158.058 49.67 157.854 49.5496C157.65 49.4292 157.484 49.2549 157.373 49.0459C156.551 47.5063 155.676 45.9841 154.748 44.4795C154.584 44.1712 154.544 43.8115 154.637 43.4746C154.729 43.1377 154.948 42.8492 155.247 42.6686C155.55 42.4986 155.908 42.4556 156.242 42.5491C156.577 42.6426 156.861 42.8649 157.032 43.1673C157.924 44.7157 158.764 46.264 159.656 47.8124C159.738 47.9656 159.789 48.1335 159.806 48.3064C159.823 48.4794 159.805 48.6539 159.753 48.8199C159.702 48.9859 159.618 49.1401 159.507 49.2735C159.396 49.4069 159.259 49.5169 159.105 49.597C158.923 49.6775 158.727 49.7221 158.528 49.7283Z" fill="#A8CFF0"/>
<path d="M163.173 115.207C162.834 115.207 162.508 115.076 162.263 114.841C162.018 114.607 161.874 114.286 161.86 113.947C161.86 112.215 161.651 110.509 161.493 108.699C161.475 108.526 161.491 108.352 161.541 108.186C161.591 108.019 161.673 107.865 161.783 107.73C161.892 107.596 162.028 107.485 162.181 107.404C162.334 107.322 162.501 107.271 162.674 107.255C162.845 107.237 163.018 107.253 163.183 107.303C163.347 107.353 163.5 107.436 163.632 107.546C163.764 107.656 163.873 107.792 163.952 107.945C164.031 108.097 164.078 108.265 164.091 108.436C164.275 110.221 164.38 111.979 164.459 113.685C164.469 113.857 164.446 114.03 164.39 114.193C164.333 114.357 164.245 114.507 164.131 114.636C164.016 114.766 163.877 114.871 163.722 114.946C163.566 115.022 163.398 115.066 163.225 115.076L163.173 115.207ZM161.808 102.085C161.495 102.084 161.192 101.973 160.952 101.771C160.713 101.57 160.551 101.291 160.496 100.983C160.233 99.2769 159.918 97.571 159.577 95.734C159.508 95.386 159.579 95.0245 159.776 94.7292C159.973 94.4339 160.279 94.2289 160.627 94.1593C160.975 94.0897 161.336 94.1612 161.632 94.3581C161.927 94.555 162.132 94.8611 162.202 95.2091C162.543 96.9412 162.858 98.6733 163.146 100.458C163.2 100.799 163.117 101.147 162.915 101.426C162.714 101.706 162.41 101.896 162.07 101.954L161.808 102.085ZM159.184 89.2517C158.889 89.2499 158.604 89.1512 158.372 88.9709C158.139 88.7907 157.973 88.5389 157.898 88.2544C157.478 86.6011 157.005 84.9214 156.48 83.2681C156.428 83.101 156.41 82.9251 156.427 82.7508C156.444 82.5765 156.495 82.4074 156.578 82.2533C156.661 82.0992 156.774 81.9633 156.911 81.8537C157.047 81.744 157.204 81.6627 157.373 81.6147C157.538 81.5627 157.712 81.5448 157.885 81.5618C158.057 81.5789 158.225 81.6306 158.377 81.714C158.529 81.7973 158.662 81.9105 158.769 82.0468C158.876 82.1831 158.955 82.3396 159 82.507C159.525 84.1866 159.997 85.8925 160.443 87.5983C160.487 87.7655 160.497 87.9396 160.473 88.1106C160.449 88.2816 160.391 88.4462 160.303 88.5949C160.215 88.7436 160.099 88.8736 159.961 88.9773C159.823 89.081 159.666 89.1564 159.499 89.1992L159.184 89.2517ZM155.273 76.7071C155.002 76.715 154.735 76.6349 154.513 76.4789C154.29 76.3228 154.125 76.0991 154.04 75.841C153.436 74.2139 152.833 72.5868 152.176 70.9859C152.054 70.6617 152.063 70.3029 152.2 69.9847C152.337 69.6666 152.592 69.414 152.911 69.28C153.071 69.2124 153.243 69.1778 153.417 69.1784C153.59 69.179 153.762 69.2147 153.921 69.2833C154.08 69.352 154.224 69.4522 154.344 69.5779C154.464 69.7036 154.557 69.8523 154.617 70.0148C155.273 71.642 155.903 73.2953 156.507 74.9487C156.625 75.2759 156.608 75.6366 156.461 75.9515C156.313 76.2664 156.046 76.5099 155.719 76.6283L155.273 76.7071ZM150.313 64.5561C150.064 64.5575 149.819 64.4862 149.61 64.3511C149.4 64.216 149.234 64.0228 149.132 63.795C148.397 62.2204 147.662 60.6457 146.875 59.0973C146.799 58.9423 146.754 58.7738 146.743 58.6014C146.733 58.429 146.756 58.2562 146.812 58.0928C146.868 57.9295 146.956 57.7788 147.07 57.6494C147.185 57.5201 147.323 57.4146 147.479 57.339C147.632 57.2583 147.799 57.2093 147.971 57.1947C148.143 57.1802 148.316 57.2004 148.481 57.2543C148.645 57.3082 148.796 57.3946 148.926 57.5083C149.056 57.6221 149.162 57.7609 149.237 57.9164C150.024 59.5173 150.785 61.0919 151.52 62.6928C151.663 63.0134 151.675 63.3773 151.552 63.7062C151.429 64.0351 151.182 64.3026 150.864 64.4511C150.665 64.5668 150.439 64.63 150.208 64.6348L150.313 64.5561ZM144.329 52.93C144.094 52.9279 143.863 52.8637 143.66 52.7439C143.458 52.6241 143.29 52.4529 143.175 52.2477C142.335 50.7255 141.469 49.2034 140.55 47.7337C140.377 47.43 140.329 47.0704 140.417 46.732C140.506 46.3936 140.723 46.1031 141.023 45.9229C141.319 45.7484 141.673 45.6974 142.006 45.7809C142.34 45.8643 142.628 46.0755 142.807 46.369C143.726 47.8912 144.592 49.4396 145.432 50.9617C145.515 51.1133 145.567 51.2797 145.586 51.4516C145.604 51.6234 145.589 51.7972 145.54 51.9631C145.491 52.1289 145.41 52.2835 145.302 52.4179C145.193 52.5523 145.059 52.6639 144.907 52.7463C144.734 52.8578 144.535 52.9213 144.329 52.93ZM137.532 41.6976C137.316 41.6977 137.104 41.6422 136.915 41.5365C136.727 41.4308 136.569 41.2784 136.456 41.094C135.485 39.6505 134.514 38.2071 133.517 36.7899C133.417 36.651 133.346 36.4935 133.307 36.3267C133.269 36.1598 133.264 35.987 133.294 35.8183C133.323 35.6497 133.386 35.4885 133.478 35.3444C133.571 35.2003 133.691 35.0761 133.832 34.9791C133.973 34.8784 134.133 34.8067 134.301 34.768C134.47 34.7293 134.645 34.7245 134.816 34.7537C134.987 34.783 135.15 34.8458 135.297 34.9386C135.443 35.0313 135.57 35.1521 135.669 35.294C136.666 36.7112 137.663 38.1809 138.635 39.6505C138.824 39.9398 138.892 40.2924 138.824 40.6316C138.755 40.9707 138.555 41.269 138.267 41.4614C138.045 41.6187 137.778 41.7014 137.506 41.6976H137.532Z" fill="#A8CFF0"/>
<path d="M83.1021 9.33871C63.944 -1.71001 46.8066 -2.02494 34.9181 6.24192L21.1663 12.6717L22.8721 21.4897C19.6812 29.3775 18.1448 37.8367 18.3582 46.3428C18.3582 74.4763 33.4222 118.907 49.0111 157.407L65.2824 242.333L83.2333 233.357C83.2333 233.357 148.082 179.689 148.082 121.217C147.951 80.1188 118.925 30.0452 83.1021 9.33871Z" fill="#9A1324"/>
<path d="M130.027 130.192C130.027 188.638 65.1514 242.333 65.1514 242.333C65.1514 242.333 0.30249 113.737 0.30249 55.292C0.30249 14.1939 29.3284 -2.44483 65.1514 18.3142C100.975 39.0732 130.027 89.0942 130.027 130.192Z" fill="#E23047"/>
<path opacity="0.7" d="M69.2715 16.0834C50.5595 5.2709 33.7372 4.71977 21.9011 12.4093C33.396 7.16046 48.5125 8.70886 65.1512 18.3142C100.974 38.9944 130.026 89.173 130.026 130.192C130.026 180.292 82.4198 226.823 68.7991 239.131C69.0616 239.709 66.5422 241.178 66.5422 241.178C66.5422 241.178 134.12 186.407 134.12 127.962C134.12 86.8373 105.095 36.7637 69.2715 16.0834Z" fill="white"/>
<path d="M81.9588 121.503C91.1183 116.148 91.0185 98.9353 81.7359 83.0564C72.4533 67.1775 57.503 58.6458 48.3436 64.0003C39.1841 69.3548 39.2839 86.5679 48.5665 102.447C57.8491 118.326 72.7994 126.857 81.9588 121.503Z" fill="white" />
<g style="mix-blend-mode:multiply">
<path d="M72.447 116.493C59.325 108.961 48.8274 90.7214 48.8274 75.7623C48.5094 70.9167 50.123 66.1422 53.3152 62.4828C46.2818 63.1127 41.5316 69.0963 41.5316 79.1215C41.5316 94.0806 52.0292 112.32 65.1512 119.852C73.0244 124.392 79.9791 123.973 84.2831 119.642C80.1073 119.839 75.973 118.739 72.447 116.493Z" fill="#D62D69"/>
</g>
</svg>
