<svg width="452" height="304" viewBox="0 0 452 304" fill="none" xmlns="http://www.w3.org/2000/svg">
<path opacity="0.2" d="M451.83 58.2879L423.959 42.4103L322.447 101.328L336.225 109.201L331.632 111.852L333.233 112.744L337.8 110.094L350.292 117.232L451.83 58.2879Z" fill="#92B4D1"/>
<path d="M441.227 56.0572C441.187 56.4361 441.245 56.8191 441.397 57.1687C441.549 57.5182 441.789 57.8225 442.093 58.0517L445.689 60.0988C446.24 60.4137 445.899 59.7051 446.738 59.2065C447.631 58.6343 448.378 57.8621 448.92 56.951C449.462 56.0399 449.785 55.015 449.862 53.9577C449.862 52.9866 450.78 52.9866 450.203 52.6455L446.502 50.5722C446.154 50.4205 445.772 50.3626 445.395 50.404C445.017 50.4454 444.657 50.5848 444.35 50.8084C443.461 51.3835 442.716 52.1565 442.174 53.067C441.632 53.9775 441.308 55.0008 441.227 56.0572Z" fill="#084C94"/>
<path d="M444.954 58.1567C444.954 60.125 446.345 60.9123 448.051 59.9151C448.946 59.346 449.695 58.5745 450.238 57.6628C450.78 56.7511 451.101 55.7246 451.174 54.6663C451.174 52.6717 449.783 51.8844 448.051 52.8817C447.163 53.4623 446.421 54.2407 445.884 55.1559C445.346 56.071 445.028 57.0981 444.954 58.1567Z" fill="#03336E"/>
<path d="M446.528 57.3431C446.528 58.3667 447.237 58.7866 448.156 58.2617C448.623 57.9511 449.011 57.5353 449.289 57.0477C449.567 56.5601 449.727 56.0141 449.756 55.4536C449.756 54.4301 449.048 54.0102 448.156 54.535C447.677 54.8363 447.279 55.2493 446.996 55.7385C446.712 56.2276 446.552 56.7783 446.528 57.3431Z" fill="#3F92D1"/>
<path d="M447.867 52.698C448.171 52.4794 448.525 52.3408 448.896 52.2949C449.268 52.249 449.645 52.2974 449.993 52.4355C449.673 52.3691 449.344 52.3674 449.024 52.4305C448.704 52.4937 448.4 52.6203 448.129 52.8029C447.213 53.3852 446.447 54.1763 445.895 55.1115C445.343 56.0466 445.021 57.0991 444.954 58.1829C444.912 58.5833 444.983 58.9873 445.16 59.3492C445.336 59.711 445.61 60.0162 445.951 60.23C445.531 60.0639 445.178 59.7616 444.95 59.3714C444.721 58.9813 444.63 58.5259 444.691 58.078C444.758 56.9942 445.081 55.9416 445.633 55.0065C446.185 54.0714 446.95 53.2803 447.867 52.698Z" fill="#2672AB"/>
<path d="M432.803 60.9386C432.767 61.3171 432.828 61.6983 432.98 62.047C433.131 62.3957 433.368 62.7005 433.669 62.9331L437.264 65.0064C437.842 65.3213 437.474 64.5865 438.314 64.1141C439.221 63.5259 439.976 62.7322 440.519 61.7975C441.061 60.8627 441.376 59.8132 441.437 58.7341C441.437 57.7368 442.356 57.7368 441.804 57.4219C441.804 57.4219 438.104 55.3486 438.104 55.3223C437.749 55.1772 437.362 55.1252 436.981 55.1711C436.6 55.217 436.237 55.3594 435.926 55.5848C435.017 56.1641 434.259 56.9521 433.716 57.8833C433.172 58.8146 432.859 59.862 432.803 60.9386Z" fill="#084C94"/>
<path d="M436.477 62.9856C436.477 64.9539 437.868 65.7675 439.6 64.7702C440.501 64.1775 441.25 63.3822 441.787 62.448C442.325 61.5137 442.637 60.4665 442.697 59.3902C442.697 57.4219 441.306 56.6083 439.6 57.6056C438.693 58.1938 437.938 58.9875 437.395 59.9222C436.853 60.857 436.538 61.9065 436.477 62.9856Z" fill="#03336E"/>
<path d="M438.104 62.2245C438.104 63.248 438.839 63.6679 439.731 63.1431C440.204 62.8353 440.597 62.4208 440.88 61.9331C441.162 61.4453 441.326 60.8978 441.358 60.335C441.358 59.3114 440.624 58.8915 439.731 59.4164C439.26 59.7257 438.868 60.1405 438.585 60.628C438.303 61.1155 438.138 61.6622 438.104 62.2245Z" fill="#3F92D1"/>
<path d="M439.443 57.5793C439.748 57.3651 440.102 57.2291 440.473 57.1834C440.843 57.1376 441.22 57.1835 441.568 57.3169C440.917 57.2179 440.251 57.3678 439.705 57.7368C438.818 58.3149 438.075 59.0886 437.534 59.9985C436.993 60.9084 436.667 61.9302 436.582 62.9856C436.54 63.3859 436.612 63.79 436.788 64.1518C436.964 64.5137 437.238 64.8188 437.579 65.0326C436.818 64.8227 436.32 64.0616 436.32 62.8806C436.393 61.8151 436.713 60.7814 437.255 59.8612C437.797 58.941 438.546 58.1597 439.443 57.5793Z" fill="#2672AB"/>
<path d="M439.705 60.2037V62.5394L448.313 57.6581V55.2436L439.705 60.2037Z" fill="#03336E"/>
<path d="M362.233 102.352C362.196 102.733 362.258 103.117 362.415 103.467C362.571 103.817 362.816 104.12 363.125 104.346L366.694 106.393C367.272 106.734 366.904 106 367.77 105.527C368.66 104.952 369.405 104.179 369.947 103.269C370.488 102.358 370.812 101.335 370.893 100.278C370.893 99.2811 371.786 99.2811 371.235 98.9661L367.534 96.8666C367.179 96.7215 366.792 96.6694 366.411 96.7153C366.03 96.7613 365.667 96.9037 365.356 97.1291C364.468 97.7001 363.724 98.4686 363.183 99.3745C362.641 100.28 362.316 101.299 362.233 102.352Z" fill="#084C94"/>
<path d="M365.907 104.32C365.907 106.288 367.298 107.102 369.03 106.104C369.92 105.529 370.665 104.756 371.206 103.846C371.748 102.935 372.072 101.912 372.153 100.856C372.153 98.8874 370.762 98.0738 369.03 99.0711C368.14 99.6463 367.396 100.419 366.854 101.33C366.312 102.24 365.988 103.264 365.907 104.32Z" fill="#03336E"/>
<path d="M367.534 103.506C367.534 104.53 368.269 104.95 369.161 104.425C369.634 104.117 370.027 103.703 370.31 103.215C370.592 102.727 370.756 102.18 370.788 101.617C370.788 100.593 370.054 100.173 369.161 100.698C368.69 101.007 368.298 101.422 368.016 101.91C367.733 102.397 367.568 102.944 367.534 103.506Z" fill="#3F92D1"/>
<path d="M368.846 98.8612C369.157 98.6467 369.515 98.5109 369.89 98.4651C370.265 98.4194 370.645 98.4653 370.998 98.5987C370.353 98.4843 369.688 98.6153 369.135 98.9661C368.245 99.5413 367.5 100.314 366.959 101.225C366.417 102.135 366.093 103.159 366.012 104.215C365.967 104.613 366.035 105.015 366.206 105.377C366.378 105.738 366.647 106.045 366.983 106.262C366.222 106.052 365.749 105.291 365.749 104.11C365.829 103.056 366.15 102.035 366.687 101.125C367.224 100.215 367.963 99.4407 368.846 98.8612Z" fill="#2672AB"/>
<path d="M353.835 107.128C353.791 107.503 353.848 107.884 354 108.23C354.153 108.576 354.394 108.875 354.701 109.096L358.296 111.17C358.847 111.485 358.48 110.776 359.346 110.277C360.242 109.697 360.991 108.916 361.533 107.995C362.076 107.075 362.396 106.041 362.469 104.976C362.469 104.005 363.361 103.979 362.81 103.664L359.11 101.591C358.758 101.434 358.371 101.373 357.989 101.415C357.606 101.456 357.241 101.598 356.931 101.827C356.041 102.412 355.298 103.194 354.761 104.114C354.224 105.034 353.907 106.065 353.835 107.128Z" fill="#084C94"/>
<path d="M357.483 109.201C357.483 111.196 358.9 111.983 360.606 110.986C361.498 110.414 362.245 109.641 362.787 108.73C363.33 107.819 363.652 106.794 363.729 105.737C363.729 103.769 362.338 102.981 360.606 103.979C359.718 104.55 358.974 105.318 358.433 106.224C357.891 107.13 357.566 108.149 357.483 109.201Z" fill="#03336E"/>
<path d="M359.11 108.388C359.11 109.411 359.845 109.831 360.737 109.333C361.211 109.026 361.605 108.612 361.888 108.124C362.171 107.636 362.334 107.088 362.364 106.524C362.364 105.501 361.656 105.081 360.737 105.58C360.266 105.889 359.874 106.304 359.591 106.791C359.309 107.279 359.144 107.825 359.11 108.388Z" fill="#3F92D1"/>
<path d="M360.474 103.769C360.778 103.55 361.132 103.412 361.504 103.366C361.875 103.32 362.252 103.368 362.6 103.506C362.281 103.432 361.95 103.426 361.629 103.49C361.308 103.553 361.004 103.684 360.737 103.874C359.827 104.459 359.07 105.252 358.527 106.187C357.984 107.123 357.671 108.174 357.614 109.254C357.565 109.648 357.631 110.048 357.803 110.407C357.975 110.765 358.246 111.066 358.585 111.275C357.824 111.065 357.351 110.304 357.351 109.149C357.408 108.069 357.721 107.018 358.264 106.082C358.807 105.147 359.565 104.354 360.474 103.769Z" fill="#2672AB"/>
<path d="M360.737 106.367V108.729L369.345 103.848V101.407L360.737 106.367Z" fill="#03336E"/>
<path d="M350.292 106.341V109.726L371.628 97.3128L378.163 96.263L430.52 65.82L436.766 59.4427L451.83 50.6772V47.3704L350.292 106.341Z" fill="#03336E"/>
<path d="M350.292 106.341V109.726L322.447 93.8748V90.4106L350.292 106.341Z" fill="#084C94"/>
<path d="M322.447 90.4106L350.292 106.341L451.83 47.3704L423.959 31.4928L322.447 90.4106Z" fill="#0061AB"/>
<path opacity="0.2" d="M326.462 86.9726L352.601 101.905L447.788 46.6356L421.675 31.729L326.462 86.9726Z" fill="#022652"/>
<path d="M331.606 103.139V105.055L337.354 101.722V99.7797L331.606 103.139Z" fill="#03336E"/>
<path d="M331.606 103.139V105.055L330.032 104.162V102.22L331.606 103.139Z" fill="url(#paint0_linear_236_65)"/>
<path d="M330.032 102.22L331.606 103.139L337.354 99.7797L335.779 98.8874L330.032 102.22Z" fill="#2672AB"/>
<path d="M331.134 103.349V106.078L332.184 105.475V102.772L331.134 103.349Z" fill="#03336E"/>
<path d="M331.134 103.349V106.078L328.903 104.819V102.089L331.134 103.349Z" fill="#084C94"/>
<path d="M328.903 102.089L331.134 103.349L332.184 102.772L329.953 101.486L328.903 102.089Z" fill="#2672AB"/>
<path d="M350.239 74.8479V105.396L451.777 46.3469V15.9039L350.239 74.8479Z" fill="#2672AB"/>
<path opacity="0.7" d="M352.654 76.2126L449.389 20.0767V44.956L352.654 101.197V76.2126Z" fill="#084C94"/>
<path opacity="0.3" d="M355.724 74.8479L354.465 75.6877V100.672L355.724 99.8322V74.8479Z" fill="#72B5E8"/>
<path opacity="0.8" d="M354.412 75.5565H353.913V100.515L354.412 100.541V75.5565Z" fill="#084C94"/>
<path opacity="0.3" d="M359.871 72.4334L358.611 73.2732V98.2575L359.871 97.4177V72.4334Z" fill="#72B5E8"/>
<path opacity="0.8" d="M358.559 73.1683L358.086 73.142V98.1263H358.559V73.1683Z" fill="#084C94"/>
<path opacity="0.3" d="M364.017 70.019L362.758 70.8588V95.8431L364.017 95.0033V70.019Z" fill="#72B5E8"/>
<path opacity="0.8" d="M362.705 70.7538L362.233 70.7276V95.7119H362.705V70.7538Z" fill="#084C94"/>
<path opacity="0.3" d="M368.19 67.6045L366.904 68.4444V93.4286L368.19 92.5888V67.6045Z" fill="#72B5E8"/>
<path opacity="0.8" d="M366.852 68.3394L366.38 68.3131V93.2974L366.852 93.3237V68.3394Z" fill="#084C94"/>
<path opacity="0.3" d="M372.337 65.1901L371.077 66.0299V91.0142L372.337 90.1744V65.1901Z" fill="#72B5E8"/>
<path opacity="0.8" d="M370.998 65.9249L370.526 65.8987V90.883L370.998 90.9092V65.9249Z" fill="#084C94"/>
<path opacity="0.3" d="M376.483 62.8019L375.224 63.6417V88.5998L376.483 87.7599V62.8019Z" fill="#72B5E8"/>
<path opacity="0.8" d="M375.145 63.5105L374.672 63.4842V88.4685L375.145 88.4948V63.5105Z" fill="#084C94"/>
<path opacity="0.3" d="M380.63 60.3875L379.37 61.2273V86.1853L380.63 85.3455V60.3875Z" fill="#72B5E8"/>
<path opacity="0.8" d="M379.318 61.096L378.819 61.0698V86.0541L379.318 86.0803V61.096Z" fill="#084C94"/>
<path opacity="0.3" d="M384.776 57.973L383.517 58.8128V83.7971L384.776 82.9573V57.973Z" fill="#72B5E8"/>
<path opacity="0.8" d="M383.464 58.6816H382.966V83.6396L383.464 83.6659V58.6816Z" fill="#084C94"/>
<path opacity="0.3" d="M388.923 55.5586L387.663 56.3984V81.3827L388.923 80.5428V55.5586Z" fill="#72B5E8"/>
<path opacity="0.8" d="M387.611 56.2934L387.112 56.2671V81.2514H387.611V56.2934Z" fill="#084C94"/>
<path opacity="0.3" d="M393.069 53.1441L391.81 53.9839V78.9682L393.069 78.1284V53.1441Z" fill="#72B5E8"/>
<path opacity="0.8" d="M391.757 53.8789L391.285 53.8527V78.837H391.757V53.8789Z" fill="#084C94"/>
<path opacity="0.3" d="M397.216 50.7297L395.956 51.5695V76.5538L397.216 75.7139V50.7297Z" fill="#72B5E8"/>
<path opacity="0.8" d="M395.904 51.4645L395.432 51.4382V76.4225L395.904 76.4488V51.4645Z" fill="#084C94"/>
<path opacity="0.3" d="M401.389 48.3152L400.129 49.155V74.1393L401.389 73.2995V48.3152Z" fill="#72B5E8"/>
<path opacity="0.8" d="M400.051 49.05L399.578 49.0238V74.0081L400.051 74.0343V49.05Z" fill="#084C94"/>
<path opacity="0.3" d="M405.535 45.927L404.276 46.7668V71.7249L405.535 70.8851V45.927Z" fill="#72B5E8"/>
<path opacity="0.8" d="M404.197 46.6356L403.725 46.6093V71.5936L404.197 71.6199V46.6356Z" fill="#084C94"/>
<path opacity="0.3" d="M409.682 43.5126L408.422 44.3524V69.3104L409.682 68.4706V43.5126Z" fill="#72B5E8"/>
<path opacity="0.8" d="M408.37 44.2211L407.871 44.1949V69.1792L408.37 69.2054V44.2211Z" fill="#084C94"/>
<path opacity="0.3" d="M413.828 41.0981L412.569 41.9379V66.9222L413.828 66.0824V41.0981Z" fill="#72B5E8"/>
<path opacity="0.8" d="M412.516 41.8067H412.018V66.791H412.516V41.8067Z" fill="#084C94"/>
<path opacity="0.3" d="M417.975 38.6837L416.715 39.5235V64.5078L417.975 63.6679V38.6837Z" fill="#72B5E8"/>
<path opacity="0.8" d="M416.663 39.4185L416.164 39.3923V64.3765H416.663V39.4185Z" fill="#084C94"/>
<path opacity="0.3" d="M422.121 36.2692L420.862 37.109V62.0933L422.121 61.2535V36.2692Z" fill="#72B5E8"/>
<path opacity="0.8" d="M420.81 37.004L420.337 36.9778V61.9621H420.81V37.004Z" fill="#084C94"/>
<path opacity="0.3" d="M426.268 33.8548L425.008 34.6946V59.6789L426.268 58.8391V33.8548Z" fill="#72B5E8"/>
<path opacity="0.8" d="M424.956 34.5896L424.484 34.5634V59.5476L424.956 59.5739V34.5896Z" fill="#084C94"/>
<path opacity="0.3" d="M430.441 31.4403L429.155 32.2801V57.2644L430.441 56.4246V31.4403Z" fill="#72B5E8"/>
<path opacity="0.8" d="M429.102 32.1751L428.63 32.1489V57.1332L429.102 57.1594V32.1751Z" fill="#084C94"/>
<path opacity="0.3" d="M434.588 29.0521L433.328 29.8657V54.85L434.588 54.0102V29.0521Z" fill="#72B5E8"/>
<path opacity="0.8" d="M433.249 29.7607L432.777 29.7345V54.7187L433.249 54.745V29.7607Z" fill="#084C94"/>
<path opacity="0.3" d="M438.734 26.6377L437.474 27.4775V52.4355L438.734 51.5957V26.6377Z" fill="#72B5E8"/>
<path opacity="0.8" d="M437.422 27.3462L436.923 27.32V52.3043L437.422 52.3305V27.3462Z" fill="#084C94"/>
<path opacity="0.3" d="M442.881 24.2232L441.621 25.063V50.0473L442.881 49.2075V24.2232Z" fill="#72B5E8"/>
<path opacity="0.8" d="M441.568 24.9318H441.07V49.9161H441.568V24.9318Z" fill="#084C94"/>
<path opacity="0.3" d="M447.027 21.8088L445.767 22.6486V47.6329L447.027 46.7931V21.8088Z" fill="#72B5E8"/>
<path opacity="0.8" d="M445.715 22.5436L445.216 22.5173V47.5016H445.715V22.5436Z" fill="#084C94"/>
<path opacity="0.5" d="M352.654 76.2126V78.732L448.549 23.0685V45.4546L449.389 44.956V20.0767L352.654 76.2126Z" fill="#03336E"/>
<path d="M350.266 74.8479V105.396L322.421 89.5445V58.9178L350.266 74.8479Z" fill="#3F92D1"/>
<path opacity="0.7" d="M324.809 88.1536V63.0643L347.851 76.2388V101.249L324.809 88.1536Z" fill="#2672AB"/>
<path d="M322.421 58.9178L350.266 74.8479L451.777 15.9039L423.906 0L322.421 58.9178Z" fill="#72B5E8"/>
<path opacity="0.3" d="M345.516 75.3465L346.775 76.1863V101.171L345.516 100.331V75.3465Z" fill="#72B5E8"/>
<path opacity="0.8" d="M346.854 76.0814L347.326 76.0551V101.039L346.854 101.066V76.0814Z" fill="#084C94"/>
<path opacity="0.3" d="M341.763 73.142L343.022 73.9818V98.9661L341.763 98.1263V73.142Z" fill="#72B5E8"/>
<path opacity="0.8" d="M343.101 73.8769L343.573 73.8506V98.8349L343.101 98.8611V73.8769Z" fill="#084C94"/>
<path opacity="0.3" d="M338.01 70.9375L339.269 71.7773V96.7616L338.01 95.9218V70.9375Z" fill="#72B5E8"/>
<path opacity="0.8" d="M339.348 71.6724L339.82 71.6461V96.6304L339.348 96.6567V71.6724Z" fill="#084C94"/>
<path opacity="0.3" d="M334.257 68.733L335.543 69.5729V94.5571L334.257 93.7173V68.733Z" fill="#72B5E8"/>
<path opacity="0.8" d="M335.595 69.4679L336.068 69.4416V94.4259L335.595 94.4522V69.4679Z" fill="#084C94"/>
<path opacity="0.3" d="M330.504 66.5285L331.79 67.3684V92.3526L330.504 91.5128V66.5285Z" fill="#72B5E8"/>
<path opacity="0.8" d="M331.842 67.2634L332.315 67.2371V92.2214L331.842 92.2477V67.2634Z" fill="#084C94"/>
<path opacity="0.3" d="M326.751 64.3241L328.037 65.1639V90.1482L326.751 89.3083V64.3241Z" fill="#72B5E8"/>
<path opacity="0.8" d="M328.089 65.0589L328.562 65.0327V90.0169L328.089 90.0432V65.0589Z" fill="#084C94"/>
<path opacity="0.5" d="M348.586 76.7375V79.2569L325.255 65.61V87.9699L324.415 87.4713V62.5919L348.586 76.7375Z" fill="#03336E"/>
<path opacity="0.2" d="M344.387 120.749L316.516 104.845L215.004 163.763L228.782 171.636L224.216 174.286L225.79 175.179L230.357 172.528L242.875 179.693L344.387 120.749Z" fill="#92B4D1"/>
<path d="M333.785 118.492C333.749 118.87 333.81 119.251 333.962 119.6C334.113 119.949 334.35 120.254 334.651 120.486L338.246 122.533C338.823 122.848 338.456 122.14 339.322 121.641C340.224 121.05 340.974 120.255 341.512 119.32C342.05 118.386 342.361 117.338 342.419 116.261C342.419 115.29 343.337 115.29 342.786 114.949L339.086 112.849C338.732 112.705 338.347 112.651 337.967 112.693C337.587 112.734 337.223 112.869 336.908 113.085C335.997 113.676 335.24 114.474 334.697 115.414C334.154 116.353 333.842 117.408 333.785 118.492Z" fill="#084C94"/>
<path d="M337.354 120.722C337.354 122.691 338.744 123.504 340.477 122.507C341.377 121.914 342.126 121.119 342.664 120.185C343.202 119.251 343.513 118.203 343.573 117.127C343.573 115.132 342.182 114.345 340.477 115.342C339.57 115.931 338.814 116.724 338.272 117.659C337.729 118.594 337.415 119.643 337.354 120.722Z" fill="#03336E"/>
<path d="M339.086 119.778C339.086 120.801 339.821 121.221 340.713 120.696C341.184 120.387 341.576 119.972 341.859 119.485C342.141 118.997 342.306 118.45 342.34 117.888C342.34 116.865 341.605 116.445 340.713 116.97C340.24 117.277 339.847 117.692 339.564 118.18C339.282 118.667 339.118 119.215 339.086 119.778Z" fill="#3F92D1"/>
<path d="M340.424 115.132C340.728 114.914 341.082 114.775 341.453 114.729C341.825 114.684 342.202 114.732 342.55 114.87C341.905 114.756 341.24 114.887 340.686 115.237C339.769 115.839 339.007 116.65 338.464 117.604C337.921 118.557 337.612 119.626 337.563 120.722C337.522 121.123 337.593 121.527 337.769 121.889C337.945 122.25 338.22 122.556 338.561 122.769C337.8 122.559 337.301 121.798 337.301 120.617C337.346 119.52 337.653 118.45 338.196 117.495C338.739 116.541 339.503 115.731 340.424 115.132Z" fill="#2672AB"/>
<path d="M325.36 123.347C325.327 123.721 325.389 124.098 325.54 124.442C325.692 124.786 325.928 125.087 326.226 125.315C326.226 125.315 329.822 127.362 329.822 127.388C330.399 127.703 330.031 126.995 330.898 126.496C331.785 125.918 332.527 125.144 333.069 124.234C333.61 123.325 333.936 122.303 334.021 121.247C334.021 120.276 334.913 120.25 334.362 119.935L330.661 117.862C330.31 117.705 329.923 117.645 329.54 117.686C329.158 117.728 328.793 117.87 328.483 118.098C327.591 118.67 326.844 119.442 326.301 120.353C325.759 121.265 325.437 122.289 325.36 123.347Z" fill="#084C94"/>
<path d="M329.034 125.473C329.034 127.467 330.425 128.254 332.157 127.257C333.061 126.666 333.814 125.871 334.357 124.937C334.899 124.003 335.215 122.955 335.281 121.877C335.281 119.909 333.863 119.095 332.157 120.093C331.251 120.681 330.495 121.474 329.953 122.409C329.41 123.344 329.096 124.393 329.034 125.473Z" fill="#03336E"/>
<path d="M330.661 124.659C330.661 125.683 331.396 126.102 332.289 125.578C332.76 125.276 333.154 124.866 333.437 124.382C333.72 123.899 333.884 123.355 333.916 122.796C333.916 121.746 333.181 121.352 332.289 121.851C331.818 122.16 331.425 122.575 331.143 123.062C330.86 123.55 330.695 124.097 330.661 124.659Z" fill="#3F92D1"/>
<path d="M332.105 120.014C332.412 119.802 332.765 119.667 333.135 119.621C333.506 119.576 333.881 119.62 334.23 119.751C333.585 119.637 332.921 119.768 332.367 120.119C331.484 120.698 330.745 121.473 330.208 122.383C329.671 123.293 329.35 124.314 329.27 125.368C329.22 125.766 329.284 126.17 329.456 126.533C329.628 126.896 329.901 127.202 330.241 127.415C329.48 127.205 328.982 126.444 328.982 125.263C329.067 124.207 329.392 123.185 329.934 122.276C330.475 121.366 331.218 120.592 332.105 120.014Z" fill="#2672AB"/>
<path d="M332.262 122.638V125L340.87 120.119V117.678L332.262 122.638Z" fill="#03336E"/>
<path d="M254.816 164.681C254.778 165.056 254.838 165.435 254.989 165.78C255.141 166.125 255.38 166.424 255.682 166.649L259.278 168.723C259.829 169.038 259.488 168.329 260.327 167.83C261.234 167.242 261.99 166.448 262.532 165.514C263.075 164.579 263.389 163.529 263.45 162.45C263.45 161.479 264.343 161.453 263.792 161.138L260.091 159.065C259.74 158.908 259.353 158.848 258.97 158.889C258.588 158.931 258.223 159.073 257.913 159.301C257.011 159.892 256.261 160.687 255.723 161.622C255.185 162.556 254.874 163.604 254.816 164.681Z" fill="#084C94"/>
<path d="M258.464 166.754C258.464 168.749 259.881 169.536 261.587 168.539C262.477 167.964 263.222 167.191 263.763 166.28C264.305 165.37 264.629 164.347 264.71 163.29C264.71 161.322 263.319 160.508 261.587 161.506C260.7 162.084 259.957 162.857 259.416 163.767C258.875 164.677 258.549 165.699 258.464 166.754Z" fill="#03336E"/>
<path d="M260.118 165.941C260.118 166.964 260.826 167.384 261.719 166.859C262.195 166.562 262.592 166.154 262.875 165.669C263.159 165.185 263.32 164.638 263.346 164.077C263.346 163.028 262.637 162.634 261.719 163.133C261.251 163.443 260.863 163.859 260.585 164.347C260.307 164.834 260.147 165.38 260.118 165.941Z" fill="#3F92D1"/>
<path d="M261.456 161.296C261.762 161.081 262.115 160.945 262.486 160.9C262.857 160.854 263.233 160.9 263.582 161.033C262.936 160.919 262.272 161.05 261.718 161.401C260.828 161.976 260.084 162.749 259.542 163.659C259 164.57 258.676 165.593 258.595 166.649C258.544 167.051 258.61 167.458 258.788 167.822C258.965 168.186 259.245 168.49 259.592 168.696C258.831 168.486 258.333 167.725 258.333 166.544C258.414 165.488 258.738 164.465 259.28 163.554C259.821 162.644 260.566 161.871 261.456 161.296Z" fill="#2672AB"/>
<path d="M246.392 169.562C246.348 169.938 246.405 170.318 246.558 170.664C246.71 171.01 246.952 171.309 247.258 171.531L250.853 173.604C251.405 173.919 251.063 173.21 251.903 172.712C252.81 172.124 253.565 171.33 254.108 170.395C254.651 169.46 254.965 168.411 255.026 167.332C255.026 166.361 255.945 166.361 255.367 166.02L251.693 163.946C251.342 163.79 250.955 163.729 250.572 163.771C250.19 163.812 249.825 163.954 249.515 164.182C248.608 164.771 247.853 165.564 247.31 166.499C246.768 167.434 246.453 168.483 246.392 169.562Z" fill="#084C94"/>
<path d="M231.144 158.724V160.246L228.283 161.952V160.403L231.144 158.724Z" fill="#D62D69"/>
<path d="M250.066 171.662C250.066 173.63 251.457 174.286 253.163 173.42C254.055 172.848 254.802 172.076 255.344 171.165C255.886 170.254 256.209 169.229 256.286 168.172C256.286 166.203 254.895 165.416 253.163 166.413C252.278 166.991 251.538 167.765 251.001 168.676C250.464 169.586 250.144 170.608 250.066 171.662Z" fill="#03336E"/>
<path d="M251.693 170.822C251.693 171.872 252.402 172.266 253.32 171.767C253.791 171.458 254.184 171.043 254.466 170.555C254.749 170.068 254.913 169.521 254.948 168.959C254.948 167.935 254.213 167.515 253.32 168.04C252.844 168.338 252.447 168.746 252.164 169.231C251.88 169.715 251.719 170.261 251.693 170.822Z" fill="#3F92D1"/>
<path d="M253.031 166.203C253.335 165.985 253.689 165.846 254.061 165.8C254.432 165.754 254.809 165.803 255.157 165.941C254.838 165.868 254.508 165.863 254.187 165.927C253.866 165.99 253.561 166.12 253.294 166.308C252.384 166.893 251.627 167.686 251.084 168.622C250.541 169.557 250.228 170.608 250.171 171.688C250.128 172.085 250.199 172.486 250.375 172.844C250.552 173.202 250.827 173.502 251.168 173.709C250.407 173.499 249.908 172.764 249.908 171.583C249.965 170.503 250.278 169.452 250.821 168.517C251.364 167.581 252.122 166.788 253.031 166.203Z" fill="#2672AB"/>
<path d="M253.294 168.801V171.163L261.902 166.282V163.867L253.294 168.801Z" fill="#03336E"/>
<path d="M242.849 168.775V172.161L264.185 159.747L270.72 158.697L323.077 128.254L329.323 121.877L344.387 113.112V109.831L242.849 168.775Z" fill="#03336E"/>
<path d="M242.875 168.775V172.161L215.004 156.309V152.845L242.875 168.775Z" fill="#084C94"/>
<path d="M215.004 152.845L242.875 168.775L344.387 109.831L316.516 93.9273L215.004 152.845Z" fill="#0061AB"/>
<path opacity="0.2" d="M219.046 149.407L245.158 164.34L340.372 109.07L314.233 94.1635L219.046 149.407Z" fill="#022652"/>
<path d="M224.189 165.573V167.489L229.937 164.156V162.214L224.189 165.573Z" fill="#03336E"/>
<path d="M224.189 165.573V167.489L222.615 166.597V164.655L224.189 165.573Z" fill="url(#paint1_linear_236_65)"/>
<path d="M222.615 164.655L224.189 165.573L229.937 162.214L228.362 161.322L222.615 164.655Z" fill="#2672AB"/>
<path d="M223.691 165.81V168.513L224.74 167.909V165.206L223.691 165.81Z" fill="#03336E"/>
<path d="M223.691 165.81V168.513L221.46 167.253V164.524L223.691 165.81Z" fill="#084C94"/>
<path d="M221.46 164.524L223.691 165.81L224.74 165.206L222.51 163.946L221.46 164.524Z" fill="#2672AB"/>
<path d="M242.823 137.282V167.83L344.334 108.781V78.3383L242.823 137.282Z" fill="#2672AB"/>
<path opacity="0.7" d="M245.211 138.673L341.946 82.5112V107.39L245.211 163.631V138.673Z" fill="#084C94"/>
<path opacity="0.3" d="M248.281 137.282L247.022 138.122V163.106L248.281 162.267V137.282Z" fill="#72B5E8"/>
<path opacity="0.8" d="M246.969 138.017L246.497 137.991V162.975H246.969V138.017Z" fill="#084C94"/>
<path opacity="0.3" d="M252.454 134.868L251.168 135.708V160.692L252.454 159.852V134.868Z" fill="#72B5E8"/>
<path opacity="0.8" d="M251.116 135.603L250.643 135.576V160.561L251.116 160.587V135.603Z" fill="#084C94"/>
<path opacity="0.3" d="M256.601 132.453L255.341 133.293V158.278L256.601 157.438V132.453Z" fill="#72B5E8"/>
<path opacity="0.8" d="M255.262 133.188L254.79 133.162V158.146L255.262 158.173V133.188Z" fill="#084C94"/>
<path opacity="0.3" d="M260.747 130.039L259.488 130.879V155.863L260.747 155.023V130.039Z" fill="#72B5E8"/>
<path opacity="0.8" d="M259.409 130.774L258.936 130.748V155.732L259.409 155.758V130.774Z" fill="#084C94"/>
<path opacity="0.3" d="M264.894 127.651L263.634 128.464V153.449L264.894 152.609V127.651Z" fill="#72B5E8"/>
<path opacity="0.8" d="M263.555 128.359L263.083 128.333V153.317L263.555 153.344V128.359Z" fill="#084C94"/>
<path opacity="0.3" d="M269.04 125.236L267.781 126.076V151.034L269.04 150.194V125.236Z" fill="#72B5E8"/>
<path opacity="0.8" d="M267.728 125.945L267.229 125.919V150.903L267.728 150.929V125.945Z" fill="#084C94"/>
<path opacity="0.3" d="M273.187 122.822L271.927 123.662V148.646L273.187 147.806V122.822Z" fill="#72B5E8"/>
<path opacity="0.8" d="M271.875 123.531H271.376V148.515H271.875V123.531Z" fill="#084C94"/>
<path opacity="0.3" d="M277.334 120.407L276.074 121.247V146.232L277.334 145.392V120.407Z" fill="#72B5E8"/>
<path opacity="0.8" d="M276.021 121.142L275.549 121.116V146.1H276.021V121.142Z" fill="#084C94"/>
<path opacity="0.3" d="M281.506 117.993L280.22 118.833V143.817L281.506 142.977V117.993Z" fill="#72B5E8"/>
<path opacity="0.8" d="M280.168 118.728L279.696 118.702V143.686L280.168 143.712V118.728Z" fill="#084C94"/>
<path opacity="0.3" d="M285.653 115.579L284.367 116.418V141.403L285.653 140.563V115.579Z" fill="#72B5E8"/>
<path opacity="0.8" d="M284.314 116.313L283.842 116.287V141.271L284.314 141.298V116.313Z" fill="#084C94"/>
<path opacity="0.3" d="M289.799 113.19L288.54 114.004V138.988L289.799 138.148V113.19Z" fill="#72B5E8"/>
<path opacity="0.8" d="M288.461 113.899L287.989 113.873V138.857L288.461 138.883V113.899Z" fill="#084C94"/>
<path opacity="0.3" d="M293.946 110.776L292.686 111.589V136.574L293.946 135.734V110.776Z" fill="#72B5E8"/>
<path opacity="0.8" d="M292.634 111.485L292.135 111.458V136.443L292.634 136.469V111.485Z" fill="#084C94"/>
<path opacity="0.3" d="M298.092 108.361L296.833 109.201V134.186L298.092 133.32V108.361Z" fill="#72B5E8"/>
<path opacity="0.8" d="M296.78 109.07L296.281 109.044V134.028L296.78 134.054V109.07Z" fill="#084C94"/>
<path opacity="0.3" d="M302.239 105.947L300.979 106.787V131.771L302.239 130.931V105.947Z" fill="#72B5E8"/>
<path opacity="0.8" d="M300.927 106.656H300.428V131.64H300.927V106.656Z" fill="#084C94"/>
<path opacity="0.3" d="M306.386 103.533L305.126 104.372V129.357L306.386 128.517V103.533Z" fill="#72B5E8"/>
<path opacity="0.8" d="M305.073 104.267L304.601 104.241V129.225H305.073V104.267Z" fill="#084C94"/>
<path opacity="0.3" d="M310.532 101.118L309.272 101.958V126.942L310.532 126.102V101.118Z" fill="#72B5E8"/>
<path opacity="0.8" d="M309.22 101.853L308.748 101.827V126.811L309.22 126.837V101.853Z" fill="#084C94"/>
<path opacity="0.3" d="M314.705 98.7037L313.419 99.5435V124.528L314.705 123.688V98.7037Z" fill="#72B5E8"/>
<path opacity="0.8" d="M313.366 99.4385L312.894 99.4123V124.397L313.366 124.423V99.4385Z" fill="#084C94"/>
<path opacity="0.3" d="M318.851 96.3155L317.592 97.129V122.113L318.851 121.274V96.3155Z" fill="#72B5E8"/>
<path opacity="0.8" d="M317.513 97.0241L317.041 96.9978V121.982L317.513 122.008V97.0241Z" fill="#084C94"/>
<path opacity="0.3" d="M322.998 93.901L321.738 94.7408V119.699L322.998 118.859V93.901Z" fill="#72B5E8"/>
<path opacity="0.8" d="M321.686 94.6096L321.187 94.5834V119.568L321.686 119.594V94.6096Z" fill="#084C94"/>
<path opacity="0.3" d="M327.144 91.4866L325.885 92.3264V117.311L327.144 116.471V91.4866Z" fill="#72B5E8"/>
<path opacity="0.8" d="M325.832 92.1952H325.334V117.153L325.832 117.179V92.1952Z" fill="#084C94"/>
<path opacity="0.3" d="M331.291 89.0721L330.032 89.9119V114.896L331.291 114.056V89.0721Z" fill="#72B5E8"/>
<path opacity="0.8" d="M329.979 89.7807H329.48V114.765H329.979V89.7807Z" fill="#084C94"/>
<path opacity="0.3" d="M335.438 86.6577L334.178 87.4975V112.482L335.438 111.642V86.6577Z" fill="#72B5E8"/>
<path opacity="0.8" d="M334.126 87.3925L333.653 87.3663V112.351H334.126V87.3925Z" fill="#084C94"/>
<path opacity="0.3" d="M339.584 84.2432L338.325 85.083V110.067L339.584 109.228V84.2432Z" fill="#72B5E8"/>
<path opacity="0.8" d="M338.272 84.9781L337.8 84.9518V109.936L338.272 109.962V84.9781Z" fill="#084C94"/>
<path opacity="0.5" d="M245.211 138.673V141.193L341.106 85.5292V107.889L341.946 107.39V82.5112L245.211 138.673Z" fill="#03336E"/>
<path d="M242.823 137.282V167.83L214.978 151.979V121.352L242.823 137.282Z" fill="#3F92D1"/>
<path opacity="0.7" d="M217.366 150.588V125.499L240.408 138.673V163.684L217.366 150.588Z" fill="#2672AB"/>
<path d="M214.978 121.352L242.823 137.282L344.334 78.3384L316.463 62.4345L214.978 121.352Z" fill="#72B5E8"/>
<path opacity="0.3" d="M238.073 137.807L239.358 138.647V163.605L238.073 162.765V137.807Z" fill="#72B5E8"/>
<path opacity="0.8" d="M239.411 138.516L239.883 138.49V163.474L239.411 163.5V138.516Z" fill="#084C94"/>
<path opacity="0.3" d="M234.32 135.603L235.606 136.416V161.401L234.32 160.561V135.603Z" fill="#72B5E8"/>
<path opacity="0.8" d="M235.658 136.311L236.13 136.285V161.269L235.658 161.296V136.311Z" fill="#084C94"/>
<path opacity="0.3" d="M230.567 133.398L231.853 134.238V159.196L230.567 158.356V133.398Z" fill="#72B5E8"/>
<path opacity="0.8" d="M231.905 134.107L232.378 134.081V159.065L231.905 159.091V134.107Z" fill="#084C94"/>
<path opacity="0.3" d="M226.814 131.167L228.1 132.007V156.992L226.814 156.152V131.167Z" fill="#72B5E8"/>
<path opacity="0.8" d="M228.152 131.902L228.625 131.876V156.86L228.152 156.887V131.902Z" fill="#084C94"/>
<path opacity="0.3" d="M223.087 128.989L224.347 129.829V154.787L223.087 153.947V128.989Z" fill="#72B5E8"/>
<path opacity="0.8" d="M224.4 129.698L224.872 129.672V154.656L224.4 154.682V129.698Z" fill="#084C94"/>
<path opacity="0.3" d="M219.334 126.759L220.594 127.598V152.583L219.334 151.743V126.759Z" fill="#72B5E8"/>
<path opacity="0.8" d="M220.647 127.493L221.119 127.467V152.451L220.647 152.478V127.493Z" fill="#084C94"/>
<path opacity="0.5" d="M241.143 139.172V141.691L217.812 128.044V150.404L216.972 149.932V125.026L241.143 139.172Z" fill="#03336E"/>
<path opacity="0.2" d="M237.548 182.842L209.677 166.964L108.191 225.882L121.943 233.755L117.376 236.406L118.951 237.298L123.518 234.648L136.036 241.786L237.548 182.842Z" fill="#92B4D1"/>
<path d="M226.945 180.611C226.907 180.986 226.966 181.365 227.118 181.71C227.27 182.055 227.509 182.354 227.811 182.58L231.406 184.653C231.984 184.968 231.616 184.259 232.482 183.761C233.369 183.182 234.112 182.409 234.653 181.499C235.195 180.589 235.52 179.567 235.605 178.512C235.605 177.541 236.498 177.541 235.947 177.2L232.377 174.995C232.026 174.838 231.639 174.778 231.256 174.819C230.874 174.861 230.509 175.003 230.199 175.231C229.268 175.805 228.487 176.592 227.921 177.527C227.355 178.463 227.02 179.52 226.945 180.611Z" fill="#084C94"/>
<path d="M230.619 182.711C230.619 184.679 232.01 185.335 233.742 184.469C234.648 183.879 235.402 183.085 235.944 182.151C236.487 181.216 236.802 180.168 236.865 179.089C236.865 177.121 235.448 176.465 233.742 177.331C232.831 177.914 232.072 178.707 231.529 179.642C230.986 180.578 230.674 181.63 230.619 182.711Z" fill="#03336E"/>
<path d="M232.378 181.871C232.378 182.921 233.113 183.314 234.005 182.816C234.476 182.506 234.868 182.092 235.151 181.604C235.433 181.117 235.598 180.57 235.632 180.008C235.632 178.984 234.897 178.564 234.005 179.089C233.533 179.391 233.139 179.801 232.857 180.284C232.574 180.768 232.41 181.312 232.378 181.871Z" fill="#3F92D1"/>
<path d="M233.585 177.252C233.889 177.033 234.243 176.895 234.614 176.849C234.986 176.803 235.363 176.851 235.71 176.99C235.391 176.919 235.061 176.914 234.74 176.978C234.42 177.041 234.115 177.17 233.847 177.357C232.962 177.935 232.223 178.709 231.685 179.62C231.148 180.53 230.828 181.552 230.75 182.606C230.701 183 230.767 183.4 230.939 183.759C231.111 184.117 231.383 184.418 231.721 184.627C231.3 184.469 230.946 184.173 230.716 183.786C230.487 183.399 230.397 182.946 230.462 182.501C230.545 181.445 230.869 180.422 231.411 179.512C231.953 178.602 232.696 177.829 233.585 177.252Z" fill="#2672AB"/>
<path d="M218.521 185.493C218.483 185.874 218.546 186.258 218.702 186.608C218.859 186.958 219.104 187.261 219.413 187.487L222.982 189.534C223.559 189.849 223.192 189.14 224.058 188.642C224.946 188.065 225.69 187.292 226.232 186.382C226.773 185.472 227.098 184.449 227.181 183.393C227.181 182.422 228.073 182.422 227.522 182.081L223.848 180.034C223.493 179.879 223.104 179.817 222.719 179.854C222.333 179.89 221.963 180.025 221.644 180.244C220.757 180.822 220.014 181.596 219.473 182.505C218.931 183.415 218.605 184.437 218.521 185.493Z" fill="#084C94"/>
<path d="M222.195 187.592C222.195 189.56 223.586 190.374 225.318 189.377C226.208 188.802 226.952 188.029 227.494 187.118C228.036 186.208 228.36 185.184 228.441 184.128C228.441 182.133 227.05 181.346 225.318 182.343C224.428 182.919 223.683 183.691 223.142 184.602C222.6 185.512 222.276 186.536 222.195 187.592Z" fill="#03336E"/>
<path d="M223.822 186.779C223.822 187.802 224.557 188.222 225.449 187.697C225.92 187.388 226.312 186.973 226.595 186.486C226.877 185.998 227.042 185.451 227.076 184.889C227.076 183.865 226.341 183.446 225.449 183.97C224.977 184.278 224.583 184.693 224.301 185.18C224.018 185.668 223.854 186.216 223.822 186.779Z" fill="#3F92D1"/>
<path d="M225.161 182.133C225.471 181.919 225.829 181.783 226.204 181.737C226.579 181.692 226.959 181.737 227.313 181.871C226.667 181.756 226.003 181.888 225.449 182.238C224.559 182.814 223.815 183.586 223.273 184.497C222.731 185.407 222.407 186.431 222.326 187.487C222.282 187.885 222.349 188.287 222.521 188.649C222.692 189.01 222.961 189.317 223.297 189.534C222.536 189.324 222.037 188.563 222.037 187.382C222.122 186.327 222.448 185.305 222.989 184.395C223.531 183.485 224.274 182.711 225.161 182.133Z" fill="#2672AB"/>
<path d="M225.423 184.758V187.094L234.057 182.212V179.798L225.423 184.758Z" fill="#03336E"/>
<path d="M147.977 226.774C147.937 227.153 147.995 227.536 148.147 227.886C148.299 228.235 148.538 228.54 148.843 228.769L152.438 230.816C152.989 231.131 152.648 230.422 153.488 229.924C154.381 229.352 155.128 228.579 155.67 227.668C156.212 226.757 156.534 225.732 156.611 224.675C156.611 223.704 157.53 223.704 156.952 223.363L153.278 221.289C152.924 221.145 152.539 221.091 152.159 221.133C151.779 221.174 151.415 221.309 151.1 221.526C150.21 222.101 149.465 222.874 148.924 223.784C148.382 224.695 148.058 225.718 147.977 226.774Z" fill="#084C94"/>
<path d="M151.651 228.874C151.651 230.842 153.042 231.656 154.748 230.659C155.637 230.083 156.382 229.31 156.924 228.4C157.466 227.489 157.79 226.466 157.871 225.41C157.871 223.415 156.48 222.628 154.748 223.625C153.864 224.205 153.125 224.979 152.589 225.889C152.052 226.799 151.731 227.82 151.651 228.874Z" fill="#03336E"/>
<path d="M153.278 228.06C153.278 229.084 153.987 229.504 154.905 228.979C155.376 228.67 155.769 228.255 156.051 227.767C156.334 227.28 156.498 226.733 156.532 226.171C156.532 225.147 155.798 224.727 154.905 225.252C154.428 225.555 154.032 225.969 153.748 226.457C153.465 226.946 153.304 227.496 153.278 228.06Z" fill="#3F92D1"/>
<path d="M154.616 223.415C154.922 223.201 155.276 223.065 155.647 223.019C156.017 222.973 156.393 223.019 156.742 223.153C156.097 223.038 155.432 223.169 154.879 223.52C153.989 224.095 153.244 224.868 152.703 225.779C152.161 226.689 151.837 227.713 151.756 228.769C151.714 229.169 151.785 229.573 151.962 229.935C152.138 230.297 152.412 230.602 152.753 230.816C151.992 230.606 151.493 229.845 151.493 228.664C151.574 227.608 151.898 226.584 152.44 225.674C152.982 224.763 153.727 223.99 154.616 223.415Z" fill="#2672AB"/>
<path d="M139.553 231.682C139.542 232.053 139.626 232.421 139.795 232.751C139.965 233.082 140.216 233.364 140.524 233.572L144.119 235.645C144.696 235.96 144.329 235.251 145.169 234.753C146.058 234.177 146.803 233.404 147.345 232.494C147.887 231.583 148.211 230.56 148.292 229.504C148.292 228.533 149.21 228.507 148.659 228.192L144.959 226.118C144.607 225.962 144.22 225.901 143.838 225.943C143.455 225.984 143.09 226.126 142.781 226.354C141.858 226.923 141.084 227.702 140.523 228.628C139.962 229.555 139.629 230.602 139.553 231.682Z" fill="#084C94"/>
<path d="M143.148 233.755C143.148 235.75 144.539 236.537 146.271 235.54C147.154 234.96 147.893 234.186 148.43 233.276C148.967 232.366 149.288 231.345 149.368 230.291C149.368 228.323 147.977 227.509 146.271 228.506C145.381 229.082 144.636 229.855 144.095 230.765C143.553 231.676 143.229 232.699 143.148 233.755Z" fill="#03336E"/>
<path d="M144.854 232.942C144.854 233.965 145.589 234.385 146.481 233.86C146.953 233.558 147.346 233.149 147.629 232.665C147.912 232.182 148.076 231.638 148.108 231.078C148.108 230.029 147.373 229.635 146.481 230.134C146.01 230.443 145.618 230.858 145.335 231.345C145.053 231.833 144.888 232.379 144.854 232.942Z" fill="#3F92D1"/>
<path d="M146.192 228.323C146.493 228.097 146.847 227.954 147.22 227.908C147.593 227.862 147.971 227.915 148.318 228.06C148 227.989 147.672 227.982 147.351 228.041C147.031 228.099 146.726 228.222 146.455 228.402C145.568 228.98 144.825 229.753 144.283 230.663C143.742 231.573 143.416 232.595 143.332 233.65C143.283 234.051 143.352 234.458 143.529 234.821C143.705 235.184 143.983 235.488 144.329 235.697C143.568 235.487 143.069 234.726 143.069 233.545C143.146 232.492 143.469 231.47 144.011 230.563C144.553 229.657 145.3 228.889 146.192 228.323Z" fill="#2672AB"/>
<path d="M146.455 230.921V233.283L155.063 228.401V225.961L146.455 230.921Z" fill="#03336E"/>
<path d="M136.01 230.868V234.254L157.346 221.841L163.881 220.817L216.237 190.374L222.483 183.97L237.548 175.231V171.924L136.01 230.868Z" fill="#03336E"/>
<path d="M136.036 230.869V234.254L108.191 218.429V214.965L136.036 230.869Z" fill="#084C94"/>
<path d="M108.191 214.965L136.036 230.868L237.548 171.924L209.677 156.047L108.191 214.965Z" fill="#2672AB"/>
<path opacity="0.2" d="M112.206 211.527L138.319 226.459L233.532 171.19L207.393 156.283L112.206 211.527Z" fill="#022652"/>
<path d="M117.35 227.667V229.609L123.098 226.276V224.334L117.35 227.667Z" fill="#03336E"/>
<path d="M117.35 227.667V229.609L115.775 228.716V226.774L117.35 227.667Z" fill="url(#paint2_linear_236_65)"/>
<path d="M115.775 226.774L117.35 227.667L123.097 224.334L121.523 223.441L115.775 226.774Z" fill="#2672AB"/>
<path d="M116.851 227.903V230.632L117.901 230.029V227.299L116.851 227.903Z" fill="#03336E"/>
<path d="M116.851 227.903V230.632L114.621 229.373V226.643L116.851 227.903Z" fill="#084C94"/>
<path d="M114.621 226.643L116.851 227.903L117.901 227.299L115.67 226.04L114.621 226.643Z" fill="#2672AB"/>
<path d="M236.262 157.464C236.262 162.45 234.556 165.993 231.748 167.699L137.269 223.52C134.356 225.147 136.22 221.447 131.811 218.901C127.131 215.865 123.234 211.769 120.434 206.945C117.634 202.121 116.011 196.704 115.697 191.135C115.697 186.07 111.025 186.044 113.886 184.364L208.915 128.596C211.829 127.021 215.791 127.31 220.174 129.855C224.832 132.874 228.715 136.946 231.51 141.741C234.304 146.537 235.932 151.923 236.262 157.464Z" fill="#D1EBFF"/>
<path d="M236.262 157.464C236.112 152.557 234.827 147.751 232.509 143.423L137.742 199.454C140.037 203.771 141.312 208.556 141.468 213.443C141.468 218.691 139.605 222.234 136.587 223.94C136.856 223.879 137.114 223.772 137.348 223.625L231.826 167.804C234.556 166.098 236.262 162.555 236.262 157.464Z" fill="#A8CFF0"/>
<path opacity="0.5" d="M141.285 221.709C141.197 221.708 141.11 221.686 141.033 221.645C140.955 221.604 140.889 221.545 140.838 221.473C140.707 221.211 141.048 221.237 141.285 221.106C144.04 219.426 145.3 215.594 145.3 210.976C145.001 205.506 143.42 200.183 140.685 195.438C137.95 190.692 134.136 186.656 129.554 183.656C125.486 181.294 121.444 180.428 118.584 181.976C118.347 182.133 118.242 182.448 118.111 182.212C117.98 181.976 118.689 181.713 118.925 181.582C122.126 179.85 125.696 180.218 130.078 182.737C134.829 185.83 138.784 189.998 141.625 194.904C144.465 199.81 146.111 205.316 146.428 210.976C146.428 215.962 144.749 219.767 141.678 221.631C141.56 221.701 141.421 221.729 141.285 221.709Z" fill="white"/>
<path opacity="0.5" d="M227.129 171.032C227.044 171.034 226.96 171.013 226.887 170.972C226.813 170.93 226.751 170.869 226.709 170.796C226.551 170.56 226.893 170.586 227.129 170.429C229.884 168.749 231.144 164.917 231.144 160.298C230.845 154.829 229.265 149.506 226.529 144.76C223.794 140.015 219.981 135.979 215.398 132.978C211.33 130.616 207.288 129.75 204.428 131.299C204.192 131.456 204.113 131.771 203.955 131.535C203.798 131.299 204.533 131.036 204.769 130.905C207.971 129.173 211.54 129.54 215.923 132.086C220.675 135.171 224.633 139.333 227.474 144.235C230.315 149.138 231.959 154.641 232.273 160.298C232.273 165.311 230.593 169.09 227.522 170.98L227.129 171.032Z" fill="white"/>
<path d="M141.468 213.521C141.468 223.73 134.251 227.85 125.355 222.707C120.679 219.669 116.785 215.572 113.99 210.748C111.194 205.923 109.576 200.508 109.267 194.94C109.267 184.732 116.458 180.611 125.355 185.755C130.034 188.791 133.932 192.887 136.731 197.711C139.531 202.536 141.154 207.952 141.468 213.521Z" fill="#D1EBFF"/>
<path d="M126.142 185.361C124.563 184.234 122.727 183.521 120.801 183.288C118.876 183.054 116.922 183.307 115.119 184.023C116.769 183.676 118.473 183.664 120.127 183.989C121.782 184.313 123.354 184.968 124.751 185.912C129.43 188.947 133.326 193.043 136.121 197.868C138.917 202.693 140.533 208.111 140.838 213.679C140.838 218.927 138.896 222.654 135.773 224.176C139.684 223.074 142.229 219.164 142.229 213.101C141.912 207.54 140.29 202.131 137.495 197.312C134.701 192.493 130.811 188.399 126.142 185.361Z" fill="white"/>
<path opacity="0.2" d="M185.532 157.989C185.532 161.033 180.703 163.5 174.719 163.5C168.736 163.5 163.881 161.033 163.881 157.989C163.881 154.945 168.736 152.451 174.719 152.451C180.703 152.451 185.532 154.84 185.532 157.989Z" fill="#92B4D1"/>
<path d="M181.412 154.971H164.747V158.278C164.747 160.902 168.473 163.133 173.092 163.133C177.711 163.133 181.412 160.954 181.412 158.278V154.971Z" fill="#72B5E8"/>
<g style="mix-blend-mode:multiply">
<path d="M181.412 154.105H164.747V156.939C164.747 159.249 168.473 161.112 173.092 161.112C177.711 161.112 181.412 159.249 181.412 156.939V154.105Z" fill="#D1D3D4"/>
</g>
<path d="M164.747 154.997C164.747 157.622 168.473 159.852 173.092 159.852C177.711 159.852 181.412 157.674 181.412 154.997C181.412 152.32 177.685 150.168 173.092 150.168C168.5 150.168 164.747 152.215 164.747 154.997Z" fill="url(#paint3_linear_236_65)"/>
<path d="M173.092 159.826C168.526 159.826 164.852 157.726 164.773 155.076C164.773 157.7 168.5 159.931 173.119 159.931C177.738 159.931 181.438 157.753 181.438 155.076C181.333 157.726 177.633 159.826 173.092 159.826Z" fill="white"/>
<path d="M161.519 165.626H150.706V167.725C150.706 169.484 153.121 170.875 156.113 170.875C159.104 170.875 161.519 169.484 161.519 167.725V165.626Z" fill="#A8CFF0"/>
<path d="M150.628 165.626C150.628 167.384 153.042 168.801 156.034 168.801C159.026 168.801 161.44 167.384 161.44 165.626C161.44 163.868 159.026 162.477 156.034 162.477C153.042 162.477 150.628 163.894 150.628 165.626Z" fill="#F0F8FF"/>
<path d="M156.034 168.591C153.068 168.591 150.785 167.384 150.628 165.678C150.628 167.437 153.042 168.985 156.034 168.985C159.026 168.985 161.44 167.437 161.44 165.678C161.519 167.384 158.894 168.591 156.034 168.591Z" fill="white"/>
<path d="M182.514 153.212H163.644V154.84C163.644 157.884 167.87 160.325 173.092 160.325C178.315 160.325 182.514 157.989 182.514 154.84V153.212Z" fill="#A8CFF0"/>
<path d="M163.644 153.265C163.644 156.283 167.87 158.75 173.092 158.75C178.315 158.75 182.514 156.283 182.514 153.265C182.514 150.247 178.289 147.78 173.092 147.78C167.896 147.78 163.644 150.221 163.644 153.265Z" fill="#F0F8FF"/>
<path d="M173.092 158.619C167.844 158.619 163.75 156.336 163.671 153.37C163.671 156.414 167.896 159.065 173.119 159.065C178.341 159.065 182.54 156.441 182.54 153.37C182.514 156.336 178.236 158.619 173.092 158.619Z" fill="white"/>
<path d="M66.5417 236.8V267.558L122.337 235.251V204.598L66.5417 236.8Z" fill="url(#paint4_linear_236_65)"/>
<path d="M66.5417 248.819V267.558L122.337 235.251V216.618L66.5417 248.819Z" fill="url(#paint5_linear_236_65)"/>
<g style="mix-blend-mode:multiply">
<path d="M68.6937 238.033L120.158 208.351V234.018L68.6937 263.779V238.033Z" fill="#E6E7E8"/>
</g>
<g style="mix-blend-mode:screen">
<path d="M73.2602 235.934L72.1317 236.695V262.44L73.2602 261.679V235.934Z" fill="#414042"/>
</g>
<g style="mix-blend-mode:multiply">
<path d="M72.0792 236.59L71.6331 236.563V262.309H72.0792V236.59Z" fill="#BCBEC0"/>
</g>
<g style="mix-blend-mode:screen">
<path d="M77.0131 233.755L75.8584 234.516V260.262L77.0131 259.501V233.755Z" fill="#414042"/>
</g>
<g style="mix-blend-mode:multiply">
<path d="M75.8059 234.411L75.386 234.385V260.131L75.8059 260.157V234.411Z" fill="#BCBEC0"/>
</g>
<g style="mix-blend-mode:screen">
<path d="M80.7397 231.603L79.585 232.338V258.084L80.7397 257.349V231.603Z" fill="#414042"/>
</g>
<g style="mix-blend-mode:multiply">
<path d="M79.5324 232.259L79.1125 232.233V257.979H79.5324V232.259Z" fill="#BCBEC0"/>
</g>
<g style="mix-blend-mode:screen">
<path d="M84.4664 229.425L83.3379 230.186V255.931L84.4664 255.17V229.425Z" fill="#414042"/>
</g>
<g style="mix-blend-mode:multiply">
<path d="M83.2854 230.081L82.8392 230.055V255.8L83.2854 255.827V230.081Z" fill="#BCBEC0"/>
</g>
<g style="mix-blend-mode:screen">
<path d="M88.1929 227.273L87.0645 228.008V253.753L88.1929 252.992V227.273Z" fill="#414042"/>
</g>
<g style="mix-blend-mode:multiply">
<path d="M87.0119 227.903H86.5658V253.622L87.0119 253.648V227.903Z" fill="#BCBEC0"/>
</g>
<g style="mix-blend-mode:screen">
<path d="M91.9197 225.095L90.7913 225.856V251.575L91.9197 250.84V225.095Z" fill="#414042"/>
</g>
<g style="mix-blend-mode:multiply">
<path d="M90.7386 225.751L90.3187 225.725V251.47L90.7386 251.496V225.751Z" fill="#BCBEC0"/>
</g>
<g style="mix-blend-mode:screen">
<path d="M95.6726 222.917L94.5178 223.678V249.423L95.6726 248.662V222.917Z" fill="#414042"/>
</g>
<g style="mix-blend-mode:multiply">
<path d="M94.4653 223.573H94.0454V249.292L94.4653 249.318V223.573Z" fill="#BCBEC0"/>
</g>
<g style="mix-blend-mode:screen">
<path d="M99.3991 220.765L98.2444 221.526V247.245L99.3991 246.484V220.765Z" fill="#414042"/>
</g>
<g style="mix-blend-mode:multiply">
<path d="M98.1921 221.421L97.7722 221.394V247.14H98.1921V221.421Z" fill="#BCBEC0"/>
</g>
<g style="mix-blend-mode:screen">
<path d="M103.126 218.586L101.997 219.347V245.093L103.126 244.332V218.586Z" fill="#414042"/>
</g>
<g style="mix-blend-mode:multiply">
<path d="M101.945 219.242L101.499 219.216V244.961L101.945 244.988V219.242Z" fill="#BCBEC0"/>
</g>
<g style="mix-blend-mode:screen">
<path d="M106.852 216.434L105.724 217.169V242.914L106.852 242.153V216.434Z" fill="#414042"/>
</g>
<g style="mix-blend-mode:multiply">
<path d="M105.671 217.064H105.225V242.783L105.671 242.809V217.064Z" fill="#BCBEC0"/>
</g>
<g style="mix-blend-mode:screen">
<path d="M110.579 214.256L109.451 215.017V240.736L110.579 240.001V214.256Z" fill="#414042"/>
</g>
<g style="mix-blend-mode:multiply">
<path d="M109.398 214.912L108.952 214.886V240.631H109.398V214.912Z" fill="#BCBEC0"/>
</g>
<g style="mix-blend-mode:screen">
<path d="M114.332 212.078L113.177 212.839V238.584L114.332 237.823V212.078Z" fill="#414042"/>
</g>
<g style="mix-blend-mode:multiply">
<path d="M113.125 212.734H112.705V238.453L113.125 238.479V212.734Z" fill="#BCBEC0"/>
</g>
<g style="mix-blend-mode:screen">
<path d="M118.059 209.926L116.904 210.687V236.406L118.059 235.671V209.926Z" fill="#414042"/>
</g>
<g style="mix-blend-mode:multiply">
<path d="M116.852 210.582L116.432 210.556V236.301H116.852V210.582Z" fill="#BCBEC0"/>
</g>
<g style="mix-blend-mode:multiply">
<path d="M68.6937 238.033V240.316L119.397 211.054V234.464L120.158 234.018V208.351L68.6937 238.033Z" fill="#D1D3D4"/>
</g>
<path d="M66.5418 236.8V267.558L45.3367 255.617V224.806L66.5418 236.8Z" fill="url(#paint6_linear_236_65)"/>
<path d="M66.5418 248.819V267.558L45.3367 255.617V236.826L66.5418 248.819Z" fill="url(#paint7_linear_236_65)"/>
<path d="M45.3367 224.806L66.5418 236.8L122.337 204.598L101.105 192.631L45.3367 224.806Z" fill="url(#paint8_linear_236_65)"/>
<path d="M97.6146 212.078V214.282L109.897 207.17V205.018L97.6146 212.078Z" fill="url(#paint9_linear_236_65)"/>
<path d="M97.6146 212.078V214.282L84.7812 207.091V204.834L97.6146 212.078Z" fill="url(#paint10_linear_236_65)"/>
<path d="M84.7812 204.834L97.6146 212.078L109.897 205.018L97.0635 197.775L84.7812 204.834Z" fill="url(#paint11_linear_236_65)"/>
<path opacity="0.2" d="M130.682 245.093L102.811 229.215L2.7688 287.267L16.5206 295.14L11.9542 297.791L13.5288 298.709L18.0953 296.059L30.6137 303.197L130.682 245.093Z" fill="#92B4D1"/>
<path d="M30.6136 295.376L28.724 301.911L29.4326 301.439L31.3221 294.825L30.6136 295.376Z" fill="#084C94"/>
<path d="M41.0325 289.104C40.9922 289.483 41.0507 289.866 41.2025 290.215C41.3543 290.565 41.5941 290.869 41.8986 291.098L45.494 293.146C46.0451 293.46 45.704 292.752 46.5438 292.253C47.4363 291.681 48.1833 290.909 48.7254 289.998C49.2675 289.087 49.5898 288.062 49.6668 287.004C49.6668 286.033 50.5853 286.033 50.008 285.692L46.3338 283.619C45.9796 283.475 45.5951 283.421 45.2149 283.462C44.8347 283.504 44.4707 283.639 44.1556 283.855C43.2658 284.43 42.521 285.203 41.9793 286.114C41.4376 287.024 41.1135 288.048 41.0325 289.104Z" fill="#084C94"/>
<path d="M44.7067 291.308C44.7067 293.277 46.0976 294.09 47.8034 293.093C48.6932 292.518 49.438 291.745 49.9797 290.834C50.5215 289.924 50.8455 288.901 50.9265 287.844C50.9265 285.85 49.5355 285.062 47.8034 286.06C46.9199 286.639 46.1813 287.414 45.6444 288.324C45.1075 289.234 44.7867 290.255 44.7067 291.308Z" fill="#03336E"/>
<path d="M46.3339 290.39C46.3339 291.413 47.0424 291.833 47.961 291.308C48.4319 290.999 48.8242 290.584 49.1067 290.097C49.3892 289.609 49.554 289.063 49.5881 288.5C49.5881 287.477 48.8533 287.057 47.961 287.582C47.4842 287.885 47.0873 288.298 46.8041 288.787C46.5209 289.276 46.3596 289.826 46.3339 290.39Z" fill="#3F92D1"/>
<path d="M47.6722 285.745C47.9781 285.53 48.3318 285.394 48.7024 285.349C49.0731 285.303 49.4492 285.349 49.798 285.482C49.1528 285.368 48.4882 285.499 47.9347 285.85C47.0449 286.425 46.3001 287.198 45.7584 288.108C45.2167 289.019 44.8927 290.042 44.8117 291.098C44.7698 291.499 44.8411 291.903 45.0174 292.265C45.1936 292.627 45.4679 292.932 45.8089 293.145C45.0479 292.936 44.5492 292.174 44.5492 290.993C44.6302 289.937 44.9542 288.914 45.4959 288.003C46.0377 287.093 46.7825 286.32 47.6722 285.745Z" fill="#2672AB"/>
<path d="M32.6082 293.933C32.5725 294.308 32.6334 294.685 32.785 295.03C32.9366 295.374 33.1739 295.674 33.4743 295.901L37.0697 297.974C37.6471 298.289 37.2796 297.581 38.1194 297.082C39.0092 296.507 39.754 295.734 40.2957 294.824C40.8375 293.913 41.1615 292.89 41.2425 291.833C41.2425 290.862 42.161 290.836 41.6099 290.521L37.9095 288.448C37.5579 288.291 37.1711 288.231 36.7885 288.272C36.4059 288.314 36.0411 288.456 35.7313 288.684C34.8387 289.256 34.0918 290.028 33.5497 290.94C33.0076 291.851 32.6852 292.875 32.6082 293.933Z" fill="#084C94"/>
<path d="M36.2825 296.085C36.2825 298.079 37.6734 298.867 39.4055 297.869C40.289 297.29 41.0277 296.515 41.5646 295.605C42.1015 294.695 42.4223 293.674 42.5023 292.621C42.5023 290.652 41.1114 289.839 39.4055 290.836C38.5158 291.411 37.771 292.184 37.2292 293.095C36.6875 294.005 36.3635 295.029 36.2825 296.085Z" fill="#03336E"/>
<path d="M37.9095 295.271C37.9095 296.295 38.6444 296.715 39.5367 296.19C40.0085 295.888 40.402 295.478 40.6849 294.995C40.9677 294.511 41.1319 293.967 41.1638 293.408C41.1638 292.358 40.429 291.965 39.5367 292.463C39.0658 292.772 38.6734 293.187 38.391 293.675C38.1085 294.162 37.9436 294.709 37.9095 295.271Z" fill="#3F92D1"/>
<path d="M39.2479 290.652C39.5485 290.427 39.9029 290.284 40.2758 290.238C40.6488 290.192 41.0273 290.244 41.3737 290.39C41.0561 290.318 40.7274 290.312 40.4071 290.37C40.0869 290.429 39.7819 290.552 39.5103 290.731C38.6233 291.309 37.8806 292.083 37.3392 292.993C36.7979 293.903 36.4722 294.925 36.3873 295.98C36.3391 296.381 36.4075 296.787 36.5844 297.15C36.7612 297.513 37.0391 297.818 37.3846 298.027C36.6235 297.817 36.1249 297.056 36.1249 295.875C36.2018 294.821 36.5244 293.8 37.0667 292.893C37.609 291.986 38.356 291.219 39.2479 290.652Z" fill="#2672AB"/>
<path d="M39.5105 293.25V295.612L48.1185 290.731V288.29L39.5105 293.25Z" fill="#03336E"/>
<path d="M120.053 242.836C120.018 243.214 120.079 243.596 120.23 243.944C120.382 244.293 120.619 244.598 120.919 244.83L124.515 246.904C125.092 247.218 124.725 246.484 125.564 245.985C126.46 245.416 127.209 244.644 127.751 243.733C128.294 242.821 128.615 241.795 128.688 240.736C128.688 239.739 129.606 239.739 129.055 239.424L125.355 237.325C125 237.18 124.616 237.127 124.236 237.168C123.855 237.209 123.491 237.344 123.176 237.561C122.283 238.138 121.536 238.916 120.994 239.831C120.452 240.746 120.13 241.775 120.053 242.836Z" fill="#084C94"/>
<path d="M123.727 244.935C123.727 246.904 125.118 247.717 126.85 246.72C127.752 246.146 128.508 245.371 129.059 244.456C129.61 243.541 129.941 242.51 130.026 241.445C130.026 239.476 128.635 238.663 126.929 239.66C126.021 240.229 125.259 241.003 124.703 241.918C124.147 242.834 123.813 243.867 123.727 244.935Z" fill="#03336E"/>
<path d="M125.354 244.069C125.354 245.093 126.063 245.513 126.982 244.988C127.454 244.68 127.847 244.266 128.13 243.778C128.413 243.29 128.577 242.742 128.609 242.18C128.609 241.156 127.874 240.736 126.982 241.261C126.508 241.567 126.113 241.981 125.83 242.47C125.548 242.958 125.384 243.506 125.354 244.069Z" fill="#3F92D1"/>
<path d="M126.693 239.477C126.999 239.262 127.353 239.126 127.723 239.081C128.094 239.035 128.47 239.081 128.819 239.214C128.174 239.1 127.509 239.231 126.955 239.582C126.066 240.157 125.321 240.93 124.779 241.84C124.237 242.751 123.913 243.774 123.832 244.83C123.791 245.231 123.862 245.635 124.038 245.997C124.214 246.358 124.489 246.664 124.83 246.877C124.069 246.667 123.57 245.906 123.57 244.725C123.651 243.669 123.975 242.646 124.517 241.735C125.058 240.825 125.803 240.052 126.693 239.477Z" fill="#2672AB"/>
<path d="M111.655 247.743C111.617 248.118 111.677 248.497 111.828 248.842C111.98 249.187 112.219 249.487 112.521 249.712L116.117 251.785C116.694 252.1 116.327 251.391 117.193 250.893C118.076 250.313 118.815 249.539 119.352 248.628C119.889 247.718 120.209 246.697 120.289 245.644C120.289 244.673 121.208 244.647 120.657 244.332L116.904 242.127C116.552 241.971 116.166 241.91 115.783 241.951C115.4 241.993 115.036 242.135 114.726 242.363C113.826 242.954 113.078 243.75 112.545 244.685C112.011 245.62 111.706 246.668 111.655 247.743Z" fill="#084C94"/>
<path d="M115.303 249.817C115.303 251.811 116.694 252.598 118.426 251.601C119.33 251.01 120.083 250.216 120.625 249.281C121.168 248.347 121.484 247.299 121.549 246.221C121.549 244.253 120.132 243.597 118.426 244.437C117.519 245.025 116.764 245.818 116.221 246.753C115.679 247.688 115.364 248.737 115.303 249.817Z" fill="#03336E"/>
<path d="M116.904 249.003C116.904 250.027 117.639 250.447 118.531 249.922C119.003 249.62 119.396 249.21 119.679 248.726C119.962 248.243 120.126 247.699 120.158 247.14C120.158 246.09 119.423 245.696 118.531 246.195C118.06 246.504 117.668 246.919 117.385 247.407C117.103 247.894 116.938 248.441 116.904 249.003Z" fill="#3F92D1"/>
<path d="M118.269 244.384C118.569 244.159 118.924 244.016 119.297 243.97C119.67 243.924 120.048 243.976 120.394 244.122C120.075 244.049 119.745 244.044 119.424 244.107C119.103 244.171 118.799 244.301 118.531 244.489C117.64 245.063 116.894 245.835 116.352 246.746C115.81 247.657 115.487 248.681 115.408 249.738C115.365 250.135 115.436 250.536 115.613 250.893C115.789 251.251 116.064 251.552 116.405 251.759C115.984 251.602 115.63 251.305 115.4 250.918C115.171 250.531 115.081 250.078 115.146 249.633C115.221 248.575 115.542 247.549 116.084 246.638C116.627 245.727 117.375 244.955 118.269 244.384Z" fill="#2672AB"/>
<path d="M118.531 246.982V249.344L127.139 244.463V242.022L118.531 246.982Z" fill="#03336E"/>
<path d="M30.5874 292.279V295.665L50.4804 284.118L57.0151 283.068L109.372 252.625L115.618 246.247L130.682 237.482V234.175L30.5874 292.279Z" fill="#03336E"/>
<path d="M30.6137 292.279V295.665L2.7688 279.814V276.376L30.6137 292.279Z" fill="#084C94"/>
<path d="M30.6137 295.376L28.7242 301.911L0.879272 286.06L2.76884 279.472L30.6137 295.376Z" fill="#2672AB"/>
<path d="M2.7688 276.376L30.6137 292.28L130.682 234.175L102.811 218.298L2.7688 276.376Z" fill="#2672AB"/>
<path d="M11.6654 288.422V290.364L17.4128 287.031V285.089L11.6654 288.422Z" fill="#03336E"/>
<path d="M11.6655 288.422V290.364L10.0908 289.471V287.529L11.6655 288.422Z" fill="url(#paint12_linear_236_65)"/>
<path d="M10.0908 287.529L11.6655 288.422L17.4129 285.089L15.8382 284.196L10.0908 287.529Z" fill="#2672AB"/>
<path d="M11.1931 288.658V291.387L12.2166 290.784V288.08L11.1931 288.658Z" fill="#03336E"/>
<path d="M11.1931 288.658V291.387L8.9624 290.127V287.398L11.1931 288.658Z" fill="#084C94"/>
<path d="M8.9624 287.398L11.1931 288.658L12.2167 288.08L10.0121 286.794L8.9624 287.398Z" fill="#3F92D1"/>
<path d="M69.2449 235.304V266.062L125.04 233.755V203.102L69.2449 235.304Z" fill="#72B5E8"/>
<path d="M69.2449 247.323V266.062L125.04 233.755V215.122L69.2449 247.323Z" fill="#3F92D1"/>
<g style="mix-blend-mode:multiply">
<path d="M71.397 236.537L122.861 206.855V232.522L71.397 262.283V236.537Z" fill="#E6E7E8"/>
</g>
<path opacity="0.3" d="M75.9632 234.438L74.8347 235.173V260.918L75.9632 260.183V234.438Z" fill="#D1EBFF"/>
<path d="M74.7823 235.094L74.3362 235.068V260.813H74.7823V235.094Z" fill="#2672AB"/>
<path opacity="0.3" d="M79.7163 232.259L78.5615 233.02V258.766L79.7163 258.005V232.259Z" fill="#D1EBFF"/>
<path d="M78.509 232.916L78.0891 232.889V258.635L78.509 258.661V232.916Z" fill="#2672AB"/>
<path opacity="0.3" d="M83.4428 230.107L82.2881 230.842V256.588L83.4428 255.827V230.107Z" fill="#D1EBFF"/>
<path d="M82.2355 230.737H81.8157V256.456L82.2355 256.483V230.737Z" fill="#2672AB"/>
<path opacity="0.3" d="M87.1695 227.929L86.041 228.69V254.409L87.1695 253.675V227.929Z" fill="#D1EBFF"/>
<path d="M85.9886 228.585L85.5425 228.559V254.304H85.9886V228.585Z" fill="#2672AB"/>
<path opacity="0.3" d="M90.8962 225.751L89.7677 226.512V252.257L90.8962 251.496V225.751Z" fill="#D1EBFF"/>
<path d="M89.7152 226.407L89.269 226.381V252.126L89.7152 252.152V226.407Z" fill="#2672AB"/>
<path opacity="0.3" d="M94.6227 223.599L93.4943 224.334V250.079L94.6227 249.318V223.599Z" fill="#D1EBFF"/>
<path d="M93.4419 224.229H93.022V249.974H93.4419V224.229Z" fill="#2672AB"/>
<path opacity="0.3" d="M98.3757 221.421L97.2209 222.182V247.927L98.3757 247.166V221.421Z" fill="#D1EBFF"/>
<path d="M97.1684 222.077L96.7485 222.05V247.796L97.1684 247.822V222.077Z" fill="#2672AB"/>
<path opacity="0.3" d="M102.102 219.269L100.948 220.003V245.749L102.102 244.988V219.269Z" fill="#D1EBFF"/>
<path d="M100.895 219.898H100.475V245.618L100.895 245.644V219.898Z" fill="#2672AB"/>
<path opacity="0.3" d="M105.829 217.09L104.7 217.852V243.571L105.829 242.836V217.09Z" fill="#D1EBFF"/>
<path d="M104.648 217.746L104.202 217.72V243.466H104.648V217.746Z" fill="#2672AB"/>
<path opacity="0.3" d="M109.556 214.912L108.427 215.673V241.419L109.556 240.657V214.912Z" fill="#D1EBFF"/>
<path d="M108.375 215.568L107.929 215.542V241.287L108.375 241.314V215.568Z" fill="#2672AB"/>
<path opacity="0.3" d="M113.282 212.76L112.154 213.521V239.24L113.282 238.506V212.76Z" fill="#D1EBFF"/>
<path d="M112.101 213.39H111.655V239.135H112.101V213.39Z" fill="#2672AB"/>
<path opacity="0.3" d="M117.035 210.582L115.88 211.343V237.088L117.035 236.327V210.582Z" fill="#D1EBFF"/>
<path d="M115.828 211.238L115.408 211.212V236.957L115.828 236.983V211.238Z" fill="#2672AB"/>
<path opacity="0.3" d="M120.762 208.43L119.607 209.165V234.91L120.762 234.149V208.43Z" fill="#D1EBFF"/>
<path d="M119.555 209.06H119.135V234.779L119.555 234.805V209.06Z" fill="#2672AB"/>
<g style="mix-blend-mode:multiply">
<path d="M71.397 236.537V238.82L122.1 209.558V232.942L122.861 232.522V206.855L71.397 236.537Z" fill="#72B5E8"/>
</g>
<path d="M69.2448 235.304V266.062L48.0397 254.121V223.31L69.2448 235.304Z" fill="url(#paint13_linear_236_65)"/>
<path d="M69.2448 247.323V266.062L48.0397 254.121V235.33L69.2448 247.323Z" fill="url(#paint14_linear_236_65)"/>
<path d="M48.0397 223.31L69.2448 235.304L125.04 203.102L103.808 191.135L48.0397 223.31Z" fill="#D1EBFF"/>
<path d="M39.6154 246.615L43.8144 253.333V283.278L70.9769 267.531V237.115L66.7516 231L39.6154 246.615Z" fill="#72B5E8"/>
<path d="M39.6154 246.615L43.8144 253.333L70.9769 237.115L66.7516 231L39.6154 246.615Z" fill="#D1EBFF"/>
<path d="M43.8145 264.408V283.278L70.977 267.531V248.767L43.8145 264.408Z" fill="#3F92D1"/>
<path d="M58.3536 246.431V251.496C58.3515 251.641 58.3882 251.784 58.46 251.91C58.5318 252.037 58.636 252.141 58.7618 252.213C58.8876 252.286 59.0305 252.323 59.1756 252.322C59.3207 252.32 59.4628 252.28 59.5871 252.205L67.9589 247.376C68.0811 247.296 68.1811 247.187 68.25 247.059C68.3188 246.931 68.3541 246.787 68.3526 246.641V241.182C68.3547 241.037 68.3179 240.894 68.2462 240.768C68.1744 240.642 68.0702 240.537 67.9443 240.465C67.8185 240.393 67.6757 240.355 67.5306 240.357C67.3854 240.359 67.2434 240.399 67.1191 240.474L59.2459 245.066C58.9868 245.191 58.7667 245.384 58.6094 245.624C58.4521 245.865 58.3636 246.144 58.3536 246.431Z" fill="#022652"/>
<path d="M67.6439 246.064V241.576C67.6416 241.519 67.6248 241.463 67.5951 241.413C67.5654 241.364 67.5237 241.323 67.4739 241.295C67.4242 241.266 67.368 241.25 67.3106 241.249C67.2531 241.247 67.1962 241.261 67.1453 241.287L59.6132 245.618C59.4502 245.741 59.3229 245.906 59.2445 246.095C59.1661 246.284 59.1394 246.491 59.1671 246.694V251.208C59.1694 251.265 59.1862 251.321 59.216 251.37C59.2457 251.419 59.2873 251.46 59.337 251.489C59.3868 251.518 59.443 251.534 59.5005 251.535C59.5579 251.536 59.6148 251.523 59.6657 251.496L67.0403 247.035C67.2165 246.939 67.3649 246.799 67.4707 246.629C67.5765 246.459 67.6362 246.264 67.6439 246.064Z" fill="#03336E"/>
<path d="M46.9376 253.045V258.11C46.9355 258.255 46.9722 258.398 47.044 258.524C47.1158 258.65 47.22 258.755 47.3458 258.827C47.4716 258.899 47.6145 258.937 47.7596 258.935C47.9047 258.934 48.0468 258.893 48.1711 258.818L56.0443 254.199C56.2877 254.059 56.4891 253.856 56.6275 253.611C56.766 253.367 56.8364 253.089 56.8316 252.808V247.796C56.8337 247.651 56.797 247.508 56.7252 247.382C56.6534 247.256 56.5492 247.151 56.4234 247.079C56.2975 247.006 56.1546 246.969 56.0095 246.971C55.8644 246.972 55.7224 247.012 55.5981 247.087L47.7249 251.68C47.4854 251.818 47.2865 252.017 47.1483 252.257C47.0101 252.496 46.9374 252.768 46.9376 253.045Z" fill="#022652"/>
<path d="M56.2278 252.677V248.19C56.2344 248.129 56.2233 248.068 56.1957 248.013C56.1681 247.959 56.1253 247.913 56.0725 247.883C56.0196 247.852 55.9591 247.838 55.8981 247.841C55.8372 247.844 55.7784 247.865 55.7291 247.901L48.1971 252.231C48.0252 252.327 47.8829 252.468 47.7857 252.64C47.6886 252.811 47.6402 253.005 47.646 253.202V257.716C47.6483 257.774 47.6651 257.829 47.6948 257.879C47.7245 257.928 47.7662 257.969 47.8159 257.998C47.8657 258.026 47.9219 258.042 47.9793 258.043C48.0368 258.045 48.0936 258.031 48.1446 258.005L55.6766 253.648C55.8431 253.546 55.981 253.404 56.0774 253.234C56.1737 253.064 56.2255 252.872 56.2278 252.677Z" fill="#03336E"/>
<path d="M39.6153 246.615L43.8143 253.045V283.278L18.0952 268.634V238.112L22.2943 236.721L39.6153 246.615Z" fill="#A8CFF0"/>
<path d="M22.2944 236.721L39.6155 246.615L66.7518 231L49.4307 221.106L22.2944 236.721Z" fill="#F0F8FF"/>
<path d="M49.4305 221.106L22.2943 236.721L18.0952 238.112L45.1265 222.287L49.4305 221.106Z" fill="#D1EBFF"/>
<path d="M30.0625 246.904V251.942C30.0646 252.087 30.0278 252.231 29.956 252.357C29.8843 252.483 29.78 252.587 29.6542 252.66C29.5284 252.732 29.3855 252.769 29.2404 252.768C29.0953 252.766 28.9533 252.726 28.829 252.651L20.9558 248.032C20.7131 247.895 20.5105 247.697 20.3678 247.458C20.2251 247.218 20.1473 246.946 20.1422 246.667V241.629C20.1454 241.483 20.1866 241.34 20.2616 241.215C20.3367 241.09 20.443 240.987 20.5701 240.915C20.6972 240.844 20.8408 240.806 20.9866 240.807C21.1325 240.808 21.2756 240.847 21.4019 240.92L29.2751 245.513C29.5186 245.653 29.7199 245.856 29.8584 246.101C29.9968 246.345 30.0673 246.623 30.0625 246.904Z" fill="#03336E"/>
<path d="M20.7723 246.51V242.022C20.7656 241.962 20.7767 241.9 20.8043 241.846C20.8319 241.791 20.8747 241.746 20.9275 241.715C20.9803 241.685 21.0409 241.67 21.1019 241.673C21.1628 241.677 21.2216 241.698 21.2709 241.734L28.7767 246.064C28.9516 246.158 29.0976 246.299 29.1992 246.47C29.3009 246.641 29.3544 246.836 29.354 247.035V251.549C29.3517 251.606 29.3349 251.662 29.3052 251.711C29.2755 251.761 29.2338 251.801 29.1841 251.83C29.1343 251.859 29.0781 251.875 29.0207 251.876C28.9632 251.877 28.9064 251.864 28.8554 251.837L21.3234 247.481C21.1515 247.385 21.0092 247.244 20.912 247.073C20.8148 246.901 20.7665 246.707 20.7723 246.51Z" fill="#084C94"/>
<path d="M41.4787 253.491V258.556C41.4808 258.701 41.4441 258.844 41.3723 258.97C41.3005 259.096 41.1963 259.201 41.0705 259.273C40.9446 259.345 40.8018 259.383 40.6567 259.381C40.5116 259.38 40.3695 259.339 40.2452 259.265L32.372 254.646C32.136 254.503 31.9399 254.304 31.8022 254.065C31.6645 253.826 31.5896 253.556 31.5847 253.281V248.242C31.5879 248.096 31.6291 247.954 31.7041 247.829C31.7792 247.704 31.8855 247.6 32.0126 247.529C32.1397 247.457 32.2833 247.42 32.4291 247.421C32.575 247.422 32.7181 247.46 32.8444 247.533L40.7176 252.126C40.9488 252.271 41.1397 252.473 41.2727 252.711C41.4057 252.95 41.4765 253.218 41.4787 253.491Z" fill="#03336E"/>
<path d="M32.1884 253.123V248.636C32.1818 248.575 32.1929 248.514 32.2205 248.459C32.248 248.405 32.2908 248.359 32.3437 248.329C32.3965 248.298 32.4571 248.284 32.518 248.287C32.579 248.29 32.6377 248.311 32.687 248.347L40.1928 252.677C40.3625 252.778 40.5043 252.92 40.6051 253.089C40.706 253.259 40.7627 253.451 40.7702 253.648V258.162C40.7679 258.22 40.751 258.276 40.7213 258.325C40.6916 258.374 40.65 258.415 40.6002 258.444C40.5505 258.472 40.4943 258.488 40.4368 258.489C40.3794 258.491 40.3225 258.477 40.2715 258.451L32.7395 254.094C32.573 253.992 32.4352 253.85 32.3388 253.68C32.2424 253.51 32.1907 253.319 32.1884 253.123Z" fill="#084C94"/>
<path d="M20.7723 246.51V242.022C20.7656 241.962 20.7767 241.9 20.8043 241.846C20.8319 241.791 20.8747 241.746 20.9275 241.715C20.9803 241.685 21.0409 241.67 21.1019 241.673C21.1628 241.677 21.2216 241.698 21.2709 241.734L28.7767 246.064C28.9516 246.158 29.0976 246.299 29.1992 246.47C29.3009 246.641 29.3544 246.836 29.354 247.035L21.3234 247.481C21.1515 247.385 21.0092 247.244 20.912 247.073C20.8148 246.901 20.7665 246.707 20.7723 246.51Z" fill="#2672AB"/>
<path d="M32.1884 253.123V248.636C32.1818 248.575 32.1929 248.514 32.2205 248.459C32.248 248.405 32.2908 248.359 32.3437 248.329C32.3965 248.298 32.4571 248.284 32.518 248.287C32.579 248.29 32.6377 248.311 32.687 248.347L40.1928 252.677C40.3625 252.778 40.5043 252.92 40.6051 253.089C40.706 253.259 40.7627 253.451 40.7702 253.648L32.7395 254.094C32.573 253.992 32.4352 253.85 32.3388 253.68C32.2424 253.51 32.1907 253.319 32.1884 253.123Z" fill="#2672AB"/>
<path d="M31.7158 271.31V290.18L43.7356 283.251V264.487L31.7158 271.31Z" fill="#72B5E8"/>
<path d="M41.3213 281.861V268.607L34.1042 272.701V286.033L41.3213 281.861Z" fill="#3F92D1"/>
<path d="M40.6652 268.975V281.467L34.1042 285.246V286.033L41.3213 281.861V268.607L40.6652 268.975Z" fill="#2672AB"/>
<path d="M31.716 271.31L18.699 260.734L30.7187 253.832L43.7357 264.487L31.716 271.31Z" fill="#D1EBFF"/>
<path d="M6.07544 256.535L18.6988 260.734L30.7186 253.832L18.0952 249.738L6.07544 256.535Z" fill="#F0F8FF"/>
<path d="M58.4323 261.653L68.5624 255.826V266.167L58.4323 272.019V261.653Z" fill="#2672AB"/>
<path d="M56.9364 262.519V272.885L46.2289 279.105V268.686L56.9364 262.519Z" fill="#2672AB"/>
<path d="M58.4323 266.455L68.5624 260.629V261.364L58.4323 267.216V266.455Z" fill="#084C94"/>
<path d="M58.4323 268.87L68.5624 263.044V263.752L58.4323 269.605V268.87Z" fill="#084C94"/>
<path d="M58.4323 271.258L68.5624 265.458V266.167L58.4323 272.019V271.258Z" fill="#084C94"/>
<path d="M58.4323 264.067L68.5624 258.241V258.949L58.4323 264.802V264.067Z" fill="#084C94"/>
<path d="M58.4323 261.653L68.5624 255.826V256.535L58.4323 262.414V261.653Z" fill="#084C94"/>
<path d="M56.9364 268.082L46.2289 274.302V273.515L56.9364 267.321V268.082Z" fill="#084C94"/>
<path d="M56.9364 262.519V263.28L46.2289 269.5V268.712L56.9364 262.519Z" fill="#084C94"/>
<path d="M56.9364 272.885L46.2289 279.105V278.318L56.9364 272.124V272.885Z" fill="#084C94"/>
<path d="M56.9364 265.668L46.2289 271.888V271.101L56.9364 264.933V265.668Z" fill="#084C94"/>
<path d="M56.9364 270.497L46.2289 276.69V275.903L56.9364 269.736V270.497Z" fill="#084C94"/>
<path d="M43.7357 264.487L32.2146 271.704L31.716 290.18L31.3223 271.468L18.699 260.734L32.0047 270.891L43.7357 264.487Z" fill="white"/>
<path d="M100.318 210.582V212.786L112.6 205.674V203.522L100.318 210.582Z" fill="#72B5E8"/>
<path d="M100.318 210.582V212.786L87.4844 205.569V203.339L100.318 210.582Z" fill="#A8CFF0"/>
<path d="M87.4844 203.339L100.318 210.582L112.6 203.522L99.7666 196.279L87.4844 203.339Z" fill="#F0F8FF"/>
<path d="M76.908 221.998V224.202L85.7259 219.164V217.012L76.908 221.998Z" fill="#72B5E8"/>
<path d="M76.9081 221.998V224.202L68.2738 219.557V217.3L76.9081 221.998Z" fill="#A8CFF0"/>
<path d="M68.2738 217.3L76.9081 221.998L85.726 217.012L77.0656 212.34L68.2738 217.3Z" fill="#F0F8FF"/>
<path d="M39.9564 238.059V240.264L54.1807 231.918V229.766L39.9564 238.059Z" fill="#72B5E8"/>
<path d="M39.9828 238.059V240.264L31.3223 235.619V233.362L39.9828 238.059Z" fill="#A8CFF0"/>
<path d="M31.3223 233.362L39.9828 238.059L54.1808 229.766L45.5203 225.095L31.3223 233.362Z" fill="#F0F8FF"/>
<path d="M31.716 271.31V290.18L6.28552 275.562V256.535L18.6989 260.734L31.716 271.31Z" fill="#A8CFF0"/>
<path d="M20.5098 264.303V274.906L15.2872 271.914V261.338L20.5098 264.303Z" fill="#3F92D1"/>
<path d="M15.9433 271.494V261.705L15.2872 261.338V271.914L20.5098 274.906V274.119L15.9433 271.494Z" fill="#2672AB"/>
<path d="M16.2319 264.776C16.266 265.338 16.4309 265.885 16.7133 266.372C16.9958 266.86 17.3881 267.275 17.8591 267.584C18.7776 268.109 19.4862 267.584 19.4862 266.665C19.4603 266.097 19.2991 265.544 19.0161 265.051C18.7331 264.558 18.3364 264.14 17.8591 263.831C16.9668 263.332 16.2319 263.726 16.2319 264.776Z" fill="#FFD70F"/>
<path d="M16.2319 269.421C16.2598 269.985 16.422 270.534 16.705 271.022C16.9881 271.511 17.3837 271.924 17.8591 272.229C18.7776 272.754 19.4862 272.229 19.4862 271.311C19.4562 270.747 19.2931 270.199 19.0103 269.711C18.7274 269.223 18.3329 268.809 17.8591 268.502C16.9668 267.978 16.2319 268.397 16.2319 269.421Z" fill="#FFD70F"/>
<path d="M83.8628 251.155L71.2919 258.372V259.816L83.889 252.572V260.997L85.0962 260.393V251.942L99.3205 243.781V252.257L100.528 251.654V242.993L114.043 235.12V243.544L115.251 242.941V234.543L129.449 226.355V234.648L130.656 234.044V221.421C130.655 221.316 130.628 221.213 130.578 221.122C130.527 221.03 130.455 220.952 130.367 220.896L125.118 217.668V219.032L129.055 221.394L126.929 222.628L125.25 221.578V222.943L125.879 223.31L71.2919 254.567V255.984L83.889 248.741L83.8628 251.155ZM129.422 224.255L127.9 223.336L129.422 222.47V224.255ZM115.224 233.152V230.527L126.719 223.914L128.845 225.2L115.224 233.152ZM100.501 241.602V238.978L114.017 231.105V233.729L100.501 241.602ZM85.07 250.473V247.848L99.2942 239.66V242.285L85.07 250.473Z" fill="#03336E"/>
<path d="M4.5271 266.009V276.953L5.73432 277.74V274.04L10.1696 276.664V280.207L11.3505 280.995V277.347L23.5015 284.328V287.949L24.7087 288.737V285.01L28.5928 287.241V290.836L29.8001 291.597V279.262C29.8228 279.159 29.8228 279.051 29.8001 278.948L25.0499 271.73C25 271.649 24.9268 271.585 24.8399 271.547L11.0881 263.516C11.0108 263.477 10.9254 263.456 10.8388 263.456C10.7521 263.456 10.6667 263.477 10.5895 263.516L4.84203 265.484C4.74752 265.536 4.66847 265.612 4.6131 265.704C4.55772 265.796 4.52803 265.902 4.5271 266.009ZM5.73432 266.429L10.1696 264.907V269.867L5.73432 267.243V266.429ZM23.5015 277.53L11.3505 270.549V265.064L23.5015 272.15V277.53ZM28.7503 279.367V280.47L24.8399 278.213V273.279L28.7503 279.367ZM24.7087 283.435V279.499L28.5928 281.729V285.692L24.7087 283.435ZM11.3505 275.772V271.835L23.5015 278.816V282.753L11.3505 275.772ZM5.73432 272.544V268.581L10.1696 271.206V275.142L5.73432 272.544Z" fill="#03336E"/>
<path d="M66.7518 231L40.0091 246.562L43.6833 252.73L39.458 246.694L22.2944 236.721L39.5105 246.116L66.7518 231Z" fill="white"/>
<path style="mix-blend-mode:color-dodge" d="M54.1808 229.766L40.009 237.823L31.3223 233.362L39.8253 238.138L39.9828 240.264L40.1665 237.981L54.312 229.714L54.1808 229.766Z" fill="url(#paint15_radial_236_65)"/>
<path d="M231.144 158.724V160.246L228.283 161.952V160.403L231.144 158.724Z" fill="#D62D69"/>
<path d="M226.761 161.322V162.844L223.875 164.55V163.002L226.761 161.322Z" fill="#D62D69"/>
<path d="M222.353 163.92V165.442L219.492 167.148V165.6L222.353 163.92Z" fill="#D62D69"/>
<path d="M217.969 166.518V168.04L215.109 169.746V168.198L217.969 166.518Z" fill="#D62D69"/>
<path d="M213.587 169.116V170.638L210.726 172.344V170.796L213.587 169.116Z" fill="#D62D69"/>
<path d="M209.178 171.715V173.237L206.317 174.943V173.394L209.178 171.715Z" fill="#D62D69"/>
<path d="M204.795 174.313V175.835L201.935 177.541V175.992L204.795 174.313Z" fill="#D62D69"/>
<path d="M200.412 176.937V178.433L197.552 180.139V178.59L200.412 176.937Z" fill="#D62D69"/>
<path d="M196.03 179.535V181.031L193.143 182.737V181.189L196.03 179.535Z" fill="#D62D69"/>
<path d="M191.621 182.133V183.629L188.76 185.335V183.787L191.621 182.133Z" fill="#D62D69"/>
<path d="M229.989 153.921V156.152L196.476 176.15V173.893L229.989 153.921Z" fill="#D62D69"/>
<defs>
<linearGradient id="paint0_linear_236_65" x1="328.063" y1="104.267" x2="333.706" y2="103.008" gradientUnits="userSpaceOnUse">
<stop offset="0.01" stop-color="#10054D"/>
<stop offset="1" stop-color="#273B98"/>
</linearGradient>
<linearGradient id="paint1_linear_236_65" x1="220.62" y1="166.702" x2="226.263" y2="165.442" gradientUnits="userSpaceOnUse">
<stop offset="0.01" stop-color="#10054D"/>
<stop offset="1" stop-color="#273B98"/>
</linearGradient>
<linearGradient id="paint2_linear_236_65" x1="113.807" y1="228.821" x2="119.449" y2="227.536" gradientUnits="userSpaceOnUse">
<stop offset="0.01" stop-color="#10054D"/>
<stop offset="1" stop-color="#273B98"/>
</linearGradient>
<linearGradient id="paint3_linear_236_65" x1="182.855" y1="144.526" x2="169.654" y2="158.671" gradientUnits="userSpaceOnUse">
<stop stop-color="#AFB6E5"/>
<stop offset="0.14" stop-color="#B6BCE8"/>
<stop offset="0.35" stop-color="#C8CDF1"/>
<stop offset="0.58" stop-color="#E5E9FF"/>
<stop offset="0.95" stop-color="#F5F4FC"/>
<stop offset="1" stop-color="#F7F6FB"/>
</linearGradient>
<linearGradient id="paint4_linear_236_65" x1="178.997" y1="255.039" x2="6.12805" y2="216.277" gradientUnits="userSpaceOnUse">
<stop stop-color="#AFB6E5"/>
<stop offset="0.14" stop-color="#B6BCE8"/>
<stop offset="0.35" stop-color="#C8CDF1"/>
<stop offset="0.58" stop-color="#E5E9FF"/>
<stop offset="0.95" stop-color="#F5F4FC"/>
<stop offset="1" stop-color="#F7F6FB"/>
</linearGradient>
<linearGradient id="paint5_linear_236_65" x1="174.877" y1="260.104" x2="10.4058" y2="223.258" gradientUnits="userSpaceOnUse">
<stop offset="0.04" stop-color="#6B24D6"/>
<stop offset="0.19" stop-color="#7A2CD6"/>
<stop offset="0.49" stop-color="#A342D5"/>
<stop offset="0.91" stop-color="#E465D4"/>
<stop offset="1" stop-color="#F36DD4"/>
</linearGradient>
<linearGradient id="paint6_linear_236_65" x1="48.9583" y1="248.268" x2="96.2238" y2="234.123" gradientUnits="userSpaceOnUse">
<stop stop-color="#AFB6E5"/>
<stop offset="0.14" stop-color="#B6BCE8"/>
<stop offset="0.35" stop-color="#C8CDF1"/>
<stop offset="0.58" stop-color="#E5E9FF"/>
<stop offset="0.95" stop-color="#F5F4FC"/>
<stop offset="1" stop-color="#F7F6FB"/>
</linearGradient>
<linearGradient id="paint7_linear_236_65" x1="49.8769" y1="254.016" x2="90.8438" y2="241.733" gradientUnits="userSpaceOnUse">
<stop offset="0.04" stop-color="#6B24D6"/>
<stop offset="0.19" stop-color="#7A2CD6"/>
<stop offset="0.49" stop-color="#A342D5"/>
<stop offset="0.91" stop-color="#E465D4"/>
<stop offset="1" stop-color="#F36DD4"/>
</linearGradient>
<linearGradient id="paint8_linear_236_65" x1="136.325" y1="114.66" x2="76.3833" y2="228.9" gradientUnits="userSpaceOnUse">
<stop stop-color="#AFB6E5"/>
<stop offset="0.14" stop-color="#B6BCE8"/>
<stop offset="0.35" stop-color="#C8CDF1"/>
<stop offset="0.58" stop-color="#E5E9FF"/>
<stop offset="0.95" stop-color="#F5F4FC"/>
<stop offset="1" stop-color="#F7F6FB"/>
</linearGradient>
<linearGradient id="paint9_linear_236_65" x1="120.841" y1="213.495" x2="85.936" y2="205.648" gradientUnits="userSpaceOnUse">
<stop stop-color="#AFB6E5"/>
<stop offset="0.14" stop-color="#B6BCE8"/>
<stop offset="0.35" stop-color="#C8CDF1"/>
<stop offset="0.58" stop-color="#E5E9FF"/>
<stop offset="0.95" stop-color="#F5F4FC"/>
<stop offset="1" stop-color="#F7F6FB"/>
</linearGradient>
<linearGradient id="paint10_linear_236_65" x1="88.2455" y1="210.451" x2="108.191" y2="204.467" gradientUnits="userSpaceOnUse">
<stop stop-color="#AFB6E5"/>
<stop offset="0.14" stop-color="#B6BCE8"/>
<stop offset="0.35" stop-color="#C8CDF1"/>
<stop offset="0.58" stop-color="#E5E9FF"/>
<stop offset="0.95" stop-color="#F5F4FC"/>
<stop offset="1" stop-color="#F7F6FB"/>
</linearGradient>
<linearGradient id="paint11_linear_236_65" x1="109.162" y1="182.422" x2="95.6725" y2="208.115" gradientUnits="userSpaceOnUse">
<stop stop-color="#AFB6E5"/>
<stop offset="0.14" stop-color="#B6BCE8"/>
<stop offset="0.35" stop-color="#C8CDF1"/>
<stop offset="0.58" stop-color="#E5E9FF"/>
<stop offset="0.95" stop-color="#F5F4FC"/>
<stop offset="1" stop-color="#F7F6FB"/>
</linearGradient>
<linearGradient id="paint12_linear_236_65" x1="8.12253" y1="289.576" x2="13.765" y2="288.29" gradientUnits="userSpaceOnUse">
<stop offset="0.01" stop-color="#10054D"/>
<stop offset="1" stop-color="#273B98"/>
</linearGradient>
<linearGradient id="paint13_linear_236_65" x1="51.6613" y1="246.772" x2="98.9268" y2="232.627" gradientUnits="userSpaceOnUse">
<stop stop-color="#AFB6E5"/>
<stop offset="0.14" stop-color="#B6BCE8"/>
<stop offset="0.35" stop-color="#C8CDF1"/>
<stop offset="0.58" stop-color="#E5E9FF"/>
<stop offset="0.95" stop-color="#F5F4FC"/>
<stop offset="1" stop-color="#F7F6FB"/>
</linearGradient>
<linearGradient id="paint14_linear_236_65" x1="52.5799" y1="252.493" x2="93.5468" y2="240.238" gradientUnits="userSpaceOnUse">
<stop offset="0.04" stop-color="#6B24D6"/>
<stop offset="0.19" stop-color="#7A2CD6"/>
<stop offset="0.49" stop-color="#A342D5"/>
<stop offset="0.91" stop-color="#E465D4"/>
<stop offset="1" stop-color="#F36DD4"/>
</linearGradient>
<radialGradient id="paint15_radial_236_65" cx="0" cy="0" r="1" gradientUnits="userSpaceOnUse" gradientTransform="translate(42.7646 236.117) rotate(180) scale(8.9492 8.94922)">
<stop stop-color="#9F19AB"/>
<stop offset="0.01" stop-color="#9C19A8"/>
<stop offset="0.13" stop-color="#73127C"/>
<stop offset="0.25" stop-color="#500D56"/>
<stop offset="0.38" stop-color="#330836"/>
<stop offset="0.52" stop-color="#1C041E"/>
<stop offset="0.66" stop-color="#0C020D"/>
<stop offset="0.81" stop-color="#030003"/>
<stop offset="1"/>
</radialGradient>
</defs>
</svg>
