<svg width="238" height="194" viewBox="0 0 238 194" fill="none" xmlns="http://www.w3.org/2000/svg">
<path opacity="0.2" d="M29.6233 193.108L2.43455 177.361C0.0988334 176.023 0.387517 173.661 3.09065 172.112L199.973 59.8668C201.355 59.0944 202.9 58.6586 204.483 58.5948C206.065 58.531 207.64 58.8409 209.08 59.4994L236.269 75.1146C238.604 76.4792 238.289 78.815 235.612 80.3634L38.625 192.688C37.2574 193.444 35.7342 193.875 34.1732 193.948C32.6122 194.02 31.0554 193.733 29.6233 193.108Z" fill="#92B4D1"/>
<path d="M137.906 115.242V123.036L222.622 74.5373V66.7429L137.906 115.242Z" fill="#03336E"/>
<path d="M137.932 115.242V123.036L108.565 106.214V98.4457L137.932 115.242Z" fill="#084C94"/>
<path d="M108.565 98.4456L137.932 115.242L222.622 66.7429L193.229 49.9467L108.565 98.4456Z" fill="#084C94"/>
<path d="M235.193 57.9248V71.5454L236.505 70.4694V56.875L235.193 57.9248Z" fill="#03336E"/>
<path d="M235.193 57.9248V71.5454L202.703 53.2796V39.6327L235.193 57.9248Z" fill="#084C94"/>
<path d="M202.703 39.6328L235.193 57.9249L236.505 56.8751L204.015 38.6093L202.703 39.6328Z" fill="#2672AB"/>
<path d="M56.6022 143.953L57.4157 144.347V148.651L55.2375 147.811C54.1309 147.403 53.1755 146.667 52.4999 145.7C51.8243 144.734 51.4608 143.584 51.4584 142.404V121.409C52.1259 121.017 52.8889 120.817 53.6629 120.832C54.4285 120.818 55.1828 121.018 55.8411 121.409V142.746C55.8442 142.997 55.9169 143.244 56.0513 143.457C56.1856 143.67 56.3763 143.841 56.6022 143.953Z" fill="#A8CFF0"/>
<path d="M57.1009 113.93H50.225V143.349C50.225 144.478 51.7471 145.37 53.6629 145.37C55.5787 145.37 57.1009 144.478 57.1009 143.375V113.93Z" fill="#ADD2F0"/>
<path d="M57.1009 113.929C57.1009 115.032 55.5525 115.924 53.6629 115.924C51.7734 115.924 50.225 115.032 50.225 113.929C50.225 112.827 51.7471 111.935 53.6629 111.935C55.5787 111.935 57.1009 112.827 57.1009 113.929Z" fill="#D1EBFF"/>
<path d="M56.5498 113.93C56.5498 114.874 55.2638 115.609 53.663 115.609C52.0621 115.609 50.7499 114.874 50.7499 113.93C50.7499 112.985 52.0621 112.25 53.663 112.25C55.2638 112.25 56.5498 113.011 56.5498 113.93Z" fill="#3F92D1"/>
<path d="M56.6022 92.4883L57.4157 92.0947V87.7906L55.2375 88.6042C54.1309 89.0195 53.1767 89.7616 52.5018 90.7318C51.8268 91.7021 51.4629 92.8548 51.4584 94.0367V115.032C52.1214 115.435 52.8875 115.635 53.6629 115.609C54.43 115.636 55.188 115.435 55.8411 115.032V93.7218C55.8393 93.4655 55.9098 93.2138 56.0444 92.9957C56.179 92.7775 56.3723 92.6017 56.6022 92.4883Z" fill="#A8CFF0"/>
<path d="M23.6135 125.477C26.0804 125.477 28.1012 126.684 28.1012 128.101C28.1012 128.157 28.0791 128.21 28.0397 128.25C28.0003 128.289 27.9469 128.311 27.8912 128.311C27.8355 128.311 27.7821 128.289 27.7428 128.25C27.7034 128.21 27.6813 128.157 27.6813 128.101C27.6813 126.842 25.8705 125.818 23.6135 125.818C21.3565 125.818 19.5456 126.842 19.5456 128.101C19.5456 128.157 19.5235 128.21 19.4841 128.25C19.4448 128.289 19.3914 128.311 19.3357 128.311C19.28 128.311 19.2266 128.289 19.1872 128.25C19.1479 128.21 19.1257 128.157 19.1257 128.101C19.1257 126.684 21.1465 125.477 23.6135 125.477Z" fill="#3F92D1"/>
<path d="M23.6135 129.466C26.0804 129.466 28.1012 130.673 28.1012 132.09C28.1012 132.146 28.0791 132.199 28.0397 132.239C28.0003 132.278 27.9469 132.3 27.8912 132.3C27.8355 132.3 27.7821 132.278 27.7428 132.239C27.7034 132.199 27.6813 132.146 27.6813 132.09C27.6813 130.831 25.8705 129.807 23.6135 129.807C21.3565 129.807 19.5456 130.831 19.5456 132.09C19.5456 132.146 19.5235 132.199 19.4841 132.239C19.4448 132.278 19.3914 132.3 19.3357 132.3C19.28 132.3 19.2266 132.278 19.1872 132.239C19.1479 132.199 19.1257 132.146 19.1257 132.09C19.1257 130.699 21.1465 129.466 23.6135 129.466Z" fill="#3F92D1"/>
<path d="M23.6135 133.455C26.0804 133.455 28.1012 134.662 28.1012 136.079C28.1012 136.135 28.0791 136.189 28.0397 136.228C28.0003 136.267 27.9469 136.289 27.8912 136.289C27.8355 136.289 27.7821 136.267 27.7428 136.228C27.7034 136.189 27.6813 136.135 27.6813 136.079C27.6813 134.82 25.8705 133.796 23.6135 133.796C21.3565 133.796 19.5456 134.82 19.5456 136.079C19.5456 136.135 19.5235 136.189 19.4841 136.228C19.4448 136.267 19.3914 136.289 19.3357 136.289C19.28 136.289 19.2266 136.267 19.1872 136.228C19.1479 136.189 19.1257 136.135 19.1257 136.079C19.1257 134.715 21.1465 133.455 23.6135 133.455Z" fill="#3F92D1"/>
<path d="M23.6135 137.339C26.0804 137.339 28.1012 138.546 28.1012 139.964C28.1012 140.019 28.0791 140.073 28.0397 140.112C28.0003 140.151 27.9469 140.174 27.8912 140.174C27.8355 140.174 27.7821 140.151 27.7428 140.112C27.7034 140.073 27.6813 140.019 27.6813 139.964C27.6813 138.704 25.8705 137.68 23.6135 137.68C21.3565 137.68 19.5456 138.704 19.5456 139.964C19.5456 140.019 19.5235 140.073 19.4841 140.112C19.4448 140.151 19.3914 140.174 19.3357 140.174C19.28 140.174 19.2266 140.151 19.1872 140.112C19.1479 140.073 19.1257 140.019 19.1257 139.964C19.1257 138.599 21.1465 137.339 23.6135 137.339Z" fill="#3F92D1"/>
<path d="M27.7075 127.34H19.5194V141.643C19.5194 142.982 21.3565 144.031 23.6135 144.031C25.8705 144.031 27.7075 142.981 27.7075 141.669V127.34Z" fill="#2672AB"/>
<path d="M27.7075 127.367C27.7075 128.679 25.8705 129.729 23.6135 129.729C21.3565 129.729 19.5194 128.679 19.5194 127.367C19.5194 126.054 21.3565 124.978 23.6135 124.978C25.8705 124.978 27.7075 126.054 27.7075 127.367Z" fill="#3F92D1"/>
<path d="M23.6135 129.466C21.409 129.466 19.6244 128.442 19.5457 127.183C19.5457 128.495 21.3827 129.545 23.6397 129.545C25.8967 129.545 27.7338 128.495 27.7338 127.183C27.6025 128.521 25.818 129.466 23.6135 129.466Z" fill="#72B5E8"/>
<path d="M23.6135 143.008C21.1465 143.008 19.1257 141.801 19.1257 140.384C19.1257 140.328 19.1479 140.274 19.1872 140.235C19.2266 140.196 19.28 140.174 19.3357 140.174C19.3914 140.174 19.4448 140.196 19.4841 140.235C19.5235 140.274 19.5456 140.328 19.5456 140.384C19.5456 141.643 21.3565 142.667 23.6135 142.667C25.8705 142.667 27.6813 141.643 27.6813 140.384C27.6813 140.328 27.7034 140.274 27.7428 140.235C27.7821 140.196 27.8355 140.174 27.8912 140.174C27.9469 140.174 28.0003 140.196 28.0397 140.235C28.0791 140.274 28.1012 140.328 28.1012 140.384C28.1012 141.801 26.0804 143.008 23.6135 143.008Z" fill="#084C94"/>
<path d="M23.6135 142.772C21.1465 142.772 19.1257 141.565 19.1257 140.147C19.1257 140.092 19.1479 140.038 19.1872 139.999C19.2266 139.96 19.28 139.937 19.3357 139.937C19.3914 139.937 19.4448 139.96 19.4841 139.999C19.5235 140.038 19.5456 140.092 19.5456 140.147C19.5456 141.407 21.3565 142.431 23.6135 142.431C25.8705 142.431 27.6813 141.407 27.6813 140.147C27.6813 140.092 27.7034 140.038 27.7428 139.999C27.7821 139.96 27.8355 139.937 27.8912 139.937C27.9469 139.937 28.0003 139.96 28.0397 139.999C28.0791 140.038 28.1012 140.092 28.1012 140.147C28.1012 141.565 26.0804 142.772 23.6135 142.772Z" fill="#3F92D1"/>
<path d="M23.6135 138.992C21.1465 138.992 19.1257 137.785 19.1257 136.368C19.1257 136.312 19.1479 136.259 19.1872 136.22C19.2266 136.18 19.28 136.158 19.3357 136.158C19.3914 136.158 19.4448 136.18 19.4841 136.22C19.5235 136.259 19.5456 136.312 19.5456 136.368C19.5456 137.628 21.3565 138.651 23.6135 138.651C25.8705 138.651 27.6813 137.628 27.6813 136.368C27.6813 136.312 27.7034 136.259 27.7428 136.22C27.7821 136.18 27.8355 136.158 27.8912 136.158C27.9469 136.158 28.0003 136.18 28.0397 136.22C28.0791 136.259 28.1012 136.312 28.1012 136.368C28.1012 137.785 26.0804 138.992 23.6135 138.992Z" fill="#084C94"/>
<path d="M23.6135 138.73C21.1465 138.73 19.1257 137.523 19.1257 136.106C19.1257 136.05 19.1479 135.997 19.1872 135.957C19.2266 135.918 19.28 135.896 19.3357 135.896C19.3914 135.896 19.4448 135.918 19.4841 135.957C19.5235 135.997 19.5456 136.05 19.5456 136.106C19.5456 137.365 21.3565 138.415 23.6135 138.415C25.8705 138.415 27.6813 137.365 27.6813 136.106C27.6813 136.05 27.7034 135.997 27.7428 135.957C27.7821 135.918 27.8355 135.896 27.8912 135.896C27.9469 135.896 28.0003 135.918 28.0397 135.957C28.0791 135.997 28.1012 136.05 28.1012 136.106C28.1012 137.523 26.0804 138.73 23.6135 138.73Z" fill="#3F92D1"/>
<path d="M23.6135 135.03C21.1465 135.03 19.1257 133.823 19.1257 132.405C19.1257 132.35 19.1479 132.296 19.1872 132.257C19.2266 132.218 19.28 132.195 19.3357 132.195C19.3914 132.195 19.4448 132.218 19.4841 132.257C19.5235 132.296 19.5456 132.35 19.5456 132.405C19.5456 133.665 21.3565 134.689 23.6135 134.689C25.8705 134.689 27.6813 133.665 27.6813 132.405C27.6813 132.35 27.7034 132.296 27.7428 132.257C27.7821 132.218 27.8355 132.195 27.8912 132.195C27.9469 132.195 28.0003 132.218 28.0397 132.257C28.0791 132.296 28.1012 132.35 28.1012 132.405C28.1012 133.823 26.0804 135.03 23.6135 135.03Z" fill="#084C94"/>
<path d="M23.6135 134.715C21.1465 134.715 19.1257 133.508 19.1257 132.091C19.1257 132.035 19.1479 131.981 19.1872 131.942C19.2266 131.903 19.28 131.881 19.3357 131.881C19.3914 131.881 19.4448 131.903 19.4841 131.942C19.5235 131.981 19.5456 132.035 19.5456 132.091C19.5456 133.35 21.3565 134.4 23.6135 134.4C25.8705 134.4 27.6813 133.35 27.6813 132.091C27.6813 132.035 27.7034 131.981 27.7428 131.942C27.7821 131.903 27.8355 131.881 27.8912 131.881C27.9469 131.881 28.0003 131.903 28.0397 131.942C28.0791 131.981 28.1012 132.035 28.1012 132.091C28.1012 133.56 26.0804 134.715 23.6135 134.715Z" fill="#3F92D1"/>
<path d="M23.6135 131.093C21.1465 131.093 19.1257 129.886 19.1257 128.469C19.1257 128.413 19.1479 128.36 19.1872 128.32C19.2266 128.281 19.28 128.259 19.3357 128.259C19.3914 128.259 19.4448 128.281 19.4841 128.32C19.5235 128.36 19.5456 128.413 19.5456 128.469C19.5456 129.728 21.3565 130.752 23.6135 130.752C25.8705 130.752 27.6813 129.728 27.6813 128.469C27.6813 128.413 27.7034 128.36 27.7428 128.32C27.7821 128.281 27.8355 128.259 27.8912 128.259C27.9469 128.259 28.0003 128.281 28.0397 128.32C28.0791 128.36 28.1012 128.413 28.1012 128.469C28.1012 129.886 26.0804 131.093 23.6135 131.093Z" fill="#084C94"/>
<path d="M23.6135 130.831C21.1465 130.831 19.1257 129.623 19.1257 128.206C19.1257 128.151 19.1479 128.097 19.1872 128.058C19.2266 128.018 19.28 127.996 19.3357 127.996C19.3914 127.996 19.4448 128.018 19.4841 128.058C19.5235 128.097 19.5456 128.151 19.5456 128.206C19.5456 129.466 21.3565 130.516 23.6135 130.516C25.8705 130.516 27.6813 129.466 27.6813 128.206C27.6813 128.151 27.7034 128.097 27.7428 128.058C27.7821 128.018 27.8355 127.996 27.8912 127.996C27.9469 127.996 28.0003 128.018 28.0397 128.058C28.0791 128.097 28.1012 128.151 28.1012 128.206C28.1012 129.623 26.0804 130.831 23.6135 130.831Z" fill="#3F92D1"/>
<path d="M235.508 69.2886L227.372 64.2497C229.235 63.5117 231.309 63.5117 233.172 64.2497C233.945 64.8336 234.562 65.5987 234.969 66.4774C235.376 67.3561 235.561 68.3215 235.508 69.2886Z" fill="#03336E"/>
<path d="M214.827 78.0015C214.731 78.9384 214.882 79.884 215.264 80.7448C215.646 81.6056 216.246 82.3517 217.005 82.9091L221.283 85.5335C222.7 86.3208 221.808 84.5362 223.908 83.329C226.148 81.8605 228.014 79.8871 229.354 77.5672C230.694 75.2473 231.471 72.6456 231.623 69.9708C231.623 67.5301 233.88 67.5301 232.516 66.7166L227.949 64.0922C227.074 63.7113 226.114 63.5667 225.166 63.6726C224.217 63.7785 223.313 64.1313 222.543 64.6958C220.302 66.1515 218.435 68.1147 217.095 70.4265C215.754 72.7383 214.977 75.3334 214.827 78.0015Z" fill="#084C94"/>
<path d="M219.315 80.5472C219.315 85.4548 222.779 87.4231 227.057 84.9562C229.306 83.5009 231.18 81.5347 232.525 79.2179C233.871 76.9011 234.65 74.2992 234.799 71.6242C234.799 66.7166 231.334 64.7221 227.057 67.189C224.81 68.6531 222.938 70.6249 221.593 72.9453C220.249 75.2656 219.468 77.8696 219.315 80.5472Z" fill="#03336E"/>
<path d="M226.689 67.0054C227.443 66.4712 228.317 66.1337 229.234 66.0237C230.151 65.9137 231.08 66.0347 231.938 66.3756C231.144 66.2069 230.323 66.1989 229.525 66.3522C228.728 66.5054 227.969 66.8168 227.293 67.2679C225.043 68.7289 223.17 70.6999 221.824 73.0209C220.479 75.3419 219.7 77.9475 219.551 80.626C219.438 81.6175 219.611 82.6205 220.047 83.5176C220.484 84.4147 221.168 85.1687 222.018 85.6912C220.128 85.1663 218.895 83.2767 218.895 80.4424C219.038 77.7456 219.819 75.1212 221.174 72.7852C222.529 70.4492 224.419 68.4682 226.689 67.0054Z" fill="#2672AB"/>
<path d="M217.373 79.9172C217.56 76.7587 218.487 73.6884 220.077 70.9534C221.668 68.2184 223.879 65.8952 226.532 64.1708C227.519 63.4256 228.708 62.9946 229.944 62.9338C231.179 62.8729 232.405 63.1851 233.46 63.8296C233.33 63.6687 233.17 63.5349 232.988 63.436L227.608 60.4704C226.575 60.025 225.444 59.856 224.326 59.9803C223.207 60.1045 222.141 60.5176 221.231 61.179C218.572 62.8972 216.357 65.2189 214.765 67.9552C213.174 70.6915 212.251 73.7649 212.072 76.9254L217.373 79.9172Z" fill="#3F92D1"/>
<path d="M216.953 79.6023C217.133 76.4452 218.054 73.3748 219.641 70.6394C221.227 67.9039 223.435 65.5801 226.086 63.8559C226.982 63.2203 228.022 62.8178 229.113 62.685C230.203 62.5521 231.31 62.693 232.332 63.0949C231.396 62.9041 230.432 62.901 229.495 63.0857C228.558 63.2704 227.667 63.6392 226.873 64.1708C224.271 65.8656 222.094 68.1366 220.51 70.808C218.926 73.4795 217.978 76.4796 217.74 79.5761L216.953 79.6023Z" fill="#72B5E8"/>
<path d="M227.109 70.7319C225.66 71.6796 224.453 72.9548 223.587 74.4546C222.721 75.9544 222.219 77.6369 222.123 79.3662C222.123 82.5155 224.354 83.8014 227.109 82.2006C228.566 81.2647 229.78 79.9964 230.652 78.4999C231.523 77.0035 232.027 75.3216 232.122 73.5925C232.122 70.417 229.891 69.1048 227.109 70.7319Z" fill="#A8CFF0"/>
<path d="M230.364 70.2333C230.785 70.6141 231.113 71.0867 231.322 71.6146C231.532 72.1425 231.617 72.7115 231.571 73.2776C231.476 75.0067 230.972 76.6886 230.101 78.185C229.229 79.6814 228.015 80.9497 226.558 81.8856C226.093 82.2066 225.56 82.4182 225.001 82.5046C224.442 82.5909 223.871 82.5498 223.33 82.3843C223.902 82.7476 224.572 82.925 225.249 82.8922C225.926 82.8593 226.576 82.6177 227.109 82.2006C228.566 81.2647 229.781 79.9964 230.652 78.4999C231.523 77.0035 232.027 75.3216 232.122 73.5925C232.209 72.9199 232.087 72.2368 231.772 71.6359C231.458 71.035 230.966 70.5453 230.364 70.2333Z" fill="#72B5E8"/>
<path d="M223.907 77.7914C223.907 79.4448 225.062 80.1272 226.532 79.2874C227.292 78.7925 227.925 78.1264 228.381 77.3424C228.837 76.5585 229.102 75.6786 229.156 74.7734C229.156 73.12 227.975 72.4639 226.532 73.2775C225.771 73.7708 225.136 74.4366 224.68 75.2209C224.224 76.0051 223.96 76.8858 223.907 77.7914Z" fill="#3F92D1"/>
<path d="M224.328 78.0539C224.328 79.7073 225.509 80.3634 226.952 79.5498C227.712 79.055 228.345 78.3888 228.801 77.6049C229.257 76.8209 229.522 75.9411 229.576 75.0359C229.576 73.3825 228.395 72.7002 226.952 73.54C226.192 74.0348 225.559 74.701 225.103 75.4849C224.647 76.2689 224.382 77.1488 224.328 78.0539Z" fill="#2672AB"/>
<path d="M218.501 79.1561C218.764 76.3143 219.665 73.5684 221.137 71.1235C222.61 68.6787 224.615 66.598 227.004 65.0369C231.545 62.4125 235.245 64.3283 235.507 69.2884H235.665C235.665 63.6197 231.518 61.4152 226.532 64.2233C223.878 65.9462 221.666 68.269 220.075 71.0043C218.484 73.7396 217.558 76.8107 217.373 79.9697L218.501 79.1561Z" fill="#2672AB"/>
<path d="M214.302 81.2557L206.193 76.1906C208.048 75.4594 210.111 75.4594 211.967 76.1906C212.748 76.7722 213.372 77.5406 213.78 78.4254C214.188 79.3103 214.368 80.2834 214.302 81.2557Z" fill="#03336E"/>
<path d="M193.648 90.1002C193.55 91.0373 193.699 91.9839 194.082 92.8451C194.464 93.7064 195.066 94.4522 195.827 95.0078L200.104 97.6322C201.495 98.3933 200.603 96.6349 202.729 95.4015C204.979 93.9405 206.852 91.9694 208.198 89.6484C209.543 87.3274 210.322 84.7218 210.471 82.0432C210.471 79.6288 212.701 79.6026 211.337 78.789L206.797 76.1646C205.919 75.7965 204.961 75.6588 204.015 75.7644C203.069 75.8701 202.166 76.2156 201.39 76.7682C199.144 78.2266 197.272 80.1935 195.927 82.5097C194.582 84.8259 193.802 87.4262 193.648 90.1002Z" fill="#084C94"/>
<path d="M198.136 92.5144C198.136 97.422 201.6 99.3903 205.878 96.9234C208.12 95.4564 209.986 93.4833 211.327 91.1631C212.667 88.8429 213.443 86.2404 213.594 83.5652C213.594 78.6575 210.129 76.6893 205.878 79.1562C203.628 80.6172 201.754 82.5883 200.409 84.9093C199.064 87.2303 198.285 89.8359 198.136 92.5144Z" fill="#03336E"/>
<path d="M205.484 78.9724C206.239 78.4424 207.112 78.1055 208.027 77.9911C208.942 77.8768 209.871 77.9884 210.733 78.3163C209.941 78.1535 209.124 78.151 208.331 78.3087C207.538 78.4665 206.784 78.7814 206.114 79.2348C203.84 80.6811 201.941 82.6458 200.572 84.9677C199.204 87.2896 198.405 89.9028 198.241 92.593C198.126 93.5818 198.294 94.5831 198.726 95.4799C199.158 96.3767 199.836 97.1322 200.682 97.6581C199.65 97.2571 198.782 96.5225 198.217 95.5714C197.651 94.6203 197.419 93.5072 197.559 92.4093C197.716 89.7007 198.517 87.0687 199.896 84.7318C201.274 82.3949 203.19 80.4204 205.484 78.9724Z" fill="#2672AB"/>
<path d="M196.194 91.8846C196.374 88.7275 197.295 85.6571 198.881 82.9217C200.468 80.1862 202.676 77.8624 205.327 76.1382C206.311 75.3863 207.501 74.951 208.738 74.8901C209.975 74.8292 211.202 75.1455 212.255 75.7971C212.255 75.7971 212.045 75.5608 211.809 75.4034L206.56 72.4378C205.524 71.994 204.39 71.8237 203.269 71.9432C202.148 72.0626 201.076 72.4679 200.157 73.1202C197.51 74.849 195.305 77.1738 193.719 79.9083C192.133 82.6428 191.21 85.7109 191.024 88.8666L196.194 91.8846Z" fill="#3F92D1"/>
<path d="M195.748 91.6748C195.928 88.5176 196.849 85.4472 198.435 82.7118C200.022 79.9763 202.23 77.6526 204.881 75.9284C205.777 75.2839 206.821 74.8743 207.917 74.7367C209.012 74.5992 210.125 74.7382 211.153 75.141C210.217 74.9503 209.253 74.9472 208.316 75.1319C207.379 75.3166 206.488 75.6854 205.694 76.217C203.09 77.9119 200.909 80.1823 199.321 82.8533C197.733 85.5243 196.78 88.5245 196.535 91.6223L195.748 91.6748Z" fill="#72B5E8"/>
<path d="M205.93 82.6731C204.479 83.6209 203.269 84.8955 202.399 86.3949C201.528 87.8943 201.021 89.5767 200.918 91.3074C200.918 94.4829 203.175 95.7689 205.93 94.168C207.38 93.2203 208.587 91.9451 209.453 90.4453C210.319 88.9455 210.821 87.263 210.917 85.5337C210.917 82.3844 208.686 81.0984 205.93 82.6731Z" fill="#A8CFF0"/>
<path d="M209.159 82.2268C209.586 82.5984 209.92 83.065 210.134 83.5892C210.349 84.1133 210.437 84.6804 210.392 85.2449C210.291 86.976 209.785 88.6592 208.914 90.1589C208.043 91.6586 206.833 92.9329 205.38 93.8792C204.914 94.2001 204.382 94.4117 203.823 94.498C203.264 94.5844 202.692 94.5433 202.152 94.3778C202.728 94.7269 203.396 94.8959 204.069 94.8631C204.742 94.8304 205.391 94.5974 205.931 94.1941C207.38 93.2464 208.587 91.9712 209.453 90.4714C210.319 88.9716 210.821 87.2891 210.917 85.5598C211.002 84.8909 210.879 84.212 210.564 83.6157C210.25 83.0193 209.759 82.5343 209.159 82.2268Z" fill="#72B5E8"/>
<path d="M202.597 89.7588C202.597 91.4122 203.778 92.0683 205.222 91.2285C205.986 90.7441 206.622 90.0839 207.079 89.3032C207.535 88.5225 207.798 87.6439 207.846 86.7408C207.846 85.0874 206.691 84.4051 205.222 85.2449C204.462 85.7397 203.829 86.4059 203.373 87.1898C202.917 87.9738 202.652 88.8536 202.597 89.7588Z" fill="#3F92D1"/>
<path d="M203.149 90.1C203.149 91.7797 204.304 92.4358 205.773 91.596C206.536 91.1042 207.171 90.4388 207.628 89.6542C208.084 88.8696 208.348 87.9882 208.398 87.082C208.398 85.4286 207.217 84.7725 205.773 85.6123C205.009 86.0967 204.373 86.7569 203.916 87.5376C203.46 88.3183 203.197 89.1969 203.149 90.1Z" fill="#2672AB"/>
<path d="M197.349 91.1233C197.596 88.2739 198.49 85.5184 199.964 83.0671C201.438 80.6157 203.451 78.533 205.852 76.9778C210.366 74.3534 214.066 76.2955 214.329 81.2556H214.486C214.486 75.5869 210.366 73.3824 205.353 76.2168C202.704 77.9425 200.497 80.2666 198.91 83.0018C197.324 85.7369 196.403 88.8065 196.22 91.9632L197.349 91.1233Z" fill="#2672AB"/>
<path d="M158.193 113.614L159.715 114.507L184.62 100.178L183.072 99.2853L158.193 113.614Z" fill="#3F92D1"/>
<path d="M184.647 91.071V100.178L183.072 99.3116V90.1262L184.647 91.071Z" fill="#2672AB"/>
<path d="M157.458 105.505V118.496L186.851 101.411V88.5515L157.458 105.505ZM184.621 100.099L159.741 114.507V106.844L184.621 92.5143V100.099Z" fill="#084C94"/>
<path d="M157.458 105.505V118.496L155.542 117.499V104.456L157.458 105.505Z" fill="#2672AB"/>
<path d="M155.542 104.456L157.458 105.505L186.904 88.5517L184.962 87.502L155.542 104.456Z" fill="#3F92D1"/>
<path d="M90.2732 141.486V149.28L116.045 134.347V126.579L90.2732 141.486Z" fill="#03336E"/>
<path d="M90.2732 141.486V149.28L60.9061 132.458V124.69L90.2732 141.486Z" fill="#084C94"/>
<path d="M60.9061 124.69L90.2732 141.486L116.045 126.579L86.6515 109.757L60.9061 124.69Z" fill="#084C94"/>
<path d="M26.7103 156.996V162.901L19.9656 159.148L20.2805 153.243L26.7103 156.996Z" fill="#3F92D1"/>
<path d="M8.96935 175.787V167.231L14.5593 157.6L22.4325 153.059L16.6588 149.831L8.78562 154.372L3.19568 164.003V172.559L8.96935 175.787Z" fill="#D1EBFF"/>
<path opacity="0.7" d="M8.96935 175.787V167.231L3.19568 164.003V172.559L8.96935 175.787Z" fill="#72B5E8"/>
<path d="M8.96935 167.231L14.5593 157.6L8.78562 154.372L3.19568 164.003L8.96935 167.231Z" fill="#A8CFF0"/>
<path d="M10.3077 175.078V167.572L15.5302 158.571L22.4586 154.555L26.7102 156.996V162.901L28.0224 162.14V156.235L22.4586 153.033L14.5592 157.6L8.96924 167.231V175.839L10.3077 175.078Z" fill="#72B5E8"/>
<path d="M8.78552 154.372L14.5592 157.6L22.4587 153.033L14.5592 157.311L8.78552 154.372Z" fill="white"/>
<path d="M126.227 131.355L118.092 126.317C119.955 125.579 122.029 125.579 123.892 126.317C124.664 126.901 125.282 127.666 125.689 128.544C126.096 129.423 126.281 130.388 126.227 131.355Z" fill="#03336E"/>
<path d="M105.495 139.964C105.382 140.902 105.525 141.853 105.909 142.717C106.292 143.581 106.902 144.325 107.673 144.871L111.951 147.365C113.342 148.152 112.449 146.367 114.575 145.16C116.847 143.711 118.744 141.745 120.112 139.424C121.48 137.103 122.28 134.491 122.448 131.802C122.448 129.361 124.679 129.361 123.314 128.548L118.774 125.923C117.872 125.586 116.897 125.493 115.947 125.654C114.998 125.816 114.108 126.225 113.368 126.842C111.122 128.262 109.239 130.188 107.872 132.467C106.505 134.746 105.691 137.313 105.495 139.964Z" fill="#084C94"/>
<path d="M110.035 142.588C110.035 147.496 113.499 149.464 117.908 146.997C120.153 145.537 122.024 143.57 123.368 141.254C124.713 138.938 125.495 136.338 125.65 133.665C125.65 128.757 122.16 126.763 117.908 129.23C115.637 130.679 113.74 132.644 112.372 134.966C111.003 137.287 110.203 139.899 110.035 142.588Z" fill="#03336E"/>
<path d="M117.383 129.072C118.137 128.54 119.012 128.204 119.928 128.094C120.844 127.984 121.773 128.104 122.632 128.442C121.842 128.274 121.025 128.267 120.232 128.42C119.439 128.573 118.684 128.884 118.013 129.335C115.763 130.796 113.889 132.767 112.544 135.088C111.199 137.409 110.42 140.014 110.271 142.693C110.156 143.682 110.324 144.683 110.756 145.58C111.188 146.477 111.866 147.232 112.712 147.758C110.822 147.233 109.615 145.343 109.615 142.509C109.759 139.816 110.538 137.194 111.888 134.859C113.238 132.524 115.121 130.541 117.383 129.072Z" fill="#2672AB"/>
<path d="M108.119 141.984C108.306 138.829 109.229 135.761 110.815 133.026C112.401 130.292 114.606 127.967 117.252 126.238C118.244 125.491 119.437 125.059 120.677 124.998C121.917 124.937 123.147 125.25 124.207 125.897C124.07 125.742 123.911 125.61 123.734 125.503L118.354 122.538C117.317 122.092 116.181 121.924 115.059 122.048C113.937 122.172 112.866 122.585 111.951 123.246C109.3 124.97 107.092 127.294 105.505 130.03C103.919 132.765 102.998 135.836 102.818 138.993L108.119 141.984Z" fill="#3F92D1"/>
<path d="M107.647 141.774C107.826 138.614 108.749 135.54 110.34 132.804C111.932 130.068 114.147 127.746 116.806 126.028C117.702 125.392 118.742 124.99 119.833 124.857C120.923 124.724 122.03 124.865 123.052 125.267C122.116 125.076 121.152 125.073 120.215 125.258C119.278 125.442 118.387 125.811 117.593 126.343C114.989 128.038 112.808 130.308 111.22 132.979C109.632 135.65 108.679 138.65 108.434 141.748L107.647 141.774Z" fill="#72B5E8"/>
<path d="M117.829 132.799C116.376 133.745 115.165 135.02 114.295 136.519C113.424 138.019 112.918 139.702 112.817 141.433C112.817 144.583 115.074 145.869 117.829 144.268C119.282 143.327 120.493 142.058 121.363 140.562C122.234 139.067 122.741 137.387 122.842 135.66C122.842 132.484 120.585 131.198 117.829 132.799Z" fill="#A8CFF0"/>
<path d="M121.057 132.3C121.487 132.676 121.822 133.147 122.036 133.676C122.25 134.204 122.337 134.776 122.291 135.345C122.19 137.072 121.683 138.752 120.812 140.247C119.941 141.743 118.731 143.012 117.278 143.953C116.812 144.274 116.28 144.485 115.721 144.572C115.162 144.658 114.591 144.617 114.05 144.451C114.622 144.815 115.292 144.992 115.969 144.959C116.645 144.926 117.295 144.685 117.829 144.268C119.282 143.327 120.493 142.058 121.363 140.562C122.234 139.067 122.741 137.387 122.842 135.66C122.922 134.984 122.795 134.301 122.476 133.7C122.157 133.1 121.662 132.611 121.057 132.3Z" fill="#72B5E8"/>
<path d="M114.602 139.963C114.602 141.617 115.783 142.299 117.226 141.459C117.987 140.966 118.622 140.3 119.078 139.516C119.534 138.732 119.798 137.851 119.85 136.945C119.85 135.292 118.696 134.636 117.226 135.449C116.466 135.944 115.833 136.611 115.377 137.394C114.921 138.178 114.656 139.058 114.602 139.963Z" fill="#3F92D1"/>
<path d="M115.047 140.121C115.047 141.775 116.228 142.431 117.672 141.617C118.429 141.119 119.06 140.452 119.515 139.669C119.971 138.886 120.238 138.007 120.296 137.103C120.296 135.45 119.115 134.767 117.672 135.607C116.912 136.102 116.279 136.768 115.823 137.552C115.367 138.336 115.101 139.216 115.047 140.121Z" fill="#2672AB"/>
<path d="M109.221 141.223C109.478 138.38 110.377 135.632 111.85 133.186C113.323 130.741 115.331 128.661 117.724 127.104C122.238 124.48 125.939 126.395 126.227 131.356C126.227 125.687 122.107 123.482 117.095 126.291C114.447 128.018 112.241 130.342 110.655 133.077C109.068 135.812 108.146 138.881 107.962 142.037L109.221 141.223Z" fill="#2672AB"/>
<path d="M236.505 18.2438V55.3266L105.049 131.303V94.1153L236.505 18.2438Z" fill="#084C94"/>
<path opacity="0.3" d="M234.773 21.2882L106.781 95.1126V128.285L234.773 54.3294V21.2882Z" fill="#2672AB"/>
<path d="M233.67 53.8833V21.9181L234.773 21.2882V54.3294L106.781 128.285V127.183L233.67 53.8833Z" fill="#03336E"/>
<path d="M105.049 94.1153V131.303L74.7631 114.061V76.7943L105.049 94.1153Z" fill="#2672AB"/>
<path d="M74.7631 76.7944L105.049 94.1154L236.505 18.244L206.193 0.949219L74.7631 76.7944Z" fill="#3F92D1"/>
<path d="M74.7631 76.7942L105.049 94.1153L236.505 18.2438L105.285 93.4329L74.7631 76.7942Z" fill="#72B5E8"/>
<g opacity="0.3">
<path d="M109.694 94.2203L109.221 94.509V125.739L109.694 125.451V94.2203Z" fill="#03336E"/>
<path d="M114.024 91.7009L113.525 92.0158V123.246L114.024 122.931V91.7009Z" fill="#03336E"/>
<path d="M118.354 89.2077L117.856 89.4964V120.753L118.354 120.438V89.2077Z" fill="#03336E"/>
<path d="M122.658 86.7145L122.186 87.0032V118.234L122.658 117.945V86.7145Z" fill="#03336E"/>
<path d="M126.989 84.1951L126.49 84.51V115.74L126.989 115.425V84.1951Z" fill="#03336E"/>
<path d="M131.319 81.702L130.82 81.9907V113.221L131.319 112.932V81.702Z" fill="#03336E"/>
<path d="M135.623 79.1825L135.15 79.4975V110.728L135.623 110.413V79.1825Z" fill="#03336E"/>
<path d="M139.953 76.6893L139.454 76.978V108.208L139.953 107.92V76.6893Z" fill="#03336E"/>
<path d="M144.283 74.1699L143.785 74.4849V105.715L144.283 105.4V74.1699Z" fill="#03336E"/>
<path d="M148.587 71.6767L148.115 71.9654V103.196L148.587 102.907V71.6767Z" fill="#03336E"/>
<path d="M152.918 69.1573L152.419 69.4722V100.703L152.918 100.414V69.1573Z" fill="#03336E"/>
<path d="M157.248 66.6641L156.749 66.9528V98.2094L157.248 97.8945V66.6641Z" fill="#03336E"/>
<path d="M161.552 64.171L161.079 64.4596V95.69L161.552 95.4013V64.171Z" fill="#03336E"/>
<path d="M165.882 61.6516L165.384 61.9665V93.1968L165.882 92.8819V61.6516Z" fill="#03336E"/>
<path d="M191.942 46.6924L191.444 47.0074V78.2377L191.942 77.9228V46.6924Z" fill="#03336E"/>
<path d="M196.273 44.1992L195.774 44.4879V75.7183L196.273 75.4296V44.1992Z" fill="#03336E"/>
<path d="M200.577 41.6799L200.104 41.9948V73.2252L200.577 72.9365V41.6799Z" fill="#03336E"/>
<path d="M204.907 39.1866L204.408 39.4753V70.7319L204.907 70.417V39.1866Z" fill="#03336E"/>
<path d="M209.237 36.6935L208.739 36.9822V68.2125L209.237 67.9239V36.6935Z" fill="#03336E"/>
<path d="M213.541 34.1741L213.069 34.489V65.7194L213.541 65.4044V34.1741Z" fill="#03336E"/>
<path d="M217.871 31.6809L217.373 31.9696V63.1999L217.871 62.9113V31.6809Z" fill="#03336E"/>
<path d="M222.202 29.1614L221.703 29.4764V60.7067L222.202 60.3918V29.1614Z" fill="#03336E"/>
<path d="M226.506 26.6683L226.033 26.957V58.1873L226.506 57.8986V26.6683Z" fill="#03336E"/>
<path d="M230.836 24.1488L230.337 24.4638V55.6941L230.836 55.3792V24.1488Z" fill="#03336E"/>
</g>
<g opacity="0.3">
<path d="M110.192 93.5643L109.72 93.8529V125.083L110.192 124.795V93.5643Z" fill="#3F92D1"/>
<path d="M114.523 91.0448L114.05 91.3597V122.59L114.523 122.275V91.0448Z" fill="#3F92D1"/>
<path d="M118.853 88.5516L118.354 88.8403V120.097L118.853 119.782V88.5516Z" fill="#3F92D1"/>
<path d="M123.183 86.0585L122.685 86.3472V117.578L123.183 117.289V86.0585Z" fill="#3F92D1"/>
<path d="M127.487 83.539L127.015 83.8277V115.084L127.487 114.769V83.539Z" fill="#3F92D1"/>
<path d="M131.817 81.0458L131.319 81.3345V112.565L131.817 112.276V81.0458Z" fill="#3F92D1"/>
<path d="M136.148 78.5264L135.649 78.8414V110.072L136.148 109.757V78.5264Z" fill="#3F92D1"/>
<path d="M140.452 76.0332L139.979 76.3219V107.552L140.452 107.264V76.0332Z" fill="#3F92D1"/>
<path d="M144.782 73.5138L144.283 73.8287V105.059L144.782 104.744V73.5138Z" fill="#3F92D1"/>
<path d="M149.112 71.0206L148.614 71.3093V102.54L149.112 102.251V71.0206Z" fill="#3F92D1"/>
<path d="M153.416 68.5012L152.918 68.8161V100.046L153.416 99.7578V68.5012Z" fill="#3F92D1"/>
<path d="M157.747 66.0081L157.248 66.2967V97.5533L157.747 97.2384V66.0081Z" fill="#3F92D1"/>
<path d="M162.077 63.4886L161.578 63.8035V95.0339L162.077 94.7452V63.4886Z" fill="#3F92D1"/>
<path d="M166.381 60.9954L165.882 61.2841V92.5407L166.381 92.2258V60.9954Z" fill="#3F92D1"/>
<path d="M192.441 46.0364L191.943 46.3513V77.5816L192.441 77.2667V46.0364Z" fill="#3F92D1"/>
<path d="M196.771 43.5432L196.273 43.8318V75.0622L196.771 74.7735V43.5432Z" fill="#3F92D1"/>
<path d="M201.102 41.0237L200.603 41.3387V72.569L201.102 72.2804V41.0237Z" fill="#3F92D1"/>
<path d="M205.406 38.5306L204.907 38.8193V70.0758L205.406 69.7609V38.5306Z" fill="#3F92D1"/>
<path d="M209.736 36.0374L209.237 36.326V67.5564L209.736 67.2677V36.0374Z" fill="#3F92D1"/>
<path d="M170.291 59.2371L169.792 59.552V90.7823L170.291 90.4936V59.2371Z" fill="#03336E"/>
<path d="M174.621 56.7439L174.123 57.0326V88.2892L174.621 87.9743V56.7439Z" fill="#03336E"/>
<path d="M178.925 54.2507L178.453 54.5394V85.7697L178.925 85.4811V54.2507Z" fill="#03336E"/>
<path d="M183.256 51.7313L182.757 52.0462V83.2765L183.256 82.9616V51.7313Z" fill="#03336E"/>
<path d="M187.586 49.2381L187.087 49.5268V80.7572L187.586 80.4685V49.2381Z" fill="#03336E"/>
<path d="M170.79 58.581L170.291 58.8959V90.1263L170.79 89.8376V58.581Z" fill="#3F92D1"/>
<path d="M175.12 56.0878L174.621 56.3765V87.6331L175.12 87.3182V56.0878Z" fill="#3F92D1"/>
<path d="M179.45 53.5946L178.952 53.8833V85.1137L179.45 84.825V53.5946Z" fill="#3F92D1"/>
<path d="M183.754 51.0752L183.256 51.3901V82.6205L183.754 82.3055V51.0752Z" fill="#3F92D1"/>
<path d="M188.085 48.582L187.586 48.8707V80.101L188.085 79.8123V48.582Z" fill="#3F92D1"/>
<path d="M214.066 33.5179L213.568 33.8066V65.0632L214.066 64.7483V33.5179Z" fill="#3F92D1"/>
<path d="M218.37 31.0248L217.872 31.3135V62.5438L218.37 62.2551V31.0248Z" fill="#3F92D1"/>
<path d="M222.7 28.5053L222.202 28.8202V60.0506L222.7 59.7357V28.5053Z" fill="#3F92D1"/>
<path d="M227.004 26.0121L226.532 26.3008V57.5312L227.004 57.2425V26.0121Z" fill="#3F92D1"/>
<path d="M231.335 23.4927L230.836 23.8077V55.038L231.335 54.7231V23.4927Z" fill="#3F92D1"/>
</g>
<g opacity="0.3">
<path d="M233.408 17.7191L233.775 17.9552L105.127 91.7271L104.76 91.4909L233.408 17.7191Z" fill="#72B5E8"/>
<path d="M230.39 15.9869L230.783 16.2232L102.135 89.995L101.742 89.7326L230.39 15.9869Z" fill="#72B5E8"/>
<path d="M227.398 14.2286L227.792 14.491L99.1437 88.2629L98.75 88.0005L227.398 14.2286Z" fill="#72B5E8"/>
<path d="M224.406 12.4965L224.774 12.7589L96.1256 86.5046L95.7319 86.2683L224.406 12.4965Z" fill="#72B5E8"/>
<path d="M221.388 10.7644L221.782 11.0006L93.1338 84.7725L92.7401 84.5363L221.388 10.7644Z" fill="#72B5E8"/>
<path d="M218.396 9.00604L218.79 9.26846L90.1419 83.0403L89.7483 82.7779L218.396 9.00604Z" fill="#72B5E8"/>
<path d="M215.378 7.27393L215.772 7.53634L87.124 81.3082L86.7303 81.0458L215.378 7.27393Z" fill="#72B5E8"/>
<path d="M212.387 5.54187L212.78 5.77806L84.1322 79.5499L83.7385 79.3137L212.387 5.54187Z" fill="#72B5E8"/>
<path d="M209.395 3.80975L209.788 4.04598L81.1403 77.8179L80.7467 77.5554L209.395 3.80975Z" fill="#72B5E8"/>
<path d="M206.377 2.05133L206.77 2.31379L78.1224 76.0857L77.7288 75.8232L206.377 2.05133Z" fill="#72B5E8"/>
</g>
<g opacity="0.3">
<path d="M234.09 17.7191L234.484 17.9815L105.836 91.7534L105.442 91.4909L234.09 17.7191Z" fill="#2672AB"/>
<path d="M231.072 15.9869L231.466 16.2232L102.818 89.995L102.45 89.7588L231.072 15.9869Z" fill="#2672AB"/>
<path d="M228.08 14.2549L228.474 14.4911L99.826 88.2629L99.4324 88.0267L228.08 14.2549Z" fill="#2672AB"/>
<path d="M225.089 12.4965L225.482 12.7589L96.8342 86.5308L96.4406 86.2683L225.089 12.4965Z" fill="#2672AB"/>
<path d="M222.071 10.7644L222.464 11.0268L93.8162 84.7725L93.4225 84.5363L222.071 10.7644Z" fill="#2672AB"/>
<path d="M219.079 9.03229L219.472 9.26847L90.8243 83.0403L90.4307 82.8042L219.079 9.03229Z" fill="#2672AB"/>
<path d="M216.087 7.27393L216.481 7.53634L87.8325 81.3082L87.4388 81.0458L216.087 7.27393Z" fill="#2672AB"/>
<path d="M213.069 5.54187L213.463 5.80433L84.8144 79.5762L84.4208 79.3138L213.069 5.54187Z" fill="#2672AB"/>
<path d="M210.077 3.80975L210.471 4.07221L81.8226 77.8179L81.429 77.5816L210.077 3.80975Z" fill="#2672AB"/>
<path d="M207.085 2.07751L207.479 2.3137L78.8309 76.0856L78.4373 75.8231L207.085 2.07751Z" fill="#2672AB"/>
</g>
<path d="M30.017 129.807C29.949 129.831 29.8749 129.831 29.807 129.807L28.3111 127.734C27.8461 127.133 27.5965 126.394 27.6025 125.634V120.622C27.6034 119.84 27.8606 119.081 28.3346 118.46C28.8087 117.839 29.4735 117.391 30.2269 117.184L34.6097 116.081C34.6757 116.065 34.7455 116.075 34.8042 116.11C34.863 116.144 34.9061 116.2 34.9246 116.265C34.9349 116.331 34.9222 116.398 34.8887 116.455C34.8553 116.513 34.803 116.557 34.7409 116.58L30.3581 117.682C29.6989 117.842 29.1125 118.218 28.6936 118.751C28.2746 119.285 28.0474 119.944 28.0487 120.622V125.634C28.05 126.283 28.2517 126.915 28.626 127.445L30.1482 129.492C30.1908 129.544 30.2141 129.609 30.2141 129.676C30.2141 129.743 30.1908 129.808 30.1482 129.86L30.017 129.807Z" fill="#A8CFF0"/>
<path d="M28.7835 126.842L27.55 126.133C27.2548 125.913 27.0138 125.628 26.8455 125.301C26.6772 124.973 26.586 124.612 26.579 124.244V118.627C26.579 117.892 27.0252 117.578 27.55 117.866L28.7835 118.575C29.0832 118.791 29.3275 119.074 29.4963 119.403C29.6651 119.731 29.7536 120.095 29.7545 120.464V126.107C29.7545 126.684 29.3871 127.025 28.7835 126.842Z" fill="#A8CFF0"/>
<path d="M28.7835 118.443L27.55 117.735C27.4447 117.643 27.3095 117.592 27.1695 117.592C27.0295 117.592 26.8942 117.643 26.7889 117.735C26.9248 117.687 27.073 117.687 27.2089 117.735L28.4423 118.443C28.74 118.655 28.9832 118.934 29.152 119.258C29.3208 119.582 29.4104 119.942 29.4133 120.307V125.949C29.43 126.195 29.3552 126.438 29.2034 126.632C29.5446 126.632 29.7545 126.29 29.7545 125.792V120.149C29.7261 119.812 29.6246 119.484 29.4569 119.19C29.2892 118.895 29.0594 118.64 28.7835 118.443Z" fill="#72B5E8"/>
<path d="M8.94312 149.621L26.5003 159.594V184.106L8.99557 173.95L8.94312 149.621Z" fill="#A8CFF0"/>
<path d="M8.94312 149.622L26.5003 159.594L48.9652 143.559L26.7628 130.805L8.94312 149.622Z" fill="#D1EBFF"/>
<path d="M8.94312 149.621L26.5003 159.594L48.9652 143.559L26.5003 159.279L8.94312 149.621Z" fill="white"/>
<path d="M26.7627 130.804L48.9651 143.559L56.4447 127.603L34.6884 114.979L26.7627 130.804Z" fill="#A8CFF0"/>
<path d="M29.2297 129.466L34.8459 118.26C34.9038 118.132 34.9879 118.018 35.0928 117.925C35.1977 117.832 35.3211 117.762 35.4548 117.72C35.5885 117.678 35.7297 117.664 35.8689 117.681C36.0082 117.697 36.1425 117.742 36.263 117.814L53.6366 127.891C53.8531 128.023 54.0148 128.228 54.0919 128.469C54.1691 128.71 54.1565 128.971 54.0565 129.203L48.8077 140.515C48.7441 140.64 48.6558 140.752 48.5481 140.843C48.4404 140.934 48.3154 141.003 48.1807 141.044C48.046 141.086 47.9043 141.1 47.764 141.086C47.6237 141.071 47.4878 141.029 47.3643 140.961L29.702 130.804C29.4656 130.686 29.2842 130.48 29.1962 130.23C29.1081 129.981 29.1201 129.707 29.2297 129.466Z" fill="#001A46"/>
<path d="M48.2304 139.78C48.1268 139.804 48.0192 139.804 47.9155 139.78L30.2271 129.466C30.0869 129.384 29.9841 129.25 29.94 129.094C29.896 128.937 29.9142 128.77 29.9909 128.626L35.2397 118.129C35.2963 118.025 35.3798 117.939 35.4814 117.879C35.5831 117.819 35.699 117.787 35.817 117.787H36.132L53.4792 127.865C53.55 127.901 53.6129 127.951 53.6644 128.011C53.7159 128.072 53.7549 128.142 53.7793 128.218C53.8037 128.293 53.8129 128.373 53.8064 128.452C53.8 128.531 53.778 128.608 53.7417 128.679L48.8603 139.176C48.8535 139.339 48.7842 139.492 48.6668 139.605C48.5494 139.717 48.393 139.78 48.2304 139.78Z" fill="#084C94"/>
<path d="M103.684 103.721L75.9178 87.7118C71.5875 90.3362 68.9369 92.3307 68.9369 97.3171V116.449L96.5718 132.537L103.684 103.721Z" fill="#D1EBFF"/>
<path d="M96.5981 113.379V132.484L103.684 128.233V103.668C99.275 106.293 96.5981 108.471 96.5981 113.379Z" fill="#72B5E8"/>
<path d="M103.684 94.5089L75.9178 78.5001C71.5875 81.1245 68.9369 83.119 68.9369 88.1316V107.237L96.5718 123.351L103.684 94.5089Z" fill="#084C94"/>
<path d="M96.5981 104.167V123.299L103.684 119.047V94.4564C99.275 97.0808 96.5981 99.1803 96.5981 104.167Z" fill="#03336E"/>
<path d="M102.319 101.385L98.2251 103.721C98.1054 103.79 98.0059 103.889 97.9368 104.009C97.8677 104.129 97.8314 104.265 97.8315 104.403V104.587C97.8286 104.643 97.841 104.7 97.8674 104.75C97.8939 104.8 97.9334 104.842 97.9818 104.872C98.0301 104.901 98.0856 104.917 98.1423 104.918C98.199 104.918 98.2548 104.904 98.3038 104.875L102.398 102.54C102.518 102.47 102.617 102.371 102.686 102.251C102.755 102.131 102.792 101.996 102.792 101.857V101.674C102.794 101.617 102.782 101.561 102.756 101.51C102.729 101.46 102.69 101.418 102.641 101.389C102.593 101.359 102.537 101.343 102.481 101.342C102.424 101.342 102.368 101.356 102.319 101.385Z" fill="#084C94"/>
<path d="M102.45 101.359C102.462 101.411 102.462 101.464 102.45 101.516V101.7C102.448 101.841 102.41 101.98 102.342 102.103C102.273 102.227 102.175 102.331 102.057 102.408L97.9628 104.718H97.8315C97.8893 104.77 97.964 104.798 98.0415 104.798C98.119 104.798 98.1937 104.77 98.2515 104.718L102.346 102.382C102.465 102.313 102.565 102.214 102.634 102.094C102.703 101.974 102.739 101.838 102.739 101.7V101.516C102.713 101.464 102.671 101.42 102.619 101.392C102.568 101.364 102.509 101.352 102.45 101.359Z" fill="#001A46"/>
<path d="M102.319 103.642L98.2251 105.977C98.1054 106.047 98.0059 106.146 97.9368 106.266C97.8677 106.386 97.8314 106.521 97.8315 106.66V106.844C97.8286 106.9 97.841 106.957 97.8674 107.007C97.8939 107.057 97.9334 107.099 97.9818 107.128C98.0301 107.158 98.0856 107.174 98.1423 107.175C98.199 107.175 98.2548 107.161 98.3038 107.132L102.398 104.796C102.518 104.727 102.617 104.628 102.686 104.508C102.755 104.388 102.792 104.252 102.792 104.114V103.93C102.794 103.874 102.782 103.817 102.756 103.767C102.729 103.717 102.69 103.675 102.641 103.645C102.593 103.616 102.537 103.6 102.481 103.599C102.424 103.599 102.368 103.613 102.319 103.642Z" fill="#084C94"/>
<path d="M102.45 103.59C102.462 103.65 102.462 103.713 102.45 103.773V103.957C102.448 104.098 102.41 104.237 102.342 104.36C102.273 104.484 102.175 104.589 102.057 104.666L97.9628 106.975H97.8315C97.8893 107.027 97.964 107.055 98.0415 107.055C98.119 107.055 98.1937 107.027 98.2515 106.975L102.346 104.639C102.465 104.57 102.565 104.471 102.634 104.351C102.703 104.231 102.739 104.095 102.739 103.957V103.773C102.711 103.72 102.67 103.675 102.62 103.643C102.569 103.61 102.511 103.592 102.45 103.59Z" fill="#001A46"/>
<path d="M102.319 105.846L98.2251 108.182C98.1054 108.251 98.0059 108.351 97.9368 108.47C97.8677 108.59 97.8314 108.726 97.8315 108.864V109.048C97.8286 109.105 97.841 109.161 97.8674 109.211C97.8939 109.261 97.9334 109.303 97.9818 109.333C98.0301 109.363 98.0856 109.379 98.1423 109.379C98.199 109.38 98.2548 109.365 98.3038 109.337L102.398 107.001C102.518 106.932 102.617 106.832 102.686 106.713C102.755 106.593 102.792 106.457 102.792 106.319V106.135C102.794 106.078 102.782 106.022 102.756 105.972C102.729 105.922 102.69 105.88 102.641 105.85C102.593 105.821 102.537 105.805 102.481 105.804C102.424 105.803 102.368 105.818 102.319 105.846Z" fill="#084C94"/>
<path d="M102.45 105.846C102.462 105.907 102.462 105.969 102.45 106.03V106.214C102.448 106.355 102.41 106.493 102.342 106.617C102.273 106.741 102.175 106.845 102.057 106.922L97.9628 109.232H97.8315C97.8893 109.284 97.964 109.312 98.0415 109.312C98.119 109.312 98.1937 109.284 98.2515 109.232L102.346 106.896C102.465 106.827 102.565 106.727 102.634 106.608C102.703 106.488 102.739 106.352 102.739 106.214V106.03C102.711 105.977 102.67 105.932 102.62 105.899C102.569 105.867 102.511 105.849 102.45 105.846Z" fill="#001A46"/>
<path d="M102.319 108.156L98.2251 110.492C98.1054 110.561 98.0059 110.66 97.9368 110.78C97.8677 110.9 97.8314 111.036 97.8315 111.174V111.358C97.8286 111.414 97.841 111.471 97.8674 111.521C97.8939 111.571 97.9334 111.613 97.9818 111.643C98.0301 111.672 98.0856 111.688 98.1423 111.689C98.199 111.69 98.2548 111.675 98.3038 111.646L102.398 109.311C102.518 109.242 102.617 109.142 102.686 109.022C102.755 108.903 102.792 108.767 102.792 108.628V108.471C102.8 108.412 102.791 108.352 102.767 108.298C102.743 108.244 102.704 108.198 102.654 108.165C102.605 108.132 102.547 108.114 102.488 108.112C102.429 108.111 102.37 108.126 102.319 108.156Z" fill="#084C94"/>
<path d="M102.45 108.103C102.462 108.164 102.462 108.226 102.45 108.287V108.471C102.448 108.612 102.41 108.751 102.342 108.874C102.273 108.998 102.175 109.102 102.057 109.179L97.9628 111.489H97.8315C97.8893 111.541 97.964 111.569 98.0415 111.569C98.119 111.569 98.1937 111.541 98.2515 111.489L102.346 109.153C102.465 109.084 102.565 108.985 102.634 108.865C102.703 108.745 102.739 108.609 102.739 108.471C102.747 108.384 102.721 108.298 102.668 108.23C102.614 108.162 102.536 108.116 102.45 108.103Z" fill="#001A46"/>
<path d="M102.319 110.413L98.2252 112.749C98.1054 112.818 98.006 112.917 97.9369 113.037C97.8678 113.157 97.8315 113.293 97.8315 113.431V113.72C97.8356 113.774 97.8525 113.826 97.8807 113.872C97.9089 113.918 97.9477 113.957 97.9938 113.985C98.04 114.013 98.0921 114.03 98.1461 114.034C98.2 114.038 98.2541 114.029 98.3039 114.008L102.398 111.673C102.516 111.602 102.614 111.502 102.683 111.382C102.752 111.263 102.789 111.128 102.792 110.99V110.807C102.825 110.743 102.835 110.67 102.82 110.6C102.806 110.529 102.768 110.466 102.713 110.42C102.658 110.374 102.589 110.349 102.518 110.347C102.446 110.346 102.376 110.369 102.319 110.413Z" fill="#084C94"/>
<path d="M102.45 110.36C102.462 110.421 102.462 110.483 102.45 110.544V110.728C102.451 110.866 102.414 111.002 102.345 111.122C102.276 111.242 102.177 111.341 102.057 111.41L97.9628 113.746H97.8315C97.8893 113.798 97.964 113.826 98.0415 113.826C98.119 113.826 98.1937 113.798 98.2515 113.746L102.346 111.41C102.464 111.339 102.562 111.239 102.63 111.12C102.699 111 102.737 110.866 102.739 110.728V110.544C102.711 110.491 102.67 110.446 102.62 110.413C102.569 110.381 102.511 110.363 102.45 110.36Z" fill="#001A46"/>
<path d="M102.319 112.67L98.2252 114.979C98.1067 115.056 98.009 115.161 97.9403 115.285C97.8717 115.408 97.8344 115.547 97.8315 115.688V115.872C97.8356 115.925 97.8525 115.978 97.8807 116.024C97.9089 116.07 97.9477 116.109 97.9938 116.137C98.04 116.165 98.0921 116.182 98.1461 116.186C98.2 116.19 98.2541 116.181 98.3039 116.16L102.398 113.825C102.516 113.747 102.614 113.643 102.683 113.519C102.751 113.396 102.789 113.257 102.792 113.116V112.958C102.795 112.902 102.782 112.846 102.756 112.795C102.729 112.745 102.69 112.703 102.641 112.674C102.593 112.644 102.538 112.628 102.481 112.627C102.424 112.627 102.368 112.641 102.319 112.67Z" fill="#084C94"/>
<path d="M102.45 112.617C102.466 112.677 102.466 112.741 102.45 112.801V112.985C102.451 113.123 102.414 113.259 102.345 113.379C102.276 113.498 102.177 113.598 102.057 113.667L97.9628 116.003H97.8315C97.8893 116.054 97.964 116.083 98.0415 116.083C98.119 116.083 98.1937 116.054 98.2515 116.003L102.346 113.667C102.464 113.59 102.562 113.485 102.63 113.362C102.699 113.238 102.736 113.1 102.739 112.958V112.801C102.711 112.748 102.67 112.703 102.62 112.67C102.569 112.638 102.511 112.62 102.45 112.617Z" fill="#001A46"/>
<path d="M102.319 114.927L98.2252 117.236C98.1067 117.313 98.009 117.418 97.9403 117.542C97.8717 117.665 97.8344 117.804 97.8315 117.945V118.129C97.8356 118.183 97.8525 118.235 97.8807 118.281C97.9089 118.327 97.9477 118.366 97.9938 118.394C98.04 118.422 98.0921 118.439 98.1461 118.443C98.2 118.447 98.2541 118.438 98.3039 118.417L102.398 116.082C102.516 116.005 102.614 115.9 102.683 115.776C102.751 115.653 102.789 115.514 102.792 115.373V115.216C102.795 115.159 102.782 115.103 102.756 115.053C102.729 115.002 102.69 114.96 102.641 114.931C102.593 114.901 102.538 114.885 102.481 114.885C102.424 114.884 102.368 114.899 102.319 114.927Z" fill="#084C94"/>
<path d="M102.45 114.874C102.466 114.935 102.466 114.998 102.45 115.058V115.242C102.451 115.38 102.414 115.516 102.345 115.636C102.276 115.756 102.177 115.855 102.057 115.924L97.9628 118.26H97.8315C97.8893 118.312 97.964 118.34 98.0415 118.34C98.119 118.34 98.1937 118.312 98.2515 118.26L102.346 115.924C102.464 115.847 102.562 115.742 102.63 115.619C102.699 115.495 102.736 115.357 102.739 115.216V115.058C102.711 115.005 102.67 114.96 102.62 114.927C102.569 114.895 102.511 114.877 102.45 114.874Z" fill="#001A46"/>
<path d="M102.319 117.184L98.2252 119.493C98.1067 119.57 98.009 119.675 97.9403 119.799C97.8717 119.922 97.8344 120.061 97.8315 120.202V120.386C97.8333 120.44 97.8492 120.493 97.8775 120.539C97.9059 120.586 97.9458 120.624 97.9934 120.651C98.0409 120.677 98.0946 120.691 98.149 120.69C98.2034 120.69 98.2568 120.675 98.3039 120.648L102.398 118.339C102.516 118.262 102.614 118.157 102.683 118.033C102.751 117.91 102.789 117.771 102.792 117.63V117.446C102.79 117.392 102.774 117.339 102.746 117.292C102.717 117.246 102.677 117.208 102.63 117.181C102.582 117.155 102.529 117.141 102.474 117.142C102.42 117.142 102.366 117.157 102.319 117.184Z" fill="#084C94"/>
<path d="M102.45 117.131C102.466 117.191 102.466 117.255 102.45 117.315V117.499C102.451 117.637 102.414 117.773 102.345 117.893C102.276 118.012 102.177 118.112 102.057 118.181L97.9628 120.517H97.8315C97.8585 120.545 97.8911 120.568 97.9272 120.584C97.9633 120.599 98.0022 120.607 98.0415 120.607C98.0808 120.607 98.1197 120.599 98.1558 120.584C98.1919 120.568 98.2245 120.545 98.2515 120.517L102.346 118.207C102.464 118.13 102.562 118.025 102.63 117.902C102.699 117.778 102.736 117.64 102.739 117.499V117.315C102.714 117.26 102.673 117.213 102.622 117.18C102.571 117.148 102.511 117.131 102.45 117.131Z" fill="#001A46"/>
<path opacity="0.5" d="M30.2271 129.466C30.0869 129.384 29.9841 129.25 29.94 129.094C29.896 128.937 29.9142 128.77 29.9909 128.626L35.2397 118.129C35.2963 118.025 35.3798 117.939 35.4814 117.879C35.5831 117.819 35.699 117.787 35.817 117.787H36.132L53.4792 127.865C53.55 127.901 53.6129 127.951 53.6644 128.011C53.7159 128.072 53.7549 128.142 53.7793 128.218C53.8037 128.293 53.8129 128.373 53.8064 128.452C53.8 128.531 53.778 128.608 53.7417 128.679L30.2271 129.466Z" fill="#2672AB"/>
<path d="M69.1206 94.7451L91.323 107.5L56.4447 127.603L34.6885 114.979L69.1206 94.7451Z" fill="#D1EBFF"/>
<path d="M56.471 127.314L91.323 107.5L56.4447 127.603L34.6885 114.979L56.471 127.314Z" fill="white"/>
<path d="M26.5002 184.106V159.594L48.9651 143.559L56.4447 127.603L91.323 107.5V146.708L26.5002 184.106Z" fill="#72B5E8"/>
<path d="M57.9669 131.224L53.6104 143.244L69.3568 134.164V122.695L60.88 127.629C59.5212 128.453 58.4914 129.724 57.9669 131.224Z" fill="#03336E"/>
<path d="M68.8581 123.036V133.718L53.9515 142.273L53.6104 143.244L69.4355 134.164V122.695L68.8581 123.036Z" fill="#001A46"/>
<path opacity="0.5" d="M40.0947 163.085L52.8755 162.271V168.884L44.9498 172.847L40.0947 163.085Z" fill="#3F92D1"/>
<path d="M50.1462 170.249V176.18L43.4015 172.428L43.7164 166.523L50.1462 170.249Z" fill="#3F92D1"/>
<path d="M30.0694 182.505C29.9721 183.45 30.1216 184.403 30.5035 185.273C30.8853 186.142 31.4863 186.898 32.2477 187.465L36.368 189.854C37.7852 190.641 36.8666 188.856 38.9924 187.623C41.2713 186.162 43.1724 184.184 44.5407 181.849C45.9091 179.513 46.7057 176.888 46.8656 174.186C46.8656 171.745 49.1226 171.719 47.7579 170.905C47.7579 170.905 43.4014 168.517 43.3489 168.491C42.4691 168.11 41.5052 167.966 40.5525 168.072C39.5998 168.178 38.6912 168.53 37.9164 169.094C35.6444 170.554 33.7494 172.529 32.3857 174.859C31.0221 177.19 30.2284 179.81 30.0694 182.505Z" fill="#084C94"/>
<path d="M34.3735 184.972C34.3735 189.906 37.864 191.9 42.2467 189.407C44.5256 187.947 46.4268 185.968 47.7951 183.633C49.1634 181.298 49.96 178.672 50.1199 175.97C50.1199 171.036 46.6557 169.068 42.2467 171.535C39.9693 172.997 38.0693 174.976 36.7012 177.311C35.333 179.646 34.5355 182.271 34.3735 184.972Z" fill="#03336E"/>
<path d="M36.6042 183.686C36.6042 187.203 39.0974 188.62 42.168 186.835C43.7798 185.793 45.122 184.385 46.0845 182.724C47.047 181.064 47.6025 179.199 47.7054 177.283C47.7054 173.766 45.2385 172.349 42.168 174.107C40.5522 175.153 39.2062 176.566 38.2394 178.23C37.2726 179.895 36.7123 181.764 36.6042 183.686Z" fill="#A8CFF0"/>
<path d="M45.3434 173.425C45.8961 173.825 46.3346 174.362 46.6154 174.983C46.8962 175.605 47.0096 176.289 46.9443 176.968C46.8342 178.889 46.2731 180.758 45.3065 182.422C44.3399 184.086 42.995 185.499 41.3806 186.547C40.4425 187.158 39.3115 187.401 38.2051 187.229C38.8416 187.519 39.5435 187.635 40.2395 187.566C40.9356 187.497 41.6009 187.245 42.1679 186.836C43.7798 185.794 45.1219 184.385 46.0844 182.724C47.0469 181.064 47.6024 179.199 47.7054 177.283C47.7579 175.104 46.7606 173.74 45.3434 173.425Z" fill="#72B5E8"/>
<path d="M41.8007 171.456C42.5572 170.931 43.4301 170.596 44.3443 170.482C45.2585 170.368 46.1868 170.477 47.0495 170.8C46.2487 170.638 45.4237 170.635 44.622 170.793C43.8202 170.95 43.0576 171.265 42.378 171.719C40.0992 173.179 38.198 175.158 36.8297 177.493C35.4614 179.828 34.6648 182.454 34.5048 185.156C34.3842 186.149 34.5499 187.155 34.9823 188.058C35.4147 188.96 36.0959 189.719 36.9456 190.247C35.056 189.722 33.8225 187.806 33.8225 184.998C33.9798 182.269 34.7857 179.617 36.1732 177.262C37.5608 174.907 39.4899 172.917 41.8007 171.456Z" fill="#2672AB"/>
<path d="M41.3808 175.288C41.1658 175.423 40.9867 175.608 40.8587 175.828C40.7308 176.047 40.6578 176.294 40.6459 176.548C40.6459 176.994 40.9609 177.178 41.3808 176.968C41.5894 176.828 41.7622 176.641 41.8853 176.422C42.0084 176.203 42.0783 175.959 42.0894 175.708C42.0894 175.262 41.7745 175.078 41.3808 175.288ZM41.3808 183.791C41.1678 183.922 40.9897 184.103 40.8618 184.317C40.7338 184.532 40.6597 184.775 40.6459 185.025C40.6459 185.497 40.9609 185.681 41.3808 185.444C41.586 185.307 41.7567 185.125 41.8796 184.911C42.0025 184.697 42.0743 184.457 42.0894 184.211C42.0894 183.739 41.7745 183.555 41.3808 183.791ZM43.4803 176.731C43.769 176.915 44.2151 176.731 44.5038 176.154C44.7925 175.577 44.7925 175.131 44.5038 174.973C44.2151 174.816 43.769 174.973 43.4803 175.577C43.1916 176.18 43.1916 176.705 43.4803 176.705V176.731ZM39.2813 184.001C38.9926 183.844 38.5202 184.001 38.2578 184.578C37.9953 185.156 37.9691 185.602 38.2578 185.759C38.5464 185.917 38.9926 185.759 39.2813 185.182C39.57 184.605 39.5437 184.159 39.2813 184.001ZM45.0812 177.414C44.8667 177.543 44.6874 177.723 44.5592 177.938C44.431 178.154 44.3579 178.397 44.3463 178.647C44.3463 179.12 44.6613 179.303 45.0812 179.067C45.2898 178.927 45.4627 178.741 45.5857 178.522C45.7088 178.303 45.7787 178.058 45.7898 177.807C45.7898 177.361 45.4748 177.178 45.1337 177.414H45.0812ZM37.6804 181.665C37.4711 181.807 37.2963 181.993 37.1691 182.211C37.0419 182.429 36.9655 182.673 36.9456 182.925C36.9456 183.397 37.2867 183.581 37.6804 183.345C37.889 183.205 38.0618 183.018 38.1849 182.8C38.308 182.581 38.3779 182.336 38.3889 182.085C38.3889 181.639 38.074 181.455 37.6804 181.665ZM44.5038 180.983C44.2151 180.826 43.769 180.983 43.4803 181.56C43.1916 182.138 43.1916 182.584 43.4803 182.741C43.769 182.899 44.2151 182.741 44.5038 182.164C44.7925 181.587 44.7925 181.14 44.5038 180.983ZM39.255 177.991C38.9663 177.834 38.4939 177.991 38.2315 178.595C37.969 179.198 37.9428 179.592 38.2315 179.776C38.5202 179.959 38.9663 179.776 39.255 179.172C39.5437 178.569 39.5437 178.149 39.2813 177.991H39.255Z" fill="#03336E"/>
<path d="M39.1237 181.35C39.1012 181.61 39.1447 181.872 39.2502 182.11C39.3558 182.349 39.5199 182.557 39.7273 182.715L40.6196 183.24C41.0132 183.476 40.777 182.978 41.3544 182.636C41.9821 182.236 42.5049 181.691 42.8792 181.047C43.2535 180.404 43.4686 179.68 43.5064 178.936C43.5064 178.254 44.1363 178.254 43.7426 178.017L42.7716 177.466C42.5278 177.365 42.2616 177.328 41.9993 177.36C41.737 177.392 41.4876 177.492 41.2757 177.65C40.651 178.054 40.1304 178.6 39.7565 179.243C39.3825 179.886 39.1657 180.608 39.1237 181.35Z" fill="#3F92D1"/>
<path d="M40.0947 181.954C40.0947 183.319 41.0395 183.87 42.2467 183.188C42.8651 182.779 43.3795 182.232 43.7486 181.59C44.1177 180.947 44.3314 180.227 44.3725 179.487C44.3725 178.123 43.4277 177.571 42.2467 178.254C41.6191 178.654 41.0963 179.199 40.7219 179.843C40.3476 180.487 40.1325 181.21 40.0947 181.954Z" fill="#2672AB"/>
<path d="M32.4053 189.04V180.484L37.9952 170.853L45.8422 166.313L40.0948 163.085L32.1953 167.625L26.6316 177.256V185.838L32.4053 189.04Z" fill="#D1EBFF"/>
<path opacity="0.7" d="M32.4053 189.04V180.485L26.6316 177.256V185.838L32.4053 189.04Z" fill="#72B5E8"/>
<path d="M32.4053 180.484L37.9952 170.853L32.1953 167.625L26.6316 177.256L32.4053 180.484Z" fill="#A8CFF0"/>
<path d="M33.7174 188.331V180.826L38.9662 171.824L45.8946 167.835L50.1461 170.249V176.18L51.4583 175.419V169.488L45.8683 166.313L37.9951 170.853L32.4052 180.484V189.092L33.7174 188.331Z" fill="#72B5E8"/>
<path d="M32.1953 167.625L37.9952 170.853L45.8684 166.313L37.9952 170.564L32.1953 167.625Z" fill="white"/>
<path d="M82.5049 148.677C82.5289 148.663 82.556 148.656 82.5837 148.656C82.6113 148.656 82.6385 148.663 82.6624 148.677C82.6798 148.694 82.6937 148.714 82.7032 148.737C82.7127 148.759 82.7175 148.783 82.7175 148.808C82.7175 148.832 82.7127 148.857 82.7032 148.879C82.6937 148.902 82.6798 148.922 82.6624 148.939C82.3411 149.205 82.0877 149.544 81.9234 149.927C81.7591 150.311 81.6886 150.728 81.7176 151.144C81.7908 152.389 82.1541 153.6 82.7783 154.68C83.4026 155.759 84.2705 156.679 85.313 157.363C85.6575 157.614 86.0617 157.77 86.4853 157.816C86.9089 157.862 87.3371 157.797 87.7275 157.626C87.7674 157.603 87.8126 157.591 87.8587 157.591C87.9048 157.591 87.95 157.603 87.9899 157.626C88.0197 157.663 88.036 157.709 88.036 157.757C88.036 157.805 88.0197 157.851 87.9899 157.888C87.542 158.09 87.0487 158.17 86.5601 158.119C86.0714 158.068 85.605 157.889 85.2081 157.6C84.1055 156.885 83.1866 155.922 82.5255 154.786C81.8644 153.651 81.4798 152.376 81.4027 151.065C81.3416 150.567 81.4138 150.061 81.6121 149.6C81.8104 149.139 82.1275 148.739 82.5312 148.441L82.5049 148.677Z" fill="#D1EBFF"/>
<path d="M87.4389 145.895C87.4981 145.873 87.5633 145.873 87.6226 145.895C87.64 145.912 87.6539 145.932 87.6634 145.955C87.6729 145.977 87.6777 146.002 87.6777 146.026C87.6777 146.05 87.6729 146.075 87.6634 146.097C87.6539 146.12 87.64 146.14 87.6226 146.157C87.2927 146.41 87.0328 146.742 86.8675 147.124C86.7021 147.505 86.6368 147.922 86.6778 148.335C86.7436 149.585 87.1064 150.802 87.7363 151.883C88.3661 152.965 89.2448 153.881 90.2995 154.555C90.6398 154.803 91.038 154.96 91.456 155.01C91.874 155.061 92.298 155.004 92.6877 154.844C92.7048 154.827 92.7252 154.813 92.7477 154.803C92.7703 154.794 92.7944 154.789 92.8189 154.789C92.8433 154.789 92.8675 154.794 92.89 154.803C92.9126 154.813 92.933 154.827 92.9501 154.844C92.9676 154.861 92.9815 154.881 92.9909 154.904C93.0004 154.927 93.0053 154.951 93.0053 154.975C93.0053 155 93.0004 155.024 92.9909 155.046C92.9815 155.069 92.9676 155.089 92.9501 155.106C92.5016 155.306 92.0088 155.384 91.5207 155.333C91.0326 155.282 90.5663 155.105 90.1683 154.818C89.0657 154.099 88.1486 153.131 87.4918 151.99C86.835 150.85 86.4572 149.571 86.3891 148.257C86.3223 147.758 86.392 147.251 86.5907 146.789C86.7895 146.326 87.1098 145.927 87.5176 145.632L87.4389 145.895Z" fill="#D1EBFF"/>
<path d="M98.7237 149.753C98.7597 150.186 98.6874 150.622 98.5133 151.02C98.3393 151.419 98.0689 151.768 97.7265 152.036L81.8751 160.959C81.219 161.326 81.6389 160.513 80.6679 159.935C79.6299 159.26 78.7658 158.35 78.1457 157.278C77.5255 156.207 77.1668 155.004 77.0987 153.768C77.0987 152.639 76.0489 152.639 76.6788 152.272L92.6352 143.244C93.0396 143.076 93.4796 143.013 93.9151 143.058C94.3505 143.104 94.7676 143.258 95.1283 143.507C96.1816 144.186 97.0573 145.108 97.6827 146.194C98.3081 147.28 98.665 148.5 98.7237 149.753Z" fill="#A8CFF0"/>
<path d="M92.8188 155.264C92.7897 155.276 92.7585 155.282 92.7269 155.282C92.6954 155.282 92.6642 155.276 92.6351 155.264C92.6176 155.247 92.6038 155.226 92.5943 155.204C92.5848 155.181 92.58 155.157 92.58 155.132C92.58 155.108 92.5848 155.084 92.5943 155.061C92.6038 155.039 92.6176 155.018 92.6351 155.001C92.9564 154.735 93.2097 154.397 93.374 154.013C93.5384 153.63 93.6089 153.213 93.5799 152.797C93.5066 151.552 93.1434 150.341 92.5192 149.261C91.8949 148.181 91.0269 147.262 89.9844 146.577C89.6399 146.326 89.2358 146.17 88.8122 146.124C88.3886 146.078 87.9603 146.144 87.57 146.314C87.5301 146.338 87.4848 146.35 87.4388 146.35C87.3927 146.35 87.3475 146.338 87.3076 146.314C87.2778 146.277 87.2615 146.231 87.2615 146.183C87.2615 146.136 87.2778 146.089 87.3076 146.052C87.7555 145.85 88.2488 145.771 88.7374 145.821C89.226 145.872 89.6925 146.051 90.0894 146.341C91.1919 147.055 92.1109 148.019 92.772 149.154C93.433 150.289 93.8177 151.564 93.8948 152.875C93.9559 153.374 93.8836 153.879 93.6854 154.34C93.4871 154.801 93.1699 155.202 92.7663 155.5L92.8188 155.264Z" fill="#72B5E8"/>
<path d="M92.6613 155.343C92.6108 155.363 92.5544 155.363 92.5039 155.343C92.4741 155.305 92.4578 155.259 92.4578 155.211C92.4578 155.164 92.4741 155.117 92.5039 155.08C92.8397 154.833 93.1039 154.501 93.2699 154.118C93.4358 153.736 93.4975 153.316 93.4487 152.902C93.3858 151.654 93.0269 150.439 92.4017 149.358C91.7766 148.276 90.903 147.359 89.8532 146.682C89.5129 146.434 89.1148 146.277 88.6967 146.227C88.2787 146.176 87.8547 146.234 87.4651 146.393C87.4198 146.418 87.3667 146.423 87.3175 146.408C87.2683 146.394 87.227 146.36 87.2026 146.315C87.1782 146.269 87.1729 146.216 87.1876 146.167C87.2024 146.118 87.2361 146.077 87.2813 146.052C87.7053 145.864 88.1715 145.792 88.6325 145.842C89.0935 145.893 89.5328 146.065 89.9057 146.341C91.0117 147.058 91.9328 148.026 92.594 149.166C93.2553 150.306 93.638 151.586 93.7111 152.902C93.7779 153.4 93.7082 153.908 93.5095 154.37C93.3107 154.832 92.9904 155.232 92.5826 155.526L92.6613 155.343Z" fill="#D1EBFF"/>
<path d="M87.8587 158.046C87.8587 158.046 87.8587 158.046 87.7013 158.046C87.6838 158.029 87.6699 158.008 87.6605 157.986C87.651 157.963 87.6461 157.939 87.6461 157.915C87.6461 157.89 87.651 157.866 87.6605 157.843C87.6699 157.821 87.6838 157.8 87.7013 157.783C88.0311 157.531 88.2911 157.198 88.4564 156.817C88.6217 156.436 88.687 156.019 88.6461 155.605C88.5803 154.355 88.2174 153.139 87.5875 152.057C86.9577 150.975 86.079 150.059 85.0244 149.385C84.684 149.137 84.2859 148.981 83.8679 148.93C83.4498 148.88 83.0258 148.937 82.6362 149.097C82.6191 149.114 82.5987 149.128 82.5761 149.137C82.5536 149.147 82.5294 149.152 82.505 149.152C82.4805 149.152 82.4563 149.147 82.4338 149.137C82.4112 149.128 82.3909 149.114 82.3737 149.097C82.3563 149.079 82.3424 149.059 82.3329 149.037C82.3235 149.014 82.3186 148.99 82.3186 148.965C82.3186 148.941 82.3235 148.917 82.3329 148.894C82.3424 148.872 82.3563 148.851 82.3737 148.834C82.8222 148.635 83.3151 148.557 83.8032 148.607C84.2913 148.658 84.7576 148.836 85.1556 149.123C86.2538 149.846 87.1676 150.815 87.8238 151.955C88.48 153.094 88.8605 154.371 88.9347 155.684C89.0015 156.182 88.9318 156.69 88.7331 157.152C88.5344 157.614 88.214 158.014 87.8062 158.308L87.8587 158.046Z" fill="#72B5E8"/>
<path d="M87.7274 158.098C87.7035 158.112 87.6763 158.119 87.6487 158.119C87.621 158.119 87.5939 158.112 87.57 158.098C87.5401 158.061 87.5239 158.015 87.5239 157.967C87.5239 157.919 87.5401 157.873 87.57 157.836C87.8913 157.57 88.1446 157.231 88.3089 156.848C88.4732 156.464 88.5438 156.047 88.5147 155.631C88.4519 154.384 88.093 153.169 87.4678 152.087C86.8427 151.006 85.9691 150.089 84.9193 149.412C84.57 149.172 84.168 149.021 83.7476 148.971C83.3271 148.92 82.9008 148.973 82.5049 149.123C82.4677 149.153 82.4214 149.169 82.3737 149.169C82.326 149.169 82.2797 149.153 82.2424 149.123C82.2424 149.123 82.2424 148.887 82.2424 148.86C82.6903 148.659 83.1837 148.579 83.6723 148.63C84.1609 148.68 84.6274 148.86 85.0243 149.149C86.1268 149.863 87.0458 150.827 87.7068 151.962C88.3679 153.098 88.7526 154.372 88.8297 155.684C88.8964 156.182 88.8268 156.69 88.628 157.152C88.4293 157.614 88.109 158.014 87.7012 158.308L87.7274 158.098Z" fill="#D1EBFF"/>
<path d="M79.4083 152.535C79.056 152.291 78.6493 152.137 78.2239 152.087C77.7984 152.037 77.3671 152.091 76.9677 152.246C77.3321 152.17 77.708 152.168 78.0731 152.24C78.4382 152.312 78.7852 152.457 79.0934 152.666C80.1362 153.338 81.0055 154.247 81.6303 155.319C82.2551 156.39 82.6178 157.595 82.6888 158.833C82.7393 159.289 82.6602 159.75 82.4606 160.163C82.261 160.576 81.949 160.925 81.5604 161.169C82.4264 160.933 82.9775 160.067 82.9775 158.702C82.9094 157.466 82.5507 156.263 81.9306 155.191C81.3104 154.12 80.4463 153.21 79.4083 152.535Z" fill="#D1EBFF"/>
<path d="M82.8199 158.807C82.8199 161.064 81.219 161.982 79.2507 160.828C78.2079 160.156 77.3386 159.247 76.7138 158.175C76.089 157.103 75.7263 155.899 75.6553 154.66C75.6553 152.403 77.2561 151.485 79.2507 152.639C80.2886 153.314 81.1528 154.225 81.7729 155.296C82.3931 156.368 82.7518 157.57 82.8199 158.807Z" fill="#ADD2F0"/>
<path d="M31.1718 185.261V193.055L32.4315 192.268V184.5L31.1718 185.261Z" fill="#084C94"/>
<path d="M31.198 185.261V193.055L1.83093 176.233V168.465L31.198 185.261Z" fill="#2672AB"/>
<path d="M1.83093 168.465L31.198 185.261L32.4314 184.5L3.03817 167.677L1.83093 168.465Z" fill="#3F92D1"/>
<path d="M6.68605 164.528C6.38517 164.36 6.04639 164.272 5.7019 164.272C5.35741 164.272 5.01863 164.36 4.71775 164.528L3.69424 165.158H3.87792C3.61959 165.527 3.48207 165.967 3.48428 166.418V167.651L9.59913 171.876L10.2552 171.483V166.523L6.68605 164.528Z" fill="#3F92D1"/>
<path d="M9.67787 166.837C9.54992 168.506 9.54992 170.182 9.67787 171.85L10.334 171.456V166.496L9.67787 166.837Z" fill="#084C94"/>
<path d="M9.67792 166.837L9.54669 171.824L2.9332 167.966V166.732C2.92785 166.356 3.02289 165.984 3.20851 165.656C3.39413 165.328 3.66366 165.055 3.98951 164.865C4.31536 164.675 4.68579 164.576 5.0628 164.577C5.43981 164.577 5.80984 164.678 6.13497 164.869L9.67792 166.837Z" fill="#72B5E8"/>
<path d="M9.57283 166.864V171.824L2.80188 168.018V166.759C2.80453 166.385 2.90458 166.018 3.09213 165.695C3.27967 165.371 3.54824 165.102 3.87141 164.914C4.19457 164.726 4.56119 164.625 4.93509 164.622C5.30898 164.619 5.67725 164.713 6.00365 164.895L9.57283 166.864Z" fill="#2672AB"/>
<path d="M3.58936 167.572V166.759C3.58936 166.397 3.73316 166.05 3.98909 165.794C4.24501 165.538 4.59212 165.394 4.95405 165.394C5.19437 165.389 5.43112 165.453 5.63638 165.578L8.78566 167.336V170.512L3.58936 167.572Z" fill="white"/>
<path d="M4.088 167.336V166.549C4.08349 166.328 4.13385 166.109 4.2346 165.912C4.33536 165.715 4.48337 165.546 4.66537 165.42C4.36209 165.491 4.09123 165.661 3.89614 165.904C3.70106 166.146 3.59302 166.447 3.58936 166.759V167.572L8.83816 170.512V170.013L4.088 167.336Z" fill="#D1EBFF"/>
<path d="M57.2843 144.792C57.2472 144.809 57.2069 144.818 57.1662 144.818C57.1255 144.818 57.0852 144.809 57.0481 144.792C57.0074 144.745 56.9851 144.684 56.9851 144.622C56.9851 144.559 57.0074 144.499 57.0481 144.451L58.754 143.401C59.2084 143.13 59.5849 142.746 59.847 142.286C60.1091 141.826 60.2479 141.306 60.2499 140.777V133.927C60.2668 133.41 60.1501 132.896 59.9111 132.437C59.6721 131.977 59.3188 131.587 58.8852 131.303L57.1793 130.174C57.1367 130.123 57.1133 130.058 57.1133 129.991C57.1133 129.924 57.1367 129.859 57.1793 129.807C57.2269 129.766 57.2874 129.744 57.3499 129.744C57.4125 129.744 57.473 129.766 57.5205 129.807L59.2264 130.936C59.7071 131.268 60.1011 131.71 60.3752 132.226C60.6492 132.742 60.7952 133.317 60.801 133.901V140.62C60.8003 141.237 60.6405 141.844 60.3371 142.382C60.0338 142.92 59.597 143.37 59.0689 143.69L57.3631 144.714L57.2843 144.792Z" fill="#A8CFF0"/>
<path d="M61.6936 142.194L60.4602 141.486C60.1625 141.274 59.9193 140.995 59.7505 140.671C59.5817 140.347 59.4921 139.988 59.4891 139.622V133.98C59.4891 133.271 59.909 132.93 60.4602 133.245L61.6936 133.954C61.9868 134.17 62.2268 134.45 62.3951 134.773C62.5634 135.096 62.6556 135.453 62.6646 135.817V141.46C62.6646 142.168 62.2185 142.588 61.6936 142.194Z" fill="#A8CFF0"/>
<path d="M61.6934 133.954L60.4599 133.245C60.3574 133.147 60.2211 133.093 60.0794 133.093C59.9377 133.093 59.8014 133.147 59.6989 133.245C59.8368 133.212 59.9808 133.212 60.1188 133.245L61.3522 133.954C61.6474 134.174 61.8884 134.458 62.0567 134.786C62.225 135.113 62.3162 135.475 62.3233 135.843V141.459C62.3425 141.705 62.2674 141.949 62.1133 142.142C62.4282 142.142 62.6644 141.801 62.6644 141.302V135.659C62.6326 135.323 62.5297 134.996 62.3623 134.702C62.1949 134.408 61.9669 134.153 61.6934 133.954Z" fill="#72B5E8"/>
<path d="M38.1526 107.998H37.8377C37.6704 107.956 37.5132 107.88 37.3751 107.777C37.237 107.673 37.1207 107.543 37.0329 107.394C36.9452 107.245 36.8876 107.081 36.8636 106.91C36.8396 106.739 36.8495 106.565 36.8929 106.398C37.3565 104.51 38.176 102.729 39.3074 101.149C39.5304 100.915 39.8303 100.77 40.1519 100.74C40.4734 100.711 40.7949 100.798 41.057 100.987C41.3191 101.175 41.5042 101.452 41.5781 101.767C41.6521 102.081 41.6099 102.411 41.4594 102.697C40.5161 103.979 39.8298 105.432 39.4386 106.975C39.3728 107.266 39.2095 107.527 38.9757 107.713C38.7419 107.899 38.4515 108 38.1526 107.998Z" fill="#A8CFF0"/>
<path d="M91.2968 100.912L69.2256 88.2366L47.7581 100.965C45.9902 101.995 44.5223 103.469 43.5003 105.242C42.4783 107.014 41.9376 109.023 41.9319 111.069L63.6882 123.509L91.2968 100.912Z" fill="#D1EBFF"/>
<path opacity="0.5" d="M68.7532 118.102L72.4274 114.218L48.5453 100.414L47.6268 100.965C46.3139 101.721 45.1634 102.729 44.2413 103.931L68.7532 118.102Z" fill="white"/>
<path d="M63.5044 123.43L91.1655 107.473V100.807L69.3043 113.326C67.5395 114.357 66.0755 115.832 65.0579 117.605C64.0404 119.378 63.5048 121.386 63.5044 123.43Z" fill="white"/>
<path d="M63.6357 123.509L91.3232 107.526V100.86L69.4619 113.378C67.6919 114.413 66.2231 115.891 65.2011 117.668C64.1791 119.445 63.6395 121.459 63.6357 123.509Z" fill="#72B5E8"/>
<path d="M78.2798 155.999L79.0934 156.419V160.696L76.9151 159.883C75.8064 159.479 74.8489 158.743 74.1728 157.776C73.4967 156.809 73.1347 155.657 73.136 154.476V133.481C73.8036 133.089 74.5665 132.889 75.3405 132.904C76.1061 132.89 76.8604 133.09 77.5187 133.481V154.818C77.5206 155.066 77.5931 155.31 77.7279 155.519C77.8626 155.728 78.0541 155.894 78.2798 155.999Z" fill="#A8CFF0"/>
<path d="M78.7785 125.976H71.9026V155.395C71.9026 156.524 73.4247 157.416 75.3405 157.416C77.2564 157.416 78.7785 156.524 78.7785 155.421V125.976Z" fill="#ADD2F0"/>
<path d="M78.7785 126.002C78.7785 127.104 77.2301 127.996 75.3405 127.996C73.451 127.996 71.9026 127.104 71.9026 126.002C71.9026 124.9 73.4247 124.007 75.3405 124.007C77.2564 124.007 78.7785 124.9 78.7785 126.002Z" fill="#D1EBFF"/>
<path d="M75.3404 127.681C76.9348 127.681 78.2273 126.929 78.2273 126.002C78.2273 125.074 76.9348 124.322 75.3404 124.322C73.7461 124.322 72.4536 125.074 72.4536 126.002C72.4536 126.929 73.7461 127.681 75.3404 127.681Z" fill="#3F92D1"/>
<path d="M78.2799 104.56L79.0935 104.167V99.8628L76.9152 100.676C75.8022 101.082 74.8418 101.822 74.1653 102.794C73.4888 103.767 73.1294 104.924 73.1361 106.109V127.104C73.7991 127.507 74.5652 127.707 75.3406 127.681C76.1078 127.708 76.8657 127.508 77.5188 127.104V105.846C77.5069 105.581 77.5725 105.318 77.7077 105.09C77.8429 104.862 78.0418 104.678 78.2799 104.56Z" fill="#A8CFF0"/>
<path opacity="0.5" d="M74.8156 127.209C74.5371 127.249 74.2543 127.249 73.9758 127.209V106.214C73.9815 105.312 74.2603 104.433 74.7757 103.692C75.2911 102.952 76.0187 102.386 76.8626 102.067L77.2301 101.936V103.432C76.7663 103.646 76.3752 103.992 76.1048 104.425C75.8344 104.859 75.6965 105.362 75.7079 105.873V127.157C75.4157 127.225 75.1139 127.243 74.8156 127.209Z" fill="#D1EBFF"/>
<path opacity="0.5" d="M73.2408 128.311V155.395C73.6792 155.817 74.2595 156.061 74.868 156.077V128.705C74.308 128.662 73.7587 128.529 73.2408 128.311Z" fill="#D1EBFF"/>
<path d="M17.9973 153.952L21.8814 158.413L35.2921 138.179L17.9973 153.952Z" fill="#A8CFF0"/>
<path opacity="0.3" d="M12.2236 153.112L17.9973 153.952L35.2921 138.179L12.2236 153.112Z" fill="white"/>
<path opacity="0.7" d="M17.6299 153.873L17.9973 153.952L35.2921 138.179L17.6299 153.873Z" fill="white"/>
<path d="M23.2461 160.723V180.747L24.4796 179.96V159.935L23.2461 160.723Z" fill="#084C94"/>
<path d="M23.246 160.723V180.747L9.88782 173.188V153.164L17.0261 154.345L23.246 160.723Z" fill="#2672AB"/>
<path d="M11.4363 173.609V157.783L21.6977 163.846V179.408L11.4363 173.609Z" fill="#084C94"/>
<path d="M12.2236 173.136V158.256L11.4363 157.783V173.609L21.6977 179.408V178.516L12.2236 173.136Z" fill="#03336E"/>
<path d="M17.0261 154.345L23.246 160.723L24.4794 159.935L18.2334 153.584L17.0261 154.345Z" fill="#3F92D1"/>
<path d="M17.0261 154.345L23.246 160.723L24.4794 159.935L23.2197 160.408L17.0261 154.345Z" fill="#72B5E8"/>
<path d="M11.1212 152.403L9.88782 153.164L17.0261 154.345L18.2334 153.584L11.1212 152.403Z" fill="#72B5E8"/>
<path d="M12.5911 174.265V158.413L13.4309 158.938V174.737L12.5911 174.265Z" fill="#2672AB"/>
<path d="M13.982 174.422V159.332L13.4309 158.938V174.737L13.982 174.422Z" fill="#03336E"/>
<path d="M14.4542 175.341V159.515L15.2941 160.04V175.813L14.4542 175.341Z" fill="#2672AB"/>
<path d="M15.8452 175.472V160.434L15.2941 160.04V175.813L15.8452 175.472Z" fill="#03336E"/>
<path d="M16.2913 176.364V160.487L17.1573 161.038V176.836L16.2913 176.364Z" fill="#2672AB"/>
<path d="M17.7086 176.521V161.484L17.1575 161.142V176.836L17.7086 176.521Z" fill="#03336E"/>
<path d="M18.1547 177.414V161.562L18.9945 162.087V177.886L18.1547 177.414Z" fill="#2672AB"/>
<path d="M19.5456 177.571V162.586L18.9945 162.245V177.886L19.5456 177.571Z" fill="#03336E"/>
<path d="M19.9918 178.49V162.612L20.8316 163.163V178.962L19.9918 178.49Z" fill="#2672AB"/>
<path d="M21.3828 178.621V163.688L20.8317 163.347V178.962L21.3828 178.621Z" fill="#03336E"/>
<path d="M32.0116 181.613V183.87L31.3555 184.237L24.3222 180.327L24.0859 174.921L24.742 174.501L29.361 177.125C30.1554 177.578 30.8178 178.23 31.2827 179.017C31.7476 179.804 31.9989 180.699 32.0116 181.613Z" fill="#3F92D1"/>
<path d="M31.5393 181.954L31.3818 184.264L24.1384 180.143V174.894L28.9149 177.335C29.7236 177.802 30.3932 178.476 30.8546 179.288C31.3159 180.1 31.5523 181.02 31.5393 181.954Z" fill="#72B5E8"/>
<path d="M31.3555 181.954V184.211L24.1384 180.195V174.947L28.7574 177.571C29.527 178.021 30.1693 178.659 30.6239 179.426C31.0785 180.193 31.3303 181.063 31.3555 181.954Z" fill="#2672AB"/>
<path d="M24.8469 179.75V176.18L28.3374 178.096C29.0256 178.491 29.5969 179.06 29.9934 179.747C30.3899 180.434 30.5972 181.214 30.5944 182.007V182.951L24.8469 179.75Z" fill="white"/>
<path d="M25.3193 179.487V176.443L24.8469 176.207V179.75L30.5944 182.951V182.4L25.3193 179.487Z" fill="#D1EBFF"/>
<g style="mix-blend-mode:multiply">
<path d="M8.52319 180.038V178.91C8.52425 178.643 8.59536 178.381 8.72939 178.151C8.86341 177.92 9.05564 177.729 9.28685 177.596C9.51807 177.463 9.78015 177.393 10.0468 177.394C10.3135 177.394 10.5755 177.464 10.8064 177.598L20.8579 183.371C21.6424 183.799 22.2989 184.429 22.7601 185.194C23.2212 185.96 23.4705 186.834 23.4823 187.728V188.594L8.52319 180.038Z" fill="#3F92D1"/>
</g>
<path d="M20.543 184.368V187.072L10.8326 181.587V178.831L20.543 184.368Z" fill="#D1EBFF"/>
<g style="mix-blend-mode:color-dodge">
<path d="M10.8326 178.831V179.225L20.228 184.605V186.888L20.543 187.072V184.368L10.8326 178.831Z" fill="white"/>
</g>
<path d="M5.92492 175.708C5.92492 176.495 5.37382 176.81 4.71772 176.417C4.35779 176.192 4.05755 175.884 3.84274 175.519C3.62792 175.153 3.50492 174.741 3.48425 174.317C3.48425 173.53 4.03538 173.215 4.71772 173.609C5.07278 173.836 5.36784 174.145 5.57797 174.511C5.78811 174.876 5.90712 175.287 5.92492 175.708Z" fill="#A8CFF0"/>
<path d="M5.34768 176.049C4.98775 175.825 4.68755 175.517 4.47273 175.151C4.25792 174.785 4.13488 174.373 4.11421 173.95C4.06955 173.786 4.06955 173.614 4.11421 173.451C3.66806 173.451 3.35315 173.713 3.35315 174.317C3.37382 174.741 3.49682 175.153 3.71163 175.519C3.92645 175.884 4.22669 176.192 4.58662 176.417C5.08526 176.705 5.50516 176.6 5.68886 176.233C5.56801 176.186 5.45341 176.124 5.34768 176.049Z" fill="#03336E"/>
<path d="M29.5971 189.198C29.5971 189.985 29.0459 190.3 28.3636 189.906C28.0001 189.679 27.6977 189.367 27.4826 188.997C27.2676 188.626 27.1466 188.208 27.1301 187.78C27.1301 187.019 27.6813 186.704 28.3636 187.098C28.7235 187.322 29.0238 187.63 29.2386 187.996C29.4534 188.362 29.5764 188.774 29.5971 189.198Z" fill="#A8CFF0"/>
<path d="M28.9934 189.539C28.6384 189.311 28.3433 189.002 28.1332 188.636C27.923 188.271 27.804 187.86 27.7862 187.439C27.7416 187.276 27.7416 187.104 27.7862 186.94C27.3401 186.94 27.0251 187.203 27.0251 187.78C27.0416 188.208 27.1627 188.626 27.3777 188.996C27.5927 189.367 27.8951 189.679 28.2586 189.906C28.7573 190.195 29.1771 190.09 29.3871 189.722C29.2475 189.681 29.1148 189.619 28.9934 189.539Z" fill="#03336E"/>
<path d="M25.4768 177.729L26.3429 179.513C26.3429 179.513 27.7075 178.332 27.4451 177.755C27.1827 177.178 25.4768 177.729 25.4768 177.729Z" fill="#FFCC00"/>
<path d="M26.6053 179.015C26.6053 179.461 26.2904 179.645 25.8967 179.408C25.688 179.273 25.5133 179.091 25.3859 178.877C25.2585 178.663 25.1818 178.423 25.1619 178.175C25.1619 177.729 25.503 177.545 25.8967 177.755C26.1053 177.895 26.2782 178.082 26.4013 178.3C26.5244 178.519 26.5942 178.764 26.6053 179.015Z" fill="#FFDE17"/>
<path d="M4.66528 166.706L5.45261 168.386C5.45261 168.386 6.73855 167.257 6.50235 166.759C6.26616 166.26 4.66528 166.706 4.66528 166.706Z" fill="#FFCC00"/>
<path d="M5.76763 167.913C5.76763 168.333 5.45272 168.491 5.0853 168.281C4.89297 168.153 4.73336 167.982 4.61937 167.782C4.50539 167.581 4.44024 167.357 4.4292 167.126C4.4292 166.706 4.71788 166.523 5.0853 166.733C5.2845 166.861 5.45025 167.035 5.56888 167.241C5.68752 167.446 5.75565 167.677 5.76763 167.913Z" fill="#FFDE17"/>
<path d="M6.29236 167.152L7.10592 168.858C7.10592 168.858 8.3919 167.73 8.1557 167.205C7.9195 166.68 6.29236 167.152 6.29236 167.152Z" fill="#FFCC00"/>
<path d="M7.36848 168.36C7.38295 168.444 7.37113 168.531 7.33464 168.609C7.29816 168.686 7.23875 168.751 7.16441 168.794C7.09007 168.837 7.00437 168.856 6.91886 168.849C6.83334 168.841 6.75215 168.808 6.68615 168.753C6.4898 168.621 6.32621 168.447 6.20793 168.242C6.08966 168.037 6.01981 167.808 6.00378 167.572C6.00378 167.152 6.31874 166.995 6.68615 167.205C6.88192 167.331 7.04551 167.501 7.16397 167.701C7.28243 167.902 7.35247 168.127 7.36848 168.36Z" fill="#FFDE17"/>
<path d="M26.999 179.33L27.8651 181.167C27.8651 181.167 29.7284 179.776 29.466 179.225C29.2035 178.674 26.999 179.33 26.999 179.33Z" fill="#FFCC00"/>
<path d="M28.1537 180.563C28.1537 181.036 27.8126 181.219 27.4189 180.983C27.2102 180.847 27.0355 180.666 26.9081 180.452C26.7807 180.238 26.7041 179.998 26.6841 179.75C26.6841 179.277 27.0253 179.094 27.4189 179.33C27.6276 179.465 27.8023 179.647 27.9297 179.861C28.0571 180.075 28.1338 180.315 28.1537 180.563Z" fill="#FFDE17"/>
<path d="M41.5644 130.306L31.0668 128.023C30.9978 128.014 30.928 128.03 30.8701 128.069C30.8123 128.107 30.7703 128.166 30.7519 128.233C30.744 128.298 30.7613 128.365 30.8002 128.418C30.8391 128.472 30.8969 128.509 30.9618 128.521L34.7409 129.361L35.9744 133.613C35.9904 133.664 36.0216 133.709 36.0638 133.741C36.106 133.774 36.1572 133.793 36.2106 133.796C36.2761 133.778 36.3318 133.735 36.3661 133.676C36.4003 133.617 36.4105 133.547 36.3943 133.481L35.2396 129.519L41.3282 130.831C41.3884 130.828 41.446 130.806 41.4931 130.768C41.5402 130.73 41.5742 130.679 41.5906 130.621C41.621 130.573 41.6349 130.516 41.6302 130.459C41.6255 130.402 41.6024 130.348 41.5644 130.306Z" fill="#001A46"/>
<path d="M49.4113 134.715L38.9137 132.458C38.881 132.446 38.846 132.441 38.8113 132.444C38.7765 132.447 38.7429 132.458 38.7128 132.475C38.6827 132.493 38.6569 132.517 38.6372 132.546C38.6175 132.574 38.6043 132.607 38.5987 132.641C38.5911 132.676 38.5905 132.712 38.597 132.746C38.6035 132.781 38.617 132.814 38.6366 132.844C38.6562 132.873 38.6816 132.898 38.7112 132.918C38.7407 132.937 38.7739 132.95 38.8087 132.956L42.5616 133.77L43.8213 138.021C43.8372 138.072 43.8684 138.117 43.9106 138.15C43.9528 138.183 44.0041 138.202 44.0575 138.205C44.0905 138.193 44.1208 138.175 44.1467 138.152C44.1726 138.128 44.1934 138.1 44.2081 138.068C44.2228 138.036 44.231 138.001 44.2321 137.966C44.2333 137.931 44.2274 137.897 44.2149 137.864L43.0602 133.901L49.175 135.24C49.2352 135.236 49.2929 135.214 49.34 135.177C49.387 135.139 49.4211 135.088 49.4375 135.03C49.4613 134.979 49.4713 134.924 49.4667 134.869C49.4621 134.813 49.443 134.76 49.4113 134.715Z" fill="#001A46"/>
<g style="mix-blend-mode:multiply">
<path d="M67.4934 139.308L65.9187 140.226C65.7436 140.327 65.5981 140.472 65.4968 140.648C65.3955 140.823 65.3419 141.021 65.3414 141.223C65.3382 141.317 65.3601 141.41 65.4048 141.492C65.4496 141.574 65.5156 141.643 65.5959 141.691C65.6762 141.74 65.768 141.765 65.8617 141.766C65.9554 141.767 66.0476 141.743 66.1287 141.696L67.5721 140.856C67.7386 140.754 67.8765 140.611 67.9729 140.441C68.0692 140.272 68.121 140.08 68.1232 139.885V139.57C68.1144 139.501 68.0877 139.436 68.0457 139.381C68.0038 139.326 67.9481 139.283 67.8842 139.257C67.8203 139.23 67.7506 139.221 67.682 139.23C67.6134 139.239 67.5483 139.265 67.4934 139.308Z" fill="#A8CFF0"/>
</g>
<g style="mix-blend-mode:multiply">
<g style="mix-blend-mode:multiply">
<path d="M67.5722 140.935L66.1288 141.774C66.0515 141.819 65.964 141.844 65.8747 141.845C65.7853 141.847 65.6971 141.826 65.6182 141.784C65.5394 141.742 65.4726 141.68 65.4241 141.605C65.3757 141.53 65.3472 141.444 65.3414 141.354V141.643C65.3429 141.735 65.3682 141.824 65.4149 141.903C65.4615 141.981 65.5279 142.046 65.6075 142.091C65.687 142.137 65.777 142.16 65.8684 142.16C65.9598 142.159 66.0496 142.135 66.1288 142.089L67.5722 141.249C67.7401 141.156 67.8798 141.019 67.9767 140.852C68.0737 140.686 68.1243 140.497 68.1233 140.305V139.964C68.121 140.159 68.0693 140.35 67.9729 140.52C67.8765 140.69 67.7387 140.833 67.5722 140.935Z" fill="#A8CFF0"/>
</g>
</g>
<path d="M69.4093 134.19L68.9106 134.479V156.34L69.4093 156.051V134.19Z" fill="#3F92D1"/>
<path d="M69.9077 122.013L69.4353 122.301V156.156L69.9077 155.868V122.013Z" fill="#A8CFF0"/>
<g style="mix-blend-mode:multiply">
<path d="M81.8751 127.918C81.6454 127.918 81.4251 127.826 81.2627 127.664C81.1003 127.502 81.009 127.281 81.009 127.051V117.945C81.0085 117.553 81.1099 117.168 81.3032 116.828C81.4964 116.487 81.7749 116.203 82.1113 116.003L87.78 112.722C87.9262 112.683 88.08 112.683 88.2261 112.722C88.3387 112.722 88.4501 112.745 88.5537 112.789C88.6573 112.832 88.7511 112.897 88.8295 112.977C88.9078 113.058 88.9691 113.154 89.0097 113.259C89.0503 113.364 89.0695 113.476 89.066 113.588V122.695C89.0691 123.087 88.9688 123.473 88.7753 123.814C88.5818 124.155 88.3019 124.439 87.9637 124.637L82.295 127.918C82.1573 127.953 82.0128 127.953 81.8751 127.918ZM88.2261 113.09H88.0162L82.3475 116.344C82.0845 116.502 81.8666 116.725 81.7149 116.991C81.5632 117.258 81.4828 117.559 81.4814 117.866V126.973C81.4826 127.04 81.501 127.106 81.5349 127.164C81.5687 127.222 81.6169 127.271 81.6747 127.305C81.7326 127.339 81.7983 127.358 81.8656 127.359C81.9328 127.361 81.9993 127.345 82.0588 127.314L87.7275 124.033C87.9905 123.876 88.2084 123.653 88.3601 123.386C88.5118 123.119 88.5922 122.818 88.5935 122.511V113.405C88.5761 113.319 88.5305 113.241 88.464 113.184C88.3974 113.127 88.3137 113.094 88.2261 113.09Z" fill="#A8CFF0"/>
</g>
<path d="M81.8752 127.917C81.7291 127.956 81.5752 127.956 81.4291 127.917L81.6653 127.498C81.7241 127.535 81.7924 127.555 81.8621 127.555C81.9318 127.555 82.0001 127.535 82.0589 127.498L87.7276 124.217C87.9906 124.059 88.2085 123.836 88.3602 123.57C88.5119 123.303 88.5923 123.002 88.5937 122.695V113.588C88.595 113.511 88.5732 113.434 88.5312 113.369C88.4892 113.303 88.4287 113.252 88.3575 113.221L88.5412 112.775C88.6997 112.843 88.8344 112.956 88.9279 113.101C89.0214 113.246 89.0696 113.416 89.0661 113.588V122.695C89.0692 123.087 88.969 123.473 88.7754 123.814C88.5819 124.155 88.302 124.439 87.9638 124.637L82.2951 127.917C82.1574 127.953 82.0129 127.953 81.8752 127.917Z" fill="#A8CFF0"/>
<path d="M72.8471 164.659V166.785L57.2319 175.892V173.53L72.8471 164.659Z" fill="#084C94"/>
<path d="M72.8474 164.659L57.2322 173.53L54.8965 172.06L70.2492 163.19L72.8474 164.659Z" fill="#3F92D1"/>
<path d="M72.8474 164.659L57.2322 173.53L54.8965 172.06L57.2847 173.267L72.8474 164.659Z" fill="#72B5E8"/>
<path d="M54.8965 172.06V169.619L70.1967 160.801L70.2492 163.19L54.8965 172.06Z" fill="#084C94"/>
<path d="M53.3215 168.622L54.8962 169.619L70.1964 160.801L68.6743 159.752L53.3215 168.622Z" fill="#3F92D1"/>
<path d="M53.3215 168.622L54.8962 169.619L70.1964 160.801L54.8175 169.409L53.3215 168.622Z" fill="#72B5E8"/>
<path d="M54.8965 165.866V163.426L70.1967 154.582L70.2492 156.996L54.8965 165.866Z" fill="#084C94"/>
<path d="M54.8965 172.06V163.426L55.5264 163.085L55.5526 171.693L54.8965 172.06Z" fill="#084C94"/>
<path d="M52.8754 162.323L54.8962 163.426L70.1964 154.582L68.2019 153.453L52.8754 162.323Z" fill="#3F92D1"/>
<path d="M52.8754 162.324L54.8962 163.426L70.1964 154.582L54.9224 163.085L52.8754 162.324Z" fill="#72B5E8"/>
<path d="M52.8754 162.271V173.32L57.2319 175.892V173.53L54.8962 172.06V163.373L52.8754 162.271Z" fill="#2672AB"/>
<path d="M55.9463 142.089C58.4394 142.089 60.434 143.297 60.434 144.714C60.4385 144.742 60.4362 144.772 60.4272 144.799C60.4182 144.827 60.4029 144.852 60.3824 144.872C60.362 144.893 60.3369 144.908 60.3094 144.917C60.2819 144.926 60.2526 144.928 60.224 144.924C60.1975 144.924 60.1713 144.919 60.1471 144.908C60.1229 144.897 60.1013 144.881 60.0839 144.861C60.0664 144.841 60.0535 144.818 60.046 144.792C60.0385 144.767 60.0365 144.74 60.0403 144.714C60.0403 143.454 58.2032 142.431 55.9463 142.431C53.6893 142.431 51.8785 143.454 51.8785 144.714C51.883 144.742 51.8806 144.772 51.8716 144.799C51.8627 144.827 51.8473 144.852 51.8269 144.872C51.8064 144.893 51.7814 144.908 51.7539 144.917C51.7263 144.926 51.6971 144.928 51.6685 144.924C51.642 144.924 51.6157 144.919 51.5916 144.908C51.5674 144.897 51.5458 144.881 51.5284 144.861C51.5109 144.841 51.498 144.818 51.4905 144.792C51.483 144.767 51.481 144.74 51.4848 144.714C51.4848 143.297 53.4793 142.089 55.9463 142.089Z" fill="#3F92D1"/>
<path d="M55.946 146.105C58.4392 146.105 60.4337 147.312 60.4337 148.729C60.4337 148.785 60.4116 148.838 60.3722 148.878C60.3328 148.917 60.2794 148.939 60.2238 148.939C60.1727 148.933 60.1259 148.908 60.092 148.869C60.0581 148.83 60.0396 148.78 60.04 148.729C60.04 147.469 58.203 146.446 55.946 146.446C53.689 146.446 51.8782 147.469 51.8782 148.729C51.8782 148.757 51.8727 148.784 51.8622 148.809C51.8516 148.835 51.8362 148.858 51.8167 148.878C51.7972 148.897 51.774 148.912 51.7486 148.923C51.7231 148.934 51.6958 148.939 51.6682 148.939C51.6172 148.933 51.5703 148.908 51.5364 148.869C51.5026 148.83 51.4841 148.78 51.4845 148.729C51.4845 147.312 53.479 146.105 55.946 146.105Z" fill="#3F92D1"/>
<path d="M55.946 150.068C58.4392 150.068 60.4337 151.275 60.4337 152.692C60.4337 152.748 60.4116 152.801 60.3722 152.84C60.3328 152.88 60.2794 152.902 60.2238 152.902C60.1727 152.896 60.1259 152.871 60.092 152.832C60.0581 152.793 60.0396 152.743 60.04 152.692C60.04 151.432 58.203 150.409 55.946 150.409C53.689 150.409 51.8782 151.432 51.8782 152.692C51.8782 152.72 51.8727 152.747 51.8622 152.772C51.8516 152.798 51.8362 152.821 51.8167 152.84C51.7972 152.86 51.774 152.875 51.7486 152.886C51.7231 152.897 51.6958 152.902 51.6682 152.902C51.6172 152.896 51.5703 152.871 51.5364 152.832C51.5026 152.793 51.4841 152.743 51.4845 152.692C51.4845 151.275 53.479 150.068 55.946 150.068Z" fill="#3F92D1"/>
<path d="M55.946 154.004C58.4392 154.004 60.4337 155.211 60.4337 156.628C60.4337 156.684 60.4116 156.738 60.3722 156.777C60.3328 156.816 60.2794 156.838 60.2238 156.838C60.1727 156.832 60.1259 156.807 60.092 156.768C60.0581 156.73 60.0396 156.68 60.04 156.628C60.04 155.369 58.203 154.345 55.946 154.345C53.689 154.345 51.8782 155.369 51.8782 156.628C51.8782 156.656 51.8727 156.683 51.8622 156.709C51.8516 156.734 51.8362 156.757 51.8167 156.777C51.7972 156.796 51.774 156.812 51.7486 156.822C51.7231 156.833 51.6958 156.838 51.6682 156.838C51.6172 156.832 51.5703 156.807 51.5364 156.768C51.5026 156.73 51.4841 156.68 51.4845 156.628C51.4845 155.211 53.479 154.004 55.946 154.004Z" fill="#3F92D1"/>
<path d="M60.04 143.953H51.8782V158.334C51.8782 159.647 53.689 160.723 55.946 160.723C58.2029 160.723 60.04 159.647 60.04 158.334V143.953Z" fill="#2672AB"/>
<path d="M60.04 143.979C60.04 145.291 58.2029 146.341 55.946 146.341C53.689 146.341 51.8782 145.291 51.8782 143.979C51.8782 142.667 53.689 141.591 55.946 141.591C58.2029 141.591 60.04 142.588 60.04 143.979Z" fill="#3F92D1"/>
<path d="M55.946 146.131C53.7677 146.131 51.9831 145.134 51.8782 143.874C51.8782 145.186 53.689 146.236 55.946 146.236C58.2029 146.236 60.04 145.186 60.04 143.874C59.935 145.212 58.2554 146.131 55.946 146.131Z" fill="#72B5E8"/>
<path d="M55.946 159.62C53.479 159.62 51.4845 158.413 51.4845 156.996C51.4845 156.947 51.5039 156.9 51.5383 156.866C51.5728 156.831 51.6195 156.812 51.6682 156.812C51.6945 156.808 51.7212 156.81 51.7466 156.818C51.772 156.825 51.7955 156.838 51.8154 156.856C51.8354 156.873 51.8513 156.895 51.8621 156.919C51.873 156.943 51.8785 156.969 51.8782 156.996C51.8782 158.256 53.7152 159.305 55.946 159.305C58.1767 159.305 60.04 158.256 60.04 156.996C60.04 156.947 60.0594 156.9 60.0938 156.866C60.1283 156.831 60.175 156.812 60.2238 156.812C60.25 156.808 60.2767 156.81 60.3021 156.818C60.3275 156.825 60.3511 156.838 60.371 156.856C60.3909 156.873 60.4069 156.895 60.4177 156.919C60.4285 156.943 60.434 156.969 60.4337 156.996C60.4337 158.334 58.4391 159.62 55.946 159.62Z" fill="#084C94"/>
<path d="M55.9463 159.358C53.4793 159.358 51.4848 158.151 51.4848 156.734C51.481 156.707 51.483 156.681 51.4905 156.655C51.498 156.63 51.5109 156.606 51.5284 156.586C51.5458 156.566 51.5674 156.551 51.5916 156.54C51.6157 156.529 51.642 156.523 51.6685 156.524C51.6971 156.519 51.7263 156.522 51.7539 156.531C51.7814 156.539 51.8064 156.555 51.8269 156.575C51.8473 156.596 51.8627 156.621 51.8716 156.648C51.8806 156.676 51.883 156.705 51.8785 156.734C51.8785 157.993 53.7155 159.017 55.9463 159.017C58.177 159.017 60.0403 157.993 60.0403 156.734C60.0365 156.707 60.0385 156.681 60.046 156.655C60.0535 156.63 60.0664 156.606 60.0839 156.586C60.1013 156.566 60.1229 156.551 60.1471 156.54C60.1713 156.529 60.1975 156.523 60.224 156.524C60.2526 156.519 60.2819 156.522 60.3094 156.531C60.3369 156.539 60.362 156.555 60.3824 156.575C60.4029 156.596 60.4182 156.621 60.4272 156.648C60.4362 156.676 60.4385 156.705 60.434 156.734C60.434 158.151 58.4394 159.358 55.9463 159.358Z" fill="#3F92D1"/>
<path d="M55.946 155.71C53.479 155.71 51.4845 154.503 51.4845 153.086C51.4841 153.034 51.5026 152.985 51.5364 152.946C51.5703 152.907 51.6172 152.882 51.6682 152.876C51.7239 152.876 51.7773 152.898 51.8167 152.937C51.8561 152.977 51.8782 153.03 51.8782 153.086C51.8782 154.345 53.7152 155.369 55.946 155.369C58.1767 155.369 60.04 154.345 60.04 153.086C60.0396 153.034 60.0581 152.985 60.092 152.946C60.1259 152.907 60.1727 152.882 60.2238 152.876C60.2794 152.876 60.3328 152.898 60.3722 152.937C60.4116 152.977 60.4337 153.03 60.4337 153.086C60.4337 154.372 58.4392 155.71 55.946 155.71Z" fill="#084C94"/>
<path d="M55.946 155.343C53.479 155.343 51.4845 154.135 51.4845 152.718C51.4841 152.667 51.5026 152.617 51.5364 152.578C51.5703 152.54 51.6172 152.515 51.6682 152.508C51.7239 152.508 51.7773 152.53 51.8167 152.57C51.8561 152.609 51.8782 152.663 51.8782 152.718C51.8782 153.978 53.7152 155.002 55.946 155.002C58.1767 155.002 60.04 153.978 60.04 152.718C60.0396 152.667 60.0581 152.617 60.092 152.578C60.1259 152.54 60.1727 152.515 60.2238 152.508C60.2794 152.508 60.3328 152.53 60.3722 152.57C60.4116 152.609 60.4337 152.663 60.4337 152.718C60.4337 154.135 58.4392 155.343 55.946 155.343Z" fill="#3F92D1"/>
<path d="M55.9463 151.616C53.4793 151.616 51.4848 150.409 51.4848 148.992C51.481 148.966 51.483 148.939 51.4905 148.913C51.498 148.888 51.5109 148.864 51.5284 148.845C51.5458 148.825 51.5674 148.809 51.5916 148.798C51.6157 148.787 51.642 148.781 51.6685 148.782C51.6971 148.777 51.7263 148.78 51.7539 148.789C51.7814 148.798 51.8064 148.813 51.8269 148.833C51.8473 148.854 51.8627 148.879 51.8716 148.906C51.8806 148.934 51.883 148.963 51.8785 148.992C51.8785 150.251 53.7155 151.275 55.9463 151.275C58.177 151.275 60.0403 150.251 60.0403 148.992C60.0365 148.966 60.0385 148.939 60.046 148.913C60.0535 148.888 60.0664 148.864 60.0839 148.845C60.1013 148.825 60.1229 148.809 60.1471 148.798C60.1713 148.787 60.1975 148.781 60.224 148.782C60.2526 148.777 60.2819 148.78 60.3094 148.789C60.3369 148.798 60.362 148.813 60.3824 148.833C60.4029 148.854 60.4182 148.879 60.4272 148.906C60.4362 148.934 60.4385 148.963 60.434 148.992C60.434 150.461 58.4394 151.616 55.9463 151.616Z" fill="#084C94"/>
<path d="M55.946 151.38C53.479 151.38 51.4845 150.173 51.4845 148.755C51.4841 148.704 51.5026 148.654 51.5364 148.615C51.5703 148.577 51.6172 148.552 51.6682 148.545C51.7239 148.545 51.7773 148.567 51.8167 148.607C51.8561 148.646 51.8782 148.7 51.8782 148.755C51.8782 150.015 53.7152 151.039 55.946 151.039C58.1767 151.039 60.04 150.015 60.04 148.755C60.0396 148.704 60.0581 148.654 60.092 148.615C60.1259 148.577 60.1727 148.552 60.2238 148.545C60.2794 148.545 60.3328 148.567 60.3722 148.607C60.4116 148.646 60.4337 148.7 60.4337 148.755C60.4337 150.173 58.4392 151.38 55.946 151.38Z" fill="#3F92D1"/>
<path d="M55.9463 147.679C53.4793 147.679 51.4848 146.472 51.4848 145.055C51.481 145.029 51.483 145.002 51.4905 144.977C51.498 144.951 51.5109 144.928 51.5284 144.908C51.5458 144.888 51.5674 144.872 51.5916 144.861C51.6157 144.85 51.642 144.845 51.6685 144.845C51.6971 144.84 51.7263 144.843 51.7539 144.852C51.7814 144.861 51.8064 144.876 51.8269 144.897C51.8473 144.917 51.8627 144.942 51.8716 144.97C51.8806 144.997 51.883 145.026 51.8785 145.055C51.8785 146.315 53.7155 147.338 55.9463 147.338C58.177 147.338 60.0403 146.315 60.0403 145.055C60.0365 145.029 60.0385 145.002 60.046 144.977C60.0535 144.951 60.0664 144.928 60.0839 144.908C60.1013 144.888 60.1229 144.872 60.1471 144.861C60.1713 144.85 60.1975 144.845 60.224 144.845C60.2526 144.84 60.2819 144.843 60.3094 144.852C60.3369 144.861 60.362 144.876 60.3824 144.897C60.4029 144.917 60.4182 144.942 60.4272 144.97C60.4362 144.997 60.4385 145.026 60.434 145.055C60.434 146.472 58.4394 147.679 55.9463 147.679Z" fill="#084C94"/>
<path d="M55.946 147.443C53.479 147.443 51.4845 146.236 51.4845 144.819C51.4841 144.767 51.5026 144.718 51.5364 144.679C51.5703 144.64 51.6172 144.615 51.6682 144.609C51.7239 144.609 51.7773 144.631 51.8167 144.67C51.8561 144.71 51.8782 144.763 51.8782 144.819C51.8782 146.079 53.7152 147.102 55.946 147.102C58.1767 147.102 60.04 146.079 60.04 144.819C60.0396 144.767 60.0581 144.718 60.092 144.679C60.1259 144.64 60.1727 144.615 60.2238 144.609C60.2794 144.609 60.3328 144.631 60.3722 144.67C60.4116 144.71 60.4337 144.763 60.4337 144.819C60.4337 146.236 58.4392 147.443 55.946 147.443Z" fill="#3F92D1"/>
<path d="M236.216 57.1377L106.098 131.881V128.285L236.216 53.5422V57.1377Z" fill="#72B5E8"/>
<path d="M235.035 52.9647L104.917 127.681L106.098 128.285L236.216 53.542L235.035 52.9647Z" fill="#D1EBFF"/>
<path d="M104.944 131.224L106.098 131.88V128.285L104.944 127.629V131.224Z" fill="#A8CFF0"/>
<path d="M236.111 57.1902L232.962 59.001L228.553 57.9512L231.702 56.1404L236.111 57.1902Z" fill="#D62D69"/>
<path d="M226.742 62.5701L223.619 64.381L219.21 63.3312L222.333 61.5204L226.742 62.5701Z" fill="#D62D69"/>
<path d="M217.399 67.9501L214.25 69.7609L209.841 68.7112L212.99 66.9003L217.399 67.9501Z" fill="#D62D69"/>
<path d="M208.03 73.3039L204.907 75.1147L200.498 74.065L203.621 72.2542L208.03 73.3039Z" fill="#D62D69"/>
<path d="M198.661 78.6838L195.538 80.4947L191.129 79.4449L194.278 77.6341L198.661 78.6838Z" fill="#D62D69"/>
<path d="M189.318 84.0638L186.195 85.8746L181.786 84.8249L184.909 83.014L189.318 84.0638Z" fill="#D62D69"/>
<path d="M179.975 89.4439L176.826 91.2284L172.417 90.1787L175.566 88.3679L179.975 89.4439Z" fill="#D62D69"/>
<path d="M170.606 94.7976L167.483 96.6084L163.074 95.5587L166.197 93.7479L170.606 94.7976Z" fill="#D62D69"/>
<path d="M161.237 100.178L158.114 101.988L153.705 100.939L156.854 99.1278L161.237 100.178Z" fill="#D62D69"/>
<path d="M151.894 105.558L148.771 107.342L144.362 106.319L147.485 104.508L151.894 105.558Z" fill="#D62D69"/>
<path d="M142.525 110.911L139.402 112.722L134.993 111.672L138.142 109.862L142.525 110.911Z" fill="#D62D69"/>
<path d="M133.182 116.292L130.033 118.103L125.65 117.053L128.773 115.242L133.182 116.292Z" fill="#D62D69"/>
<path d="M123.813 121.672L120.69 123.482L116.281 122.406L119.43 120.622L123.813 121.672Z" fill="#D62D69"/>
<path d="M114.47 127.025L111.321 128.836L106.938 127.786L110.061 125.976L114.47 127.025Z" fill="#D62D69"/>
<path d="M23.2461 180.747L31.198 185.261L32.4315 184.5L31.1718 185.077L23.2461 180.747Z" fill="#72B5E8"/>
</svg>
